# Blender v2.91.0 OBJ File: 'axis_scale.blend'
# www.blender.org
mtllib axis_scale_x.mtl
o Cylinder.001
v 0.140766 -0.005341 0.000000
v 0.424468 -0.005341 0.000000
v 0.424468 0.002670 -0.004625
v 0.140766 0.002670 -0.004625
v 0.424468 0.002670 0.004625
v 0.140766 0.002670 0.004625
v 0.406424 0.046786 -0.046787
v 0.406424 -0.046787 -0.046787
v 0.499998 0.046786 -0.046787
v 0.499998 -0.046787 -0.046787
v 0.406424 0.046786 0.046787
v 0.406424 -0.046787 0.046787
v 0.499998 0.046786 0.046787
v 0.499998 -0.046787 0.046787
vt 0.375000 0.000000
vt 0.625000 0.000000
vt 0.625000 0.250000
vt 0.375000 0.250000
vt 0.625000 0.500000
vt 0.375000 0.500000
vt 0.625000 0.750000
vt 0.375000 0.750000
vt 0.625000 1.000000
vt 0.375000 1.000000
vt 0.125000 0.500000
vt 0.125000 0.750000
vt 0.875000 0.500000
vt 0.875000 0.750000
vt 1.000000 0.500000
vt 1.000000 1.000000
vt 0.666667 1.000000
vt 0.666667 0.500000
vt 0.333333 1.000000
vt 0.333333 0.500000
vt -0.000000 1.000000
vt -0.000000 0.500000
vn 0.0000 0.0000 1.0000
vn -1.0000 -0.0000 0.0000
vn 0.0000 -0.0000 -1.0000
vn 1.0000 0.0000 -0.0000
vn -0.0000 -1.0000 0.0000
vn 0.0000 1.0000 -0.0000
vn 0.0000 0.5000 0.8660
vn 0.0000 0.5000 -0.8660
usemtl None.001
s off
f 7/1/1 8/2/1 10/3/1 9/4/1
f 9/4/2 10/3/2 14/5/2 13/6/2
f 13/6/3 14/5/3 12/7/3 11/8/3
f 11/8/4 12/7/4 8/9/4 7/10/4
f 9/11/5 13/6/5 11/8/5 7/12/5
f 14/5/6 10/13/6 8/14/6 12/7/6
s 1
f 1/15/7 2/16/7 3/17/7 4/18/7
f 4/18/5 3/17/5 5/19/5 6/20/5
f 6/20/8 5/19/8 2/21/8 1/22/8
f 4/18/4 6/20/4 1/22/4
