# Blender v2.82 (sub 7) OBJ File: 'soundplayer.blend'
# www.blender.org
mtllib soundplayer.mtl
o Cylinder
v -0.000000 0.170129 0.000000
v 0.000000 0.297014 0.348536
v 0.120299 0.120299 0.000000
v 0.210020 0.210020 0.348536
v 0.170129 -0.000000 -0.000000
v 0.297014 -0.000000 0.348536
v 0.120299 -0.120299 -0.000000
v 0.210020 -0.210021 0.348536
v -0.000000 -0.170129 -0.000000
v -0.000000 -0.297014 0.348536
v -0.120299 -0.120299 -0.000000
v -0.210021 -0.210020 0.348536
v -0.170129 -0.000000 -0.000000
v -0.297014 -0.000000 0.348536
v -0.120299 0.120299 0.000000
v -0.210021 0.210020 0.348536
v -0.000000 0.169857 0.136617
v 0.120107 0.120107 0.136617
v 0.169857 -0.000000 0.136617
v 0.120107 -0.120107 0.136617
v -0.000000 -0.169857 0.136617
v -0.120107 -0.120107 0.136617
v -0.169857 -0.000000 0.136617
v -0.120107 0.120107 0.136617
v -0.000000 0.077701 0.136617
v 0.054943 0.054943 0.136617
v 0.077701 -0.000000 0.136617
v 0.054943 -0.054943 0.136617
v -0.000000 -0.077701 0.136617
v -0.054943 -0.054943 0.136617
v -0.077701 -0.000000 0.136617
v -0.054943 0.054943 0.136617
v -0.000000 0.242412 0.295775
v 0.171411 0.171411 0.295775
v 0.242412 -0.000000 0.295775
v 0.171411 -0.171411 0.295775
v -0.000000 -0.242412 0.295775
v -0.171411 -0.171411 0.295775
v -0.242412 -0.000000 0.295775
v -0.171411 0.171411 0.295775
v 0.103728 0.103728 0.136617
v 0.146694 -0.000000 0.136617
v 0.103728 -0.103728 0.136617
v -0.000000 -0.146694 0.136617
v -0.103728 -0.103728 0.136617
v -0.146694 -0.000000 0.136617
v -0.103728 0.103728 0.136617
v -0.000000 0.146694 0.136617
v -0.000000 0.144845 0.000000
v 0.102421 0.102421 0.000000
v 0.144845 -0.000000 -0.000000
v 0.102421 -0.102421 -0.000000
v -0.000000 -0.144845 -0.000000
v -0.102421 -0.102421 -0.000000
v -0.144845 -0.000000 -0.000000
v -0.102421 0.102421 0.000000
vt 0.017704 0.425580
vt 0.017704 0.425580
vt 0.017704 0.425580
vt 0.017704 0.425580
vt 0.017704 0.425580
vt 0.017704 0.425580
vt 0.017704 0.425580
vt 0.017704 0.425580
vt 0.017704 0.425580
vt 0.017704 0.425580
vt 0.017704 0.425580
vt 0.017704 0.425580
vt 0.017704 0.425580
vt 0.017704 0.425580
vt 0.358246 0.013388
vt 0.500597 0.144095
vt 0.500597 0.328943
vt 0.358246 0.459651
vt 0.156931 0.459651
vt 0.014581 0.328943
vt 0.014580 0.144095
vt 0.156931 0.013388
vt 0.017704 0.425580
vt 0.017704 0.425580
vt 0.497308 0.917463
vt 0.497458 0.992332
vt 0.497458 0.992332
vt 0.497308 0.917463
vt 0.497458 0.736714
vt 0.618444 0.736918
vt 0.618294 0.811667
vt 0.497308 0.811582
vt 0.856350 0.661456
vt 0.977336 0.661372
vt 0.977486 0.736121
vt 0.856500 0.736325
vt 0.856350 0.555576
vt 0.977336 0.555660
vt 0.856500 0.480707
vt 0.977486 0.480911
vt 0.625710 0.840348
vt 0.746696 0.840348
vt 0.746784 0.915097
vt 0.625798 0.915217
vt 0.625798 0.734468
vt 0.746784 0.734636
vt 0.618294 0.917378
vt 0.618444 0.992127
vt 0.612774 0.245465
vt 0.636155 0.193634
vt 0.688821 0.193634
vt 0.712202 0.245465
vt 0.542467 0.180909
vt 0.598915 0.159440
vt 0.542467 0.089614
vt 0.598915 0.111083
vt 0.612774 0.025058
vt 0.636155 0.076888
vt 0.712202 0.025058
vt 0.688821 0.076888
vt 0.782508 0.089614
vt 0.726061 0.111082
vt 0.782508 0.180909
vt 0.726061 0.159440
vt 0.796169 0.677123
vt 0.693027 0.582417
vt 0.844825 0.524683
vt 0.844825 0.658617
vt 0.776015 0.721799
vt 0.630150 0.721799
vt 0.719380 0.344313
vt 0.860079 0.293059
vt 0.860079 0.443925
vt 0.719380 0.392671
vt 0.517357 0.524961
vt 0.414215 0.619666
vt 0.351338 0.480284
vt 0.497203 0.480284
vt 0.566013 0.543466
vt 0.566013 0.677400
vt 0.708139 0.392671
vt 0.567440 0.443925
vt 0.567440 0.293059
vt 0.708139 0.344313
vt 0.815182 0.073791
vt 0.949943 0.022536
vt 0.949943 0.173403
vt 0.815182 0.122148
vt 0.488054 0.851193
vt 0.347355 0.902447
vt 0.347355 0.751581
vt 0.488054 0.802836
vt 0.992233 0.606501
vt 0.992233 0.606501
vt 0.992233 0.606501
vt 0.992233 0.606501
vt 0.992233 0.606501
vt 0.992233 0.606501
vt 0.992233 0.606501
vt 0.992233 0.606501
vt 0.992233 0.606501
vt 0.992233 0.606501
vt 0.992233 0.606501
vt 0.992233 0.606501
vt 0.992233 0.606501
vt 0.992233 0.606501
vt 0.992233 0.606501
vt 0.992233 0.606501
vt 0.286740 0.661456
vt 0.205202 0.736325
vt 0.089890 0.736325
vt 0.008352 0.661456
vt 0.008352 0.555576
vt 0.089890 0.480707
vt 0.205202 0.480707
vt 0.286741 0.555576
vt 0.856350 0.555576
vt 0.856500 0.480707
vt 0.497308 0.811582
vt 0.497458 0.736714
vt 0.625710 0.840348
vt 0.625798 0.734468
vt 0.856350 0.661456
vt 0.625798 0.915217
vt 0.856500 0.736325
vn 0.2766 0.6678 -0.6911
vn 0.6678 0.2766 -0.6911
vn 0.6678 -0.2766 -0.6911
vn 0.2766 -0.6678 -0.6911
vn -0.2766 -0.6678 -0.6911
vn -0.6678 -0.2766 -0.6911
vn -0.0000 0.0000 1.0000
vn -0.6678 0.2766 -0.6911
vn -0.2766 0.6678 -0.6911
vn -0.0000 0.0000 -1.0000
vn -0.3827 0.9239 0.0018
vn -0.9239 0.3827 0.0018
vn -0.9239 -0.3827 0.0018
vn -0.3827 -0.9239 0.0018
vn 0.3827 -0.9239 0.0018
vn 0.9239 -0.3827 0.0018
vn 0.9239 0.3827 0.0018
vn 0.3827 0.9239 0.0018
usemtl Material
s off
f 33/1/1 2/2/1 4/3/1 34/4/1
f 34/4/2 4/3/2 6/5/2 35/6/2
f 35/6/3 6/5/3 8/7/3 36/8/3
f 36/8/4 8/7/4 10/9/4 37/10/4
f 37/10/5 10/9/5 12/11/5 38/12/5
f 38/12/6 12/11/6 14/13/6 39/14/6
f 4/15/7 2/16/7 16/17/7 14/18/7 12/19/7 10/20/7 8/21/7 6/22/7
f 39/14/8 14/13/8 16/23/8 40/24/8
f 40/24/9 16/23/9 2/2/9 33/1/9
f 3/25/10 5/26/10 51/27/10 50/28/10
f 15/29/11 24/30/11 17/31/11 1/32/11
f 13/33/12 23/34/12 24/35/12 15/36/12
f 11/37/13 22/38/13 23/34/13 13/33/13
f 9/39/14 21/40/14 22/38/14 11/37/14
f 7/41/15 20/42/15 21/43/15 9/44/15
f 5/45/16 19/46/16 20/42/16 7/41/16
f 3/25/17 18/47/17 19/48/17 5/26/17
f 1/32/18 17/31/18 18/47/18 3/25/18
f 47/49/7 32/50/7 25/51/7 48/52/7
f 46/53/7 31/54/7 32/50/7 47/49/7
f 45/55/7 30/56/7 31/54/7 46/53/7
f 44/57/7 29/58/7 30/56/7 45/55/7
f 43/59/7 28/60/7 29/58/7 44/57/7
f 42/61/7 27/62/7 28/60/7 43/59/7
f 41/63/7 26/64/7 27/62/7 42/61/7
f 48/52/7 25/51/7 26/64/7 41/63/7
f 32/65/9 40/66/9 33/67/9 25/68/9
f 31/69/8 39/70/8 40/66/8 32/65/8
f 30/71/6 38/72/6 39/73/6 31/74/6
f 29/75/5 37/76/5 38/77/5 30/78/5
f 28/79/4 36/80/4 37/76/4 29/75/4
f 27/81/3 35/82/3 36/83/3 28/84/3
f 26/85/2 34/86/2 35/87/2 27/88/2
f 25/89/1 33/90/1 34/91/1 26/92/1
f 17/93/7 48/94/7 41/95/7 18/96/7
f 18/96/7 41/95/7 42/97/7 19/98/7
f 19/98/7 42/97/7 43/99/7 20/100/7
f 20/100/7 43/99/7 44/101/7 21/102/7
f 21/102/7 44/101/7 45/103/7 22/104/7
f 22/104/7 45/103/7 46/105/7 23/106/7
f 23/106/7 46/105/7 47/107/7 24/108/7
f 24/108/7 47/107/7 48/94/7 17/93/7
f 49/109/10 50/110/10 51/111/10 52/112/10 53/113/10 54/114/10 55/115/10 56/116/10
f 9/39/10 11/37/10 54/117/10 53/118/10
f 15/29/10 1/32/10 49/119/10 56/120/10
f 1/32/10 3/25/10 50/28/10 49/119/10
f 5/45/10 7/41/10 52/121/10 51/122/10
f 11/37/10 13/33/10 55/123/10 54/117/10
f 7/41/10 9/44/10 53/124/10 52/121/10
f 13/33/10 15/36/10 56/125/10 55/123/10
