# Blender v2.82 (sub 7) OBJ File: 'point.blend'
# www.blender.org
mtllib point.mtl
o Sphere
v 0.000000 0.433013 -0.250000
v 0.000000 -0.250000 -0.433013
v -0.000000 0.500000 -0.000000
v 0.176777 0.433013 -0.176777
v 0.306186 0.250000 -0.306186
v 0.353553 -0.000000 -0.353554
v 0.306186 -0.250000 -0.306186
v 0.176777 -0.433013 -0.176777
v 0.250000 0.433013 -0.000000
v 0.433013 0.250000 -0.000000
v 0.500000 -0.000000 -0.000000
v 0.433013 -0.250000 -0.000000
v 0.250000 -0.433013 -0.000000
v 0.176777 0.433013 0.176777
v 0.306186 0.250000 0.306186
v 0.353553 -0.000000 0.353553
v 0.306186 -0.250000 0.306186
v 0.176777 -0.433013 0.176777
v 0.000000 -0.500000 -0.000000
v -0.000000 0.433013 0.250000
v 0.000000 0.250000 0.433013
v 0.000000 -0.000000 0.500000
v 0.000000 -0.250000 0.433013
v -0.000000 -0.433013 0.250000
v -0.176777 0.433013 0.176777
v -0.306186 0.250000 0.306186
v -0.353553 -0.000000 0.353553
v -0.306186 -0.250000 0.306186
v -0.176777 -0.433013 0.176777
v -0.250000 0.433013 -0.000000
v -0.433013 0.250000 -0.000000
v -0.500000 -0.000000 -0.000000
v -0.433013 -0.250000 -0.000000
v -0.250000 -0.433013 -0.000000
v -0.176777 0.433013 -0.176777
v -0.306186 0.250000 -0.306186
v -0.353553 -0.000000 -0.353553
v -0.306186 -0.250000 -0.306186
v -0.176777 -0.433013 -0.176777
v -0.000000 0.250000 -0.433013
v 0.000000 -0.000000 -0.500000
v -0.000000 -0.433013 -0.250000
vt 0.750000 0.166667
vt 0.750000 0.333333
vt 0.625000 0.333333
vt 0.625000 0.166667
vt 0.750000 0.500000
vt 0.750000 0.666667
vt 0.625000 0.666667
vt 0.625000 0.500000
vt 0.750000 0.833333
vt 0.687500 1.000000
vt 0.625000 0.833333
vt 0.687500 0.000000
vt 0.500000 0.333333
vt 0.500000 0.166667
vt 0.500000 0.666667
vt 0.500000 0.500000
vt 0.562500 1.000000
vt 0.500000 0.833333
vt 0.562500 0.000000
vt 0.375000 0.666667
vt 0.375000 0.500000
vt 0.437500 1.000000
vt 0.375000 0.833333
vt 0.437500 0.000000
vt 0.375000 0.166667
vt 0.375000 0.333333
vt 0.312500 1.000000
vt 0.250000 0.833333
vt 0.312500 0.000000
vt 0.250000 0.166667
vt 0.250000 0.500000
vt 0.250000 0.333333
vt 0.250000 0.666667
vt 0.187500 0.000000
vt 0.125000 0.166667
vt 0.125000 0.500000
vt 0.125000 0.333333
vt 0.125000 0.833333
vt 0.125000 0.666667
vt 0.187500 1.000000
vt 0.062500 0.000000
vt 0.000000 0.166667
vt 0.000000 0.500000
vt 0.000000 0.333333
vt 0.000000 0.833333
vt 0.000000 0.666667
vt 0.062500 1.000000
vt 0.937500 0.000000
vt 1.000000 0.166667
vt 0.875000 0.166667
vt 1.000000 0.333333
vt 1.000000 0.500000
vt 0.875000 0.500000
vt 0.875000 0.333333
vt 1.000000 0.666667
vt 1.000000 0.833333
vt 0.875000 0.833333
vt 0.875000 0.666667
vt 0.937500 1.000000
vt 0.812500 1.000000
vt 0.812500 0.000000
vn 0.2811 -0.6786 -0.6786
vn 0.3715 0.2403 -0.8968
vn 0.1066 0.9604 -0.2573
vn 0.1066 -0.9604 -0.2573
vn 0.3715 -0.2403 -0.8968
vn 0.2811 0.6786 -0.6786
vn 0.6786 -0.6786 -0.2811
vn 0.8968 0.2403 -0.3715
vn 0.2573 0.9604 -0.1066
vn 0.2573 -0.9604 -0.1066
vn 0.8968 -0.2403 -0.3715
vn 0.6786 0.6786 -0.2811
vn 0.8968 0.2403 0.3715
vn 0.2573 0.9604 0.1066
vn 0.2573 -0.9604 0.1066
vn 0.8968 -0.2403 0.3715
vn 0.6786 0.6786 0.2811
vn 0.6786 -0.6786 0.2811
vn 0.1066 0.9604 0.2573
vn 0.1066 -0.9604 0.2573
vn 0.3715 -0.2403 0.8968
vn 0.2811 0.6786 0.6786
vn 0.2811 -0.6786 0.6786
vn 0.3715 0.2403 0.8968
vn -0.1066 -0.9604 0.2573
vn -0.3715 -0.2403 0.8968
vn -0.2811 0.6786 0.6786
vn -0.2811 -0.6786 0.6786
vn -0.3715 0.2403 0.8968
vn -0.1066 0.9604 0.2573
vn -0.2573 -0.9604 0.1066
vn -0.8968 -0.2403 0.3715
vn -0.6786 0.6786 0.2811
vn -0.6786 -0.6786 0.2811
vn -0.8968 0.2403 0.3715
vn -0.2573 0.9604 0.1066
vn -0.2573 -0.9604 -0.1066
vn -0.8968 -0.2403 -0.3715
vn -0.6786 0.6786 -0.2811
vn -0.6786 -0.6786 -0.2811
vn -0.8968 0.2403 -0.3715
vn -0.2573 0.9604 -0.1066
vn -0.3715 -0.2403 -0.8968
vn -0.2811 0.6786 -0.6786
vn -0.2811 -0.6786 -0.6786
vn -0.3715 0.2403 -0.8968
vn -0.1066 0.9604 -0.2573
vn -0.1066 -0.9604 -0.2573
usemtl None
s off
f 42/1/1 2/2/1 7/3/1 8/4/1
f 41/5/2 40/6/2 5/7/2 6/8/2
f 1/9/3 3/10/3 4/11/3
f 19/12/4 42/1/4 8/4/4
f 2/2/5 41/5/5 6/8/5 7/3/5
f 40/6/6 1/9/6 4/11/6 5/7/6
f 8/4/7 7/3/7 12/13/7 13/14/7
f 6/8/8 5/7/8 10/15/8 11/16/8
f 4/11/9 3/17/9 9/18/9
f 19/19/10 8/4/10 13/14/10
f 7/3/11 6/8/11 11/16/11 12/13/11
f 5/7/12 4/11/12 9/18/12 10/15/12
f 11/16/13 10/15/13 15/20/13 16/21/13
f 9/18/14 3/22/14 14/23/14
f 19/24/15 13/14/15 18/25/15
f 12/13/16 11/16/16 16/21/16 17/26/16
f 10/15/17 9/18/17 14/23/17 15/20/17
f 13/14/18 12/13/18 17/26/18 18/25/18
f 14/23/19 3/27/19 20/28/19
f 19/29/20 18/25/20 24/30/20
f 17/26/21 16/21/21 22/31/21 23/32/21
f 15/20/22 14/23/22 20/28/22 21/33/22
f 18/25/23 17/26/23 23/32/23 24/30/23
f 16/21/24 15/20/24 21/33/24 22/31/24
f 19/34/25 24/30/25 29/35/25
f 23/32/26 22/31/26 27/36/26 28/37/26
f 21/33/27 20/28/27 25/38/27 26/39/27
f 24/30/28 23/32/28 28/37/28 29/35/28
f 22/31/29 21/33/29 26/39/29 27/36/29
f 20/28/30 3/40/30 25/38/30
f 19/41/31 29/35/31 34/42/31
f 28/37/32 27/36/32 32/43/32 33/44/32
f 26/39/33 25/38/33 30/45/33 31/46/33
f 29/35/34 28/37/34 33/44/34 34/42/34
f 27/36/35 26/39/35 31/46/35 32/43/35
f 25/38/36 3/47/36 30/45/36
f 19/48/37 34/49/37 39/50/37
f 33/51/38 32/52/38 37/53/38 38/54/38
f 31/55/39 30/56/39 35/57/39 36/58/39
f 34/49/40 33/51/40 38/54/40 39/50/40
f 32/52/41 31/55/41 36/58/41 37/53/41
f 30/56/42 3/59/42 35/57/42
f 38/54/43 37/53/43 41/5/43 2/2/43
f 36/58/44 35/57/44 1/9/44 40/6/44
f 39/50/45 38/54/45 2/2/45 42/1/45
f 37/53/46 36/58/46 40/6/46 41/5/46
f 35/57/47 3/60/47 1/9/47
f 19/61/48 39/50/48 42/1/48
