# Blender v2.92.0 OBJ File: 'axis_projection.blend'
# www.blender.org
mtllib axis_projection_x.mtl
o Cylinder.001
v 0.000000 -0.000000 -0.000000
v 0.499998 0.046787 0.046787
v 0.499998 0.046787 -0.046787
v 0.499998 -0.046787 0.046787
v 0.499998 -0.046787 -0.046787
vt 0.625000 0.000000
vt 0.625000 0.250000
vt 0.375000 0.250000
vt 0.625000 0.500000
vt 0.375000 0.500000
vt 0.375000 0.750000
vt 0.125000 0.500000
vt 0.125000 0.750000
vt 0.875000 0.500000
vt 0.625000 0.750000
vn 0.0932 -0.9957 0.0000
vn -1.0000 -0.0000 -0.0000
vn 0.0932 0.9957 -0.0000
vn 0.0932 -0.0000 -0.9957
vn 0.0932 0.0000 0.9957
usemtl None.001
s off
f 1/1/1 3/2/1 2/3/1
f 2/3/2 3/2/2 5/4/2 4/5/2
f 4/5/3 5/4/3 1/6/3
f 2/7/4 4/5/4 1/8/4
f 5/4/5 3/9/5 1/10/5
