# Blender v2.91.0 OBJ File: 'axis_rot.blend'
# www.blender.org
mtllib axis_rot_y.mtl
o Circle
v 0.000000 0.008084 0.500000
v -0.129410 0.008084 0.482963
v -0.250000 0.008084 0.433013
v -0.353553 0.008084 0.353553
v -0.433013 0.008084 0.250000
v -0.482963 0.008084 0.129410
v -0.500000 0.008084 0.000000
v -0.482963 0.008084 -0.129409
v -0.433013 0.008084 -0.250000
v -0.353553 0.008084 -0.353553
v -0.250000 0.008084 -0.433013
v -0.129410 0.008084 -0.482963
v -0.000000 0.008084 -0.500000
v 0.129409 0.008084 -0.482963
v 0.250000 0.008084 -0.433013
v 0.353553 0.008084 -0.353554
v 0.433013 0.008084 -0.250000
v 0.482963 0.008084 -0.129410
v 0.500000 0.008084 -0.000000
v 0.482963 0.008084 0.129409
v 0.433013 0.008084 0.250000
v 0.353554 0.008084 0.353553
v 0.250000 0.008084 0.433013
v 0.129410 0.008084 0.482963
v 0.000000 -0.008084 0.500000
v -0.129410 -0.008084 0.482963
v -0.250000 -0.008084 0.433013
v -0.353553 -0.008084 0.353553
v -0.433013 -0.008084 0.250000
v -0.482963 -0.008084 0.129410
v -0.500000 -0.008084 0.000000
v -0.482963 -0.008084 -0.129409
v -0.433013 -0.008084 -0.250000
v -0.353553 -0.008084 -0.353553
v -0.250000 -0.008084 -0.433013
v -0.129410 -0.008084 -0.482963
v -0.000000 -0.008084 -0.500000
v 0.129409 -0.008084 -0.482963
v 0.250000 -0.008084 -0.433013
v 0.353553 -0.008084 -0.353554
v 0.433013 -0.008084 -0.250000
v 0.482963 -0.008084 -0.129410
v 0.500000 -0.008084 -0.000000
v 0.482963 -0.008084 0.129409
v 0.433013 -0.008084 0.250000
v 0.353554 -0.008084 0.353553
v 0.250000 -0.008084 0.433013
v 0.129410 -0.008084 0.482963
vt 0.000000 0.000000
vt 0.000000 0.000000
vt 0.000000 0.000000
vt 0.000000 0.000000
vt 0.000000 0.000000
vt 0.000000 0.000000
vt 0.000000 0.000000
vt 0.000000 0.000000
vt 0.000000 0.000000
vt 0.000000 0.000000
vt 0.000000 0.000000
vt 0.000000 0.000000
vt 0.000000 0.000000
vt 0.000000 0.000000
vt 0.000000 0.000000
vt 0.000000 0.000000
vt 0.000000 0.000000
vt 0.000000 0.000000
vt 0.000000 0.000000
vt 0.000000 0.000000
vt 0.000000 0.000000
vt 0.000000 0.000000
vt 0.000000 0.000000
vt 0.000000 0.000000
vt 0.000000 0.000000
vt 0.000000 0.000000
vt 0.000000 0.000000
vt 0.000000 0.000000
vt 0.000000 0.000000
vt 0.000000 0.000000
vt 0.000000 0.000000
vt 0.000000 0.000000
vt 0.000000 0.000000
vt 0.000000 0.000000
vt 0.000000 0.000000
vt 0.000000 0.000000
vt 0.000000 0.000000
vt 0.000000 0.000000
vt 0.000000 0.000000
vt 0.000000 0.000000
vt 0.000000 0.000000
vt 0.000000 0.000000
vt 0.000000 0.000000
vt 0.000000 0.000000
vt 0.000000 0.000000
vt 0.000000 0.000000
vt 0.000000 0.000000
vt 0.000000 0.000000
vn -0.1305 0.0000 -0.9914
vn -0.9239 0.0000 0.3827
vn 0.9239 0.0000 0.3827
vn 0.1305 0.0000 -0.9914
vn -0.9914 0.0000 0.1305
vn 0.7934 0.0000 0.6088
vn 0.3827 0.0000 -0.9239
vn -0.9914 -0.0000 -0.1305
vn 0.6088 0.0000 0.7934
vn 0.6088 0.0000 -0.7934
vn -0.9239 0.0000 -0.3827
vn 0.3827 0.0000 0.9239
vn -0.1305 0.0000 0.9914
vn 0.7934 0.0000 -0.6088
vn -0.7934 0.0000 -0.6088
vn 0.1305 0.0000 0.9914
vn -0.3827 0.0000 0.9239
vn 0.9239 0.0000 -0.3827
vn -0.6088 0.0000 -0.7934
vn -0.6088 0.0000 0.7934
vn 0.9914 -0.0000 -0.1305
vn -0.3827 0.0000 -0.9239
vn -0.7934 0.0000 0.6088
vn 0.9914 0.0000 0.1305
usemtl None
s off
f 13/1/1 37/2/1 36/3/1 12/4/1
f 6/5/2 30/6/2 29/7/2 5/8/2
f 21/9/3 45/10/3 44/11/3 20/12/3
f 14/13/4 38/14/4 37/2/4 13/1/4
f 7/15/5 31/16/5 30/6/5 6/5/5
f 22/17/6 46/18/6 45/10/6 21/9/6
f 15/19/7 39/20/7 38/14/7 14/13/7
f 8/21/8 32/22/8 31/16/8 7/15/8
f 23/23/9 47/24/9 46/18/9 22/17/9
f 16/25/10 40/26/10 39/20/10 15/19/10
f 9/27/11 33/28/11 32/22/11 8/21/11
f 24/29/12 48/30/12 47/24/12 23/23/12
f 2/31/13 26/32/13 25/33/13 1/34/13
f 17/35/14 41/36/14 40/26/14 16/25/14
f 10/37/15 34/38/15 33/28/15 9/27/15
f 1/34/16 25/33/16 48/30/16 24/29/16
f 3/39/17 27/40/17 26/32/17 2/31/17
f 18/41/18 42/42/18 41/36/18 17/35/18
f 11/43/19 35/44/19 34/38/19 10/37/19
f 4/45/20 28/46/20 27/40/20 3/39/20
f 19/47/21 43/48/21 42/42/21 18/41/21
f 12/4/22 36/3/22 35/44/22 11/43/22
f 5/8/23 29/7/23 28/46/23 4/45/23
f 20/12/24 44/11/24 43/48/24 19/47/24
