# Blender v2.92.0 OBJ File: 'axis.blend'
# www.blender.org
mtllib axis_pos_x.mtl
o Cylinder.001
v 0.000000 -0.010688 -0.000000
v 1.005482 -0.010686 -0.000000
v 1.005482 0.005346 -0.009256
v -0.000000 0.005344 -0.009256
v 1.005482 0.005346 0.009256
v -0.000000 0.005344 0.009256
vt 1.000000 0.500000
vt 1.000000 1.000000
vt 0.666667 1.000000
vt 0.666667 0.500000
vt 0.333333 1.000000
vt 0.333333 0.500000
vt -0.000000 1.000000
vt -0.000000 0.500000
vn -0.0000 0.5000 0.8660
vn 0.0000 -1.0000 -0.0000
vn -0.0000 0.5000 -0.8660
vn 1.0000 0.0000 -0.0000
usemtl None.001
s 1
f 1/1/1 2/2/1 3/3/1 4/4/1
f 4/4/2 3/3/2 5/5/2 6/6/2
f 6/6/3 5/5/3 2/7/3 1/8/3
f 4/4/4 6/6/4 1/8/4
