# Blender v2.91.0 OBJ File: 'axis_all.blend'
# www.blender.org
mtllib axis_all.mtl
o Cylinder.002
v -0.284531 -0.224071 -0.195940
v -0.214757 -0.285865 -0.204253
v -0.268619 -0.339317 -0.259005
v -0.338393 -0.277524 -0.250693
v -0.237210 -0.293706 -0.334432
v -0.306983 -0.231912 -0.326120
v -0.183348 -0.240253 -0.279679
v -0.253122 -0.178460 -0.271367
v -0.077043 -0.083937 -0.082840
v -0.240343 -0.245996 -0.248842
v -0.247869 -0.242960 -0.244403
v -0.084569 -0.080901 -0.078401
v -0.244765 -0.238452 -0.251859
v -0.081464 -0.076392 -0.085857
vt 0.375000 0.000000
vt 0.625000 0.000000
vt 0.625000 0.250000
vt 0.375000 0.250000
vt 0.625000 0.500000
vt 0.375000 0.500000
vt 0.625000 0.750000
vt 0.375000 0.750000
vt 0.625000 1.000000
vt 0.375000 1.000000
vt 0.125000 0.500000
vt 0.125000 0.750000
vt 0.875000 0.500000
vt 0.875000 0.750000
vt 1.000000 0.500000
vt 1.000000 1.000000
vt 0.666667 1.000000
vt 0.666667 0.500000
vt 0.333333 1.000000
vt 0.333333 0.500000
vt -0.000000 1.000000
vt -0.000000 0.500000
vn 0.3357 0.4874 -0.8061
vn 0.5756 0.5712 0.5851
vn -0.3357 -0.4874 0.8061
vn -0.5756 -0.5712 -0.5851
vn 0.7457 -0.6604 -0.0888
vn -0.7457 0.6604 0.0888
vn -0.0821 0.7523 -0.6537
vn -0.6635 -0.0920 0.7425
usemtl None.004
s off
f 1/1/1 2/2/1 3/3/1 4/4/1
f 4/4/2 3/3/2 5/5/2 6/6/2
f 6/6/3 5/5/3 7/7/3 8/8/3
f 8/8/4 7/7/4 2/9/4 1/10/4
f 4/11/5 6/6/5 8/8/5 1/12/5
f 5/5/6 3/13/6 2/14/6 7/7/6
s 1
f 9/15/7 10/16/7 11/17/7 12/18/7
f 12/18/5 11/17/5 13/19/5 14/20/5
f 14/20/8 13/19/8 10/21/8 9/22/8
f 12/18/4 14/20/4 9/22/4
