# Blender v2.91.0 OBJ File: 'axis_toucharea.blend'
# www.blender.org
mtllib axis_toucharea_pa.mtl
o Cylinder.001_Cylinder.002
v -0.165325 -0.184608 -0.039160
v -0.516398 -0.544493 -0.311754
v -0.103124 -0.217157 -0.071795
v -0.428719 -0.590373 -0.357756
v -0.060517 -0.202757 -0.134808
v -0.368659 -0.570076 -0.446580
v -0.062462 -0.149846 -0.191287
v -0.371401 -0.495491 -0.526194
v -0.107820 -0.089416 -0.208148
v -0.435338 -0.410309 -0.549961
v -0.170021 -0.056868 -0.175514
v -0.523017 -0.364428 -0.503959
v -0.212628 -0.071267 -0.112501
v -0.583077 -0.384725 -0.415135
v -0.210683 -0.124179 -0.056021
v -0.580335 -0.459311 -0.335521
vt 1.000000 0.500000
vt 1.000000 1.000000
vt 0.875000 1.000000
vt 0.875000 0.500000
vt 0.750000 1.000000
vt 0.750000 0.500000
vt 0.625000 1.000000
vt 0.625000 0.500000
vt 0.500000 1.000000
vt 0.500000 0.500000
vt 0.375000 1.000000
vt 0.375000 0.500000
vt 0.250000 1.000000
vt 0.250000 0.500000
vt 0.419706 0.419706
vt 0.250000 0.490000
vt 0.080294 0.419706
vt 0.010000 0.250000
vt 0.080294 0.080294
vt 0.250000 0.010000
vt 0.419706 0.080294
vt 0.490000 0.250000
vt 0.125000 1.000000
vt 0.125000 0.500000
vt 0.000000 1.000000
vt 0.000000 0.500000
vt 0.750000 0.490000
vt 0.919706 0.419706
vt 0.990000 0.250000
vt 0.919706 0.080294
vt 0.750000 0.010000
vt 0.580294 0.080294
vt 0.510000 0.250000
vt 0.580294 0.419706
vn 0.0649 -0.6420 0.7640
vn 0.6244 -0.7389 0.2534
vn 0.8415 -0.3795 -0.3845
vn 0.5890 0.2255 -0.7761
vn 0.0148 0.7219 -0.6919
vn -0.5448 0.8188 -0.1812
vn -0.5948 -0.5968 -0.5386
vn -0.7618 0.4594 0.4567
vn -0.5093 -0.1456 0.8482
vn 0.5948 0.5968 0.5386
usemtl None
s off
f 1/1/1 2/2/1 4/3/1 3/4/1
f 3/4/2 4/3/2 6/5/2 5/6/2
f 5/6/3 6/5/3 8/7/3 7/8/3
f 7/8/4 8/7/4 10/9/4 9/10/4
f 9/10/5 10/9/5 12/11/5 11/12/5
f 11/12/6 12/11/6 14/13/6 13/14/6
f 4/15/7 2/16/7 16/17/7 14/18/7 12/19/7 10/20/7 8/21/7 6/22/7
f 13/14/8 14/13/8 16/23/8 15/24/8
f 15/24/9 16/23/9 2/25/9 1/26/9
f 1/27/10 3/28/10 5/29/10 7/30/10 9/31/10 11/32/10 13/33/10 15/34/10
