# Blender v2.91.0 OBJ File: 'axis_rot_toucharea.blend'
# www.blender.org
mtllib axis_rot_toucharea_x.mtl
o Circle
v -0.091986 -0.482963 -0.129410
v -0.091986 -0.433013 -0.250000
v -0.091986 -0.353553 -0.353553
v -0.091986 -0.250000 -0.433013
v -0.091986 -0.129409 -0.482963
v -0.091986 0.129410 -0.482963
v -0.091986 0.250000 -0.433013
v -0.091986 0.353553 -0.353553
v -0.091986 0.433013 -0.250000
v -0.091986 0.482963 -0.129410
v -0.091986 0.482963 0.129409
v -0.091986 0.433013 0.250000
v -0.091986 0.353554 0.353553
v -0.091986 0.250000 0.433013
v -0.091986 0.129410 0.482963
v -0.091986 -0.129409 0.482963
v -0.091986 -0.250000 0.433013
v -0.091986 -0.353553 0.353554
v -0.091986 -0.433013 0.250000
v -0.091986 -0.482963 0.129410
v 0.091986 -0.482963 -0.129410
v 0.091986 -0.433013 -0.250000
v 0.091986 -0.353553 -0.353553
v 0.091986 -0.250000 -0.433013
v 0.091986 -0.129409 -0.482963
v 0.091986 0.129410 -0.482963
v 0.091986 0.250000 -0.433013
v 0.091986 0.353553 -0.353553
v 0.091986 0.433013 -0.250000
v 0.091986 0.482963 -0.129410
v 0.091986 0.482963 0.129409
v 0.091986 0.433013 0.250000
v 0.091986 0.353554 0.353553
v 0.091986 0.250000 0.433013
v 0.091986 0.129410 0.482963
v 0.091986 -0.129409 0.482963
v 0.091986 -0.250000 0.433013
v 0.091986 -0.353553 0.353554
v 0.091986 -0.433013 0.250000
v 0.091986 -0.482963 0.129410
v -0.091607 -0.480973 -0.128876
v -0.091607 -0.431228 -0.248970
v -0.091607 -0.352096 -0.352097
v -0.091607 -0.248970 -0.431228
v -0.091607 -0.128876 -0.480973
v -0.091607 0.128876 -0.480973
v -0.091607 0.248970 -0.431228
v -0.091607 0.352096 -0.352097
v -0.091607 0.431228 -0.248970
v -0.091607 0.480973 -0.128876
v -0.091607 0.480973 0.128876
v -0.091607 0.431228 0.248970
v -0.091607 0.352097 0.352096
v -0.091607 0.248970 0.431228
v -0.091607 0.128876 0.480973
v -0.091607 -0.128876 0.480973
v -0.091607 -0.248970 0.431229
v -0.091607 -0.352096 0.352097
v -0.091607 -0.431228 0.248970
v -0.091607 -0.480973 0.128877
v 0.091607 -0.480973 -0.128876
v 0.091607 -0.431228 -0.248970
v 0.091607 -0.352096 -0.352097
v 0.091607 -0.248970 -0.431228
v 0.091607 -0.128876 -0.480973
v 0.091607 0.128876 -0.480973
v 0.091607 0.248970 -0.431228
v 0.091607 0.352096 -0.352097
v 0.091607 0.431228 -0.248970
v 0.091607 0.480973 -0.128876
v 0.091607 0.480973 0.128876
v 0.091607 0.431228 0.248970
v 0.091607 0.352097 0.352096
v 0.091607 0.248970 0.431228
v 0.091607 0.128876 0.480973
v 0.091607 -0.128876 0.480973
v 0.091607 -0.248970 0.431229
v 0.091607 -0.352096 0.352097
v 0.091607 -0.431228 0.248970
v 0.091607 -0.480973 0.128877
vt 0.000000 0.000000
vt 0.000000 0.000000
vt 0.000000 0.000000
vt 0.000000 0.000000
vt 0.000000 0.000000
vt 0.000000 0.000000
vt 0.000000 0.000000
vt 0.000000 0.000000
vt 0.000000 0.000000
vt 0.000000 0.000000
vt 0.000000 0.000000
vt 0.000000 0.000000
vt 0.000000 0.000000
vt 0.000000 0.000000
vt 0.000000 0.000000
vt 0.000000 0.000000
vt 0.000000 0.000000
vt 0.000000 0.000000
vt 0.000000 0.000000
vt 0.000000 0.000000
vt 0.000000 0.000000
vt 0.000000 0.000000
vt 0.000000 0.000000
vt 0.000000 0.000000
vt 0.000000 0.000000
vt 0.000000 0.000000
vt 0.000000 0.000000
vt 0.000000 0.000000
vt 0.000000 0.000000
vt 0.000000 0.000000
vt 0.000000 0.000000
vt 0.000000 0.000000
vt 0.000000 0.000000
vt 0.000000 0.000000
vt 0.000000 0.000000
vt 0.000000 0.000000
vt 0.000000 0.000000
vt 0.000000 0.000000
vt 0.000000 0.000000
vt 0.000000 0.000000
vt 0.000000 0.000000
vt 0.000000 0.000000
vt 0.000000 0.000000
vt 0.000000 0.000000
vt 0.000000 0.000000
vt 0.000000 0.000000
vt 0.000000 0.000000
vt 0.000000 0.000000
vt 0.000000 0.000000
vt 0.000000 0.000000
vt 0.000000 0.000000
vt 0.000000 0.000000
vt 0.000000 0.000000
vt 0.000000 0.000000
vt 0.000000 0.000000
vt 0.000000 0.000000
vt 0.000000 0.000000
vt 0.000000 0.000000
vt 0.000000 0.000000
vt 0.000000 0.000000
vt 0.000000 0.000000
vt 0.000000 0.000000
vt 0.000000 0.000000
vt 0.000000 0.000000
vt 0.000000 0.000000
vt 0.000000 0.000000
vt 0.000000 0.000000
vt 0.000000 0.000000
vt 0.000000 0.000000
vt 0.000000 0.000000
vt 0.000000 0.000000
vt 0.000000 0.000000
vt 0.000000 0.000000
vt 0.000000 0.000000
vt 0.000000 0.000000
vt 0.000000 0.000000
vt 0.000000 0.000000
vt 0.000000 0.000000
vt 0.000000 0.000000
vt 0.000000 0.000000
vn 0.0000 -0.3827 -0.9239
vn 0.0000 -0.3827 0.9239
vn 0.0000 -0.6088 0.7934
vn 0.0000 0.9239 0.3827
vn 0.0000 -0.7934 0.6088
vn 0.0000 0.7934 0.6088
vn 0.0000 0.3827 -0.9239
vn 0.0000 -0.9239 0.3827
vn 0.0000 0.6088 0.7934
vn 0.0000 0.6088 -0.7934
vn 0.0000 -0.9239 -0.3827
vn 0.0000 0.3827 0.9239
vn 0.0000 0.7934 -0.6088
vn 0.0000 -0.7934 -0.6088
vn 0.0000 0.9239 -0.3827
vn 0.0000 -0.6088 -0.7934
usemtl None
s off
f 5/1/1 25/2/1 24/3/1 4/4/1
f 17/5/2 37/6/2 36/7/2 16/8/2
f 18/9/3 38/10/3 37/6/3 17/5/3
f 12/11/4 32/12/4 31/13/4 11/14/4
f 19/15/5 39/16/5 38/10/5 18/9/5
f 13/17/6 33/18/6 32/12/6 12/11/6
f 7/19/7 27/20/7 26/21/7 6/22/7
f 20/23/8 40/24/8 39/16/8 19/15/8
f 14/25/9 34/26/9 33/18/9 13/17/9
f 8/27/10 28/28/10 27/20/10 7/19/10
f 2/29/11 22/30/11 21/31/11 1/32/11
f 15/33/12 35/34/12 34/26/12 14/25/12
f 9/35/13 29/36/13 28/28/13 8/27/13
f 3/37/14 23/38/14 22/30/14 2/29/14
f 10/39/15 30/40/15 29/36/15 9/35/15
f 4/4/16 24/3/16 23/38/16 3/37/16
f 45/41/12 44/42/12 64/43/12 65/44/12
f 57/45/7 56/46/7 76/47/7 77/48/7
f 58/49/10 57/45/10 77/48/10 78/50/10
f 52/51/11 51/52/11 71/53/11 72/54/11
f 59/55/13 58/49/13 78/50/13 79/56/13
f 53/57/14 52/51/14 72/54/14 73/58/14
f 47/59/2 46/60/2 66/61/2 67/62/2
f 60/63/15 59/55/15 79/56/15 80/64/15
f 54/65/16 53/57/16 73/58/16 74/66/16
f 48/67/3 47/59/3 67/62/3 68/68/3
f 42/69/4 41/70/4 61/71/4 62/72/4
f 55/73/1 54/65/1 74/66/1 75/74/1
f 49/75/5 48/67/5 68/68/5 69/76/5
f 43/77/6 42/69/6 62/72/6 63/78/6
f 50/79/8 49/75/8 69/76/8 70/80/8
f 44/42/9 43/77/9 63/78/9 64/43/9
