# Blender v2.82 (sub 7) OBJ File: 'bone.blend'
# www.blender.org
mtllib bone.mtl
o Cylinder
v -0.000000 0.258190 0.000000
v -0.000000 0.292591 1.000000
v 0.233535 0.079785 0.000000
v 0.264651 0.090416 1.000000
v 0.144333 -0.208880 -0.000000
v 0.163563 -0.236711 1.000000
v -0.144333 -0.208880 -0.000000
v -0.163563 -0.236711 1.000000
v -0.233535 0.079785 0.000000
v -0.264651 0.090416 1.000000
v 0.000000 0.994210 0.194180
v 0.899271 0.307228 0.194180
v 0.555780 -0.804333 0.194180
v -0.555780 -0.804332 0.194180
v -0.899271 0.307228 0.194180
vt 1.000000 0.879644
vt 1.000000 1.000000
vt 0.800000 1.000000
vt 0.800000 0.879644
vt 0.600000 1.000000
vt 0.600000 0.879644
vt 0.400000 1.000000
vt 0.400000 0.879644
vt 0.478254 0.324164
vt 0.250000 0.490000
vt 0.021746 0.324164
vt 0.108932 0.055836
vt 0.391068 0.055836
vt 0.200000 1.000000
vt 0.200000 0.879644
vt 0.000000 1.000000
vt 0.000000 0.879644
vt 0.750000 0.490000
vt 0.978254 0.324164
vt 0.891068 0.055836
vt 0.608932 0.055836
vt 0.521746 0.324164
vt 0.200000 0.500000
vt 0.000000 0.500000
vt 0.400000 0.500000
vt 0.600000 0.500000
vt 0.800000 0.500000
vt 1.000000 0.500000
vn 0.4992 0.6535 0.5690
vn 0.7926 -0.2449 0.5583
vn -0.0000 -0.8175 0.5759
vn 0.0000 0.0000 1.0000
vn -0.7926 -0.2449 0.5583
vn -0.4992 0.6535 0.5690
vn -0.0000 0.0000 -1.0000
vn -0.1913 0.2504 -0.9491
vn -0.3086 -0.0954 -0.9464
vn -0.0000 -0.3100 -0.9507
vn 0.3086 -0.0954 -0.9464
vn 0.1913 0.2504 -0.9491
usemtl None
s off
f 11/1/1 2/2/1 4/3/1 12/4/1
f 12/4/2 4/3/2 6/5/2 13/6/2
f 13/6/3 6/5/3 8/7/3 14/8/3
f 4/9/4 2/10/4 10/11/4 8/12/4 6/13/4
f 14/8/5 8/7/5 10/14/5 15/15/5
f 15/15/6 10/14/6 2/16/6 11/17/6
f 1/18/7 3/19/7 5/20/7 7/21/7 9/22/7
f 9/23/8 15/15/8 11/17/8 1/24/8
f 7/25/9 14/8/9 15/15/9 9/23/9
f 5/26/10 13/6/10 14/8/10 7/25/10
f 3/27/11 12/4/11 13/6/11 5/26/11
f 1/28/12 11/1/12 12/4/12 3/27/12
