# Blender 4.1.1
# www.blender.org
mtllib model.mtl
o Cube
v 0.493880 0.493880 -0.500000
v 0.493880 0.500000 -0.493880
v 0.500000 0.493880 -0.493880
v 0.493880 -0.500000 -0.493880
v 0.493880 -0.493880 -0.500000
v 0.500000 -0.493880 -0.493880
v 0.500000 0.493880 0.493880
v 0.493880 0.500000 0.493880
v 0.493880 0.493880 0.500000
v 0.500000 -0.493880 0.493880
v 0.493880 -0.493880 0.500000
v 0.493880 -0.500000 0.493880
v -0.493880 0.493880 -0.500000
v -0.500000 0.493880 -0.493880
v -0.493880 0.500000 -0.493880
v -0.500000 -0.493880 -0.493880
v -0.493880 -0.493880 -0.500000
v -0.493880 -0.500000 -0.493880
v -0.500000 0.493880 0.493880
v -0.493880 0.493880 0.500000
v -0.493880 0.500000 0.493880
v -0.493880 -0.500000 0.493880
v -0.493880 -0.493880 0.500000
v -0.500000 -0.493880 0.493880
vn 0.5774 0.5774 -0.5774
vn 0.5774 -0.5774 -0.5774
vn 0.5774 0.5774 0.5774
vn 0.5774 -0.5774 0.5774
vn -0.5774 0.5774 -0.5774
vn -0.5774 -0.5774 -0.5774
vn -0.5774 0.5774 0.5774
vn -0.5774 -0.5774 0.5774
vn -0.7071 -0.7071 -0.0000
vn -0.0000 -0.7071 -0.7071
vn 0.7071 -0.0000 -0.7071
vn -0.7071 -0.0000 0.7071
vn 0.7071 -0.0000 0.7071
vn -0.7071 -0.0000 -0.7071
vn -0.0000 0.7071 0.7071
vn 0.7071 0.7071 -0.0000
vn -0.0000 -0.7071 0.7071
vn -0.7071 0.7071 -0.0000
vn -0.0000 0.7071 -0.7071
vn 0.7071 -0.7071 -0.0000
vt 0.623470 0.498470
vt 0.625000 0.498470
vt 0.623470 0.500000
vt 0.373470 0.501530
vt 0.373470 0.500000
vt 0.375000 0.501530
vt 0.623470 0.748470
vt 0.625000 0.748470
vt 0.623470 0.750000
vt 0.376530 0.750000
vt 0.376530 0.751530
vt 0.375000 0.751530
vt 0.623470 0.250000
vt 0.623470 0.248470
vt 0.625000 0.248470
vt 0.376530 0.248470
vt 0.376530 0.250000
vt 0.375000 0.248470
vt 0.623470 0.001530
vt 0.623470 0.000000
vt 0.625000 0.001530
vt 0.126530 0.748470
vt 0.126530 0.750000
vt 0.125000 0.748470
vt 0.126530 0.501530
vt 0.125000 0.501530
vt 0.126530 0.500000
vt 0.623470 0.501530
vt 0.376530 0.501530
vt 0.376530 0.498470
vt 0.376530 0.000000
vt 0.376530 0.001530
vt 0.623470 0.751530
vt 0.376530 0.748470
vt 0.623470 0.251530
vt 0.376530 0.251530
vt 0.625000 0.751530
vt 0.625000 0.998470
vt 0.623470 0.998470
vt 0.626530 0.501530
vt 0.626530 0.748470
vt 0.373470 0.748470
vt 0.373470 0.750000
vt 0.625000 0.251530
s 0
usemtl Material
f 1/1/1 2/2/1 3/3/1
f 4/4/2 5/5/2 6/6/2
f 7/7/3 8/8/3 9/9/3
f 10/10/4 11/11/4 12/12/4
f 13/13/5 14/14/5 15/15/5
f 16/16/6 17/17/6 18/18/6
f 19/19/7 20/20/7 21/21/7
f 22/22/8 23/23/8 24/24/8
f 18/25/9 22/22/9 24/24/9 16/26/9
f 4/4/10 18/25/10 17/27/10 5/5/10
f 3/28/11 6/29/11 5/30/11 1/1/11
f 23/31/12 20/20/12 19/19/12 24/32/12
f 9/33/13 11/11/13 10/34/13 7/7/13
f 13/35/14 17/36/14 16/16/14 14/14/14
f 8/37/15 21/38/15 20/39/15 9/33/15
f 2/40/16 8/41/16 7/7/16 3/28/16
f 22/22/17 12/42/17 11/43/17 23/23/17
f 21/21/18 15/15/18 14/14/18 19/19/18
f 15/44/19 2/2/19 1/1/19 13/35/19
f 12/42/20 4/4/20 6/29/20 10/34/20
