# Blender v2.82 (sub 7) OBJ File: 'modelo.blend'
# www.blender.org
mtllib axis_scale.mtl
o Sphere_Sphere.002
v 0.000000 0.000000 -0.062006
v 0.000000 0.043845 -0.043845
v 0.037971 0.043845 -0.021922
v 0.053700 0.000000 -0.031003
v 0.000000 -0.043845 -0.043845
v 0.037971 -0.043845 -0.021922
v 0.000000 0.062006 0.000000
v 0.000000 -0.062006 -0.000000
v 0.053700 -0.000000 0.031003
v 0.037971 -0.043845 0.021922
v 0.037971 0.043845 0.021922
v -0.037971 0.043845 0.021922
v -0.053700 -0.000000 0.031003
v -0.007512 0.008675 0.124947
v 0.000000 0.043845 0.043845
v 0.000000 -0.043845 0.043845
v 0.007512 -0.008675 0.124947
v -0.007512 -0.008675 0.124947
v -0.037971 -0.043845 0.021922
v -0.037971 -0.043845 -0.021922
v -0.037971 0.043845 -0.021922
v -0.053700 0.000000 -0.031003
v 0.007512 0.008675 0.124947
vt 0.666667 0.500000
vt 0.666667 0.750000
vt 0.500000 0.750000
vt 0.500000 0.500000
vt 0.666667 0.250000
vt 0.500000 0.250000
vt 0.583333 1.000000
vt 0.583333 0.000000
vt 0.333333 0.500000
vt 0.333333 0.250000
vt 0.416667 1.000000
vt 0.333333 0.750000
vt 0.416667 0.000000
vt 1.000000 0.750000
vt 1.000000 0.500000
vt 1.000000 0.750000
vt 0.250000 1.000000
vt 0.166667 0.750000
vt 0.250000 0.000000
vt 0.166667 0.250000
vt 0.333333 0.250000
vt 0.166667 0.250000
vt 1.000000 0.250000
vt 1.000000 0.500000
vt 0.083333 1.000000
vt 0.000000 0.750000
vt 0.083333 0.000000
vt 0.000000 0.250000
vt 0.916667 0.000000
vt 1.000000 0.250000
vt 0.833333 0.250000
vt 0.833333 0.750000
vt 0.833333 0.500000
vt 0.916667 1.000000
vt 0.750000 0.000000
vt 0.750000 1.000000
vt 0.333333 0.500000
vt 0.333333 0.750000
vt 0.000000 0.250000
vt 0.166667 0.750000
vn 0.4706 0.3377 -0.8152
vn 0.4706 -0.3377 -0.8152
vn 0.2157 0.9021 -0.3737
vn 0.2157 -0.9021 -0.3737
vn 0.9413 -0.3377 0.0000
vn 0.4315 0.9021 0.0000
vn 0.4315 -0.9021 0.0000
vn 0.9413 0.3377 0.0000
vn -0.8432 0.3810 0.3794
vn 0.2157 0.9021 0.3737
vn 0.2157 -0.9021 0.3737
vn 0.0000 -0.9174 0.3979
vn -0.8974 0.0000 0.4412
vn 0.8432 -0.3810 0.3794
vn -0.2157 0.9021 0.3737
vn -0.2157 -0.9021 0.3737
vn -0.4315 -0.9021 0.0000
vn -0.9413 0.3377 0.0000
vn -0.9413 -0.3377 0.0000
vn -0.4315 0.9021 0.0000
vn -0.2157 -0.9021 -0.3737
vn -0.4706 0.3377 -0.8152
vn -0.4706 -0.3377 -0.8152
vn -0.2157 0.9021 -0.3737
vn 0.8974 0.0000 0.4412
vn -0.8432 -0.3810 0.3794
vn 0.0000 0.0000 1.0000
vn 0.2147 0.9032 0.3718
vn -0.2147 -0.9032 0.3718
vn 0.8432 0.3810 0.3794
vn -0.2147 0.9032 0.3718
vn 0.0000 0.9174 0.3979
vn 0.2147 -0.9032 0.3718
usemtl None.006
s off
f 1/1/1 2/2/1 3/3/1 4/4/1
f 5/5/2 1/1/2 4/4/2 6/6/2
f 2/2/3 7/7/3 3/3/3
f 8/8/4 5/5/4 6/6/4
f 6/6/5 4/4/5 9/9/5 10/10/5
f 3/3/6 7/11/6 11/12/6
f 8/13/7 6/6/7 10/10/7
f 4/4/8 3/3/8 11/12/8 9/9/8
f 12/14/9 13/15/9 14/16/9
f 11/12/10 7/17/10 15/18/10
f 8/19/11 10/10/11 16/20/11
f 16/20/12 17/21/12 18/22/12
f 13/15/13 18/23/13 14/24/13
f 10/10/14 9/9/14 17/21/14
f 15/18/15 7/25/15 12/26/15
f 8/27/16 16/20/16 19/28/16
f 8/29/17 19/30/17 20/31/17
f 13/15/18 12/14/18 21/32/18 22/33/18
f 19/30/19 13/15/19 22/33/19 20/31/19
f 12/14/20 7/34/20 21/32/20
f 8/35/21 20/31/21 5/5/21
f 22/33/22 21/32/22 2/2/22 1/1/22
f 20/31/23 22/33/23 1/1/23 5/5/23
f 21/32/24 7/36/24 2/2/24
f 17/21/25 9/9/25 23/37/25
f 18/23/26 13/15/26 19/30/26
f 17/21/27 23/38/27 14/24/27 18/22/27
f 11/12/28 15/18/28 23/38/28
f 19/28/29 16/20/29 18/39/29
f 9/9/30 11/12/30 23/37/30
f 15/18/31 12/26/31 14/40/31
f 23/38/32 15/18/32 14/40/32
f 17/21/33 16/20/33 10/10/33
o Cylinder.004
v -0.176735 0.176739 1.535274
v 0.176739 0.176739 1.535274
v 0.176739 0.176739 1.888751
v -0.176735 0.176739 1.888751
v 0.176739 -0.176739 1.888751
v -0.176735 -0.176739 1.888751
v 0.176739 -0.176739 1.535274
v -0.176735 -0.176739 1.535274
v 0.020176 -0.000000 0.531746
v 0.020176 -0.000000 1.603436
v -0.010086 0.017471 1.603436
v -0.010086 0.017471 0.531746
v -0.010086 -0.017471 1.603436
v -0.010086 -0.017471 0.531746
vt 0.375000 0.000000
vt 0.625000 0.000000
vt 0.625000 0.250000
vt 0.375000 0.250000
vt 0.625000 0.500000
vt 0.375000 0.500000
vt 0.625000 0.750000
vt 0.375000 0.750000
vt 0.625000 1.000000
vt 0.375000 1.000000
vt 0.125000 0.500000
vt 0.125000 0.750000
vt 0.875000 0.500000
vt 0.875000 0.750000
vt 1.000000 0.500000
vt 1.000000 1.000000
vt 0.666667 1.000000
vt 0.666667 0.500000
vt 0.333333 1.000000
vt 0.333333 0.500000
vt -0.000000 1.000000
vt -0.000000 0.500000
vn 0.0000 -1.0000 -0.0000
vn 0.0000 0.0000 -1.0000
vn 0.0000 1.0000 0.0000
vn 0.0000 0.0000 1.0000
vn 1.0000 0.0000 0.0000
vn -1.0000 0.0000 0.0000
vn -0.5000 -0.8660 -0.0000
vn -0.5000 0.8660 0.0000
usemtl None.008
s off
f 24/41/34 25/42/34 26/43/34 27/44/34
f 27/44/35 26/43/35 28/45/35 29/46/35
f 29/46/36 28/45/36 30/47/36 31/48/36
f 31/48/37 30/47/37 25/49/37 24/50/37
f 27/51/38 29/46/38 31/48/38 24/52/38
f 28/45/39 26/53/39 25/54/39 30/47/39
s 1
f 32/55/40 33/56/40 34/57/40 35/58/40
f 35/58/38 34/57/38 36/59/38 37/60/38
f 37/60/41 36/59/41 33/61/41 32/62/41
f 35/58/37 37/60/37 32/62/37
