# Blender 4.1.1
# www.blender.org
o Circle.003
v -2.000000 -0.000000 -0.032340
v -2.000000 0.000000 0.032336
v -1.931852 0.517640 0.032336
v -1.931852 0.517640 -0.032340
v 0.517640 1.931852 -0.032336
v 0.517640 1.931852 0.032336
v 1.000000 1.732052 0.032336
v 1.000000 1.732052 -0.032336
v 1.000000 -1.732052 -0.032336
v 1.000000 -1.732052 0.032336
v 0.517636 -1.931852 0.032336
v 0.517636 -1.931852 -0.032336
v -1.931852 -0.517636 -0.032340
v -1.931852 -0.517636 0.032336
v 0.000000 2.000000 -0.032336
v 0.000000 2.000000 0.032336
v 1.414212 -1.414216 -0.032336
v 1.414212 -1.414216 0.032336
v -1.732052 -1.000000 -0.032340
v -1.732052 -1.000000 0.032336
v -0.517636 1.931852 -0.032336
v -0.517636 1.931852 0.032336
v 1.732052 -1.000000 -0.032336
v 1.732052 -1.000000 0.032336
v -1.414216 -1.414212 -0.032336
v -1.414216 -1.414212 0.032336
v -1.000000 1.732052 -0.032336
v -1.000000 1.732052 0.032336
v 1.931852 -0.517640 -0.032336
v 1.931852 -0.517640 0.032340
v 1.931852 0.517640 -0.032336
v 1.931852 0.517640 0.032340
v 2.000000 0.000000 0.032340
v 2.000000 -0.000000 -0.032336
v -1.000000 -1.732052 -0.032336
v -1.000000 -1.732052 0.032336
v -1.414212 1.414212 -0.032336
v -1.414212 1.414212 0.032336
v 1.732052 1.000000 -0.032336
v 1.732052 1.000000 0.032340
v -0.517640 -1.931852 -0.032336
v -0.517640 -1.931852 0.032336
v -1.732052 1.000000 -0.032336
v -1.732052 1.000000 0.032336
v 1.414212 1.414212 -0.032336
v 1.414212 1.414212 0.032336
v 0.000000 -2.000000 -0.032336
v 0.000000 -2.000000 0.032336
v -1.890000 -0.000000 -0.033957
v -1.890000 0.000000 0.033953
v -1.825600 0.489170 0.033953
v -1.825600 0.489170 -0.033957
v 0.489170 1.825600 -0.033953
v 0.489170 1.825600 0.033953
v 0.944999 1.636789 0.033953
v 0.944999 1.636789 -0.033953
v 0.945000 -1.636789 -0.033953
v 0.945000 -1.636789 0.033953
v 0.489166 -1.825600 0.033953
v 0.489166 -1.825600 -0.033953
v -1.825600 -0.489166 -0.033957
v -1.825600 -0.489166 0.033953
v 0.000000 1.890000 -0.033953
v 0.000000 1.890000 0.033953
v 1.336431 -1.336435 -0.033953
v 1.336431 -1.336435 0.033953
v -1.636789 -0.945000 -0.033957
v -1.636789 -0.945000 0.033953
v -0.489166 1.825600 -0.033953
v -0.489166 1.825600 0.033953
v 1.636789 -0.945000 -0.033953
v 1.636789 -0.945000 0.033953
v -1.336434 -1.336431 -0.033953
v -1.336435 -1.336431 0.033953
v -0.945000 1.636789 -0.033953
v -0.945000 1.636789 0.033953
v 1.825600 -0.489170 -0.033953
v 1.825600 -0.489170 0.033957
v 1.825600 0.489170 -0.033953
v 1.825600 0.489170 0.033957
v 1.890000 0.000000 0.033957
v 1.890000 -0.000000 -0.033953
v -0.945000 -1.636789 -0.033953
v -0.945000 -1.636789 0.033953
v -1.336431 1.336431 -0.033953
v -1.336431 1.336431 0.033953
v 1.636789 0.944999 -0.033953
v 1.636789 0.945000 0.033957
v -0.489170 -1.825600 -0.033953
v -0.489170 -1.825600 0.033953
v -1.636789 0.945000 -0.033953
v -1.636789 0.944999 0.033953
v 1.336431 1.336431 -0.033953
v 1.336431 1.336431 0.033953
v 0.000000 -1.890000 -0.033953
v 0.000000 -1.890000 0.033953
vn -0.7388 -0.0000 -0.6739
vn -0.7388 -0.0000 0.6739
vn -0.7137 0.1912 0.6739
vn -0.7137 0.1912 -0.6739
vn 0.1912 0.7137 -0.6739
vn 0.1912 0.7137 0.6739
vn 0.3694 0.6398 0.6739
vn 0.3694 0.6398 -0.6739
vn 0.3694 -0.6398 -0.6739
vn 0.3694 -0.6398 0.6739
vn 0.1912 -0.7137 0.6739
vn 0.1912 -0.7137 -0.6739
vn -0.7137 -0.1912 -0.6739
vn -0.7137 -0.1912 0.6739
vn -0.0000 0.7388 -0.6739
vn -0.0000 0.7388 0.6739
vn 0.5224 -0.5224 -0.6739
vn 0.5224 -0.5224 0.6739
vn -0.6398 -0.3694 -0.6739
vn -0.6398 -0.3694 0.6739
vn -0.1912 0.7137 -0.6739
vn -0.1912 0.7137 0.6739
vn 0.6398 -0.3694 -0.6739
vn 0.6398 -0.3694 0.6739
vn -0.5224 -0.5224 -0.6739
vn -0.5224 -0.5224 0.6739
vn -0.3694 0.6398 -0.6739
vn -0.3694 0.6398 0.6739
vn 0.7137 -0.1912 -0.6739
vn 0.7137 -0.1912 0.6739
vn 0.7137 0.1912 -0.6739
vn 0.7137 0.1912 0.6739
vn 0.7388 -0.0000 0.6739
vn 0.7388 -0.0000 -0.6739
vn -0.3694 -0.6398 -0.6739
vn -0.3694 -0.6398 0.6739
vn -0.5224 0.5224 -0.6739
vn -0.5224 0.5224 0.6739
vn 0.6398 0.3694 -0.6739
vn 0.6398 0.3694 0.6739
vn -0.1912 -0.7137 -0.6739
vn -0.1912 -0.7137 0.6739
vn -0.6398 0.3694 -0.6739
vn -0.6398 0.3694 0.6739
vn 0.5224 0.5224 -0.6739
vn 0.5224 0.5224 0.6739
vn -0.0000 -0.7388 -0.6739
vn -0.0000 -0.7388 0.6739
vn 0.6692 -0.0000 -0.7431
vn 0.6464 -0.1732 -0.7431
vn 0.6464 -0.1732 0.7431
vn 0.6692 -0.0000 0.7431
vn -0.1732 -0.6464 -0.7431
vn -0.3346 -0.5796 -0.7431
vn -0.3346 -0.5796 0.7431
vn -0.1732 -0.6464 0.7431
vn -0.3346 0.5796 -0.7431
vn -0.1732 0.6464 -0.7431
vn -0.1732 0.6464 0.7431
vn -0.3346 0.5796 0.7431
vn 0.6464 0.1732 -0.7431
vn 0.6464 0.1732 0.7431
vn -0.0000 -0.6692 -0.7431
vn -0.0000 -0.6692 0.7431
vn -0.4732 0.4732 -0.7431
vn -0.4732 0.4732 0.7431
vn 0.5796 0.3346 -0.7431
vn 0.5796 0.3346 0.7431
vn 0.1732 -0.6464 -0.7431
vn 0.1732 -0.6464 0.7431
vn -0.5796 0.3346 -0.7431
vn -0.5796 0.3346 0.7431
vn 0.4732 0.4732 -0.7431
vn 0.4732 0.4732 0.7431
vn 0.3346 -0.5796 -0.7431
vn 0.3346 -0.5796 0.7431
vn -0.6464 0.1732 -0.7431
vn -0.6464 0.1732 0.7431
vn -0.6464 -0.1732 -0.7431
vn -0.6692 -0.0000 -0.7431
vn -0.6692 -0.0000 0.7431
vn -0.6464 -0.1732 0.7431
vn 0.3346 0.5796 -0.7431
vn 0.3346 0.5796 0.7431
vn 0.4732 -0.4732 -0.7431
vn 0.4732 -0.4732 0.7431
vn -0.5796 -0.3346 -0.7431
vn -0.5796 -0.3346 0.7431
vn 0.1732 0.6464 -0.7431
vn 0.1732 0.6464 0.7431
vn 0.5796 -0.3346 -0.7431
vn 0.5796 -0.3346 0.7431
vn -0.4732 -0.4732 -0.7431
vn -0.4732 -0.4732 0.7431
vn -0.0000 0.6692 -0.7431
vn -0.0000 0.6692 0.7431
vt 0.000000 0.000000
s 1
f 1/1/1 2/1/2 3/1/3 4/1/4
f 5/1/5 6/1/6 7/1/7 8/1/8
f 9/1/9 10/1/10 11/1/11 12/1/12
f 13/1/13 14/1/14 2/1/2 1/1/1
f 15/1/15 16/1/16 6/1/6 5/1/5
f 17/1/17 18/1/18 10/1/10 9/1/9
f 19/1/19 20/1/20 14/1/14 13/1/13
f 21/1/21 22/1/22 16/1/16 15/1/15
f 23/1/23 24/1/24 18/1/18 17/1/17
f 25/1/25 26/1/26 20/1/20 19/1/19
f 27/1/27 28/1/28 22/1/22 21/1/21
f 29/1/29 30/1/30 24/1/24 23/1/23
f 31/1/31 32/1/32 33/1/33 34/1/34
f 35/1/35 36/1/36 26/1/26 25/1/25
f 37/1/37 38/1/38 28/1/28 27/1/27
f 34/1/34 33/1/33 30/1/30 29/1/29
f 39/1/39 40/1/40 32/1/32 31/1/31
f 41/1/41 42/1/42 36/1/36 35/1/35
f 43/1/43 44/1/44 38/1/38 37/1/37
f 45/1/45 46/1/46 40/1/40 39/1/39
f 47/1/47 48/1/48 42/1/42 41/1/41
f 4/1/4 3/1/3 44/1/44 43/1/43
f 8/1/8 7/1/7 46/1/46 45/1/45
f 12/1/12 11/1/11 48/1/48 47/1/47
f 49/1/49 52/1/50 51/1/51 50/1/52
f 53/1/53 56/1/54 55/1/55 54/1/56
f 57/1/57 60/1/58 59/1/59 58/1/60
f 61/1/61 49/1/49 50/1/52 62/1/62
f 63/1/63 53/1/53 54/1/56 64/1/64
f 65/1/65 57/1/57 58/1/60 66/1/66
f 67/1/67 61/1/61 62/1/62 68/1/68
f 69/1/69 63/1/63 64/1/64 70/1/70
f 71/1/71 65/1/65 66/1/66 72/1/72
f 73/1/73 67/1/67 68/1/68 74/1/74
f 75/1/75 69/1/69 70/1/70 76/1/76
f 77/1/77 71/1/71 72/1/72 78/1/78
f 79/1/79 82/1/80 81/1/81 80/1/82
f 83/1/83 73/1/73 74/1/74 84/1/84
f 85/1/85 75/1/75 76/1/76 86/1/86
f 82/1/80 77/1/77 78/1/78 81/1/81
f 87/1/87 79/1/79 80/1/82 88/1/88
f 89/1/89 83/1/83 84/1/84 90/1/90
f 91/1/91 85/1/85 86/1/86 92/1/92
f 93/1/93 87/1/87 88/1/88 94/1/94
f 95/1/95 89/1/89 90/1/90 96/1/96
f 52/1/50 91/1/91 92/1/92 51/1/51
f 56/1/54 93/1/93 94/1/94 55/1/55
f 60/1/58 95/1/95 96/1/96 59/1/59
f 3/1/3 2/1/2 50/1/52 51/1/51
f 1/1/1 4/1/4 52/1/50 49/1/49
f 7/1/7 6/1/6 54/1/56 55/1/55
f 5/1/5 8/1/8 56/1/54 53/1/53
f 11/1/11 10/1/10 58/1/60 59/1/59
f 13/1/13 1/1/1 49/1/49 61/1/61
f 15/1/15 5/1/5 53/1/53 63/1/63
f 17/1/17 9/1/9 57/1/57 65/1/65
f 19/1/19 13/1/13 61/1/61 67/1/67
f 21/1/21 15/1/15 63/1/63 69/1/69
f 23/1/23 17/1/17 65/1/65 71/1/71
f 25/1/25 19/1/19 67/1/67 73/1/73
f 27/1/27 21/1/21 69/1/69 75/1/75
f 29/1/29 23/1/23 71/1/71 77/1/77
f 31/1/31 34/1/34 82/1/80 79/1/79
f 35/1/35 25/1/25 73/1/73 83/1/83
f 37/1/37 27/1/27 75/1/75 85/1/85
f 39/1/39 31/1/31 79/1/79 87/1/87
f 32/1/32 40/1/40 88/1/88 80/1/82
f 41/1/41 35/1/35 83/1/83 89/1/89
f 43/1/43 37/1/37 85/1/85 91/1/91
f 38/1/38 44/1/44 92/1/92 86/1/86
f 45/1/45 39/1/39 87/1/87 93/1/93
f 47/1/47 41/1/41 89/1/89 95/1/95
f 22/1/22 28/1/28 76/1/76 70/1/70
f 42/1/42 48/1/48 96/1/96 90/1/90
f 48/1/48 11/1/11 59/1/59 96/1/96
f 12/1/12 47/1/47 95/1/95 60/1/58
f 2/1/2 14/1/14 62/1/62 50/1/52
f 24/1/24 30/1/30 78/1/78 72/1/72
f 46/1/46 7/1/7 55/1/55 94/1/94
f 8/1/8 45/1/45 93/1/93 56/1/54
f 20/1/20 26/1/26 74/1/74 68/1/68
f 6/1/6 16/1/16 64/1/64 54/1/56
f 9/1/9 12/1/12 60/1/58 57/1/57
f 26/1/26 36/1/36 84/1/84 74/1/74
f 34/1/34 29/1/29 77/1/77 82/1/80
f 30/1/30 33/1/33 81/1/81 78/1/78
f 40/1/40 46/1/46 94/1/94 88/1/88
f 28/1/28 38/1/38 86/1/86 76/1/76
f 33/1/33 32/1/32 80/1/82 81/1/81
f 10/1/10 18/1/18 66/1/66 58/1/60
f 14/1/14 20/1/20 68/1/68 62/1/62
f 16/1/16 22/1/22 70/1/70 64/1/64
f 36/1/36 42/1/42 90/1/90 84/1/84
f 44/1/44 3/1/3 51/1/51 92/1/92
f 4/1/4 43/1/43 91/1/91 52/1/50
f 18/1/18 24/1/24 72/1/72 66/1/66
o Sphere_Sphere.001
v 0.000000 0.070711 -0.070711
v 0.000000 -0.000000 -0.100000
v 0.000000 -0.070711 -0.070711
v 0.061237 0.070711 -0.035355
v 0.086603 -0.000000 -0.050000
v 0.061237 -0.070711 -0.035355
v 0.061237 0.070711 0.035355
v 0.086603 0.000000 0.050000
v 0.061237 -0.070711 0.035355
v 0.000000 0.070711 0.070711
v 0.000000 0.000000 0.100000
v 0.000000 -0.070711 0.070711
v 0.000000 -0.100000 0.000000
v 0.000000 0.100000 -0.000000
v -0.061237 0.070711 0.035355
v -0.086603 0.000000 0.050000
v -0.061237 -0.070711 0.035355
v -0.061237 0.070711 -0.035355
v -0.086603 -0.000000 -0.050000
v -0.061237 -0.070711 -0.035355
vn 0.4706 0.3377 -0.8152
vn 0.4706 -0.3377 -0.8152
vn 0.2157 0.9021 -0.3737
vn 0.2157 -0.9021 -0.3737
vn 0.9413 -0.3377 -0.0000
vn 0.4315 0.9021 -0.0000
vn 0.4315 -0.9021 -0.0000
vn 0.9413 0.3377 -0.0000
vn 0.4706 -0.3377 0.8152
vn 0.2157 0.9021 0.3737
vn 0.2157 -0.9021 0.3737
vn 0.4706 0.3377 0.8152
vn -0.4706 0.3377 0.8152
vn -0.4706 -0.3377 0.8152
vn -0.2157 0.9021 0.3737
vn -0.2157 -0.9021 0.3737
vn -0.4315 -0.9021 -0.0000
vn -0.9413 0.3377 -0.0000
vn -0.9413 -0.3377 -0.0000
vn -0.4315 0.9021 -0.0000
vn -0.2157 -0.9021 -0.3737
vn -0.4706 0.3377 -0.8152
vn -0.4706 -0.3377 -0.8152
vn -0.2157 0.9021 -0.3737
vt 0.666667 0.500000
vt 0.666667 0.750000
vt 0.500000 0.750000
vt 0.500000 0.500000
vt 0.666667 0.250000
vt 0.500000 0.250000
vt 0.583333 1.000000
vt 0.583333 0.000000
vt 0.333333 0.500000
vt 0.333333 0.250000
vt 0.416667 1.000000
vt 0.333333 0.750000
vt 0.416667 0.000000
vt 0.166667 0.500000
vt 0.166667 0.250000
vt 0.250000 1.000000
vt 0.166667 0.750000
vt 0.250000 0.000000
vt 0.000000 0.750000
vt 0.000000 0.500000
vt 0.000000 0.250000
vt 0.083333 1.000000
vt 0.083333 0.000000
vt 0.916667 0.000000
vt 1.000000 0.250000
vt 0.833333 0.250000
vt 1.000000 0.500000
vt 1.000000 0.750000
vt 0.833333 0.750000
vt 0.833333 0.500000
vt 0.916667 1.000000
vt 0.750000 0.000000
vt 0.750000 1.000000
s 0
f 98/2/97 97/3/97 100/4/97 101/5/97
f 99/6/98 98/2/98 101/5/98 102/7/98
f 97/3/99 110/8/99 100/4/99
f 109/9/100 99/6/100 102/7/100
f 102/7/101 101/5/101 104/10/101 105/11/101
f 100/4/102 110/12/102 103/13/102
f 109/14/103 102/7/103 105/11/103
f 101/5/104 100/4/104 103/13/104 104/10/104
f 105/11/105 104/10/105 107/15/105 108/16/105
f 103/13/106 110/17/106 106/18/106
f 109/19/107 105/11/107 108/16/107
f 104/10/108 103/13/108 106/18/108 107/15/108
f 107/15/109 106/18/109 111/20/109 112/21/109
f 108/16/110 107/15/110 112/21/110 113/22/110
f 106/18/111 110/23/111 111/20/111
f 109/24/112 108/16/112 113/22/112
f 109/25/113 113/26/113 116/27/113
f 112/28/114 111/29/114 114/30/114 115/31/114
f 113/26/115 112/28/115 115/31/115 116/27/115
f 111/29/116 110/32/116 114/30/116
f 109/33/117 116/27/117 99/6/117
f 115/31/118 114/30/118 97/3/118 98/2/118
f 116/27/119 115/31/119 98/2/119 99/6/119
f 114/30/120 110/34/120 97/3/120
