# Blender v2.82 (sub 7) OBJ File: ''
# www.blender.org
mtllib axis_all.mtl
o Cylinder.001
v -0.694372 -0.935128 -1.030981
v -0.949273 -0.690461 -1.020629
v -1.153963 -0.895129 -1.223507
v -0.899062 -1.139796 -1.233858
v -1.288397 -1.047424 -0.934232
v -1.033496 -1.292091 -0.944584
v -1.083707 -0.842756 -0.731354
v -0.828806 -1.087424 -0.741706
v -0.322470 -0.293923 -0.304604
v -0.943058 -0.914445 -0.919698
v -0.914591 -0.927864 -0.934882
v -0.294003 -0.307342 -0.319788
v -0.927880 -0.942919 -0.906286
v -0.307292 -0.322397 -0.291192
vt 0.375000 0.000000
vt 0.625000 0.000000
vt 0.625000 0.250000
vt 0.375000 0.250000
vt 0.625000 0.500000
vt 0.375000 0.500000
vt 0.625000 0.750000
vt 0.375000 0.750000
vt 0.625000 1.000000
vt 0.375000 1.000000
vt 0.125000 0.500000
vt 0.125000 0.750000
vt 0.875000 0.500000
vt 0.875000 0.750000
vt 1.000000 0.500000
vt 1.000000 1.000000
vt 0.666667 1.000000
vt 0.666667 0.500000
vt 0.333333 1.000000
vt 0.333333 0.500000
vt -0.000000 1.000000
vt -0.000000 0.500000
vn -0.3803 -0.4309 0.8184
vn 0.5791 0.5790 0.5739
vn 0.3803 0.4309 -0.8184
vn -0.5791 -0.5790 -0.5739
vn -0.7211 0.6922 0.0293
vn 0.7211 -0.6922 -0.0293
vn 0.0312 -0.7192 0.6941
vn 0.6899 0.0270 -0.7234
usemtl None.004
s off
f 1/1/1 2/2/1 3/3/1 4/4/1
f 4/4/2 3/3/2 5/5/2 6/6/2
f 6/6/3 5/5/3 7/7/3 8/8/3
f 8/8/4 7/7/4 2/9/4 1/10/4
f 4/11/5 6/6/5 8/8/5 1/12/5
f 5/5/6 3/13/6 2/14/6 7/7/6
s 1
f 9/15/7 10/16/7 11/17/7 12/18/7
f 12/18/5 11/17/5 13/19/5 14/20/5
f 14/20/8 13/19/8 10/21/8 9/22/8
f 12/18/4 14/20/4 9/22/4
