# Blender 4.1.1
# www.blender.org
o Circle.001
v 0.310584 -1.159111 0.220767
v 0.310584 -1.159111 -0.220766
v 0.600000 -1.039231 -0.220766
v 0.600000 -1.039231 0.220767
v 0.600000 1.039231 0.220766
v 0.600000 1.039231 -0.220767
v 0.310582 1.159111 -0.220767
v 0.310582 1.159111 0.220766
v 0.848527 0.848530 0.220766
v 0.848527 0.848530 -0.220767
v -1.039231 0.600000 0.220767
v -1.039231 0.600000 -0.220766
v -1.159111 0.310582 -0.220766
v -1.159111 0.310582 0.220767
v 1.039231 0.600000 0.220766
v 1.039231 0.600000 -0.220767
v -0.848530 0.848527 0.220767
v -0.848530 0.848527 -0.220766
v -0.600000 -1.039231 0.220767
v -0.600000 -1.039231 -0.220766
v -0.310582 -1.159111 -0.220766
v -0.310582 -1.159111 0.220767
v 1.159111 0.310584 0.220766
v 1.159111 0.310584 -0.220767
v -0.600000 1.039231 0.220766
v -0.600000 1.039231 -0.220767
v -0.848527 -0.848527 0.220767
v -0.848527 -0.848527 -0.220766
v 1.039231 -0.600000 0.220766
v 1.039231 -0.600000 -0.220767
v 1.159111 -0.310584 -0.220767
v 1.159111 -0.310584 0.220766
v -0.310584 1.159111 0.220766
v -0.310584 1.159111 -0.220767
v -1.039231 -0.600000 0.220767
v -1.039231 -0.600000 -0.220766
v 0.848527 -0.848527 0.220766
v 0.848527 -0.848527 -0.220767
v -1.159111 -0.310584 0.220767
v -1.159111 -0.310584 -0.220766
v -1.205476 -0.000001 -0.212443
v -1.205476 -0.000001 0.212443
v 1.205476 0.000001 0.212443
v 1.205476 0.000001 -0.212443
v 0.000001 -1.205476 -0.212442
v 0.000001 -1.205476 0.212443
v -0.000001 1.205476 0.212442
v -0.000001 1.205476 -0.212443
v 0.149685 -0.581087 0.220766
v 0.149685 -0.581087 -0.220766
v 0.299998 -0.519617 -0.220766
v 0.299999 -0.519617 0.220766
v 0.300001 0.519616 0.220766
v 0.300001 0.519615 -0.220766
v 0.149684 0.581087 -0.220766
v 0.149684 0.581087 0.220766
v 0.424264 0.424265 0.220766
v 0.424263 0.424265 -0.220766
v -0.519615 0.300001 0.220767
v -0.519615 0.300001 -0.220766
v -0.581087 0.149684 -0.220766
v -0.581087 0.149684 0.220767
v 0.519616 0.300000 0.220766
v 0.519616 0.300000 -0.220767
v -0.424265 0.424264 0.220767
v -0.424265 0.424263 -0.220766
v -0.299999 -0.519616 0.220766
v -0.299999 -0.519616 -0.220766
v -0.149684 -0.581087 -0.220766
v -0.149684 -0.581087 0.220766
v 0.581087 0.149685 0.220766
v 0.581087 0.149685 -0.220767
v -0.300000 0.519616 0.220766
v -0.300000 0.519616 -0.220766
v -0.424263 -0.424263 0.220766
v -0.424263 -0.424263 -0.220766
v 0.519617 -0.299998 0.220766
v 0.519617 -0.299999 -0.220767
v 0.581087 -0.149685 -0.220767
v 0.581087 -0.149686 0.220766
v -0.149685 0.581087 0.220766
v -0.149685 0.581087 -0.220766
v -0.519617 -0.299998 0.220767
v -0.519617 -0.299998 -0.220766
v 0.424263 -0.424263 0.220766
v 0.424263 -0.424263 -0.220767
v -0.581087 -0.149685 0.220767
v -0.581087 -0.149685 -0.220766
v -0.605476 -0.000001 -0.212442
v -0.605476 -0.000001 0.212443
v 0.605476 0.000001 0.212443
v 0.605476 0.000001 -0.212442
v 0.000001 -0.605476 -0.212442
v 0.000001 -0.605476 0.212443
v -0.000001 0.605476 0.212442
v -0.000001 0.605476 -0.212443
vn 0.1838 -0.7055 0.6844
vn 0.1838 -0.7055 -0.6844
vn 0.3671 -0.6359 -0.6789
vn 0.3671 -0.6359 0.6789
vn 0.3671 0.6359 0.6789
vn 0.3671 0.6359 -0.6789
vn 0.1838 0.7055 -0.6844
vn 0.1838 0.7055 0.6844
vn 0.5192 0.5192 0.6789
vn 0.5192 0.5192 -0.6789
vn -0.6359 0.3671 0.6789
vn -0.6359 0.3671 -0.6789
vn -0.7055 0.1838 -0.6844
vn -0.7055 0.1838 0.6844
vn 0.6359 0.3671 0.6789
vn 0.6359 0.3671 -0.6789
vn -0.5192 0.5192 0.6789
vn -0.5192 0.5192 -0.6789
vn -0.3671 -0.6359 0.6789
vn -0.3671 -0.6359 -0.6789
vn -0.1838 -0.7055 -0.6844
vn -0.1838 -0.7055 0.6844
vn 0.7055 0.1838 0.6844
vn 0.7055 0.1838 -0.6844
vn -0.3671 0.6359 0.6789
vn -0.3671 0.6359 -0.6789
vn -0.5192 -0.5192 0.6789
vn -0.5192 -0.5192 -0.6789
vn 0.6359 -0.3671 0.6789
vn 0.6359 -0.3671 -0.6789
vn 0.7055 -0.1838 -0.6844
vn 0.7055 -0.1838 0.6844
vn -0.1838 0.7055 0.6844
vn -0.1838 0.7055 -0.6844
vn -0.6359 -0.3671 0.6789
vn -0.6359 -0.3671 -0.6789
vn 0.5192 -0.5192 0.6789
vn 0.5192 -0.5192 -0.6789
vn -0.7055 -0.1838 0.6844
vn -0.7055 -0.1838 -0.6844
vn 0.7447 -0.0000 0.6674
vn 0.7447 -0.0000 -0.6674
vn -0.7447 -0.0000 -0.6674
vn -0.7447 -0.0000 0.6674
vn -0.0000 0.7447 0.6674
vn -0.0000 0.7447 -0.6674
vn -0.0000 -0.7447 -0.6674
vn -0.0000 -0.7447 0.6674
vn -0.1969 0.6451 0.7383
vn -0.3360 0.5849 0.7382
vn -0.3360 0.5849 -0.7382
vn -0.1969 0.6451 -0.7383
vn -0.3360 -0.5849 0.7382
vn -0.1969 -0.6451 0.7383
vn -0.1969 -0.6451 -0.7383
vn -0.3360 -0.5849 -0.7382
vn -0.4774 -0.4774 0.7377
vn -0.4774 -0.4774 -0.7377
vn 0.5849 -0.3360 0.7382
vn 0.6451 -0.1969 0.7383
vn 0.6451 -0.1969 -0.7383
vn 0.5849 -0.3360 -0.7382
vn -0.5849 -0.3360 0.7382
vn -0.5849 -0.3360 -0.7382
vn 0.4774 -0.4774 0.7377
vn 0.4774 -0.4774 -0.7377
vn 0.3360 0.5849 0.7382
vn 0.1969 0.6451 0.7383
vn 0.1969 0.6451 -0.7383
vn 0.3360 0.5849 -0.7382
vn -0.6451 -0.1969 0.7383
vn -0.6451 -0.1969 -0.7383
vn 0.3360 -0.5849 0.7382
vn 0.3360 -0.5849 -0.7382
vn 0.4774 0.4774 0.7377
vn 0.4774 0.4774 -0.7377
vn -0.5849 0.3360 0.7382
vn -0.6451 0.1969 0.7383
vn -0.6451 0.1969 -0.7383
vn -0.5849 0.3360 -0.7382
vn 0.1969 -0.6451 0.7383
vn 0.1969 -0.6451 -0.7383
vn 0.5849 0.3360 0.7382
vn 0.5849 0.3360 -0.7382
vn -0.4774 0.4774 0.7377
vn -0.4774 0.4774 -0.7377
vn 0.6451 0.1969 0.7383
vn 0.6451 0.1969 -0.7383
vn -0.6779 -0.0000 -0.7352
vn -0.6779 -0.0000 0.7352
vn 0.6779 -0.0000 0.7352
vn 0.6779 -0.0000 -0.7352
vn -0.0000 -0.6779 -0.7352
vn -0.0000 -0.6779 0.7352
vn -0.0000 0.6779 0.7352
vn -0.0000 0.6779 -0.7352
vt 0.000000 0.000000
s 1
f 1/1/1 2/1/2 3/1/3 4/1/4
f 5/1/5 6/1/6 7/1/7 8/1/8
f 9/1/9 10/1/10 6/1/6 5/1/5
f 11/1/11 12/1/12 13/1/13 14/1/14
f 15/1/15 16/1/16 10/1/10 9/1/9
f 17/1/17 18/1/18 12/1/12 11/1/11
f 19/1/19 20/1/20 21/1/21 22/1/22
f 23/1/23 24/1/24 16/1/16 15/1/15
f 25/1/25 26/1/26 18/1/18 17/1/17
f 27/1/27 28/1/28 20/1/20 19/1/19
f 29/1/29 30/1/30 31/1/31 32/1/32
f 33/1/33 34/1/34 26/1/26 25/1/25
f 35/1/35 36/1/36 28/1/28 27/1/27
f 37/1/37 38/1/38 30/1/30 29/1/29
f 39/1/39 40/1/40 36/1/36 35/1/35
f 4/1/4 3/1/3 38/1/38 37/1/37
f 24/1/24 23/1/23 43/1/41 44/1/42
f 14/1/14 13/1/13 41/1/43 42/1/44
f 39/1/39 42/1/44 41/1/43 40/1/40
f 31/1/31 44/1/42 43/1/41 32/1/32
f 34/1/34 33/1/33 47/1/45 48/1/46
f 22/1/22 21/1/21 45/1/47 46/1/48
f 7/1/7 48/1/46 47/1/45 8/1/8
f 1/1/1 46/1/48 45/1/47 2/1/2
f 49/1/49 52/1/50 51/1/51 50/1/52
f 53/1/53 56/1/54 55/1/55 54/1/56
f 57/1/57 53/1/53 54/1/56 58/1/58
f 59/1/59 62/1/60 61/1/61 60/1/62
f 63/1/63 57/1/57 58/1/58 64/1/64
f 65/1/65 59/1/59 60/1/62 66/1/66
f 67/1/67 70/1/68 69/1/69 68/1/70
f 71/1/71 63/1/63 64/1/64 72/1/72
f 73/1/73 65/1/65 66/1/66 74/1/74
f 75/1/75 67/1/67 68/1/70 76/1/76
f 77/1/77 80/1/78 79/1/79 78/1/80
f 81/1/81 73/1/73 74/1/74 82/1/82
f 83/1/83 75/1/75 76/1/76 84/1/84
f 85/1/85 77/1/77 78/1/80 86/1/86
f 87/1/87 83/1/83 84/1/84 88/1/88
f 52/1/50 85/1/85 86/1/86 51/1/51
f 72/1/72 92/1/89 91/1/90 71/1/71
f 62/1/60 90/1/91 89/1/92 61/1/61
f 87/1/87 88/1/88 89/1/92 90/1/91
f 79/1/79 80/1/78 91/1/90 92/1/89
f 82/1/82 96/1/93 95/1/94 81/1/81
f 70/1/68 94/1/95 93/1/96 69/1/69
f 55/1/55 56/1/54 95/1/94 96/1/93
f 49/1/49 50/1/52 93/1/96 94/1/95
f 3/1/3 2/1/2 50/1/52 51/1/51
f 1/1/1 4/1/4 52/1/50 49/1/49
f 7/1/7 6/1/6 54/1/56 55/1/55
f 5/1/5 8/1/8 56/1/54 53/1/53
f 9/1/9 5/1/5 53/1/53 57/1/57
f 13/1/13 12/1/12 60/1/62 61/1/61
f 11/1/11 14/1/14 62/1/60 59/1/59
f 15/1/15 9/1/9 57/1/57 63/1/63
f 17/1/17 11/1/11 59/1/59 65/1/65
f 40/1/40 41/1/43 89/1/92 88/1/88
f 23/1/23 15/1/15 63/1/63 71/1/71
f 25/1/25 17/1/17 65/1/65 73/1/73
f 27/1/27 19/1/19 67/1/67 75/1/75
f 31/1/31 30/1/30 78/1/80 79/1/79
f 29/1/29 32/1/32 80/1/78 77/1/77
f 35/1/35 27/1/27 75/1/75 83/1/83
f 18/1/18 26/1/26 74/1/74 66/1/66
f 37/1/37 29/1/29 77/1/77 85/1/85
f 30/1/30 38/1/38 86/1/86 78/1/80
f 39/1/39 35/1/35 83/1/83 87/1/87
f 41/1/43 13/1/13 61/1/61 89/1/92
f 43/1/41 23/1/23 71/1/71 91/1/90
f 45/1/47 21/1/21 69/1/69 93/1/96
f 22/1/22 46/1/48 94/1/95 70/1/68
f 47/1/45 33/1/33 81/1/81 95/1/94
f 34/1/34 48/1/46 96/1/93 82/1/82
f 14/1/14 42/1/44 90/1/91 62/1/60
f 6/1/6 10/1/10 58/1/58 54/1/56
f 33/1/33 25/1/25 73/1/73 81/1/81
f 26/1/26 34/1/34 82/1/82 74/1/74
f 28/1/28 36/1/36 84/1/84 76/1/76
f 24/1/24 44/1/42 92/1/89 72/1/72
f 48/1/46 7/1/7 55/1/55 96/1/93
f 10/1/10 16/1/16 64/1/64 58/1/58
f 20/1/20 28/1/28 76/1/76 68/1/70
f 12/1/12 18/1/18 66/1/66 60/1/62
f 44/1/42 31/1/31 79/1/79 92/1/89
f 38/1/38 3/1/3 51/1/51 86/1/86
f 32/1/32 43/1/41 91/1/90 80/1/78
f 4/1/4 37/1/37 85/1/85 52/1/50
f 8/1/8 47/1/45 95/1/94 56/1/54
f 36/1/36 40/1/40 88/1/88 84/1/84
f 46/1/48 1/1/1 49/1/49 94/1/95
f 2/1/2 45/1/47 93/1/96 50/1/52
f 16/1/16 24/1/24 72/1/72 64/1/64
f 19/1/19 22/1/22 70/1/68 67/1/67
f 21/1/21 20/1/20 68/1/70 69/1/69
f 42/1/44 39/1/39 87/1/87 90/1/91
