# Blender v2.82 (sub 7) OBJ File: 'modelo.blend'
# www.blender.org
mtllib axis_pos.mtl
o Cylinder.003
v 0.000000 0.184954 1.534105
v 0.000000 -0.000000 1.995300
v 0.070779 0.170875 1.534105
v 0.130782 0.130782 1.534105
v 0.170876 0.070779 1.534105
v 0.184954 -0.000000 1.534105
v 0.170876 -0.070779 1.534105
v 0.130782 -0.130782 1.534105
v 0.070779 -0.170875 1.534105
v 0.000000 -0.184954 1.534105
v -0.070779 -0.170875 1.534105
v -0.130782 -0.130782 1.534105
v -0.170875 -0.070779 1.534105
v -0.184954 -0.000000 1.534105
v -0.170875 0.070779 1.534105
v -0.130782 0.130782 1.534105
v -0.070779 0.170875 1.534105
v 0.000000 0.029766 0.500000
v 0.000000 0.029766 1.600383
v 0.025778 -0.014884 1.600383
v 0.025778 -0.014884 0.500000
v -0.025779 -0.014884 1.600383
v -0.025779 -0.014884 0.500000
vt 1.000000 0.500000
vt 0.937500 1.000000
vt 0.937500 0.500000
vt 0.875000 1.000000
vt 0.875000 0.500000
vt 0.812500 1.000000
vt 0.812500 0.500000
vt 0.750000 1.000000
vt 0.750000 0.500000
vt 0.687500 1.000000
vt 0.687500 0.500000
vt 0.625000 1.000000
vt 0.625000 0.500000
vt 0.562500 1.000000
vt 0.562500 0.500000
vt 0.500000 1.000000
vt 0.500000 0.500000
vt 0.437500 1.000000
vt 0.437500 0.500000
vt 0.375000 1.000000
vt 0.375000 0.500000
vt 0.312500 1.000000
vt 0.312500 0.500000
vt 0.250000 1.000000
vt 0.250000 0.500000
vt 0.187500 1.000000
vt 0.187500 0.500000
vt 0.125000 1.000000
vt 0.125000 0.500000
vt 0.062500 1.000000
vt 0.062500 0.500000
vt 0.000000 1.000000
vt 0.000000 0.500000
vt 0.750000 0.490000
vt 0.841844 0.471731
vt 0.919706 0.419706
vt 0.971731 0.341844
vt 0.990000 0.250000
vt 0.971731 0.158156
vt 0.919706 0.080294
vt 0.841844 0.028269
vt 0.750000 0.010000
vt 0.658156 0.028269
vt 0.580294 0.080294
vt 0.528269 0.158156
vt 0.510000 0.250000
vt 0.528269 0.341844
vt 0.580294 0.419706
vt 0.658156 0.471731
vt 1.000000 0.500000
vt 1.000000 1.000000
vt 0.666667 1.000000
vt 0.666667 0.500000
vt 0.333333 1.000000
vt 0.333333 0.500000
vt -0.000000 1.000000
vt -0.000000 0.500000
vn 0.1816 0.9127 0.3660
vn 0.5170 0.7738 0.3660
vn 0.7738 0.5170 0.3660
vn 0.9127 0.1815 0.3660
vn 0.9127 -0.1815 0.3660
vn 0.7738 -0.5170 0.3660
vn 0.5170 -0.7738 0.3660
vn 0.1816 -0.9127 0.3660
vn -0.1816 -0.9127 0.3660
vn -0.5170 -0.7738 0.3660
vn -0.7738 -0.5170 0.3660
vn -0.9127 -0.1816 0.3660
vn -0.9127 0.1816 0.3660
vn -0.7738 0.5170 0.3660
vn -0.5170 0.7738 0.3660
vn -0.1816 0.9127 0.3660
vn -0.0000 0.0000 -1.0000
vn 0.8660 0.5000 0.0000
vn 0.0000 -1.0000 -0.0000
vn -0.8660 0.5000 0.0000
usemtl None.005
s 1
f 1/1/1 2/2/1 3/3/1
f 3/3/2 2/4/2 4/5/2
f 4/5/3 2/6/3 5/7/3
f 5/7/4 2/8/4 6/9/4
f 6/9/5 2/10/5 7/11/5
f 7/11/6 2/12/6 8/13/6
f 8/13/7 2/14/7 9/15/7
f 9/15/8 2/16/8 10/17/8
f 10/17/9 2/18/9 11/19/9
f 11/19/10 2/20/10 12/21/10
f 12/21/11 2/22/11 13/23/11
f 13/23/12 2/24/12 14/25/12
f 14/25/13 2/26/13 15/27/13
f 15/27/14 2/28/14 16/29/14
f 16/29/15 2/30/15 17/31/15
f 17/31/16 2/32/16 1/33/16
f 1/34/17 3/35/17 4/36/17 5/37/17 6/38/17 7/39/17 8/40/17 9/41/17 10/42/17 11/43/17 12/44/17 13/45/17 14/46/17 15/47/17 16/48/17 17/49/17
f 18/50/18 19/51/18 20/52/18 21/53/18
f 21/53/19 20/52/19 22/54/19 23/55/19
f 23/55/20 22/54/20 19/56/20 18/57/20
o Sphere_Sphere.002
v 0.000000 0.000000 -0.062006
v 0.000000 0.043845 -0.043845
v 0.037971 0.043845 -0.021922
v 0.053700 0.000000 -0.031003
v 0.000000 -0.043845 -0.043845
v 0.037971 -0.043845 -0.021922
v 0.000000 0.062006 0.000000
v 0.000000 -0.062006 -0.000000
v 0.053700 -0.000000 0.031003
v 0.037971 -0.043845 0.021922
v 0.037971 0.043845 0.021922
v -0.037971 0.043845 0.021922
v -0.053700 -0.000000 0.031003
v -0.007512 0.008675 0.124947
v 0.000000 0.043845 0.043845
v 0.000000 -0.043845 0.043845
v 0.007512 -0.008675 0.124947
v -0.007512 -0.008675 0.124947
v -0.037971 -0.043845 0.021922
v -0.037971 -0.043845 -0.021922
v -0.037971 0.043845 -0.021922
v -0.053700 0.000000 -0.031003
v 0.007512 0.008675 0.124947
vt 0.666667 0.500000
vt 0.666667 0.750000
vt 0.500000 0.750000
vt 0.500000 0.500000
vt 0.666667 0.250000
vt 0.500000 0.250000
vt 0.583333 1.000000
vt 0.583333 0.000000
vt 0.333333 0.500000
vt 0.333333 0.250000
vt 0.416667 1.000000
vt 0.333333 0.750000
vt 0.416667 0.000000
vt 1.000000 0.750000
vt 1.000000 0.500000
vt 1.000000 0.750000
vt 0.250000 1.000000
vt 0.166667 0.750000
vt 0.250000 0.000000
vt 0.166667 0.250000
vt 0.333333 0.250000
vt 0.166667 0.250000
vt 1.000000 0.250000
vt 1.000000 0.500000
vt 0.083333 1.000000
vt 0.000000 0.750000
vt 0.083333 0.000000
vt 0.000000 0.250000
vt 0.916667 0.000000
vt 1.000000 0.250000
vt 0.833333 0.250000
vt 0.833333 0.750000
vt 0.833333 0.500000
vt 0.916667 1.000000
vt 0.750000 0.000000
vt 0.750000 1.000000
vt 0.333333 0.500000
vt 0.333333 0.750000
vt 0.000000 0.250000
vt 0.166667 0.750000
vn 0.4706 0.3377 -0.8152
vn 0.4706 -0.3377 -0.8152
vn 0.2157 0.9021 -0.3737
vn 0.2157 -0.9021 -0.3737
vn 0.9413 -0.3377 0.0000
vn 0.4315 0.9021 0.0000
vn 0.4315 -0.9021 0.0000
vn 0.9413 0.3377 0.0000
vn -0.8432 0.3810 0.3794
vn 0.2157 0.9021 0.3737
vn 0.2157 -0.9021 0.3737
vn 0.0000 -0.9174 0.3979
vn -0.8974 0.0000 0.4412
vn 0.8432 -0.3810 0.3794
vn -0.2157 0.9021 0.3737
vn -0.2157 -0.9021 0.3737
vn -0.4315 -0.9021 0.0000
vn -0.9413 0.3377 0.0000
vn -0.9413 -0.3377 0.0000
vn -0.4315 0.9021 0.0000
vn -0.2157 -0.9021 -0.3737
vn -0.4706 0.3377 -0.8152
vn -0.4706 -0.3377 -0.8152
vn -0.2157 0.9021 -0.3737
vn 0.8974 0.0000 0.4412
vn -0.8432 -0.3810 0.3794
vn 0.0000 0.0000 1.0000
vn 0.2147 0.9032 0.3718
vn -0.2147 -0.9032 0.3718
vn 0.8432 0.3810 0.3794
vn -0.2147 0.9032 0.3718
vn 0.0000 0.9174 0.3979
vn 0.2147 -0.9032 0.3718
usemtl None.006
s off
f 24/58/21 25/59/21 26/60/21 27/61/21
f 28/62/22 24/58/22 27/61/22 29/63/22
f 25/59/23 30/64/23 26/60/23
f 31/65/24 28/62/24 29/63/24
f 29/63/25 27/61/25 32/66/25 33/67/25
f 26/60/26 30/68/26 34/69/26
f 31/70/27 29/63/27 33/67/27
f 27/61/28 26/60/28 34/69/28 32/66/28
f 35/71/29 36/72/29 37/73/29
f 34/69/30 30/74/30 38/75/30
f 31/76/31 33/67/31 39/77/31
f 39/77/32 40/78/32 41/79/32
f 36/72/33 41/80/33 37/81/33
f 33/67/34 32/66/34 40/78/34
f 38/75/35 30/82/35 35/83/35
f 31/84/36 39/77/36 42/85/36
f 31/86/37 42/87/37 43/88/37
f 36/72/38 35/71/38 44/89/38 45/90/38
f 42/87/39 36/72/39 45/90/39 43/88/39
f 35/71/40 30/91/40 44/89/40
f 31/92/41 43/88/41 28/62/41
f 45/90/42 44/89/42 25/59/42 24/58/42
f 43/88/43 45/90/43 24/58/43 28/62/43
f 44/89/44 30/93/44 25/59/44
f 40/78/45 32/66/45 46/94/45
f 41/80/46 36/72/46 42/87/46
f 40/78/47 46/95/47 37/81/47 41/79/47
f 34/69/48 38/75/48 46/95/48
f 42/85/49 39/77/49 41/96/49
f 32/66/50 34/69/50 46/94/50
f 38/75/51 35/83/51 37/97/51
f 46/95/52 38/75/52 37/97/52
f 40/78/53 39/77/53 33/67/53
