# Blender 4.1.1
# www.blender.org
o Cube.001
v -0.176382 -0.194157 0.961550
v 0.000000 0.158606 0.961550
v -0.065435 -0.075635 -0.003424
v -0.000174 0.054888 -0.003425
v 0.176382 -0.194157 0.961550
v 0.065088 -0.075635 -0.003424
v -0.346236 -0.336169 0.961550
v 0.000000 0.339941 0.961550
v 0.346236 -0.336169 0.961550
v 0.000000 -0.011118 1.491929
v 0.000000 -0.011118 1.491929
v 0.000000 -0.011118 1.491929
v -0.006127 0.961550 -0.256790
v 0.118593 0.961550 0.117373
v 0.004119 -0.004101 -0.089640
v 0.050267 -0.004101 0.048799
v -0.255569 0.961550 -0.007347
v -0.088174 -0.004101 0.002654
v 0.013560 0.961549 -0.477312
v 0.246816 0.961550 0.245596
v -0.476093 0.961550 0.012340
v -0.001420 1.491929 -0.002640
v -0.001420 1.491929 -0.002640
v -0.001420 1.491929 -0.002640
v 0.961550 -0.194157 0.176382
v 0.961550 0.158606 -0.000000
v -0.000480 -0.075634 0.062142
v -0.000480 0.054888 -0.003119
v 0.961550 -0.194157 -0.176382
v -0.000480 -0.075635 -0.068379
v 0.961550 -0.336169 0.346236
v 0.961550 0.339941 -0.000000
v 0.961550 -0.336170 -0.346236
v 1.491929 -0.011118 0.000000
v 1.491929 -0.011118 0.000000
v 1.491929 -0.011118 0.000000
vn -0.8934 0.4467 -0.0479
vn 0.8934 0.4467 -0.0482
vn -0.0000 -0.9925 -0.1219
vn -0.0000 -0.0000 -1.0000
vn -0.0000 -0.8526 0.5225
vn 0.8521 0.4364 0.2888
vn -0.8521 0.4364 0.2888
vn 0.9477 -0.0446 -0.3159
vn -0.3159 -0.0449 0.9477
vn -0.7012 -0.1288 -0.7012
vn -0.0000 -1.0000 -0.0000
vn -0.6029 0.5225 -0.6029
vn -0.2940 0.2888 0.9111
vn 0.9111 0.2888 -0.2940
vn -0.0510 0.4466 0.8933
vn -0.0453 0.4468 -0.8935
vn -0.1223 -0.9925 -0.0000
vn -1.0000 -0.0000 -0.0000
vn 0.5225 -0.8526 -0.0000
vn 0.2888 0.4364 -0.8521
vn 0.2888 0.4364 0.8521
vt 0.673500 0.542920
vt 0.835412 0.542920
vt 0.835412 0.706930
vt 0.673500 0.706930
vt 0.657845 0.779055
vt 0.838794 0.779055
vt 0.838794 0.962348
vt 0.657845 0.962348
vt 0.130756 0.059734
vt 0.325981 0.059734
vt 0.325981 0.240936
vt 0.130756 0.240936
vt 0.121550 0.287472
vt 0.316776 0.287472
vt 0.316776 0.468674
vt 0.121550 0.468674
vt 0.142373 0.546589
vt 0.332045 0.546589
vt 0.332045 0.722769
vt 0.142373 0.722769
vt 0.140573 0.774605
vt 0.356347 0.774605
vt 0.356347 0.975032
vt 0.140573 0.975032
s 0
f 1/1/1 2/2/1 4/3/1 3/4/1
f 6/1/2 4/2/2 2/3/2 5/4/2
f 3/1/3 6/2/3 5/3/3 1/4/3
f 1/5/4 5/6/4 9/7/4 7/8/4
f 5/5/4 2/6/4 8/7/4 9/8/4
f 2/5/4 1/6/4 7/7/4 8/8/4
f 7/5/5 9/6/5 12/7/5 10/8/5
f 9/5/6 8/6/6 11/7/6 12/8/6
f 8/5/7 7/6/7 10/7/7 11/8/7
f 13/9/8 14/10/8 16/11/8 15/12/8
f 18/9/9 16/10/9 14/11/9 17/12/9
f 15/9/10 18/10/10 17/11/10 13/12/10
f 13/13/11 17/14/11 21/15/11 19/16/11
f 17/13/11 14/14/11 20/15/11 21/16/11
f 14/13/11 13/14/11 19/15/11 20/16/11
f 19/13/12 21/14/12 24/15/12 22/16/12
f 21/13/13 20/14/13 23/15/13 24/16/13
f 20/13/14 19/14/14 22/15/14 23/16/14
f 25/17/15 26/18/15 28/19/15 27/20/15
f 30/17/16 28/18/16 26/19/16 29/20/16
f 27/17/17 30/18/17 29/19/17 25/20/17
f 25/21/18 29/22/18 33/23/18 31/24/18
f 29/21/18 26/22/18 32/23/18 33/24/18
f 26/21/18 25/22/18 31/23/18 32/24/18
f 31/21/19 33/22/19 36/23/19 34/24/19
f 33/21/20 32/22/20 35/23/20 36/24/20
f 32/21/21 31/22/21 34/23/21 35/24/21
o Sphere
v 0.000000 -0.000000 -0.218559
v 0.000000 -0.154545 -0.154545
v 0.154545 0.154545 -0.000000
v 0.218559 0.000000 0.000000
v 0.154545 -0.154545 0.000000
v 0.000000 0.154545 0.154545
v 0.000000 0.000000 0.218559
v 0.000000 -0.154545 0.154545
v 0.000000 -0.218559 0.000000
v 0.000000 0.218559 -0.000000
v -0.154545 0.154545 -0.000000
v -0.218559 0.000000 0.000000
v -0.154545 -0.154545 0.000000
v 0.000000 0.154545 -0.154545
vn 0.6786 -0.2811 -0.6786
vn 0.3574 0.8629 -0.3574
vn 0.3574 -0.8629 -0.3574
vn 0.6786 0.2811 -0.6786
vn 0.3574 0.8629 0.3574
vn 0.3574 -0.8629 0.3574
vn 0.6786 0.2811 0.6786
vn 0.6786 -0.2811 0.6786
vn -0.6786 -0.2811 0.6786
vn -0.3574 0.8629 0.3574
vn -0.3574 -0.8629 0.3574
vn -0.6786 0.2811 0.6786
vn -0.6786 -0.2811 -0.6786
vn -0.3574 0.8629 -0.3574
vn -0.3574 -0.8629 -0.3574
vn -0.6786 0.2811 -0.6786
vt 0.798723 0.226148
vt 0.798723 0.278082
vt 0.746789 0.278082
vt 0.746789 0.226148
vt 0.798723 0.330017
vt 0.772756 0.381951
vt 0.746789 0.330017
vt 0.772756 0.174213
vt 0.720821 0.381951
vt 0.694854 0.330017
vt 0.720821 0.174213
vt 0.694854 0.226148
vt 0.694854 0.278082
vt 0.642920 0.278082
vt 0.642920 0.226148
vt 0.668887 0.381951
vt 0.642920 0.330017
vt 0.668887 0.174213
vt 0.850658 0.226148
vt 0.850658 0.278082
vt 0.850658 0.330017
vt 0.824690 0.381951
vt 0.824690 0.174213
s 0
f 38/25/22 37/26/22 40/27/22 41/28/22
f 50/29/23 46/30/23 39/31/23
f 45/32/24 38/25/24 41/28/24
f 37/26/25 50/29/25 39/31/25 40/27/25
f 39/31/26 46/33/26 42/34/26
f 45/35/27 41/28/27 44/36/27
f 40/27/28 39/31/28 42/34/28 43/37/28
f 41/28/29 40/27/29 43/37/29 44/36/29
f 44/36/30 43/37/30 48/38/30 49/39/30
f 42/34/31 46/40/31 47/41/31
f 45/42/32 44/36/32 49/39/32
f 43/37/33 42/34/33 47/41/33 48/38/33
f 49/43/34 48/44/34 37/26/34 38/25/34
f 47/45/35 46/46/35 50/29/35
f 45/47/36 49/43/36 38/25/36
f 48/44/37 47/45/37 50/29/37 37/26/37
