# Blender 4.1.1
# www.blender.org
mtllib gift.mtl
o Cube
v -0.500000 0.000000 0.500000
v -0.531982 1.010906 0.531982
v -0.500000 0.000000 -0.500000
v -0.531982 1.010906 -0.531982
v 0.500000 0.000000 0.500000
v 0.531982 1.010906 0.531982
v 0.500000 0.000000 -0.500000
v 0.531982 1.010906 -0.531982
v -0.531982 0.648099 0.531982
v -0.531982 0.648099 -0.531982
v 0.531982 0.648099 -0.531982
v 0.531982 0.648099 0.531982
v -0.500000 0.649637 -0.500000
v 0.500000 0.649637 -0.500000
v 0.500000 0.649637 0.500000
v -0.500000 0.649637 0.500000
vn -1.0000 -0.0000 -0.0000
vn -0.0000 -0.0000 -1.0000
vn 1.0000 -0.0000 -0.0000
vn -0.0000 -0.0000 1.0000
vn -0.0000 -1.0000 -0.0000
vn -0.0000 1.0000 -0.0000
vn -0.0000 -0.9988 -0.0480
vn -0.0480 -0.9988 -0.0000
vn -0.0000 -0.9988 0.0480
vn 0.0480 -0.9988 -0.0000
vt 0.539751 0.000000
vt 0.625000 0.000000
vt 0.625000 0.250000
vt 0.539751 0.250000
vt 0.625000 0.500000
vt 0.539751 0.500000
vt 0.625000 0.750000
vt 0.539751 0.750000
vt 0.625000 1.000000
vt 0.539751 1.000000
vt 0.125000 0.500000
vt 0.375000 0.500000
vt 0.375000 0.750000
vt 0.125000 0.750000
vt 0.875000 0.500000
vt 0.875000 0.750000
vt 0.537409 0.750000
vt 0.537409 1.000000
vt 0.537409 0.500000
vt 0.537409 0.250000
vt 0.537409 0.000000
vt 0.375000 0.000000
vt 0.375000 0.250000
vt 0.375000 1.000000
s 0
usemtl Material.001
f 9/1/1 2/2/1 4/3/1 10/4/1
f 10/4/2 4/3/2 8/5/2 11/6/2
f 11/6/3 8/5/3 6/7/3 12/8/3
f 12/8/4 6/7/4 2/9/4 9/10/4
f 3/11/5 7/12/5 5/13/5 1/14/5
f 8/5/6 4/15/6 2/16/6 6/7/6
f 15/17/7 12/8/7 9/10/7 16/18/7
f 14/19/8 11/6/8 12/8/8 15/17/8
f 13/20/9 10/4/9 11/6/9 14/19/9
f 16/21/10 9/1/10 10/4/10 13/20/10
f 1/22/1 16/21/1 13/20/1 3/23/1
f 3/23/2 13/20/2 14/19/2 7/12/2
f 7/12/3 14/19/3 15/17/3 5/13/3
f 5/13/4 15/17/4 16/18/4 1/24/4
