# Blender 4.1.1
# www.blender.org
mtllib half_sphere.mtl
o Sphere
v -0.000000 0.461940 -0.191342
v -0.000000 0.500000 -0.000000
v -0.073223 0.176777 -0.461940
v -0.135299 0.326641 -0.353553
v -0.176777 0.426777 -0.191342
v -0.191342 0.461940 0.000000
v -0.135299 0.135299 -0.461940
v -0.250000 0.250000 -0.353553
v -0.326641 0.326641 -0.191342
v -0.353553 0.353553 0.000000
v -0.176777 0.073223 -0.461940
v -0.326641 0.135299 -0.353553
v -0.426777 0.176777 -0.191342
v -0.461940 0.191342 0.000000
v -0.191342 -0.000000 -0.461940
v -0.353553 -0.000000 -0.353553
v -0.461940 -0.000000 -0.191342
v -0.500000 -0.000000 0.000000
v -0.176777 -0.073223 -0.461940
v -0.326641 -0.135299 -0.353553
v -0.426777 -0.176777 -0.191342
v -0.461940 -0.191342 0.000000
v -0.135299 -0.135299 -0.461940
v -0.250000 -0.250000 -0.353553
v -0.326641 -0.326641 -0.191342
v -0.353553 -0.353553 0.000000
v -0.073223 -0.176777 -0.461940
v -0.135299 -0.326641 -0.353553
v -0.176777 -0.426777 -0.191342
v -0.191342 -0.461940 0.000000
v -0.000000 -0.191342 -0.461940
v -0.000000 -0.353553 -0.353553
v 0.000000 -0.461940 -0.191342
v 0.000000 -0.500000 0.000000
v -0.000000 -0.000000 -0.500000
v 0.073223 -0.176777 -0.461940
v 0.135299 -0.326641 -0.353553
v 0.176777 -0.426777 -0.191342
v 0.191342 -0.461940 -0.000000
v 0.135299 -0.135299 -0.461940
v 0.250000 -0.250000 -0.353553
v 0.326641 -0.326641 -0.191342
v 0.353554 -0.353553 -0.000000
v 0.176777 -0.073223 -0.461940
v 0.326641 -0.135299 -0.353553
v 0.426777 -0.176777 -0.191342
v 0.461940 -0.191341 -0.000000
v 0.191342 0.000000 -0.461940
v 0.353553 0.000000 -0.353554
v 0.461940 0.000000 -0.191342
v 0.500000 0.000000 -0.000000
v 0.176777 0.073223 -0.461940
v 0.326640 0.135299 -0.353554
v 0.426776 0.176777 -0.191342
v 0.461940 0.191342 -0.000000
v 0.135299 0.135299 -0.461940
v 0.250000 0.250000 -0.353553
v 0.326640 0.326641 -0.191342
v 0.353553 0.353554 -0.000000
v 0.073223 0.176777 -0.461940
v 0.135299 0.326641 -0.353553
v 0.176776 0.426777 -0.191342
v 0.191341 0.461940 -0.000000
v -0.000000 0.191342 -0.461940
v -0.000000 0.353553 -0.353553
v -0.191342 0.461940 0.000000
v -0.000000 0.500000 -0.000000
v -0.353553 0.353553 0.000000
v -0.461940 0.191342 0.000000
v -0.500000 -0.000000 0.000000
v -0.461940 -0.191342 0.000000
v -0.353553 -0.353553 0.000000
v -0.191342 -0.461940 0.000000
v 0.000000 -0.500000 0.000000
v 0.191342 -0.461940 -0.000000
v 0.353554 -0.353553 -0.000000
v 0.461940 -0.191341 -0.000000
v 0.500000 0.000000 -0.000000
v 0.461940 0.191342 -0.000000
v 0.353553 0.353554 -0.000000
v 0.191341 0.461940 -0.000000
vn -0.0000 0.9273 -0.3744
vn -0.0000 -0.0000 1.0000
vn -0.1543 0.3724 -0.9152
vn -0.2751 0.6641 -0.6952
vn -0.3549 0.8567 -0.3744
vn -0.2850 0.2850 -0.9152
vn -0.5083 0.5083 -0.6952
vn -0.6557 0.6557 -0.3744
vn -0.3724 0.1543 -0.9152
vn -0.6641 0.2751 -0.6952
vn -0.8567 0.3549 -0.3744
vn -0.4031 -0.0000 -0.9152
vn -0.7189 -0.0000 -0.6952
vn -0.9273 -0.0000 -0.3744
vn -0.3724 -0.1543 -0.9152
vn -0.6641 -0.2751 -0.6952
vn -0.8567 -0.3549 -0.3744
vn -0.2850 -0.2850 -0.9152
vn -0.5083 -0.5083 -0.6952
vn -0.6557 -0.6557 -0.3744
vn -0.1543 -0.3724 -0.9152
vn -0.2751 -0.6641 -0.6952
vn -0.3549 -0.8567 -0.3744
vn -0.0000 -0.4031 -0.9152
vn -0.0000 -0.7189 -0.6952
vn -0.0000 -0.9273 -0.3744
vn -0.0000 -0.0000 -1.0000
vn 0.1543 -0.3724 -0.9152
vn 0.2751 -0.6641 -0.6952
vn 0.3549 -0.8567 -0.3744
vn 0.2850 -0.2850 -0.9152
vn 0.5083 -0.5083 -0.6952
vn 0.6557 -0.6557 -0.3744
vn 0.3724 -0.1543 -0.9152
vn 0.6641 -0.2751 -0.6952
vn 0.8567 -0.3549 -0.3744
vn 0.4031 -0.0000 -0.9152
vn 0.7189 -0.0000 -0.6952
vn 0.9273 -0.0000 -0.3744
vn 0.3724 0.1543 -0.9152
vn 0.6641 0.2751 -0.6952
vn 0.8567 0.3549 -0.3744
vn 0.2850 0.2850 -0.9152
vn 0.5083 0.5083 -0.6952
vn 0.6557 0.6557 -0.3744
vn 0.1543 0.3724 -0.9152
vn 0.2751 0.6641 -0.6952
vn 0.3549 0.8567 -0.3744
vn -0.0000 0.4031 -0.9152
vn -0.0000 0.7189 -0.6952
vn -0.3753 0.9061 -0.1951
vn -0.0000 0.9808 -0.1951
vn -0.6935 0.6935 -0.1951
vn -0.9061 0.3753 -0.1951
vn -0.9808 -0.0000 -0.1951
vn -0.9061 -0.3753 -0.1951
vn -0.6935 -0.6935 -0.1951
vn -0.3753 -0.9061 -0.1951
vn -0.0000 -0.9808 -0.1951
vn 0.3753 -0.9061 -0.1951
vn 0.6935 -0.6935 -0.1951
vn 0.9061 -0.3753 -0.1951
vn 0.9808 -0.0000 -0.1951
vn 0.9061 0.3753 -0.1951
vn 0.6935 0.6935 -0.1951
vn 0.3753 0.9061 -0.1951
vt 0.750000 0.625000
vt 0.750000 0.750000
vt 0.687500 0.750000
vt 0.687500 0.625000
vt 0.750000 0.875000
vt 0.718750 1.000000
vt 0.687500 0.875000
vt 0.750000 0.500000
vt 0.687500 0.500000
vt 0.625000 0.625000
vt 0.625000 0.500000
vt 0.625000 0.875000
vt 0.625000 0.750000
vt 0.656250 1.000000
vt 0.562500 0.750000
vt 0.562500 0.625000
vt 0.593750 1.000000
vt 0.562500 0.875000
vt 0.562500 0.500000
vt 0.500000 0.750000
vt 0.500000 0.625000
vt 0.531250 1.000000
vt 0.500000 0.875000
vt 0.500000 0.500000
vt 0.437500 0.625000
vt 0.437500 0.500000
vt 0.437500 0.875000
vt 0.437500 0.750000
vt 0.468750 1.000000
vt 0.375000 0.625000
vt 0.375000 0.500000
vt 0.375000 0.875000
vt 0.375000 0.750000
vt 0.406250 1.000000
vt 0.312500 0.750000
vt 0.312500 0.625000
vt 0.343750 1.000000
vt 0.312500 0.875000
vt 0.312500 0.500000
vt 0.250000 0.750000
vt 0.250000 0.625000
vt 0.281250 1.000000
vt 0.250000 0.875000
vt 0.250000 0.500000
vt 0.187500 0.625000
vt 0.187500 0.500000
vt 0.187500 0.875000
vt 0.187500 0.750000
vt 0.218750 1.000000
vt 0.125000 0.875000
vt 0.125000 0.750000
vt 0.125000 0.625000
vt 0.156250 1.000000
vt 0.125000 0.500000
vt 0.062500 0.750000
vt 0.062500 0.625000
vt 0.093750 1.000000
vt 0.062500 0.875000
vt 0.062500 0.500000
vt 0.031250 1.000000
vt 0.000000 0.875000
vt 0.000000 0.625000
vt 0.000000 0.500000
vt 0.000000 0.750000
vt 1.000000 0.500000
vt 1.000000 0.625000
vt 0.937500 0.625000
vt 0.937500 0.500000
vt 1.000000 0.750000
vt 1.000000 0.875000
vt 0.937500 0.875000
vt 0.937500 0.750000
vt 0.968750 1.000000
vt 0.875000 0.750000
vt 0.875000 0.625000
vt 0.906250 1.000000
vt 0.875000 0.875000
vt 0.875000 0.500000
vt 0.812500 0.750000
vt 0.812500 0.625000
vt 0.843750 1.000000
vt 0.812500 0.875000
vt 0.812500 0.500000
vt 0.781250 1.000000
s 1
f 1/1/1 65/2/50 4/3/4 5/4/5
f 64/5/49 35/6/27 3/7/3
f 67/8/52 1/1/1 5/4/5 66/9/51
f 65/2/50 64/5/49 3/7/3 4/3/4
f 66/9/51 5/4/5 9/10/8 68/11/53
f 4/3/4 3/7/3 7/12/6 8/13/7
f 5/4/5 4/3/4 8/13/7 9/10/8
f 3/7/3 35/14/27 7/12/6
f 9/10/8 8/13/7 12/15/10 13/16/11
f 7/12/6 35/17/27 11/18/9
f 68/11/53 9/10/8 13/16/11 69/19/54
f 8/13/7 7/12/6 11/18/9 12/15/10
f 13/16/11 12/15/10 16/20/13 17/21/14
f 11/18/9 35/22/27 15/23/12
f 69/19/54 13/16/11 17/21/14 70/24/55
f 12/15/10 11/18/9 15/23/12 16/20/13
f 70/24/55 17/21/14 21/25/17 71/26/56
f 16/20/13 15/23/12 19/27/15 20/28/16
f 17/21/14 16/20/13 20/28/16 21/25/17
f 15/23/12 35/29/27 19/27/15
f 71/26/56 21/25/17 25/30/20 72/31/57
f 20/28/16 19/27/15 23/32/18 24/33/19
f 21/25/17 20/28/16 24/33/19 25/30/20
f 19/27/15 35/34/27 23/32/18
f 25/30/20 24/33/19 28/35/22 29/36/23
f 23/32/18 35/37/27 27/38/21
f 72/31/57 25/30/20 29/36/23 73/39/58
f 24/33/19 23/32/18 27/38/21 28/35/22
f 29/36/23 28/35/22 32/40/25 33/41/26
f 27/38/21 35/42/27 31/43/24
f 73/39/58 29/36/23 33/41/26 74/44/59
f 28/35/22 27/38/21 31/43/24 32/40/25
f 74/44/59 33/41/26 38/45/30 75/46/60
f 32/40/25 31/43/24 36/47/28 37/48/29
f 33/41/26 32/40/25 37/48/29 38/45/30
f 31/43/24 35/49/27 36/47/28
f 37/48/29 36/47/28 40/50/31 41/51/32
f 38/45/30 37/48/29 41/51/32 42/52/33
f 36/47/28 35/53/27 40/50/31
f 75/46/60 38/45/30 42/52/33 76/54/61
f 42/52/33 41/51/32 45/55/35 46/56/36
f 40/50/31 35/57/27 44/58/34
f 76/54/61 42/52/33 46/56/36 77/59/62
f 41/51/32 40/50/31 44/58/34 45/55/35
f 44/58/34 35/60/27 48/61/37
f 77/59/62 46/56/36 50/62/39 78/63/63
f 45/55/35 44/58/34 48/61/37 49/64/38
f 46/56/36 45/55/35 49/64/38 50/62/39
f 78/65/63 50/66/39 54/67/42 79/68/64
f 49/69/38 48/70/37 52/71/40 53/72/41
f 50/66/39 49/69/38 53/72/41 54/67/42
f 48/70/37 35/73/27 52/71/40
f 54/67/42 53/72/41 57/74/44 58/75/45
f 52/71/40 35/76/27 56/77/43
f 79/68/64 54/67/42 58/75/45 80/78/65
f 53/72/41 52/71/40 56/77/43 57/74/44
f 58/75/45 57/74/44 61/79/47 62/80/48
f 56/77/43 35/81/27 60/82/46
f 80/78/65 58/75/45 62/80/48 81/83/66
f 57/74/44 56/77/43 60/82/46 61/79/47
f 81/83/66 62/80/48 1/1/1 67/8/52
f 61/79/47 60/82/46 64/5/49 65/2/50
f 6/9/2 10/11/2 14/19/2 18/24/2 22/26/2 26/31/2 30/39/2 34/44/2 39/46/2 43/54/2 47/59/2 51/63/2 55/68/2 59/78/2 63/83/2 2/8/2
f 62/80/48 61/79/47 65/2/50 1/1/1
f 60/82/46 35/84/27 64/5/49
