# Blender v2.82 (sub 7) OBJ File: 'modelo.blend'
# www.blender.org
mtllib point.mtl
o Cube
v 1.000000 0.000000 -1.000000
v 1.000000 0.000000 -1.000000
v 1.000000 0.000000 1.000000
v 1.000000 0.000000 1.000000
v -1.000000 0.000000 -1.000000
v -1.000000 0.000000 -1.000000
v -1.000000 0.000000 1.000000
v -1.000000 0.000000 1.000000
v 1.000000 3.352659 0.000000
v 1.000000 0.019910 0.000000
v -1.000000 3.352659 0.000000
v -1.000000 0.019910 0.000000
v -1.000000 3.352659 0.000000
v -1.000000 0.019910 0.000000
v 1.000000 3.352659 -0.000000
v 1.000000 0.019910 -0.000000
vt 0.000000 0.000000
vt 0.500000 0.000000
vt 0.500000 0.500000
vt 0.000000 0.500000
vt 0.000000 0.000000
vt 0.500000 0.000000
vt 0.500000 0.500000
vt 0.000000 0.500000
vt 0.500000 1.000000
vt 1.000000 1.000000
vt 1.000000 0.000000
vt 0.500000 0.000000
vt 0.500000 1.007812
vt 1.000000 1.007812
vt 1.000000 0.007812
vt 0.500000 0.007812
vn 0.0000 1.0000 0.0000
vn 0.0000 -1.0000 0.0000
vn 0.0000 0.0000 -1.0000
vn 0.0000 0.0000 1.0000
usemtl Material
s off
f 1/1/1 5/2/1 7/3/1 3/4/1
f 6/5/2 2/6/2 4/7/2 8/8/2
f 11/9/3 9/10/3 10/11/3 12/12/3
f 15/13/4 13/14/4 14/15/4 16/16/4
