# Blender v2.82 (sub 7) OBJ File: 'model.blend'
# www.blender.org
mtllib model.mtl
o Cylinder
v 0.005193 0.000000 0.489343
v -0.005193 0.000000 0.489343
v 0.005193 -0.191342 0.452094
v -0.005193 -0.191342 0.452094
v 0.005193 -0.353553 0.346018
v -0.005193 -0.353553 0.346018
v 0.005193 -0.461940 0.187264
v -0.005193 -0.461940 0.187264
v 0.005193 -0.500000 0.000000
v -0.005193 -0.500000 0.000000
v 0.005193 -0.461940 -0.187264
v -0.005193 -0.461940 -0.187264
v 0.005193 -0.353553 -0.346018
v -0.005193 -0.353553 -0.346018
v 0.005193 -0.191342 -0.452094
v -0.005193 -0.191342 -0.452094
v 0.005193 -0.000000 -0.489343
v -0.005193 -0.000000 -0.489343
v 0.005193 0.191342 -0.452094
v -0.005193 0.191342 -0.452094
v 0.005193 0.353553 -0.346018
v -0.005193 0.353553 -0.346018
v 0.005193 0.461940 -0.187264
v -0.005193 0.461940 -0.187264
v 0.005193 0.500000 -0.000000
v -0.005193 0.500000 -0.000000
v 0.005193 0.461940 0.187264
v -0.005193 0.461940 0.187264
v 0.005193 0.353553 0.346018
v -0.005193 0.353553 0.346018
v 0.005193 0.191342 0.452094
v -0.005193 0.191342 0.452094
vt 0.037758 0.309389
vt 0.000001 0.500791
vt 0.038363 0.692072
vt 0.147006 0.854112
vt 0.309389 0.962242
vt 0.500791 0.999999
vt 0.692072 0.961637
vt 0.854112 0.852994
vt 0.962242 0.690611
vt 0.999999 0.499209
vt 0.961637 0.307928
vt 0.852994 0.145888
vt 0.690611 0.037758
vt 0.499209 0.000001
vt 0.307928 0.038363
vt 0.145888 0.147006
vt 1.000000 0.499549
vt 0.961767 0.308241
vt 0.853234 0.146128
vt 0.690925 0.037888
vt 0.499549 0.000000
vt 0.308241 0.038233
vt 0.146128 0.146766
vt 0.037888 0.309075
vt 0.000000 0.500451
vt 0.038233 0.691758
vt 0.146766 0.853872
vt 0.309075 0.962112
vt 0.500451 1.000000
vt 0.691759 0.961767
vt 0.853872 0.853234
vt 0.962112 0.690924
vn -1.0000 0.0000 0.0000
vn 1.0000 -0.0000 -0.0000
usemtl Material
s off
f 4/1/1 2/2/1 32/3/1 30/4/1 28/5/1 26/6/1 24/7/1 22/8/1 20/9/1 18/10/1 16/11/1 14/12/1 12/13/1 10/14/1 8/15/1 6/16/1
f 1/17/2 3/18/2 5/19/2 7/20/2 9/21/2 11/22/2 13/23/2 15/24/2 17/25/2 19/26/2 21/27/2 23/28/2 25/29/2 27/30/2 29/31/2 31/32/2
