# Blender v2.83.1 OBJ File: ''
# www.blender.org
mtllib rot_axis.mtl
o Circle
v 0.000000 0.000000 -1.000000
v -0.195090 0.000000 -0.980785
v -0.382683 0.000000 -0.923880
v -0.555570 0.000000 -0.831470
v -0.707107 0.000000 -0.707107
v -0.831470 0.000000 -0.555570
v -0.923880 0.000000 -0.382683
v -0.980785 0.000000 -0.195090
v -1.000000 0.000000 -0.000000
v -0.980785 0.000000 0.195090
v -0.923880 0.000000 0.382683
v -0.831470 0.000000 0.555570
v -0.707107 0.000000 0.707107
v -0.555570 0.000000 0.831470
v -0.382683 0.000000 0.923880
v -0.195090 0.000000 0.980785
v 0.000000 0.000000 1.000000
v 0.195091 0.000000 0.980785
v 0.382684 0.000000 0.923879
v 0.555571 0.000000 0.831469
v 0.707107 0.000000 0.707106
v 0.831470 0.000000 0.555570
v 0.923880 0.000000 0.382683
v 0.980785 0.000000 0.195089
v 1.000000 0.000000 -0.000001
v 0.980785 0.000000 -0.195091
v 0.923879 0.000000 -0.382684
v 0.831469 0.000000 -0.555571
v 0.707106 0.000000 -0.707108
v 0.555569 0.000000 -0.831470
v 0.382682 0.000000 -0.923880
v 0.195089 0.000000 -0.980786
v -0.000000 0.000000 -0.945205
v -0.184400 0.000000 -0.927043
v -0.361714 0.000000 -0.873255
v -0.525128 0.000000 -0.785909
v -0.668361 0.000000 -0.668361
v -0.785909 0.000000 -0.525128
v -0.873255 0.000000 -0.361714
v -0.927043 0.000000 -0.184400
v -0.945205 0.000000 -0.000000
v -0.927043 0.000000 0.184400
v -0.873255 0.000000 0.361714
v -0.785909 0.000000 0.525128
v -0.668361 0.000000 0.668361
v -0.525128 0.000000 0.785909
v -0.361714 0.000000 0.873256
v -0.184400 0.000000 0.927043
v 0.000000 0.000000 0.945205
v 0.184401 0.000000 0.927043
v 0.361715 0.000000 0.873255
v 0.525128 0.000000 0.785909
v 0.668361 0.000000 0.668360
v 0.785910 0.000000 0.525127
v 0.873256 0.000000 0.361714
v 0.927043 0.000000 0.184399
v 0.945205 0.000000 -0.000001
v 0.927043 0.000000 -0.184401
v 0.873255 0.000000 -0.361715
v 0.785909 0.000000 -0.525129
v 0.668360 0.000000 -0.668362
v 0.525127 0.000000 -0.785910
v 0.361713 0.000000 -0.873256
v 0.184399 0.000000 -0.927043
v 0.000000 0.050000 -1.000000
v -0.195090 0.049998 -0.980785
v -0.382683 0.049998 -0.923880
v -0.555570 0.049998 -0.831470
v -0.707107 0.050000 -0.707107
v -0.831470 0.049998 -0.555570
v -0.923880 0.050000 -0.382683
v -0.980785 0.050000 -0.195090
v -1.000000 0.050000 -0.000000
v -0.980785 0.049998 0.195090
v -0.923880 0.050000 0.382683
v -0.831470 0.049998 0.555570
v -0.707107 0.050000 0.707107
v -0.555570 0.049998 0.831470
v -0.382683 0.049998 0.923880
v -0.195090 0.050000 0.980785
v 0.000000 0.049998 1.000000
v 0.195091 0.049998 0.980785
v 0.382684 0.049998 0.923879
v 0.555571 0.049998 0.831469
v 0.707107 0.050000 0.707106
v 0.831470 0.049998 0.555570
v 0.923880 0.049998 0.382683
v 0.980785 0.050000 0.195089
v 1.000000 0.049998 -0.000001
v 0.980785 0.049998 -0.195091
v 0.923879 0.050000 -0.382684
v 0.831469 0.049998 -0.555571
v 0.707106 0.050000 -0.707108
v 0.555569 0.049998 -0.831470
v 0.382682 0.050000 -0.923880
v 0.195089 0.050000 -0.980786
v -0.000000 0.050000 -0.945205
v -0.184400 0.050000 -0.927043
v -0.361714 0.050000 -0.873255
v -0.525128 0.050000 -0.785909
v -0.668361 0.050000 -0.668361
v -0.785909 0.050000 -0.525128
v -0.873255 0.050000 -0.361714
v -0.927043 0.050000 -0.184400
v -0.945205 0.050000 -0.000000
v -0.927043 0.050000 0.184400
v -0.873255 0.050000 0.361714
v -0.785909 0.049998 0.525128
v -0.668361 0.050000 0.668361
v -0.525128 0.050000 0.785909
v -0.361714 0.049998 0.873256
v -0.184400 0.050000 0.927043
v 0.000000 0.050000 0.945205
v 0.184401 0.050000 0.927043
v 0.361715 0.049998 0.873255
v 0.525128 0.050000 0.785909
v 0.668361 0.050000 0.668360
v 0.785910 0.050000 0.525127
v 0.873256 0.049998 0.361714
v 0.927043 0.049998 0.184399
v 0.945205 0.049998 -0.000001
v 0.927043 0.050000 -0.184401
v 0.873255 0.050000 -0.361715
v 0.785909 0.050000 -0.525129
v 0.668360 0.050000 -0.668362
v 0.525127 0.050000 -0.785910
v 0.361713 0.050000 -0.873256
v 0.184399 0.049998 -0.927043
vt 0.000000 0.000000
vt 0.000000 0.000000
vt 0.000000 0.000000
vt 0.000000 0.000000
vt 0.000000 0.000000
vt 0.000000 0.000000
vt 0.000000 0.000000
vt 0.000000 0.000000
vt 0.000000 0.000000
vt 0.000000 0.000000
vt 0.000000 0.000000
vt 0.000000 0.000000
vt 0.000000 0.000000
vt 0.000000 0.000000
vt 0.000000 0.000000
vt 0.000000 0.000000
vt 0.000000 0.000000
vt 0.000000 0.000000
vt 0.000000 0.000000
vt 0.000000 0.000000
vt 0.000000 0.000000
vt 0.000000 0.000000
vt 0.000000 0.000000
vt 0.000000 0.000000
vt 0.000000 0.000000
vt 0.000000 0.000000
vt 0.000000 0.000000
vt 0.000000 0.000000
vt 0.000000 0.000000
vt 0.000000 0.000000
vt 0.000000 0.000000
vt 0.000000 0.000000
vt 0.000000 0.000000
vt 0.000000 0.000000
vt 0.000000 0.000000
vt 0.000000 0.000000
vt 0.000000 0.000000
vt 0.000000 0.000000
vt 0.000000 0.000000
vt 0.000000 0.000000
vt 0.000000 0.000000
vt 0.000000 0.000000
vt 0.000000 0.000000
vt 0.000000 0.000000
vt 0.000000 0.000000
vt 0.000000 0.000000
vt 0.000000 0.000000
vt 0.000000 0.000000
vt 0.000000 0.000000
vt 0.000000 0.000000
vt 0.000000 0.000000
vt 0.000000 0.000000
vt 0.000000 0.000000
vt 0.000000 0.000000
vt 0.000000 0.000000
vt 0.000000 0.000000
vt 0.000000 0.000000
vt 0.000000 0.000000
vt 0.000000 0.000000
vt 0.000000 0.000000
vt 0.000000 0.000000
vt 0.000000 0.000000
vt 0.000000 0.000000
vt 0.000000 0.000000
vt 0.000000 0.000000
vt 0.000000 0.000000
vt 0.000000 0.000000
vt 0.000000 0.000000
vt 0.000000 0.000000
vt 0.000000 0.000000
vt 0.000000 0.000000
vt 0.000000 0.000000
vt 0.000000 0.000000
vt 0.000000 0.000000
vt 0.000000 0.000000
vt 0.000000 0.000000
vt 0.000000 0.000000
vt 0.000000 0.000000
vt 0.000000 0.000000
vt 0.000000 0.000000
vt 0.000000 0.000000
vt 0.000000 0.000000
vt 0.000000 0.000000
vt 0.000000 0.000000
vt 0.000000 0.000000
vt 0.000000 0.000000
vt 0.000000 0.000000
vt 0.000000 0.000000
vt 0.000000 0.000000
vt 0.000000 0.000000
vt 0.000000 0.000000
vt 0.000000 0.000000
vt 0.000000 0.000000
vt 0.000000 0.000000
vt 0.000000 0.000000
vt 0.000000 0.000000
vt 0.000000 0.000000
vt 0.000000 0.000000
vt 0.000000 0.000000
vt 0.000000 0.000000
vt 0.000000 0.000000
vt 0.000000 0.000000
vt 0.000000 0.000000
vt 0.000000 0.000000
vt 0.000000 0.000000
vt 0.000000 0.000000
vt 0.000000 0.000000
vt 0.000000 0.000000
vt 0.000000 0.000000
vt 0.000000 0.000000
vt 0.000000 0.000000
vt 0.000000 0.000000
vt 0.000000 0.000000
vt 0.000000 0.000000
vt 0.000000 0.000000
vt 0.000000 0.000000
vt 0.000000 0.000000
vt 0.000000 0.000000
vt 0.000000 0.000000
vt 0.000000 0.000000
vt 0.000000 0.000000
vt 0.000000 0.000000
vt 0.000000 0.000000
vt 0.000000 0.000000
vt 0.000000 0.000000
vt 0.000000 0.000000
vt 0.000000 0.000000
vt 0.000000 0.000000
vn 0.0000 -1.0000 0.0000
vn 0.0000 1.0000 0.0000
vn -0.0980 0.0000 -0.9952
vn -0.2903 0.0000 -0.9569
vn -0.4714 0.0000 -0.8819
vn -0.6344 0.0000 -0.7730
vn -0.7730 0.0000 -0.6344
vn -0.8819 0.0000 -0.4714
vn -0.9569 0.0000 -0.2903
vn -0.9952 0.0000 -0.0980
vn -0.9952 0.0000 0.0980
vn -0.9569 0.0000 0.2903
vn -0.8819 0.0000 0.4714
vn -0.7730 0.0000 0.6344
vn -0.6344 0.0000 0.7730
vn -0.4714 0.0000 0.8819
vn -0.2903 0.0000 0.9569
vn -0.0980 0.0000 0.9952
vn 0.0980 0.0000 0.9952
vn 0.2903 0.0000 0.9569
vn 0.4714 0.0000 0.8819
vn 0.6344 0.0000 0.7730
vn 0.7730 0.0000 0.6344
vn 0.8819 0.0000 0.4714
vn 0.9569 0.0000 0.2903
vn 0.9952 0.0000 0.0980
vn 0.9952 0.0000 -0.0980
vn 0.9569 0.0000 -0.2903
vn 0.8819 0.0000 -0.4714
vn 0.7730 0.0000 -0.6344
vn 0.6344 0.0000 -0.7730
vn 0.4714 0.0000 -0.8819
vn 0.2903 0.0000 -0.9569
vn 0.0980 0.0000 -0.9952
usemtl None
s off
f 12/1/1 11/2/1 43/3/1 44/4/1
f 26/5/1 25/6/1 57/7/1 58/8/1
f 13/9/1 12/1/1 44/4/1 45/10/1
f 27/11/1 26/5/1 58/8/1 59/12/1
f 14/13/1 13/9/1 45/10/1 46/14/1
f 28/15/1 27/11/1 59/12/1 60/16/1
f 15/17/1 14/13/1 46/14/1 47/18/1
f 2/19/1 1/20/1 33/21/1 34/22/1
f 29/23/1 28/15/1 60/16/1 61/24/1
f 16/25/1 15/17/1 47/18/1 48/26/1
f 3/27/1 2/19/1 34/22/1 35/28/1
f 30/29/1 29/23/1 61/24/1 62/30/1
f 17/31/1 16/25/1 48/26/1 49/32/1
f 4/33/1 3/27/1 35/28/1 36/34/1
f 31/35/1 30/29/1 62/30/1 63/36/1
f 18/37/1 17/31/1 49/32/1 50/38/1
f 5/39/1 4/33/1 36/34/1 37/40/1
f 32/41/1 31/35/1 63/36/1 64/42/1
f 19/43/1 18/37/1 50/38/1 51/44/1
f 6/45/1 5/39/1 37/40/1 38/46/1
f 1/20/1 32/41/1 64/42/1 33/21/1
f 20/47/1 19/43/1 51/44/1 52/48/1
f 7/49/1 6/45/1 38/46/1 39/50/1
f 21/51/1 20/47/1 52/48/1 53/52/1
f 8/53/1 7/49/1 39/50/1 40/54/1
f 22/55/1 21/51/1 53/52/1 54/56/1
f 9/57/1 8/53/1 40/54/1 41/58/1
f 23/59/1 22/55/1 54/56/1 55/60/1
f 10/61/1 9/57/1 41/58/1 42/62/1
f 24/63/1 23/59/1 55/60/1 56/64/1
f 11/2/1 10/61/1 42/62/1 43/3/1
f 25/6/1 24/63/1 56/64/1 57/7/1
f 76/65/2 108/66/2 107/67/2 75/68/2
f 90/69/2 122/70/2 121/71/2 89/72/2
f 77/73/2 109/74/2 108/66/2 76/65/2
f 91/75/2 123/76/2 122/70/2 90/69/2
f 78/77/2 110/78/2 109/74/2 77/73/2
f 92/79/2 124/80/2 123/76/2 91/75/2
f 79/81/2 111/82/2 110/78/2 78/77/2
f 66/83/2 98/84/2 97/85/2 65/86/2
f 93/87/2 125/88/2 124/80/2 92/79/2
f 80/89/2 112/90/2 111/82/2 79/81/2
f 67/91/2 99/92/2 98/84/2 66/83/2
f 94/93/2 126/94/2 125/88/2 93/87/2
f 81/95/2 113/96/2 112/90/2 80/89/2
f 68/97/2 100/98/2 99/92/2 67/91/2
f 95/99/2 127/100/2 126/94/2 94/93/2
f 82/101/2 114/102/2 113/96/2 81/95/2
f 69/103/2 101/104/2 100/98/2 68/97/2
f 96/105/2 128/106/2 127/100/2 95/99/2
f 83/107/2 115/108/2 114/102/2 82/101/2
f 70/109/2 102/110/2 101/104/2 69/103/2
f 65/86/2 97/85/2 128/106/2 96/105/2
f 84/111/2 116/112/2 115/108/2 83/107/2
f 71/113/2 103/114/2 102/110/2 70/109/2
f 85/115/2 117/116/2 116/112/2 84/111/2
f 72/117/2 104/118/2 103/114/2 71/113/2
f 86/119/2 118/120/2 117/116/2 85/115/2
f 73/121/2 105/122/2 104/118/2 72/117/2
f 87/123/2 119/124/2 118/120/2 86/119/2
f 74/125/2 106/126/2 105/122/2 73/121/2
f 88/127/2 120/128/2 119/124/2 87/123/2
f 75/68/2 107/67/2 106/126/2 74/125/2
f 89/72/2 121/71/2 120/128/2 88/127/2
f 1/20/3 2/19/3 66/83/3 65/86/3
f 2/19/4 3/27/4 67/91/4 66/83/4
f 3/27/5 4/33/5 68/97/5 67/91/5
f 4/33/6 5/39/6 69/103/6 68/97/6
f 5/39/7 6/45/7 70/109/7 69/103/7
f 6/45/8 7/49/8 71/113/8 70/109/8
f 7/49/9 8/53/9 72/117/9 71/113/9
f 8/53/10 9/57/10 73/121/10 72/117/10
f 9/57/11 10/61/11 74/125/11 73/121/11
f 10/61/12 11/2/12 75/68/12 74/125/12
f 11/2/13 12/1/13 76/65/13 75/68/13
f 12/1/14 13/9/14 77/73/14 76/65/14
f 13/9/15 14/13/15 78/77/15 77/73/15
f 14/13/16 15/17/16 79/81/16 78/77/16
f 15/17/17 16/25/17 80/89/17 79/81/17
f 16/25/18 17/31/18 81/95/18 80/89/18
f 17/31/19 18/37/19 82/101/19 81/95/19
f 18/37/20 19/43/20 83/107/20 82/101/20
f 19/43/21 20/47/21 84/111/21 83/107/21
f 20/47/22 21/51/22 85/115/22 84/111/22
f 21/51/23 22/55/23 86/119/23 85/115/23
f 22/55/24 23/59/24 87/123/24 86/119/24
f 23/59/25 24/63/25 88/127/25 87/123/25
f 24/63/26 25/6/26 89/72/26 88/127/26
f 25/6/27 26/5/27 90/69/27 89/72/27
f 26/5/28 27/11/28 91/75/28 90/69/28
f 27/11/29 28/15/29 92/79/29 91/75/29
f 28/15/30 29/23/30 93/87/30 92/79/30
f 29/23/31 30/29/31 94/93/31 93/87/31
f 30/29/32 31/35/32 95/99/32 94/93/32
f 31/35/33 32/41/33 96/105/33 95/99/33
f 32/41/34 1/20/34 65/86/34 96/105/34
f 34/22/19 33/21/19 97/85/19 98/84/19
f 35/28/20 34/22/20 98/84/20 99/92/20
f 36/34/21 35/28/21 99/92/21 100/98/21
f 37/40/22 36/34/22 100/98/22 101/104/22
f 38/46/23 37/40/23 101/104/23 102/110/23
f 39/50/24 38/46/24 102/110/24 103/114/24
f 40/54/25 39/50/25 103/114/25 104/118/25
f 41/58/26 40/54/26 104/118/26 105/122/26
f 42/62/27 41/58/27 105/122/27 106/126/27
f 43/3/28 42/62/28 106/126/28 107/67/28
f 44/4/29 43/3/29 107/67/29 108/66/29
f 45/10/30 44/4/30 108/66/30 109/74/30
f 46/14/31 45/10/31 109/74/31 110/78/31
f 47/18/32 46/14/32 110/78/32 111/82/32
f 48/26/33 47/18/33 111/82/33 112/90/33
f 49/32/34 48/26/34 112/90/34 113/96/34
f 50/38/3 49/32/3 113/96/3 114/102/3
f 51/44/4 50/38/4 114/102/4 115/108/4
f 52/48/5 51/44/5 115/108/5 116/112/5
f 53/52/6 52/48/6 116/112/6 117/116/6
f 54/56/7 53/52/7 117/116/7 118/120/7
f 55/60/8 54/56/8 118/120/8 119/124/8
f 56/64/9 55/60/9 119/124/9 120/128/9
f 57/7/10 56/64/10 120/128/10 121/71/10
f 58/8/11 57/7/11 121/71/11 122/70/11
f 59/12/12 58/8/12 122/70/12 123/76/12
f 60/16/13 59/12/13 123/76/13 124/80/13
f 61/24/14 60/16/14 124/80/14 125/88/14
f 62/30/15 61/24/15 125/88/15 126/94/15
f 63/36/16 62/30/16 126/94/16 127/100/16
f 64/42/17 63/36/17 127/100/17 128/106/17
f 33/21/18 64/42/18 128/106/18 97/85/18
