# Blender v2.82 (sub 7) OBJ File: 'microphone.blend'
# www.blender.org
mtllib model.mtl
o Cylinder.001
v -0.000000 -0.077328 -0.065552
v -0.000000 0.052707 -0.065552
v 0.046353 -0.077328 -0.046353
v 0.046353 0.052707 -0.046353
v 0.065552 -0.077328 0.000000
v 0.065552 0.052707 0.000000
v 0.046353 -0.077328 0.046353
v 0.046353 0.052707 0.046353
v -0.000000 -0.077328 0.065552
v -0.000000 0.052707 0.065552
v -0.046353 -0.077328 0.046353
v -0.046353 0.052707 0.046353
v -0.065552 -0.077328 -0.000000
v -0.065552 0.052707 -0.000000
v -0.046353 -0.077328 -0.046353
v -0.046353 0.052707 -0.046353
v -0.000000 0.264216 -0.040493
v 0.028633 0.264216 -0.028633
v 0.040493 0.264216 0.000000
v 0.028633 0.264216 0.028633
v -0.000000 0.264216 0.040493
v -0.028633 0.264216 0.028633
v -0.040493 0.264216 -0.000000
v -0.028633 0.264216 -0.028633
v 0.064647 0.226804 -0.064647
v -0.000000 0.226804 -0.091425
v 0.091425 0.226804 0.000000
v 0.064647 0.226804 0.064647
v -0.000000 0.226804 0.091425
v -0.064647 0.226804 0.064647
v -0.091425 0.226804 -0.000000
v -0.064647 0.226804 -0.064647
v 0.064647 0.078587 -0.064647
v -0.000000 0.078587 -0.091425
v 0.091425 0.078587 0.000000
v 0.064647 0.078587 0.064647
v -0.000000 0.078587 0.091425
v -0.064647 0.078587 0.064647
v -0.091425 0.078587 -0.000000
v -0.064647 0.078587 -0.064647
v 0.052858 0.052279 -0.052858
v -0.000000 0.052279 -0.074752
v 0.074752 0.052279 0.000000
v 0.052858 0.052279 0.052858
v -0.000000 0.052279 0.074752
v -0.052858 0.052279 0.052858
v -0.074752 0.052279 -0.000000
v -0.052858 0.052279 -0.052858
v -0.000000 -0.104743 -0.051413
v 0.036355 -0.104743 -0.036355
v 0.051413 -0.104743 0.000000
v 0.036355 -0.104743 0.036355
v -0.000000 -0.104743 0.051413
v -0.036355 -0.104743 0.036355
v -0.051413 -0.104743 -0.000000
v -0.036355 -0.104743 -0.036355
v -0.000000 -0.061272 -0.040247
v 0.028459 -0.061272 -0.028459
v 0.040247 -0.061272 0.000000
v 0.028459 -0.061272 0.028459
v -0.000000 -0.061272 0.040247
v -0.028459 -0.061272 0.028459
v -0.040247 -0.061272 -0.000000
v -0.028459 -0.061272 -0.028459
v -0.000000 -0.261076 -0.025404
v 0.017963 -0.261076 -0.017963
v 0.025404 -0.261076 0.000000
v 0.017963 -0.261076 0.017963
v -0.000000 -0.261076 0.025404
v -0.017963 -0.261076 0.017963
v -0.025404 -0.261076 -0.000000
v -0.017963 -0.261076 -0.017963
vt 0.593856 0.866260
vt 0.593856 0.640473
vt 0.680269 0.640473
vt 0.680269 0.866260
vt 0.741372 0.640388
vt 0.741372 0.866174
vt 0.262444 0.698500
vt 0.262444 0.924286
vt 0.176031 0.924286
vt 0.176031 0.698500
vt 0.456048 0.688148
vt 0.456048 0.913934
vt 0.399251 0.913848
vt 0.399251 0.688062
vt 0.312839 0.913848
vt 0.312839 0.688062
vt 0.894689 0.688044
vt 0.894689 0.913830
vt 0.838468 0.913744
vt 0.838468 0.687958
vt 0.004909 0.695991
vt 0.052832 0.647677
vt 0.120607 0.647677
vt 0.168530 0.695991
vt 0.168530 0.764317
vt 0.120607 0.812631
vt 0.052832 0.812631
vt 0.004909 0.764317
vt 0.752056 0.913744
vt 0.752056 0.687958
vt 0.532753 0.866174
vt 0.532753 0.640388
vt 0.185350 0.650930
vt 0.253125 0.650930
vt 0.435930 0.090504
vt 0.398186 0.128555
vt 0.398186 0.182369
vt 0.435930 0.220420
vt 0.489309 0.220420
vt 0.527054 0.182369
vt 0.527054 0.128555
vt 0.489309 0.090504
vt 0.091391 0.633634
vt 0.091391 0.376275
vt 0.006172 0.376155
vt 0.006172 0.633514
vt 0.608098 0.094712
vt 0.522879 0.008800
vt 0.402361 0.008800
vt 0.317142 0.094712
vt 0.317142 0.216211
vt 0.402361 0.302124
vt 0.522879 0.302124
vt 0.608098 0.216211
vt 0.214466 0.054910
vt 0.203477 0.009193
vt 0.104937 0.009193
vt 0.093948 0.054910
vt 0.399804 0.623193
vt 0.399804 0.365834
vt 0.314585 0.365714
vt 0.314585 0.623073
vt 0.653184 0.320016
vt 0.653184 0.577375
vt 0.738403 0.577495
vt 0.738403 0.320136
vt 0.211909 0.633634
vt 0.211909 0.376275
vt 0.520322 0.623193
vt 0.520322 0.365834
vt 0.532667 0.320016
vt 0.532667 0.577375
vt 0.214466 0.312269
vt 0.093948 0.312269
vt 0.008729 0.054791
vt 0.008729 0.312149
vt 0.861860 0.176783
vt 0.861860 0.077440
vt 0.792182 0.007195
vt 0.693642 0.007195
vt 0.623963 0.077441
vt 0.623963 0.176783
vt 0.693642 0.247028
vt 0.792182 0.247028
vt 0.035258 0.009095
vt 0.102380 0.330558
vt 0.032702 0.330460
vt 0.410793 0.320117
vt 0.341115 0.320019
vt 0.299685 0.054790
vt 0.273155 0.009095
vt 0.200920 0.330558
vt 0.509333 0.320117
vt 0.543655 0.623092
vt 0.642195 0.623092
vt 0.899571 0.688044
vt 0.829149 0.640388
vt 0.877073 0.640455
vt 0.460354 0.688148
vt 0.389932 0.640491
vt 0.437856 0.640559
vt 0.761375 0.640388
vt 0.718873 0.913763
vt 0.670950 0.913830
vt 0.322158 0.640492
vt 0.603175 0.913830
vt 0.555252 0.913763
vt 0.220506 0.347682
vt 0.244186 0.323810
vt 0.277675 0.323810
vt 0.301354 0.347682
vt 0.301354 0.381443
vt 0.277675 0.405316
vt 0.244186 0.405316
vt 0.220506 0.381443
vt 0.973630 0.621747
vt 0.936116 0.621716
vt 0.926134 0.274824
vt 0.949814 0.274844
vt 0.838987 0.274878
vt 0.876502 0.274825
vt 0.852884 0.621742
vt 0.829204 0.621776
vt 0.959768 0.989484
vt 0.906714 0.989515
vt 0.916298 0.642612
vt 0.949786 0.642592
vt 0.883061 0.621747
vt 0.892645 0.274844
vt 0.519426 0.989593
vt 0.466372 0.989593
vt 0.476154 0.642695
vt 0.509643 0.642695
vt 0.785933 0.274878
vt 0.795716 0.621776
vt 0.748418 0.274825
vt 0.772036 0.621742
vt 0.997283 0.989515
vt 0.973466 0.642612
vn 0.3827 0.0000 -0.9239
vn 0.9239 0.0000 -0.3827
vn 0.9239 0.0000 0.3827
vn 0.3827 0.0000 0.9239
vn -0.3827 0.0000 0.9239
vn -0.9239 0.0000 0.3827
vn 0.0000 -1.0000 0.0000
vn -0.9239 0.0000 -0.3827
vn -0.3827 0.0000 -0.9239
vn 0.8340 -0.4301 0.3455
vn 0.0000 1.0000 0.0000
vn 0.5750 0.7827 0.2382
vn 0.2382 0.7827 -0.5750
vn -0.2382 0.7827 -0.5750
vn -0.5750 0.7827 0.2382
vn 0.2382 0.7827 0.5750
vn 0.5750 0.7827 -0.2382
vn -0.5750 0.7827 -0.2382
vn -0.2382 0.7827 0.5750
vn 0.3302 -0.5053 -0.7973
vn -0.3302 -0.5053 -0.7973
vn -0.7973 -0.5053 0.3302
vn 0.3302 -0.5053 0.7973
vn 0.7973 -0.5053 -0.3302
vn -0.7973 -0.5053 -0.3302
vn -0.3302 -0.5053 0.7973
vn 0.7973 -0.5053 0.3302
vn -0.8340 -0.4302 0.3455
vn 0.3455 -0.4302 0.8340
vn -0.8340 -0.4302 -0.3455
vn 0.8340 -0.4302 -0.3455
vn -0.3455 -0.4301 0.8340
vn -0.3455 -0.4302 -0.8340
vn 0.3455 -0.4301 -0.8340
vn 0.3818 -0.0685 0.9217
vn 0.9217 -0.0685 -0.3818
vn -0.9217 -0.0685 -0.3818
vn -0.3818 -0.0685 0.9217
vn 0.9217 -0.0685 0.3818
vn 0.3818 -0.0685 -0.9217
vn -0.3818 -0.0685 -0.9217
vn -0.9217 -0.0685 0.3818
usemtl Material
s off
f 1/1/1 2/2/1 4/3/1 3/4/1
f 3/4/2 4/3/2 6/5/2 5/6/2
f 5/7/3 6/8/3 8/9/3 7/10/3
f 7/11/4 8/12/4 10/13/4 9/14/4
f 9/14/5 10/13/5 12/15/5 11/16/5
f 11/17/6 12/18/6 14/19/6 13/20/6
f 49/21/7 50/22/7 51/23/7 52/24/7 53/25/7 54/26/7 55/27/7 56/28/7
f 13/20/8 14/19/8 16/29/8 15/30/8
f 15/31/9 16/32/9 2/2/9 1/1/9
f 5/7/10 7/10/10 52/33/10 51/34/10
f 18/35/11 17/36/11 24/37/11 23/38/11 22/39/11 21/40/11 20/41/11 19/42/11
f 31/43/6 39/44/6 38/45/6 30/46/6
f 20/41/12 28/47/12 27/48/12 19/42/12
f 18/35/13 25/49/13 26/50/13 17/36/13
f 17/36/14 26/50/14 32/51/14 24/37/14
f 23/38/15 31/52/15 30/53/15 22/39/15
f 21/40/16 29/54/16 28/47/16 20/41/16
f 19/42/17 27/48/17 25/49/17 18/35/17
f 24/37/18 32/51/18 31/52/18 23/38/18
f 22/39/19 30/53/19 29/54/19 21/40/19
f 33/55/20 41/56/20 42/57/20 34/58/20
f 29/59/4 37/60/4 36/61/4 28/62/4
f 27/63/2 35/64/2 33/65/2 25/66/2
f 32/67/8 40/68/8 39/44/8 31/43/8
f 30/69/5 38/70/5 37/60/5 29/59/5
f 28/71/3 36/72/3 35/64/3 27/63/3
f 25/73/1 33/55/1 34/58/1 26/74/1
f 26/74/9 34/58/9 40/75/9 32/76/9
f 41/77/7 43/78/7 44/79/7 45/80/7 46/81/7 47/82/7 48/83/7 42/84/7
f 34/58/21 42/57/21 48/85/21 40/75/21
f 39/44/22 47/86/22 46/87/22 38/45/22
f 37/60/23 45/88/23 44/89/23 36/61/23
f 35/90/24 43/91/24 41/56/24 33/55/24
f 40/68/25 48/92/25 47/86/25 39/44/25
f 38/70/26 46/93/26 45/88/26 37/60/26
f 36/72/27 44/94/27 43/95/27 35/64/27
f 11/96/28 13/20/28 55/97/28 54/98/28
f 7/99/29 9/14/29 53/100/29 52/101/29
f 13/20/30 15/30/30 56/102/30 55/97/30
f 3/4/31 5/6/31 51/103/31 50/104/31
f 9/14/32 11/16/32 54/105/32 53/100/32
f 15/31/33 1/1/33 49/106/33 56/107/33
f 1/1/34 3/4/34 50/104/34 49/106/34
f 65/108/7 66/109/7 67/110/7 68/111/7 69/112/7 70/113/7 71/114/7 72/115/7
f 60/116/35 61/117/35 69/118/35 68/119/35
f 58/120/36 59/121/36 67/122/36 66/123/36
f 63/124/37 64/125/37 72/126/37 71/127/37
f 61/117/38 62/128/38 70/129/38 69/118/38
f 59/130/39 60/131/39 68/132/39 67/133/39
f 57/134/40 58/120/40 66/123/40 65/135/40
f 64/136/41 57/134/41 65/135/41 72/137/41
f 62/138/42 63/124/42 71/127/42 70/139/42
o Cube
v 0.000000 0.001955 0.245831
v -0.086948 0.001955 0.142387
v 0.086948 0.001955 0.142387
v -0.000000 -0.058262 0.245831
v -0.086948 -0.058262 0.142387
v 0.086948 -0.058262 0.142387
v -0.013174 0.001955 0.142387
v 0.013174 0.001955 0.142387
v -0.013174 -0.058262 0.142387
v 0.013174 -0.058262 0.142387
v 0.013174 0.001955 0.032367
v -0.013174 0.001955 0.032367
v -0.013174 -0.058262 0.032367
v 0.013174 -0.058262 0.032367
vt 0.752402 0.258418
vt 0.752402 0.259316
vt 0.751504 0.259316
vt 0.752402 0.260215
vt 0.751504 0.260215
vt 0.751504 0.261113
vt 0.750606 0.260215
vt 0.750606 0.261113
vt 0.753301 0.260215
vt 0.753301 0.261113
vt 0.752402 0.261113
vt 0.781699 0.628457
vt 0.781699 0.629355
vt 0.781699 0.629355
vt 0.781699 0.628457
vt 0.780801 0.628457
vt 0.780801 0.628457
vt 0.780801 0.629355
vt 0.780801 0.629355
vn 0.0000 1.0000 0.0000
vn 0.0000 0.0000 -1.0000
vn -0.0000 -1.0000 0.0000
vn -0.7655 0.0000 0.6434
vn 0.7655 0.0000 0.6434
vn 1.0000 -0.0000 0.0000
vn -1.0000 0.0000 0.0000
usemtl Material
s off
f 73/140/43 75/141/43 74/142/43
f 74/142/44 75/141/44 78/143/44 77/144/44
f 77/144/45 78/143/45 76/145/45
f 74/146/46 77/144/46 76/145/46 73/147/46
f 78/143/47 75/148/47 73/149/47 76/150/47
f 80/151/48 82/152/48 86/153/48 83/154/48
f 79/155/43 80/151/43 83/154/43 84/156/43
f 82/152/45 81/157/45 85/158/45 86/153/45
f 81/157/49 79/155/49 84/156/49 85/158/49
