# Blender 4.1.1
# www.blender.org
mtllib model.mtl
o camera_Cube
v -0.132729 0.119906 -0.087875
v -0.132729 0.119906 0.087875
v -0.201943 -0.119906 -0.133699
v -0.201943 -0.119906 0.133699
v 0.132729 0.119906 -0.087875
v 0.132729 0.119906 0.087875
v 0.201943 -0.119906 -0.133699
v 0.201943 -0.119906 0.133699
v 0.089333 0.173004 0.000292
v 0.075936 0.173004 0.023495
v 0.049144 0.173004 0.023495
v 0.035747 0.173004 0.000292
v 0.049144 0.173004 -0.022911
v 0.075936 0.173004 -0.022911
v 0.046464 0.247253 0.000292
v 0.039766 0.235652 0.023495
v 0.026370 0.212449 0.023495
v 0.019672 0.200847 0.000292
v 0.026370 0.212449 -0.022911
v 0.039766 0.235652 -0.022911
v -0.039272 0.247253 0.000292
v -0.032574 0.235652 0.023495
v -0.019177 0.212449 0.023495
v -0.012479 0.200847 0.000292
v -0.019177 0.212449 -0.022911
v -0.032574 0.235652 -0.022911
v -0.082140 0.173004 0.000292
v -0.068744 0.173004 0.023495
v -0.041951 0.173004 0.023495
v -0.028555 0.173004 0.000292
v -0.041951 0.173004 -0.022911
v -0.068744 0.173004 -0.022911
v -0.039272 0.098754 0.000292
v -0.032574 0.110355 0.023495
v -0.019177 0.133558 0.023495
v -0.012479 0.145160 0.000292
v -0.019177 0.133558 -0.022911
v -0.032574 0.110355 -0.022911
v 0.046464 0.098754 0.000292
v 0.039766 0.110355 0.023495
v 0.026370 0.133558 0.023495
v 0.019672 0.145160 0.000292
v 0.026370 0.133558 -0.022911
v 0.039766 0.110355 -0.022911
vn -0.0000 -1.0000 -0.0000
vn 0.9608 0.2773 -0.0000
vn -0.0000 0.1877 -0.9822
vn -0.9608 0.2773 -0.0000
vn -0.0000 1.0000 -0.0000
vn -0.0000 0.1877 0.9822
vn 0.7746 0.4472 0.4472
vn -0.0000 -0.0000 1.0000
vn -0.7746 -0.4472 0.4472
vn -0.7746 -0.4472 -0.4472
vn -0.0000 -0.0000 -1.0000
vn 0.7746 0.4472 -0.4472
vn -0.0000 0.8944 0.4472
vn -0.0000 -0.8944 0.4472
vn -0.0000 -0.8944 -0.4472
vn -0.0000 0.8944 -0.4472
vn -0.7746 0.4472 0.4472
vn 0.7746 -0.4472 0.4472
vn 0.7746 -0.4472 -0.4472
vn -0.7746 0.4472 -0.4472
vt 0.011181 0.474077
vt 0.011181 0.011181
vt 0.317648 0.011181
vt 0.317647 0.474077
vt 0.292110 0.802906
vt 0.011181 0.750387
vt 0.011181 0.548958
vt 0.292110 0.496439
vt 0.340009 0.011181
vt 0.616172 0.090507
vt 0.616172 0.394751
vt 0.340009 0.474077
vt 0.620939 0.750387
vt 0.340009 0.802906
vt 0.340009 0.496439
vt 0.620939 0.548958
vt 0.643301 0.800683
vt 0.643301 0.496439
vt 0.844729 0.496439
vt 0.844729 0.800683
vt 0.638534 0.011181
vt 0.914696 0.090507
vt 0.914696 0.394751
vt 0.638534 0.474077
vt 0.037774 0.878819
vt 0.037774 0.976946
vt 0.011181 0.968578
vt 0.011181 0.885784
vt 0.786891 0.864466
vt 0.786891 0.947353
vt 0.760300 0.932012
vt 0.760300 0.879824
vt 0.291012 0.877397
vt 0.291012 0.905847
vt 0.264419 0.890514
vt 0.264419 0.870432
vt 0.237826 0.905847
vt 0.237826 0.877397
vt 0.835844 0.879824
vt 0.835844 0.932012
vt 0.809253 0.947353
vt 0.809253 0.864466
vt 0.064367 0.885784
vt 0.064367 0.968578
vt 0.893684 0.768742
vt 0.893684 0.670479
vt 0.920277 0.678156
vt 0.920277 0.761066
vt 0.715096 0.988819
vt 0.715096 0.958120
vt 0.365576 0.878454
vt 0.313374 0.878454
vt 0.321051 0.851861
vt 0.357900 0.851861
vt 0.313374 0.825268
vt 0.365576 0.825268
vt 0.881048 0.958120
vt 0.881048 0.988819
vt 0.867091 0.761066
vt 0.867091 0.678156
vt 0.893684 0.648117
vt 0.893684 0.549991
vt 0.920277 0.556956
vt 0.920277 0.639750
vt 0.643300 0.947398
vt 0.669891 0.932040
vt 0.162278 0.905847
vt 0.162278 0.877397
vt 0.188871 0.870433
vt 0.188871 0.890514
vt 0.215464 0.877397
vt 0.215464 0.905847
vt 0.926253 0.932040
vt 0.952843 0.947398
vt 0.867091 0.639750
vt 0.867091 0.556956
vt 0.893684 0.496439
vt 0.920277 0.511772
vt 0.643300 0.864511
vt 0.669891 0.879852
vt 0.162278 0.825268
vt 0.188871 0.833635
vt 0.215464 0.825268
vt 0.926253 0.879852
vt 0.952843 0.864511
vt 0.867091 0.511772
vt 0.113322 0.923531
vt 0.113322 0.825268
vt 0.139916 0.832944
vt 0.139916 0.915854
vt 0.715096 0.823045
vt 0.715096 0.853744
vt 0.440141 0.878454
vt 0.387938 0.878454
vt 0.395615 0.851861
vt 0.432464 0.851861
vt 0.387938 0.825268
vt 0.440141 0.825268
vt 0.881048 0.853744
vt 0.881048 0.823045
vt 0.086729 0.915854
vt 0.086729 0.832944
vt 0.037774 0.825268
vt 0.011181 0.840600
vt 0.291012 0.825268
vt 0.264419 0.833635
vt 0.237826 0.825268
vt 0.064367 0.840600
s 0
usemtl Material.001
f 3/1/1 7/2/1 8/3/1 4/4/1
f 7/5/2 5/6/2 6/7/2 8/8/2
f 3/9/3 1/10/3 5/11/3 7/12/3
f 1/13/4 3/14/4 4/15/4 2/16/4
f 5/17/5 1/18/5 2/19/5 6/20/5
f 8/21/6 6/22/6 2/23/6 4/24/6
f 9/25/7 15/26/7 16/27/7 10/28/7
f 10/29/8 16/30/8 17/31/8 11/32/8
f 11/33/9 17/34/9 18/35/9 12/36/9
f 12/36/10 18/35/10 19/37/10 13/38/10
f 13/39/11 19/40/11 20/41/11 14/42/11
f 14/43/12 20/44/12 15/26/12 9/25/12
f 15/45/13 21/46/13 22/47/13 16/48/13
f 16/30/8 22/49/8 23/50/8 17/31/8
f 17/51/14 23/52/14 24/53/14 18/54/14
f 18/54/15 24/53/15 25/55/15 19/56/15
f 19/40/11 25/57/11 26/58/11 20/41/11
f 20/59/16 26/60/16 21/46/16 15/45/16
f 21/61/17 27/62/17 28/63/17 22/64/17
f 22/49/8 28/65/8 29/66/8 23/50/8
f 23/67/18 29/68/18 30/69/18 24/70/18
f 24/70/19 30/69/19 31/71/19 25/72/19
f 25/57/11 31/73/11 32/74/11 26/58/11
f 26/75/20 32/76/20 27/62/20 21/61/20
f 27/62/9 33/77/9 34/78/9 28/63/9
f 28/65/8 34/79/8 35/80/8 29/66/8
f 29/68/7 35/81/7 36/82/7 30/69/7
f 30/69/12 36/82/12 37/83/12 31/71/12
f 31/73/11 37/84/11 38/85/11 32/74/11
f 32/76/10 38/86/10 33/77/10 27/62/10
f 33/87/14 39/88/14 40/89/14 34/90/14
f 34/79/8 40/91/8 41/92/8 35/80/8
f 35/93/13 41/94/13 42/95/13 36/96/13
f 36/96/16 42/95/16 43/97/16 37/98/16
f 37/84/11 43/99/11 44/100/11 38/85/11
f 38/101/15 44/102/15 39/88/15 33/87/15
f 39/103/18 9/25/18 10/28/18 40/104/18
f 40/91/8 10/29/8 11/32/8 41/92/8
f 41/105/17 11/33/17 12/36/17 42/106/17
f 42/106/20 12/36/20 13/38/20 43/107/20
f 43/99/11 13/39/11 14/42/11 44/100/11
f 44/108/19 14/43/19 9/25/19 39/103/19
