# Blender v2.83.1 OBJ File: ''
# www.blender.org
mtllib Cubemap.mtl
o Cube
v 1.000000 1.000000 -1.000000
v 1.000000 -1.000000 -1.000000
v 1.000000 1.000000 1.000000
v 1.000000 -1.000000 1.000000
v -1.000000 1.000000 -1.000000
v -1.000000 -1.000000 -1.000000
v -1.000000 1.000000 1.000000
v -1.000000 -1.000000 1.000000
vt 0.499107 0.665436
vt 0.250863 0.665436
vt 0.250863 0.999976
vt 0.499107 0.999976
vt 0.250863 0.334700
vt 0.000000 0.334700
vt 0.000000 0.665436
vt 1.000000 0.334700
vt 0.750000 0.334700
vt 0.750000 0.665436
vt 1.000000 0.665436
vt 0.499107 0.000024
vt 0.250863 0.000024
vt 0.499107 0.334700
vn -0.5773 -0.5773 0.5773
vn -0.5773 -0.5773 -0.5773
vn 0.5773 -0.5773 -0.5773
vn 0.5773 -0.5773 0.5773
vn -0.5773 0.5773 -0.5773
vn 0.5773 0.5773 -0.5773
vn 0.5773 0.5773 0.5773
vn -0.5773 0.5773 0.5773
usemtl Material
s 1
f 1/1/1 3/2/2 7/3/3 5/4/4
f 4/5/5 8/6/6 7/7/3 3/2/2
f 8/8/6 6/9/7 5/10/4 7/11/3
f 6/12/7 8/13/6 4/5/5 2/14/8
f 2/14/8 4/5/5 3/2/2 1/1/1
f 6/9/7 2/14/8 1/1/1 5/10/4
