# Blender 4.1.1
# www.blender.org
o Plane
v -0.500000 -0.500000 0.500000
v -0.500000 0.500000 0.500001
v -0.500000 0.500000 -0.499999
v -0.500000 -0.500000 -0.500000
v 0.500000 0.500000 -0.499999
v 0.500000 -0.500000 -0.500000
v 0.500000 0.500000 0.500001
v 0.500000 -0.500000 0.500000
vn -1.0000 -0.0000 -0.0000
vn -0.0000 -0.0000 -1.0000
vn 1.0000 -0.0000 -0.0000
vn -0.0000 -0.0000 1.0000
vn -0.0000 -1.0000 -0.0000
vn -0.0000 1.0000 -0.0000
vt 1.000000 0.000000
vt 1.000000 1.000000
vt 0.000000 1.000000
vt 0.000000 0.000000
s 1
f 1/1/1 2/2/1 3/3/1 4/4/1
f 4/1/2 3/2/2 5/3/2 6/4/2
f 6/1/3 5/2/3 7/3/3 8/4/3
f 8/1/4 7/2/4 2/3/4 1/4/4
f 4/1/5 6/2/5 8/3/5 1/4/5
f 5/1/6 3/2/6 2/3/6 7/4/6
