# Blender v2.91.0 OBJ File: 'flat_cone.blend'
# www.blender.org
mtllib flat_cone.mtl
o Cone
v 0.000000 -0.500000 -0.500000
v 0.250000 -0.500000 -0.433013
v 0.433013 -0.500000 -0.250000
v 0.500000 -0.500000 0.000000
v 0.433013 -0.500000 0.250000
v 0.250000 -0.500000 0.433013
v 0.000000 -0.500000 0.500000
v -0.250000 -0.500000 0.433013
v -0.433013 -0.500000 0.250000
v -0.500000 -0.500000 0.000000
v -0.433013 -0.500000 -0.250000
v -0.250000 -0.500000 -0.433013
v 0.000000 0.500000 0.000000
v 0.000000 -0.500000 -0.500000
v 0.000000 -0.500000 -0.500000
v 0.250000 -0.500000 -0.433013
v 0.250000 -0.500000 -0.433013
v 0.000000 0.500000 0.000000
v 0.000000 0.500000 0.000000
v 0.000000 0.500000 0.000000
v 0.000000 0.500000 0.000000
v 0.000000 0.500000 0.000000
v 0.000000 0.500000 0.000000
v 0.000000 0.500000 0.000000
v 0.000000 0.500000 0.000000
v 0.000000 0.500000 0.000000
v 0.000000 0.500000 0.000000
v 0.000000 0.500000 0.000000
v 0.433013 -0.500000 -0.250000
v 0.433013 -0.500000 -0.250000
v 0.500000 -0.500000 0.000000
v 0.500000 -0.500000 0.000000
v 0.433013 -0.500000 0.250000
v 0.433013 -0.500000 0.250000
v 0.250000 -0.500000 0.433013
v 0.250000 -0.500000 0.433013
v 0.000000 -0.500000 0.500000
v 0.000000 -0.500000 0.500000
v -0.250000 -0.500000 0.433013
v -0.250000 -0.500000 0.433013
v -0.433013 -0.500000 0.250000
v -0.433013 -0.500000 0.250000
v -0.500000 -0.500000 0.000000
v -0.500000 -0.500000 0.000000
v -0.433013 -0.500000 -0.250000
v -0.433013 -0.500000 -0.250000
v -0.250000 -0.500000 -0.433013
v -0.250000 -0.500000 -0.433013
vt 0.250000 0.490000
vt 0.250000 0.250000
vt 0.370000 0.457846
vt 0.370000 0.457846
vt 0.250000 0.250000
vt 0.457846 0.370000
vt 0.457846 0.370000
vt 0.250000 0.250000
vt 0.490000 0.250000
vt 0.490000 0.250000
vt 0.250000 0.250000
vt 0.457846 0.130000
vt 0.457846 0.130000
vt 0.250000 0.250000
vt 0.370000 0.042154
vt 0.370000 0.042154
vt 0.250000 0.250000
vt 0.250000 0.010000
vt 0.250000 0.010000
vt 0.250000 0.250000
vt 0.130000 0.042154
vt 0.130000 0.042154
vt 0.250000 0.250000
vt 0.042154 0.130000
vt 0.042154 0.130000
vt 0.250000 0.250000
vt 0.010000 0.250000
vt 0.010000 0.250000
vt 0.250000 0.250000
vt 0.042154 0.370000
vt 0.750000 0.490000
vt 0.870000 0.457846
vt 0.957846 0.370000
vt 0.990000 0.250000
vt 0.957846 0.130000
vt 0.870000 0.042154
vt 0.750000 0.010000
vt 0.630000 0.042154
vt 0.542154 0.130000
vt 0.510000 0.250000
vt 0.542154 0.370000
vt 0.630000 0.457846
vt 0.042154 0.370000
vt 0.250000 0.250000
vt 0.130000 0.457846
vt 0.130000 0.457846
vt 0.250000 0.250000
vt 0.250000 0.490000
vn 0.2330 0.4349 -0.8698
vn 0.6367 0.4349 -0.6367
vn 0.8698 0.4349 -0.2330
vn 0.8698 0.4349 0.2330
vn 0.6367 0.4349 0.6367
vn 0.2330 0.4349 0.8698
vn -0.2330 0.4349 0.8698
vn -0.6367 0.4349 0.6367
vn -0.8698 0.4349 0.2330
vn -0.8698 0.4349 -0.2330
vn 0.0000 -1.0000 0.0000
vn -0.6367 0.4349 -0.6367
vn -0.2330 0.4349 -0.8698
usemtl None
s 1
f 14/1/1 18/2/1 16/3/1
f 17/4/2 19/5/2 29/6/2
f 30/7/3 20/8/3 31/9/3
f 32/10/4 21/11/4 33/12/4
f 34/13/5 22/14/5 35/15/5
f 36/16/6 23/17/6 37/18/6
f 38/19/7 24/20/7 39/21/7
f 40/22/8 25/23/8 41/24/8
f 42/25/9 26/26/9 43/27/9
f 44/28/10 27/29/10 45/30/10
f 15/31/11 2/32/11 3/33/11 4/34/11 5/35/11 6/36/11 7/37/11 8/38/11 9/39/11 10/40/11 46/41/11 47/42/11
f 11/43/12 28/44/12 48/45/12
f 12/46/13 13/47/13 1/48/13
