# Blender v2.91.0 OBJ File: 'flat_cube.blend'
# www.blender.org
mtllib flat_cube.mtl
o Cube.001_Cube.002
v -0.500000 -0.500000 0.500000
v -0.500000 0.500000 0.500000
v 0.500000 -0.500000 0.500000
v 0.500000 0.500000 0.500000
vt 0.375000 0.750000
vt 0.625000 0.750000
vt 0.625000 1.000000
vt 0.375000 1.000000
vn 0.0000 0.0000 1.0000
usemtl None
s 1
f 3/1/1 4/2/1 2/3/1 1/4/1
o Cube.002_Cube.003
v -0.500000 0.500000 0.500000
v -0.500000 0.500000 -0.500000
v 0.500000 0.500000 0.500000
v 0.500000 0.500000 -0.500000
vt 0.625000 0.500000
vt 0.875000 0.500000
vt 0.875000 0.750000
vt 0.625000 0.750000
vn 0.0000 1.0000 0.0000
usemtl None
s 1
f 8/5/2 6/6/2 5/7/2 7/8/2
o Cube.003_Cube.004
v -0.500000 -0.500000 0.500000
v -0.500000 0.500000 0.500000
v -0.500000 -0.500000 -0.500000
v -0.500000 0.500000 -0.500000
vt 0.375000 0.000000
vt 0.625000 0.000000
vt 0.625000 0.250000
vt 0.375000 0.250000
vn -1.0000 0.0000 0.0000
usemtl None
s 1
f 9/9/3 10/10/3 12/11/3 11/12/3
o Cube.004_Cube.005
v 0.500000 -0.500000 0.500000
v 0.500000 0.500000 0.500000
v 0.500000 -0.500000 -0.500000
v 0.500000 0.500000 -0.500000
vt 0.375000 0.500000
vt 0.625000 0.500000
vt 0.625000 0.750000
vt 0.375000 0.750000
vn 1.0000 0.0000 0.0000
usemtl None
s 1
f 15/13/4 16/14/4 14/15/4 13/16/4
o Cube.005_Cube.006
v -0.500000 -0.500000 -0.500000
v -0.500000 0.500000 -0.500000
v 0.500000 -0.500000 -0.500000
v 0.500000 0.500000 -0.500000
vt 0.375000 0.250000
vt 0.625000 0.250000
vt 0.625000 0.500000
vt 0.375000 0.500000
vn 0.0000 0.0000 -1.0000
usemtl None
s 1
f 17/17/5 18/18/5 20/19/5 19/20/5
o Cube.006_Cube.007
v -0.500000 -0.500000 0.500000
v -0.500000 -0.500000 -0.500000
v 0.500000 -0.500000 0.500000
v 0.500000 -0.500000 -0.500000
vt 0.125000 0.500000
vt 0.375000 0.500000
vt 0.375000 0.750000
vt 0.125000 0.750000
vn 0.0000 -1.0000 0.0000
usemtl None
s 1
f 22/21/6 24/22/6 23/23/6 21/24/6
