# Blender v2.91.0 OBJ File: 'flat_sphere.blend'
# www.blender.org
mtllib flat_sphere.mtl
o Sphere_Sphere.001
v 0.000000 0.353553 -0.353554
v 0.000000 0.191342 -0.461940
v 0.000000 -0.191342 -0.461940
v 0.000000 -0.461940 -0.191342
v 0.073223 0.461940 -0.176777
v 0.135299 0.353553 -0.326641
v 0.176777 0.191342 -0.426777
v 0.191342 -0.000000 -0.461940
v 0.176777 -0.191342 -0.426777
v 0.135299 -0.353553 -0.326641
v 0.073223 -0.461940 -0.176777
v 0.135299 0.461940 -0.135299
v 0.250000 0.353553 -0.250000
v 0.326641 0.191342 -0.326641
v 0.353553 -0.000000 -0.353554
v 0.326641 -0.191342 -0.326641
v 0.250000 -0.353553 -0.250000
v 0.135299 -0.461940 -0.135299
v 0.176777 0.461940 -0.073223
v 0.326641 0.353553 -0.135299
v 0.426777 0.191342 -0.176777
v 0.461940 -0.000000 -0.191342
v 0.426777 -0.191342 -0.176777
v 0.326641 -0.353553 -0.135299
v 0.176777 -0.461940 -0.073223
v 0.191342 0.461940 -0.000000
v 0.353553 0.353553 -0.000000
v 0.461940 0.191342 -0.000000
v 0.500000 -0.000000 -0.000000
v 0.461940 -0.191342 -0.000000
v 0.353553 -0.353553 -0.000000
v 0.191342 -0.461940 -0.000000
v 0.176777 0.461940 0.073223
v 0.326641 0.353553 0.135299
v 0.426777 0.191342 0.176777
v 0.461940 -0.000000 0.191342
v 0.426777 -0.191342 0.176777
v 0.326641 -0.353553 0.135299
v 0.176777 -0.461940 0.073223
v 0.135299 0.461940 0.135299
v 0.250000 0.353553 0.250000
v 0.326641 0.191342 0.326641
v 0.353553 -0.000000 0.353553
v 0.326641 -0.191342 0.326641
v 0.250000 -0.353553 0.250000
v 0.135299 -0.461940 0.135299
v 0.073223 0.461940 0.176777
v 0.135299 0.353553 0.326641
v 0.176777 0.191342 0.426777
v 0.191342 -0.000000 0.461940
v 0.176777 -0.191342 0.426777
v 0.135299 -0.353553 0.326641
v 0.073223 -0.461940 0.176777
v -0.000000 0.461940 0.191342
v -0.000000 0.353553 0.353553
v -0.000000 0.191342 0.461940
v -0.000000 -0.000000 0.500000
v -0.000000 -0.191342 0.461940
v -0.000000 -0.353553 0.353553
v -0.000000 -0.461940 0.191342
v -0.073223 0.461940 0.176777
v -0.135299 0.353553 0.326641
v -0.176777 0.191342 0.426777
v -0.191342 -0.000000 0.461940
v -0.176777 -0.191342 0.426777
v -0.135299 -0.353553 0.326641
v -0.073223 -0.461940 0.176777
v -0.135299 0.461940 0.135299
v -0.250000 0.353553 0.250000
v -0.326641 0.191342 0.326641
v -0.353554 -0.000000 0.353553
v -0.326641 -0.191342 0.326641
v -0.250000 -0.353553 0.250000
v -0.135299 -0.461940 0.135299
v -0.176777 0.461940 0.073223
v -0.326641 0.353553 0.135299
v -0.426777 0.191342 0.176776
v -0.461940 -0.000000 0.191341
v -0.426777 -0.191342 0.176776
v -0.326641 -0.353553 0.135299
v -0.176777 -0.461940 0.073223
v -0.191342 0.461940 -0.000000
v -0.353553 0.353553 -0.000000
v -0.461940 0.191342 -0.000000
v -0.500000 -0.000000 -0.000000
v -0.461940 -0.191342 -0.000000
v -0.353553 -0.353553 -0.000000
v -0.191342 -0.461940 -0.000000
v -0.176777 0.461940 -0.073223
v -0.326641 0.353553 -0.135299
v -0.426777 0.191342 -0.176777
v -0.461940 -0.000000 -0.191342
v -0.426777 -0.191342 -0.176777
v -0.326641 -0.353553 -0.135299
v -0.176777 -0.461940 -0.073223
v -0.135299 0.461940 -0.135299
v -0.250000 0.353553 -0.250000
v -0.326641 0.191342 -0.326641
v -0.353553 -0.000000 -0.353554
v -0.326641 -0.191342 -0.326641
v -0.250000 -0.353553 -0.250000
v -0.135299 -0.461940 -0.135299
v -0.073223 0.461940 -0.176777
v -0.135299 0.353553 -0.326641
v -0.176776 0.191342 -0.426777
v -0.191341 -0.000000 -0.461940
v -0.176776 -0.191342 -0.426777
v -0.135299 -0.353553 -0.326641
v -0.073223 -0.461940 -0.176777
v -0.000000 0.500000 -0.000000
v 0.000000 0.461940 -0.191342
v 0.000000 -0.000000 -0.500000
v 0.000000 -0.353553 -0.353553
v 0.000000 -0.500000 -0.000000
v 0.000000 0.353553 -0.353554
v 0.000000 0.353553 -0.353554
v 0.000000 0.353553 -0.353554
v 0.000000 0.191342 -0.461940
v 0.000000 0.191342 -0.461940
v 0.000000 0.191342 -0.461940
v 0.073223 0.461940 -0.176777
v 0.073223 0.461940 -0.176777
v 0.073223 0.461940 -0.176777
v 0.135299 0.353553 -0.326641
v 0.135299 0.353553 -0.326641
v 0.135299 0.353553 -0.326641
v 0.176777 0.191342 -0.426777
v 0.176777 0.191342 -0.426777
v 0.176777 0.191342 -0.426777
v 0.191342 -0.000000 -0.461940
v 0.191342 -0.000000 -0.461940
v 0.191342 -0.000000 -0.461940
v 0.176777 -0.191342 -0.426777
v 0.176777 -0.191342 -0.426777
v 0.176777 -0.191342 -0.426777
v 0.135299 -0.353553 -0.326641
v 0.135299 -0.353553 -0.326641
v 0.135299 -0.353553 -0.326641
v 0.073223 -0.461940 -0.176777
v 0.073223 -0.461940 -0.176777
v 0.073223 -0.461940 -0.176777
v 0.000000 -0.461940 -0.191342
v 0.000000 -0.461940 -0.191342
v 0.000000 -0.461940 -0.191342
v 0.000000 -0.191342 -0.461940
v 0.000000 -0.191342 -0.461940
v 0.000000 -0.191342 -0.461940
v 0.135299 0.461940 -0.135299
v 0.135299 0.461940 -0.135299
v 0.135299 0.461940 -0.135299
v 0.250000 0.353553 -0.250000
v 0.250000 0.353553 -0.250000
v 0.250000 0.353553 -0.250000
v 0.326641 0.191342 -0.326641
v 0.326641 0.191342 -0.326641
v 0.326641 0.191342 -0.326641
v 0.353553 -0.000000 -0.353554
v 0.353553 -0.000000 -0.353554
v 0.353553 -0.000000 -0.353554
v 0.326641 -0.191342 -0.326641
v 0.326641 -0.191342 -0.326641
v 0.326641 -0.191342 -0.326641
v 0.250000 -0.353553 -0.250000
v 0.250000 -0.353553 -0.250000
v 0.250000 -0.353553 -0.250000
v 0.135299 -0.461940 -0.135299
v 0.135299 -0.461940 -0.135299
v 0.135299 -0.461940 -0.135299
v 0.176777 0.461940 -0.073223
v 0.176777 0.461940 -0.073223
v 0.176777 0.461940 -0.073223
v 0.326641 0.353553 -0.135299
v 0.326641 0.353553 -0.135299
v 0.326641 0.353553 -0.135299
v 0.426777 0.191342 -0.176777
v 0.426777 0.191342 -0.176777
v 0.426777 0.191342 -0.176777
v 0.461940 -0.000000 -0.191342
v 0.461940 -0.000000 -0.191342
v 0.461940 -0.000000 -0.191342
v 0.426777 -0.191342 -0.176777
v 0.426777 -0.191342 -0.176777
v 0.426777 -0.191342 -0.176777
v 0.326641 -0.353553 -0.135299
v 0.326641 -0.353553 -0.135299
v 0.326641 -0.353553 -0.135299
v 0.176777 -0.461940 -0.073223
v 0.176777 -0.461940 -0.073223
v 0.176777 -0.461940 -0.073223
v 0.191342 0.461940 -0.000000
v 0.191342 0.461940 -0.000000
v 0.191342 0.461940 -0.000000
v 0.353553 0.353553 -0.000000
v 0.353553 0.353553 -0.000000
v 0.353553 0.353553 -0.000000
v 0.461940 0.191342 -0.000000
v 0.461940 0.191342 -0.000000
v 0.461940 0.191342 -0.000000
v 0.500000 -0.000000 -0.000000
v 0.500000 -0.000000 -0.000000
v 0.500000 -0.000000 -0.000000
v 0.461940 -0.191342 -0.000000
v 0.461940 -0.191342 -0.000000
v 0.461940 -0.191342 -0.000000
v 0.353553 -0.353553 -0.000000
v 0.353553 -0.353553 -0.000000
v 0.353553 -0.353553 -0.000000
v 0.191342 -0.461940 -0.000000
v 0.191342 -0.461940 -0.000000
v 0.191342 -0.461940 -0.000000
v 0.176777 0.461940 0.073223
v 0.176777 0.461940 0.073223
v 0.176777 0.461940 0.073223
v 0.326641 0.353553 0.135299
v 0.326641 0.353553 0.135299
v 0.326641 0.353553 0.135299
v 0.426777 0.191342 0.176777
v 0.426777 0.191342 0.176777
v 0.426777 0.191342 0.176777
v 0.461940 -0.000000 0.191342
v 0.461940 -0.000000 0.191342
v 0.461940 -0.000000 0.191342
v 0.426777 -0.191342 0.176777
v 0.426777 -0.191342 0.176777
v 0.426777 -0.191342 0.176777
v 0.326641 -0.353553 0.135299
v 0.326641 -0.353553 0.135299
v 0.326641 -0.353553 0.135299
v 0.176777 -0.461940 0.073223
v 0.176777 -0.461940 0.073223
v 0.176777 -0.461940 0.073223
v 0.135299 0.461940 0.135299
v 0.135299 0.461940 0.135299
v 0.135299 0.461940 0.135299
v 0.250000 0.353553 0.250000
v 0.250000 0.353553 0.250000
v 0.250000 0.353553 0.250000
v 0.326641 0.191342 0.326641
v 0.326641 0.191342 0.326641
v 0.326641 0.191342 0.326641
v 0.353553 -0.000000 0.353553
v 0.353553 -0.000000 0.353553
v 0.353553 -0.000000 0.353553
v 0.326641 -0.191342 0.326641
v 0.326641 -0.191342 0.326641
v 0.326641 -0.191342 0.326641
v 0.250000 -0.353553 0.250000
v 0.250000 -0.353553 0.250000
v 0.250000 -0.353553 0.250000
v 0.135299 -0.461940 0.135299
v 0.135299 -0.461940 0.135299
v 0.135299 -0.461940 0.135299
v 0.073223 0.461940 0.176777
v 0.073223 0.461940 0.176777
v 0.073223 0.461940 0.176777
v 0.135299 0.353553 0.326641
v 0.135299 0.353553 0.326641
v 0.135299 0.353553 0.326641
v 0.176777 0.191342 0.426777
v 0.176777 0.191342 0.426777
v 0.176777 0.191342 0.426777
v 0.191342 -0.000000 0.461940
v 0.191342 -0.000000 0.461940
v 0.191342 -0.000000 0.461940
v 0.176777 -0.191342 0.426777
v 0.176777 -0.191342 0.426777
v 0.176777 -0.191342 0.426777
v 0.135299 -0.353553 0.326641
v 0.135299 -0.353553 0.326641
v 0.135299 -0.353553 0.326641
v 0.073223 -0.461940 0.176777
v 0.073223 -0.461940 0.176777
v 0.073223 -0.461940 0.176777
v -0.000000 0.461940 0.191342
v -0.000000 0.461940 0.191342
v -0.000000 0.461940 0.191342
v -0.000000 0.353553 0.353553
v -0.000000 0.353553 0.353553
v -0.000000 0.353553 0.353553
v -0.000000 0.191342 0.461940
v -0.000000 0.191342 0.461940
v -0.000000 0.191342 0.461940
v -0.000000 -0.000000 0.500000
v -0.000000 -0.000000 0.500000
v -0.000000 -0.000000 0.500000
v -0.000000 -0.191342 0.461940
v -0.000000 -0.191342 0.461940
v -0.000000 -0.191342 0.461940
v -0.000000 -0.353553 0.353553
v -0.000000 -0.353553 0.353553
v -0.000000 -0.353553 0.353553
v -0.000000 -0.461940 0.191342
v -0.000000 -0.461940 0.191342
v -0.000000 -0.461940 0.191342
v -0.073223 0.461940 0.176777
v -0.073223 0.461940 0.176777
v -0.073223 0.461940 0.176777
v -0.135299 0.353553 0.326641
v -0.135299 0.353553 0.326641
v -0.135299 0.353553 0.326641
v -0.176777 0.191342 0.426777
v -0.176777 0.191342 0.426777
v -0.176777 0.191342 0.426777
v -0.191342 -0.000000 0.461940
v -0.191342 -0.000000 0.461940
v -0.191342 -0.000000 0.461940
v -0.176777 -0.191342 0.426777
v -0.176777 -0.191342 0.426777
v -0.176777 -0.191342 0.426777
v -0.135299 -0.353553 0.326641
v -0.135299 -0.353553 0.326641
v -0.135299 -0.353553 0.326641
v -0.073223 -0.461940 0.176777
v -0.073223 -0.461940 0.176777
v -0.073223 -0.461940 0.176777
v -0.135299 0.461940 0.135299
v -0.135299 0.461940 0.135299
v -0.135299 0.461940 0.135299
v -0.250000 0.353553 0.250000
v -0.250000 0.353553 0.250000
v -0.250000 0.353553 0.250000
v -0.326641 0.191342 0.326641
v -0.326641 0.191342 0.326641
v -0.326641 0.191342 0.326641
v -0.353554 -0.000000 0.353553
v -0.353554 -0.000000 0.353553
v -0.353554 -0.000000 0.353553
v -0.326641 -0.191342 0.326641
v -0.326641 -0.191342 0.326641
v -0.326641 -0.191342 0.326641
v -0.250000 -0.353553 0.250000
v -0.250000 -0.353553 0.250000
v -0.250000 -0.353553 0.250000
v -0.135299 -0.461940 0.135299
v -0.135299 -0.461940 0.135299
v -0.135299 -0.461940 0.135299
v -0.176777 0.461940 0.073223
v -0.176777 0.461940 0.073223
v -0.176777 0.461940 0.073223
v -0.326641 0.353553 0.135299
v -0.326641 0.353553 0.135299
v -0.326641 0.353553 0.135299
v -0.426777 0.191342 0.176776
v -0.426777 0.191342 0.176776
v -0.426777 0.191342 0.176776
v -0.461940 -0.000000 0.191341
v -0.461940 -0.000000 0.191341
v -0.461940 -0.000000 0.191341
v -0.426777 -0.191342 0.176776
v -0.426777 -0.191342 0.176776
v -0.426777 -0.191342 0.176776
v -0.326641 -0.353553 0.135299
v -0.326641 -0.353553 0.135299
v -0.326641 -0.353553 0.135299
v -0.176777 -0.461940 0.073223
v -0.176777 -0.461940 0.073223
v -0.176777 -0.461940 0.073223
v -0.191342 0.461940 -0.000000
v -0.191342 0.461940 -0.000000
v -0.191342 0.461940 -0.000000
v -0.353553 0.353553 -0.000000
v -0.353553 0.353553 -0.000000
v -0.353553 0.353553 -0.000000
v -0.461940 0.191342 -0.000000
v -0.461940 0.191342 -0.000000
v -0.461940 0.191342 -0.000000
v -0.500000 -0.000000 -0.000000
v -0.500000 -0.000000 -0.000000
v -0.500000 -0.000000 -0.000000
v -0.461940 -0.191342 -0.000000
v -0.461940 -0.191342 -0.000000
v -0.461940 -0.191342 -0.000000
v -0.353553 -0.353553 -0.000000
v -0.353553 -0.353553 -0.000000
v -0.353553 -0.353553 -0.000000
v -0.191342 -0.461940 -0.000000
v -0.191342 -0.461940 -0.000000
v -0.191342 -0.461940 -0.000000
v -0.176777 0.461940 -0.073223
v -0.176777 0.461940 -0.073223
v -0.176777 0.461940 -0.073223
v -0.326641 0.353553 -0.135299
v -0.326641 0.353553 -0.135299
v -0.326641 0.353553 -0.135299
v -0.426777 0.191342 -0.176777
v -0.426777 0.191342 -0.176777
v -0.426777 0.191342 -0.176777
v -0.461940 -0.000000 -0.191342
v -0.461940 -0.000000 -0.191342
v -0.461940 -0.000000 -0.191342
v -0.426777 -0.191342 -0.176777
v -0.426777 -0.191342 -0.176777
v -0.426777 -0.191342 -0.176777
v -0.326641 -0.353553 -0.135299
v -0.326641 -0.353553 -0.135299
v -0.326641 -0.353553 -0.135299
v -0.176777 -0.461940 -0.073223
v -0.176777 -0.461940 -0.073223
v -0.176777 -0.461940 -0.073223
v -0.135299 0.461940 -0.135299
v -0.135299 0.461940 -0.135299
v -0.135299 0.461940 -0.135299
v -0.250000 0.353553 -0.250000
v -0.250000 0.353553 -0.250000
v -0.250000 0.353553 -0.250000
v -0.326641 0.191342 -0.326641
v -0.326641 0.191342 -0.326641
v -0.326641 0.191342 -0.326641
v -0.353553 -0.000000 -0.353554
v -0.353553 -0.000000 -0.353554
v -0.353553 -0.000000 -0.353554
v -0.326641 -0.191342 -0.326641
v -0.326641 -0.191342 -0.326641
v -0.326641 -0.191342 -0.326641
v -0.250000 -0.353553 -0.250000
v -0.250000 -0.353553 -0.250000
v -0.250000 -0.353553 -0.250000
v -0.135299 -0.461940 -0.135299
v -0.135299 -0.461940 -0.135299
v -0.135299 -0.461940 -0.135299
v -0.073223 0.461940 -0.176777
v -0.073223 0.461940 -0.176777
v -0.073223 0.461940 -0.176777
v -0.135299 0.353553 -0.326641
v -0.135299 0.353553 -0.326641
v -0.135299 0.353553 -0.326641
v -0.176776 0.191342 -0.426777
v -0.176776 0.191342 -0.426777
v -0.176776 0.191342 -0.426777
v -0.191341 -0.000000 -0.461940
v -0.191341 -0.000000 -0.461940
v -0.191341 -0.000000 -0.461940
v -0.176776 -0.191342 -0.426777
v -0.176776 -0.191342 -0.426777
v -0.176776 -0.191342 -0.426777
v -0.135299 -0.353553 -0.326641
v -0.135299 -0.353553 -0.326641
v -0.135299 -0.353553 -0.326641
v -0.073223 -0.461940 -0.176777
v -0.073223 -0.461940 -0.176777
v -0.073223 -0.461940 -0.176777
v -0.000000 0.500000 -0.000000
v -0.000000 0.500000 -0.000000
v -0.000000 0.500000 -0.000000
v -0.000000 0.500000 -0.000000
v -0.000000 0.500000 -0.000000
v -0.000000 0.500000 -0.000000
v -0.000000 0.500000 -0.000000
v -0.000000 0.500000 -0.000000
v -0.000000 0.500000 -0.000000
v -0.000000 0.500000 -0.000000
v -0.000000 0.500000 -0.000000
v -0.000000 0.500000 -0.000000
v -0.000000 0.500000 -0.000000
v -0.000000 0.500000 -0.000000
v -0.000000 0.500000 -0.000000
v 0.000000 0.461940 -0.191342
v 0.000000 0.461940 -0.191342
v 0.000000 0.461940 -0.191342
v 0.000000 -0.353553 -0.353553
v 0.000000 -0.353553 -0.353553
v 0.000000 -0.353553 -0.353553
v 0.000000 -0.000000 -0.500000
v 0.000000 -0.000000 -0.500000
v 0.000000 -0.000000 -0.500000
v 0.000000 -0.500000 -0.000000
v 0.000000 -0.500000 -0.000000
v 0.000000 -0.500000 -0.000000
v 0.000000 -0.500000 -0.000000
v 0.000000 -0.500000 -0.000000
v 0.000000 -0.500000 -0.000000
v 0.000000 -0.500000 -0.000000
v 0.000000 -0.500000 -0.000000
v 0.000000 -0.500000 -0.000000
v 0.000000 -0.500000 -0.000000
v 0.000000 -0.500000 -0.000000
v 0.000000 -0.500000 -0.000000
v 0.000000 -0.500000 -0.000000
v 0.000000 -0.500000 -0.000000
v 0.000000 -0.500000 -0.000000
vt 0.750000 0.125000
vt 0.750000 0.250000
vt 0.687500 0.250000
vt 0.687500 0.125000
vt 0.750000 0.375000
vt 0.750000 0.500000
vt 0.687500 0.500000
vt 0.687500 0.375000
vt 0.750000 0.625000
vt 0.750000 0.750000
vt 0.687500 0.750000
vt 0.687500 0.625000
vt 0.750000 0.875000
vt 0.718750 1.000000
vt 0.687500 0.875000
vt 0.718750 0.000000
vt 0.750000 0.125000
vt 0.687500 0.125000
vt 0.750000 0.250000
vt 0.750000 0.375000
vt 0.687500 0.375000
vt 0.687500 0.250000
vt 0.750000 0.500000
vt 0.750000 0.625000
vt 0.687500 0.625000
vt 0.687500 0.500000
vt 0.750000 0.750000
vt 0.750000 0.875000
vt 0.687500 0.875000
vt 0.687500 0.750000
vt 0.687500 0.625000
vt 0.687500 0.750000
vt 0.625000 0.750000
vt 0.625000 0.625000
vt 0.687500 0.875000
vt 0.656250 1.000000
vt 0.625000 0.875000
vt 0.656250 0.000000
vt 0.687500 0.125000
vt 0.625000 0.125000
vt 0.687500 0.250000
vt 0.687500 0.375000
vt 0.625000 0.375000
vt 0.625000 0.250000
vt 0.687500 0.500000
vt 0.687500 0.625000
vt 0.625000 0.625000
vt 0.625000 0.500000
vt 0.687500 0.750000
vt 0.687500 0.875000
vt 0.625000 0.875000
vt 0.625000 0.750000
vt 0.687500 0.125000
vt 0.687500 0.250000
vt 0.625000 0.250000
vt 0.625000 0.125000
vt 0.687500 0.375000
vt 0.687500 0.500000
vt 0.625000 0.500000
vt 0.625000 0.375000
vt 0.593750 0.000000
vt 0.625000 0.125000
vt 0.562500 0.125000
vt 0.625000 0.250000
vt 0.625000 0.375000
vt 0.562500 0.375000
vt 0.562500 0.250000
vt 0.625000 0.500000
vt 0.625000 0.625000
vt 0.562500 0.625000
vt 0.562500 0.500000
vt 0.625000 0.750000
vt 0.625000 0.875000
vt 0.562500 0.875000
vt 0.562500 0.750000
vt 0.625000 0.125000
vt 0.625000 0.250000
vt 0.562500 0.250000
vt 0.562500 0.125000
vt 0.625000 0.375000
vt 0.625000 0.500000
vt 0.562500 0.500000
vt 0.562500 0.375000
vt 0.625000 0.625000
vt 0.625000 0.750000
vt 0.562500 0.750000
vt 0.562500 0.625000
vt 0.625000 0.875000
vt 0.593750 1.000000
vt 0.562500 0.875000
vt 0.562500 0.750000
vt 0.562500 0.875000
vt 0.500000 0.875000
vt 0.500000 0.750000
vt 0.562500 0.125000
vt 0.562500 0.250000
vt 0.500000 0.250000
vt 0.500000 0.125000
vt 0.562500 0.375000
vt 0.562500 0.500000
vt 0.500000 0.500000
vt 0.500000 0.375000
vt 0.562500 0.625000
vt 0.562500 0.750000
vt 0.500000 0.750000
vt 0.500000 0.625000
vt 0.562500 0.875000
vt 0.531250 1.000000
vt 0.500000 0.875000
vt 0.531250 0.000000
vt 0.562500 0.125000
vt 0.500000 0.125000
vt 0.562500 0.250000
vt 0.562500 0.375000
vt 0.500000 0.375000
vt 0.500000 0.250000
vt 0.562500 0.500000
vt 0.562500 0.625000
vt 0.500000 0.625000
vt 0.500000 0.500000
vt 0.500000 0.125000
vt 0.500000 0.250000
vt 0.437500 0.250000
vt 0.437500 0.125000
vt 0.500000 0.375000
vt 0.500000 0.500000
vt 0.437500 0.500000
vt 0.437500 0.375000
vt 0.500000 0.625000
vt 0.500000 0.750000
vt 0.437500 0.750000
vt 0.437500 0.625000
vt 0.500000 0.875000
vt 0.468750 1.000000
vt 0.437500 0.875000
vt 0.468750 0.000000
vt 0.500000 0.125000
vt 0.437500 0.125000
vt 0.500000 0.250000
vt 0.500000 0.375000
vt 0.437500 0.375000
vt 0.437500 0.250000
vt 0.500000 0.500000
vt 0.500000 0.625000
vt 0.437500 0.625000
vt 0.437500 0.500000
vt 0.500000 0.750000
vt 0.500000 0.875000
vt 0.437500 0.875000
vt 0.437500 0.750000
vt 0.437500 0.875000
vt 0.406250 1.000000
vt 0.375000 0.875000
vt 0.406250 0.000000
vt 0.437500 0.125000
vt 0.375000 0.125000
vt 0.437500 0.250000
vt 0.437500 0.375000
vt 0.375000 0.375000
vt 0.375000 0.250000
vt 0.437500 0.500000
vt 0.437500 0.625000
vt 0.375000 0.625000
vt 0.375000 0.500000
vt 0.437500 0.750000
vt 0.437500 0.875000
vt 0.375000 0.875000
vt 0.375000 0.750000
vt 0.437500 0.125000
vt 0.437500 0.250000
vt 0.375000 0.250000
vt 0.375000 0.125000
vt 0.437500 0.375000
vt 0.437500 0.500000
vt 0.375000 0.500000
vt 0.375000 0.375000
vt 0.437500 0.625000
vt 0.437500 0.750000
vt 0.375000 0.750000
vt 0.375000 0.625000
vt 0.375000 0.250000
vt 0.375000 0.375000
vt 0.312500 0.375000
vt 0.312500 0.250000
vt 0.375000 0.500000
vt 0.375000 0.625000
vt 0.312500 0.625000
vt 0.312500 0.500000
vt 0.375000 0.750000
vt 0.375000 0.875000
vt 0.312500 0.875000
vt 0.312500 0.750000
vt 0.375000 0.125000
vt 0.375000 0.250000
vt 0.312500 0.250000
vt 0.312500 0.125000
vt 0.375000 0.375000
vt 0.375000 0.500000
vt 0.312500 0.500000
vt 0.312500 0.375000
vt 0.375000 0.625000
vt 0.375000 0.750000
vt 0.312500 0.750000
vt 0.312500 0.625000
vt 0.375000 0.875000
vt 0.343750 1.000000
vt 0.312500 0.875000
vt 0.343750 0.000000
vt 0.375000 0.125000
vt 0.312500 0.125000
vt 0.312500 0.125000
vt 0.312500 0.250000
vt 0.250000 0.250000
vt 0.250000 0.125000
vt 0.312500 0.375000
vt 0.312500 0.500000
vt 0.250000 0.500000
vt 0.250000 0.375000
vt 0.312500 0.625000
vt 0.312500 0.750000
vt 0.250000 0.750000
vt 0.250000 0.625000
vt 0.312500 0.875000
vt 0.281250 1.000000
vt 0.250000 0.875000
vt 0.281250 0.000000
vt 0.312500 0.125000
vt 0.250000 0.125000
vt 0.312500 0.250000
vt 0.312500 0.375000
vt 0.250000 0.375000
vt 0.250000 0.250000
vt 0.312500 0.500000
vt 0.312500 0.625000
vt 0.250000 0.625000
vt 0.250000 0.500000
vt 0.312500 0.750000
vt 0.312500 0.875000
vt 0.250000 0.875000
vt 0.250000 0.750000
vt 0.250000 0.375000
vt 0.250000 0.500000
vt 0.187500 0.500000
vt 0.187500 0.375000
vt 0.250000 0.625000
vt 0.250000 0.750000
vt 0.187500 0.750000
vt 0.187500 0.625000
vt 0.250000 0.875000
vt 0.218750 1.000000
vt 0.187500 0.875000
vt 0.218750 0.000000
vt 0.250000 0.125000
vt 0.187500 0.125000
vt 0.250000 0.250000
vt 0.250000 0.375000
vt 0.187500 0.375000
vt 0.187500 0.250000
vt 0.250000 0.500000
vt 0.250000 0.625000
vt 0.187500 0.625000
vt 0.187500 0.500000
vt 0.250000 0.750000
vt 0.250000 0.875000
vt 0.187500 0.875000
vt 0.187500 0.750000
vt 0.250000 0.125000
vt 0.250000 0.250000
vt 0.187500 0.250000
vt 0.187500 0.125000
vt 0.156250 0.000000
vt 0.187500 0.125000
vt 0.125000 0.125000
vt 0.187500 0.250000
vt 0.187500 0.375000
vt 0.125000 0.375000
vt 0.125000 0.250000
vt 0.187500 0.500000
vt 0.187500 0.625000
vt 0.125000 0.625000
vt 0.125000 0.500000
vt 0.187500 0.750000
vt 0.187500 0.875000
vt 0.125000 0.875000
vt 0.125000 0.750000
vt 0.187500 0.125000
vt 0.187500 0.250000
vt 0.125000 0.250000
vt 0.125000 0.125000
vt 0.187500 0.375000
vt 0.187500 0.500000
vt 0.125000 0.500000
vt 0.125000 0.375000
vt 0.187500 0.625000
vt 0.187500 0.750000
vt 0.125000 0.750000
vt 0.125000 0.625000
vt 0.187500 0.875000
vt 0.156250 1.000000
vt 0.125000 0.875000
vt 0.125000 0.500000
vt 0.125000 0.625000
vt 0.062500 0.625000
vt 0.062500 0.500000
vt 0.125000 0.750000
vt 0.125000 0.875000
vt 0.062500 0.875000
vt 0.062500 0.750000
vt 0.125000 0.125000
vt 0.125000 0.250000
vt 0.062500 0.250000
vt 0.062500 0.125000
vt 0.125000 0.375000
vt 0.125000 0.500000
vt 0.062500 0.500000
vt 0.062500 0.375000
vt 0.125000 0.625000
vt 0.125000 0.750000
vt 0.062500 0.750000
vt 0.062500 0.625000
vt 0.125000 0.875000
vt 0.093750 1.000000
vt 0.062500 0.875000
vt 0.093750 0.000000
vt 0.125000 0.125000
vt 0.062500 0.125000
vt 0.125000 0.250000
vt 0.125000 0.375000
vt 0.062500 0.375000
vt 0.062500 0.250000
vt 0.062500 0.125000
vt 0.062500 0.250000
vt 0.000000 0.250000
vt 0.000000 0.125000
vt 0.062500 0.375000
vt 0.062500 0.500000
vt 0.000000 0.500000
vt 0.000000 0.375000
vt 0.062500 0.625000
vt 0.062500 0.750000
vt 0.000000 0.750000
vt 0.000000 0.625000
vt 0.062500 0.875000
vt 0.031250 1.000000
vt 0.000000 0.875000
vt 0.031250 0.000000
vt 0.062500 0.125000
vt 0.000000 0.125000
vt 0.062500 0.250000
vt 0.062500 0.375000
vt 0.000000 0.375000
vt 0.000000 0.250000
vt 0.062500 0.500000
vt 0.062500 0.625000
vt 0.000000 0.625000
vt 0.000000 0.500000
vt 0.062500 0.750000
vt 0.062500 0.875000
vt 0.000000 0.875000
vt 0.000000 0.750000
vt 1.000000 0.625000
vt 1.000000 0.750000
vt 0.937500 0.750000
vt 0.937500 0.625000
vt 1.000000 0.875000
vt 0.968750 1.000000
vt 0.937500 0.875000
vt 0.968750 0.000000
vt 1.000000 0.125000
vt 0.937500 0.125000
vt 1.000000 0.250000
vt 1.000000 0.375000
vt 0.937500 0.375000
vt 0.937500 0.250000
vt 1.000000 0.500000
vt 1.000000 0.625000
vt 0.937500 0.625000
vt 0.937500 0.500000
vt 1.000000 0.750000
vt 1.000000 0.875000
vt 0.937500 0.875000
vt 0.937500 0.750000
vt 1.000000 0.125000
vt 1.000000 0.250000
vt 0.937500 0.250000
vt 0.937500 0.125000
vt 1.000000 0.375000
vt 1.000000 0.500000
vt 0.937500 0.500000
vt 0.937500 0.375000
vt 0.906250 0.000000
vt 0.937500 0.125000
vt 0.875000 0.125000
vt 0.937500 0.250000
vt 0.937500 0.375000
vt 0.875000 0.375000
vt 0.875000 0.250000
vt 0.937500 0.500000
vt 0.937500 0.625000
vt 0.875000 0.625000
vt 0.875000 0.500000
vt 0.937500 0.750000
vt 0.937500 0.875000
vt 0.875000 0.875000
vt 0.875000 0.750000
vt 0.937500 0.125000
vt 0.937500 0.250000
vt 0.875000 0.250000
vt 0.875000 0.125000
vt 0.937500 0.375000
vt 0.937500 0.500000
vt 0.875000 0.500000
vt 0.875000 0.375000
vt 0.937500 0.625000
vt 0.937500 0.750000
vt 0.875000 0.750000
vt 0.875000 0.625000
vt 0.937500 0.875000
vt 0.906250 1.000000
vt 0.875000 0.875000
vt 0.875000 0.750000
vt 0.875000 0.875000
vt 0.812500 0.875000
vt 0.812500 0.750000
vt 0.875000 0.125000
vt 0.875000 0.250000
vt 0.812500 0.250000
vt 0.812500 0.125000
vt 0.875000 0.375000
vt 0.875000 0.500000
vt 0.812500 0.500000
vt 0.812500 0.375000
vt 0.875000 0.625000
vt 0.875000 0.750000
vt 0.812500 0.750000
vt 0.812500 0.625000
vt 0.875000 0.875000
vt 0.843750 1.000000
vt 0.812500 0.875000
vt 0.843750 0.000000
vt 0.875000 0.125000
vt 0.812500 0.125000
vt 0.875000 0.250000
vt 0.875000 0.375000
vt 0.812500 0.375000
vt 0.812500 0.250000
vt 0.875000 0.500000
vt 0.875000 0.625000
vt 0.812500 0.625000
vt 0.812500 0.500000
vt 0.812500 0.125000
vt 0.812500 0.250000
vt 0.750000 0.250000
vt 0.750000 0.125000
vt 0.812500 0.375000
vt 0.812500 0.500000
vt 0.750000 0.500000
vt 0.750000 0.375000
vt 0.812500 0.625000
vt 0.812500 0.750000
vt 0.750000 0.750000
vt 0.750000 0.625000
vt 0.812500 0.875000
vt 0.781250 1.000000
vt 0.750000 0.875000
vt 0.781250 0.000000
vt 0.812500 0.125000
vt 0.750000 0.125000
vt 0.812500 0.250000
vt 0.812500 0.375000
vt 0.750000 0.375000
vt 0.750000 0.250000
vt 0.812500 0.500000
vt 0.812500 0.625000
vt 0.750000 0.625000
vt 0.750000 0.500000
vt 0.812500 0.750000
vt 0.812500 0.875000
vt 0.750000 0.875000
vt 0.750000 0.750000
vn 0.1098 -0.8264 -0.5522
vn 0.1915 -0.1915 -0.9626
vn 0.1632 0.5481 -0.8203
vn 0.0388 0.9800 -0.1949
vn 0.0388 -0.9800 -0.1949
vn 0.1632 -0.5481 -0.8203
vn 0.1915 0.1915 -0.9626
vn 0.1098 0.8264 -0.5522
vn 0.4647 0.5481 -0.6954
vn 0.1104 0.9800 -0.1653
vn 0.1104 -0.9800 -0.1653
vn 0.4647 -0.5481 -0.6954
vn 0.5453 0.1915 -0.8161
vn 0.3128 0.8264 -0.4681
vn 0.3128 -0.8264 -0.4681
vn 0.5453 -0.1915 -0.8161
vn 0.1653 -0.9800 -0.1104
vn 0.6954 -0.5481 -0.4647
vn 0.8161 0.1915 -0.5453
vn 0.4681 0.8264 -0.3128
vn 0.4681 -0.8264 -0.3128
vn 0.8161 -0.1915 -0.5453
vn 0.6954 0.5481 -0.4647
vn 0.1653 0.9800 -0.1104
vn 0.5522 0.8264 -0.1098
vn 0.5522 -0.8264 -0.1098
vn 0.9626 -0.1915 -0.1915
vn 0.8203 0.5481 -0.1632
vn 0.1949 0.9800 -0.0388
vn 0.1949 -0.9800 -0.0388
vn 0.8203 -0.5481 -0.1632
vn 0.9626 0.1915 -0.1915
vn 0.5522 -0.8264 0.1098
vn 0.9626 -0.1915 0.1915
vn 0.8203 0.5481 0.1632
vn 0.1949 0.9800 0.0388
vn 0.1949 -0.9800 0.0388
vn 0.8203 -0.5481 0.1632
vn 0.9626 0.1915 0.1915
vn 0.5522 0.8264 0.1098
vn 0.1653 0.9800 0.1104
vn 0.1653 -0.9800 0.1104
vn 0.6954 -0.5481 0.4647
vn 0.8161 0.1915 0.5453
vn 0.4681 0.8264 0.3128
vn 0.4681 -0.8264 0.3128
vn 0.8161 -0.1915 0.5453
vn 0.6954 0.5481 0.4647
vn 0.4647 -0.5481 0.6954
vn 0.5453 0.1915 0.8161
vn 0.3128 0.8264 0.4681
vn 0.3128 -0.8264 0.4681
vn 0.5453 -0.1915 0.8161
vn 0.4647 0.5481 0.6954
vn 0.1104 0.9800 0.1653
vn 0.1104 -0.9800 0.1653
vn 0.1098 -0.8264 0.5522
vn 0.1915 -0.1915 0.9626
vn 0.1632 0.5481 0.8203
vn 0.0388 0.9800 0.1949
vn 0.0388 -0.9800 0.1949
vn 0.1632 -0.5481 0.8203
vn 0.1915 0.1915 0.9626
vn 0.1098 0.8264 0.5522
vn -0.1915 -0.1915 0.9626
vn -0.1632 0.5481 0.8203
vn -0.0388 0.9800 0.1949
vn -0.0388 -0.9800 0.1949
vn -0.1632 -0.5481 0.8203
vn -0.1915 0.1915 0.9626
vn -0.1098 0.8264 0.5522
vn -0.1098 -0.8264 0.5522
vn -0.1104 -0.9800 0.1653
vn -0.4647 -0.5481 0.6954
vn -0.5453 0.1915 0.8161
vn -0.3128 0.8264 0.4681
vn -0.3128 -0.8264 0.4681
vn -0.5453 -0.1915 0.8161
vn -0.4647 0.5481 0.6954
vn -0.1104 0.9800 0.1653
vn -0.8161 0.1915 0.5453
vn -0.4681 0.8264 0.3128
vn -0.4681 -0.8264 0.3128
vn -0.8161 -0.1915 0.5453
vn -0.6954 0.5481 0.4647
vn -0.1653 0.9800 0.1104
vn -0.1653 -0.9800 0.1104
vn -0.6954 -0.5481 0.4647
vn -0.5522 -0.8264 0.1098
vn -0.9626 -0.1915 0.1915
vn -0.8203 0.5481 0.1632
vn -0.1949 0.9800 0.0388
vn -0.1949 -0.9800 0.0388
vn -0.8203 -0.5481 0.1632
vn -0.9626 0.1915 0.1915
vn -0.5522 0.8264 0.1098
vn -0.8203 0.5481 -0.1632
vn -0.1949 0.9800 -0.0388
vn -0.1949 -0.9800 -0.0388
vn -0.8203 -0.5481 -0.1632
vn -0.9626 0.1915 -0.1915
vn -0.5522 0.8264 -0.1098
vn -0.5522 -0.8264 -0.1098
vn -0.9626 -0.1915 -0.1915
vn -0.1653 -0.9800 -0.1104
vn -0.6954 -0.5481 -0.4647
vn -0.8161 0.1915 -0.5453
vn -0.4681 0.8264 -0.3128
vn -0.4681 -0.8264 -0.3128
vn -0.8161 -0.1915 -0.5453
vn -0.6954 0.5481 -0.4647
vn -0.1653 0.9800 -0.1104
vn -0.3128 0.8264 -0.4681
vn -0.3128 -0.8264 -0.4681
vn -0.5453 -0.1915 -0.8161
vn -0.4647 0.5481 -0.6954
vn -0.1104 0.9800 -0.1653
vn -0.1104 -0.9800 -0.1653
vn -0.4647 -0.5481 -0.6954
vn -0.5453 0.1915 -0.8161
vn -0.1098 -0.8264 -0.5522
vn -0.1915 -0.1915 -0.9626
vn -0.1632 0.5481 -0.8203
vn -0.0388 0.9800 -0.1949
vn -0.0388 -0.9800 -0.1949
vn -0.1632 -0.5481 -0.8203
vn -0.1915 0.1915 -0.9626
vn -0.1098 0.8264 -0.5522
usemtl None
s 1
f 142/1/1 462/2/1 137/3/1 139/4/1
f 145/5/2 465/6/2 131/7/2 133/8/2
f 118/9/3 115/10/3 125/11/3 127/12/3
f 457/13/4 442/14/4 123/15/4
f 466/16/5 143/17/5 141/18/5
f 461/19/6 146/20/6 134/21/6 136/22/6
f 464/23/7 119/24/7 128/25/7 130/26/7
f 116/27/8 459/28/8 121/29/8 124/30/8
f 129/31/9 126/32/9 152/33/9 154/34/9
f 122/35/10 443/36/10 149/37/10
f 467/38/11 140/39/11 167/40/11
f 138/41/12 135/42/12 161/43/12 163/44/12
f 132/45/13 7/46/13 155/47/13 157/48/13
f 6/49/14 5/50/14 148/51/14 151/52/14
f 11/53/15 10/54/15 164/55/15 166/56/15
f 9/57/16 8/58/16 158/59/16 160/60/16
f 468/61/17 168/62/17 188/63/17
f 165/64/18 162/65/18 182/66/18 184/67/18
f 159/68/19 156/69/19 176/70/19 178/71/19
f 153/72/20 150/73/20 169/74/20 172/75/20
f 18/76/21 17/77/21 185/78/21 187/79/21
f 16/80/22 15/81/22 179/82/22 181/83/22
f 14/84/23 13/85/23 173/86/23 175/87/23
f 12/88/24 444/89/24 171/90/24
f 174/91/25 170/92/25 190/93/25 193/94/25
f 189/95/26 186/96/26 206/97/26 208/98/26
f 183/99/27 180/100/27 200/101/27 202/102/27
f 177/103/28 20/104/28 194/105/28 196/106/28
f 19/107/29 445/108/29 192/109/29
f 469/110/30 25/111/30 210/112/30
f 24/113/31 23/114/31 203/115/31 205/116/31
f 22/117/32 21/118/32 197/119/32 199/120/32
f 209/121/33 207/122/33 227/123/33 229/124/33
f 204/125/34 201/126/34 221/127/34 223/128/34
f 198/129/35 195/130/35 215/131/35 217/132/35
f 191/133/36 446/134/36 212/135/36
f 470/136/37 32/137/37 231/138/37
f 31/139/38 30/140/38 224/141/38 226/142/38
f 29/143/39 28/144/39 218/145/39 220/146/39
f 27/147/40 26/148/40 211/149/40 214/150/40
f 213/151/41 447/152/41 233/153/41
f 471/154/42 230/155/42 251/156/42
f 228/157/43 225/158/43 245/159/43 247/160/43
f 222/161/44 219/162/44 239/163/44 241/164/44
f 216/165/45 33/166/45 232/167/45 235/168/45
f 39/169/46 38/170/46 248/171/46 250/172/46
f 37/173/47 36/174/47 242/175/47 244/176/47
f 35/177/48 34/178/48 236/179/48 238/180/48
f 249/181/49 246/182/49 266/183/49 268/184/49
f 243/185/50 240/186/50 260/187/50 262/188/50
f 237/189/51 234/190/51 253/191/51 256/192/51
f 252/193/52 45/194/52 269/195/52 271/196/52
f 44/197/53 43/198/53 263/199/53 265/200/53
f 42/201/54 41/202/54 257/203/54 259/204/54
f 40/205/55 448/206/55 255/207/55
f 472/208/56 46/209/56 273/210/56
f 272/211/57 270/212/57 290/213/57 292/214/57
f 267/215/58 264/216/58 284/217/58 286/218/58
f 261/219/59 258/220/59 278/221/59 280/222/59
f 254/223/60 449/224/60 275/225/60
f 473/226/61 53/227/61 294/228/61
f 52/229/62 51/230/62 287/231/62 289/232/62
f 50/233/63 49/234/63 281/235/63 283/236/63
f 48/237/64 47/238/64 274/239/64 277/240/64
f 288/241/65 285/242/65 305/243/65 307/244/65
f 282/245/66 279/246/66 299/247/66 301/248/66
f 276/249/67 450/250/67 296/251/67
f 474/252/68 293/253/68 314/254/68
f 291/255/69 58/256/69 308/257/69 310/258/69
f 57/259/70 56/260/70 302/261/70 304/262/70
f 55/263/71 54/264/71 295/265/71 298/266/71
f 60/267/72 59/268/72 311/269/72 313/270/72
f 475/271/73 315/272/73 335/273/73
f 312/274/74 309/275/74 329/276/74 331/277/74
f 306/278/75 303/279/75 323/280/75 325/281/75
f 300/282/76 297/283/76 316/284/76 319/285/76
f 67/286/77 66/287/77 332/288/77 334/289/77
f 65/290/78 64/291/78 326/292/78 328/293/78
f 63/294/79 62/295/79 320/296/79 322/297/79
f 61/298/80 451/299/80 318/300/80
f 327/301/81 324/302/81 344/303/81 346/304/81
f 321/305/82 317/306/82 337/307/82 340/308/82
f 336/309/83 333/310/83 353/311/83 355/312/83
f 330/313/84 71/314/84 347/315/84 349/316/84
f 70/317/85 69/318/85 341/319/85 343/320/85
f 68/321/86 452/322/86 339/323/86
f 476/324/87 74/325/87 357/326/87
f 73/327/88 72/328/88 350/329/88 352/330/88
f 356/331/89 354/332/89 374/333/89 376/334/89
f 351/335/90 348/336/90 368/337/90 370/338/90
f 345/339/91 342/340/91 362/341/91 364/342/91
f 338/343/92 453/344/92 359/345/92
f 477/346/93 81/347/93 378/348/93
f 80/349/94 79/350/94 371/351/94 373/352/94
f 78/353/95 77/354/95 365/355/95 367/356/95
f 76/357/96 75/358/96 358/359/96 361/360/96
f 366/361/97 363/362/97 383/363/97 385/364/97
f 360/365/98 454/366/98 380/367/98
f 478/368/99 377/369/99 398/370/99
f 375/371/100 372/372/100 392/373/100 394/374/100
f 369/375/101 84/376/101 386/377/101 388/378/101
f 83/379/102 82/380/102 379/381/102 382/382/102
f 88/383/103 87/384/103 395/385/103 397/386/103
f 86/387/104 85/388/104 389/389/104 391/390/104
f 479/391/105 399/392/105 419/393/105
f 396/394/106 393/395/106 413/396/106 415/397/106
f 390/398/107 387/399/107 407/400/107 409/401/107
f 384/402/108 381/403/108 400/404/108 403/405/108
f 95/406/109 94/407/109 416/408/109 418/409/109
f 93/410/110 92/411/110 410/412/110 412/413/110
f 91/414/111 90/415/111 404/416/111 406/417/111
f 89/418/112 455/419/112 402/420/112
f 405/421/113 401/422/113 421/423/113 424/424/113
f 420/425/114 417/426/114 437/427/114 439/428/114
f 414/429/115 411/430/115 431/431/115 433/432/115
f 408/433/116 97/434/116 425/435/116 427/436/116
f 96/437/117 456/438/117 423/439/117
f 480/440/118 102/441/118 440/442/118
f 101/443/119 100/444/119 434/445/119 436/446/119
f 99/447/120 98/448/120 428/449/120 430/450/120
f 441/451/121 438/452/121 460/453/121 144/454/121
f 435/455/122 432/456/122 463/457/122 147/458/122
f 429/459/123 426/460/123 117/461/123 120/462/123
f 422/463/124 110/464/124 458/465/124
f 114/466/125 109/467/125 4/468/125
f 108/469/126 107/470/126 3/471/126 113/472/126
f 106/473/127 105/474/127 2/475/127 112/476/127
f 104/477/128 103/478/128 111/479/128 1/480/128
