# Blender v2.82 (sub 7) OBJ File: 'half_capsule.blend'
# www.blender.org
mtllib half_capsule.mtl
o Cylinder
v 0.000000 0.500000 -0.500000
v 0.500000 0.500000 0.000000
v -0.433013 0.500000 0.250000
v -0.500000 0.500000 0.000000
v -0.250000 0.500000 -0.433013
v 0.000000 0.853553 -0.353553
v 0.095671 0.961940 -0.165707
v 0.176777 0.853553 -0.306186
v 0.230970 0.691342 -0.400052
v 0.250000 0.500000 -0.433013
v -0.000000 1.000000 -0.000000
v 0.165707 0.961940 -0.095671
v 0.306186 0.853553 -0.176777
v 0.400052 0.691342 -0.230970
v 0.433013 0.500000 -0.250000
v 0.191342 0.961940 -0.000000
v 0.353553 0.853553 -0.000000
v 0.461940 0.691342 -0.000000
v 0.165707 0.961940 0.095671
v 0.306186 0.853553 0.176777
v 0.400052 0.691342 0.230970
v 0.433013 0.500000 0.250000
v 0.095671 0.961940 0.165707
v 0.176777 0.853553 0.306186
v 0.230970 0.691342 0.400052
v 0.250000 0.500000 0.433013
v -0.000000 0.961940 0.191342
v -0.000000 0.853553 0.353553
v -0.000000 0.691342 0.461940
v -0.000000 0.500000 0.500000
v -0.095671 0.961940 0.165707
v -0.176777 0.853553 0.306186
v -0.230970 0.691342 0.400052
v -0.250000 0.500000 0.433013
v -0.165707 0.961940 0.095671
v -0.306186 0.853553 0.176777
v -0.400052 0.691342 0.230970
v -0.191342 0.961940 -0.000000
v -0.353553 0.853553 -0.000000
v -0.461940 0.691342 -0.000000
v -0.165707 0.961940 -0.095671
v -0.306186 0.853553 -0.176777
v -0.400052 0.691342 -0.230970
v -0.433013 0.500000 -0.250000
v -0.095671 0.961940 -0.165707
v -0.176777 0.853553 -0.306186
v -0.230970 0.691342 -0.400052
v 0.000000 0.961940 -0.191342
v 0.000000 0.691342 -0.461940
v 0.000000 0.000000 -0.500000
v 0.500000 0.000000 0.000000
v -0.433013 0.000000 0.250000
v -0.500000 0.000000 0.000000
v -0.250000 0.000000 -0.433013
v 0.250000 -0.000000 -0.433013
v 0.433013 -0.000000 -0.250000
v 0.433013 -0.000000 0.250000
v 0.250000 -0.000000 0.433013
v -0.000000 -0.000000 0.500000
v -0.250000 -0.000000 0.433013
v -0.433013 -0.000000 -0.250000
vt 0.083333 0.750000
vt 1.000000 0.750000
vt 0.916667 0.750000
vt 0.833333 0.750000
vt 0.750000 0.750000
vt 0.666667 0.750000
vt 0.583333 0.750000
vt 0.500000 0.750000
vt 0.416667 0.750000
vt 0.333333 0.750000
vt 0.250000 0.750000
vt 0.166667 0.750000
vt 1.000000 1.000000
vt 0.916667 1.000000
vt 0.833333 1.000000
vt 0.750000 1.000000
vt 0.666667 1.000000
vt 0.583333 1.000000
vt 0.500000 1.000000
vt 0.416667 1.000000
vt 0.333333 1.000000
vt 0.250000 1.000000
vt 0.166667 1.000000
vt 0.083333 1.000000
vt 0.000000 1.000000
vt 0.000000 0.750000
vt 0.750000 0.875000
vt 0.708333 1.000000
vt 0.666667 0.875000
vt 0.750000 0.500000
vt 0.750000 0.625000
vt 0.666667 0.625000
vt 0.666667 0.500000
vt 0.750000 0.750000
vt 0.666667 0.750000
vt 0.583333 0.625000
vt 0.583333 0.500000
vt 0.583333 0.875000
vt 0.583333 0.750000
vt 0.625000 1.000000
vt 0.500000 0.750000
vt 0.500000 0.625000
vt 0.541667 1.000000
vt 0.500000 0.875000
vt 0.500000 0.500000
vt 0.416667 0.750000
vt 0.416667 0.625000
vt 0.458333 1.000000
vt 0.416667 0.875000
vt 0.416667 0.500000
vt 0.333333 0.625000
vt 0.333333 0.500000
vt 0.333333 0.875000
vt 0.333333 0.750000
vt 0.375000 1.000000
vt 0.250000 0.875000
vt 0.250000 0.750000
vt 0.250000 0.625000
vt 0.291667 1.000000
vt 0.250000 0.500000
vt 0.166667 0.750000
vt 0.166667 0.625000
vt 0.208333 1.000000
vt 0.166667 0.875000
vt 0.166667 0.500000
vt 0.125000 1.000000
vt 0.083333 0.875000
vt 0.083333 0.625000
vt 0.083333 0.500000
vt 0.083333 0.750000
vt 0.000000 0.625000
vt 0.000000 0.500000
vt 0.000000 0.875000
vt 0.000000 0.750000
vt 0.041667 1.000000
vt 1.000000 0.625000
vt 1.000000 0.750000
vt 0.916667 0.750000
vt 0.916667 0.625000
vt 1.000000 0.875000
vt 0.958333 1.000000
vt 0.916667 0.875000
vt 1.000000 0.500000
vt 0.916667 0.500000
vt 0.833333 0.750000
vt 0.833333 0.625000
vt 0.875000 1.000000
vt 0.833333 0.875000
vt 0.833333 0.500000
vt 0.791667 1.000000
vn -0.0000 -1.0000 -0.0000
vn 0.0000 -0.6532 -0.7571
vn 0.0000 0.0965 -0.9953
vn 0.4977 0.0965 -0.8620
vn 0.3786 -0.6532 -0.6557
vn 0.8620 0.0965 -0.4977
vn 0.6557 -0.6532 -0.3786
vn 0.9953 0.0965 0.0000
vn 0.7571 -0.6532 0.0000
vn 0.8620 0.0965 0.4977
vn 0.6557 -0.6532 0.3786
vn 0.4977 0.0965 0.8620
vn 0.3786 -0.6532 0.6557
vn 0.0000 0.0965 0.9953
vn 0.0000 -0.6532 0.7571
vn -0.4977 0.0965 0.8620
vn -0.3786 -0.6532 0.6557
vn -0.8620 0.0965 0.4977
vn -0.6557 -0.6532 0.3786
vn -0.9953 0.0965 0.0000
vn -0.7571 -0.6532 0.0000
vn -0.8620 0.0965 -0.4977
vn -0.6557 -0.6532 -0.3786
vn -0.4977 0.0965 -0.8620
vn -0.3786 -0.6532 -0.6557
vn 0.0000 0.9122 -0.4097
vn 0.0000 1.0000 0.0000
vn 0.2048 0.9122 -0.3548
vn 0.0000 0.3717 -0.9283
vn 0.4642 0.3717 -0.8039
vn 0.0000 0.6913 -0.7226
vn 0.3613 0.6913 -0.6258
vn 0.8039 0.3717 -0.4642
vn 0.3548 0.9122 -0.2048
vn 0.6258 0.6913 -0.3613
vn 0.7226 0.6913 0.0000
vn 0.9283 0.3717 0.0000
vn 0.4097 0.9122 0.0000
vn 0.6258 0.6913 0.3613
vn 0.8039 0.3717 0.4642
vn 0.3548 0.9122 0.2048
vn 0.4642 0.3717 0.8039
vn 0.2048 0.9122 0.3548
vn 0.3613 0.6913 0.6258
vn 0.0000 0.9122 0.4097
vn 0.0000 0.6913 0.7226
vn 0.0000 0.3717 0.9283
vn -0.3613 0.6913 0.6258
vn -0.4642 0.3717 0.8039
vn -0.2048 0.9122 0.3548
vn -0.3548 0.9122 0.2048
vn -0.8039 0.3717 0.4642
vn -0.6258 0.6913 0.3613
vn -0.9283 0.3717 0.0000
vn -0.4097 0.9122 0.0000
vn -0.7226 0.6913 0.0000
vn -0.6258 0.6913 -0.3613
vn -0.8039 0.3717 -0.4642
vn -0.3548 0.9122 -0.2048
vn -0.3613 0.6913 -0.6258
vn -0.4642 0.3717 -0.8039
vn -0.2048 0.9122 -0.3548
usemtl None
s off
f 54/1/1 50/2/1 55/3/1 56/4/1 51/5/1 57/6/1 58/7/1 59/8/1 60/9/1 52/10/1 53/11/1 61/12/1
s 1
f 50/2/2 1/13/3 10/14/4 55/3/5
f 55/3/5 10/14/4 15/15/6 56/4/7
f 56/4/7 15/15/6 2/16/8 51/5/9
f 51/5/9 2/16/8 22/17/10 57/6/11
f 57/6/11 22/17/10 26/18/12 58/7/13
f 58/7/13 26/18/12 30/19/14 59/8/15
f 59/8/15 30/19/14 34/20/16 60/9/17
f 60/9/17 34/20/16 3/21/18 52/10/19
f 52/10/19 3/21/18 4/22/20 53/11/21
f 53/11/21 4/22/20 44/23/22 61/12/23
f 61/12/23 44/23/22 5/24/24 54/1/25
f 54/1/25 5/24/24 1/25/3 50/26/2
f 48/27/26 11/28/27 7/29/28
f 1/30/3 49/31/29 9/32/30 10/33/4
f 6/34/31 48/27/26 7/29/28 8/35/32
f 49/31/29 6/34/31 8/35/32 9/32/30
f 10/33/4 9/32/30 14/36/33 15/37/6
f 8/35/32 7/29/28 12/38/34 13/39/35
f 9/32/30 8/35/32 13/39/35 14/36/33
f 7/29/28 11/40/27 12/38/34
f 14/36/33 13/39/35 17/41/36 18/42/37
f 12/38/34 11/43/27 16/44/38
f 15/37/6 14/36/33 18/42/37 2/45/8
f 13/39/35 12/38/34 16/44/38 17/41/36
f 18/42/37 17/41/36 20/46/39 21/47/40
f 16/44/38 11/48/27 19/49/41
f 2/45/8 18/42/37 21/47/40 22/50/10
f 17/41/36 16/44/38 19/49/41 20/46/39
f 22/50/10 21/47/40 25/51/42 26/52/12
f 20/46/39 19/49/41 23/53/43 24/54/44
f 21/47/40 20/46/39 24/54/44 25/51/42
f 19/49/41 11/55/27 23/53/43
f 24/54/44 23/53/43 27/56/45 28/57/46
f 25/51/42 24/54/44 28/57/46 29/58/47
f 23/53/43 11/59/27 27/56/45
f 26/52/12 25/51/42 29/58/47 30/60/14
f 29/58/47 28/57/46 32/61/48 33/62/49
f 27/56/45 11/63/27 31/64/50
f 30/60/14 29/58/47 33/62/49 34/65/16
f 28/57/46 27/56/45 31/64/50 32/61/48
f 31/64/50 11/66/27 35/67/51
f 34/65/16 33/62/49 37/68/52 3/69/18
f 32/61/48 31/64/50 35/67/51 36/70/53
f 33/62/49 32/61/48 36/70/53 37/68/52
f 3/69/18 37/68/52 40/71/54 4/72/20
f 36/70/53 35/67/51 38/73/55 39/74/56
f 37/68/52 36/70/53 39/74/56 40/71/54
f 35/67/51 11/75/27 38/73/55
f 40/76/54 39/77/56 42/78/57 43/79/58
f 38/80/55 11/81/27 41/82/59
f 4/83/20 40/76/54 43/79/58 44/84/22
f 39/77/56 38/80/55 41/82/59 42/78/57
f 43/79/58 42/78/57 46/85/60 47/86/61
f 41/82/59 11/87/27 45/88/62
f 44/84/22 43/79/58 47/86/61 5/89/24
f 42/78/57 41/82/59 45/88/62 46/85/60
f 5/89/24 47/86/61 49/31/29 1/30/3
f 46/85/60 45/88/62 48/27/26 6/34/31
f 47/86/61 46/85/60 6/34/31 49/31/29
f 45/88/62 11/90/27 48/27/26
