# Blender v2.82 (sub 7) OBJ File: 'panorama_skybox.blend1'
# www.blender.org
mtllib panorama_skybox.mtl
o Sphere
v 0.000000 0.490393 -0.097545
v 0.000000 0.461940 -0.191342
v 0.000000 0.415735 -0.277785
v 0.000000 0.353553 -0.353553
v 0.000000 0.277785 -0.415735
v 0.000000 0.191342 -0.461940
v 0.000000 0.097545 -0.490393
v 0.000000 0.000000 -0.500000
v 0.000000 -0.097545 -0.490393
v 0.000000 -0.415735 -0.277785
v 0.019030 0.490393 -0.095671
v 0.037329 0.461940 -0.187665
v 0.054193 0.415735 -0.272447
v 0.068975 0.353553 -0.346760
v 0.081106 0.277785 -0.407746
v 0.090120 0.191342 -0.453064
v 0.095671 0.097545 -0.480970
v 0.097545 0.000000 -0.490393
v 0.095671 -0.097545 -0.480970
v 0.090120 -0.191342 -0.453064
v 0.081106 -0.277785 -0.407746
v 0.068975 -0.353553 -0.346760
v 0.054193 -0.415735 -0.272447
v 0.037329 -0.461940 -0.187665
v 0.019030 -0.490393 -0.095671
v 0.037329 0.490393 -0.090120
v 0.073223 0.461940 -0.176777
v 0.106304 0.415735 -0.256640
v 0.135299 0.353553 -0.326641
v 0.159095 0.277785 -0.384089
v 0.176777 0.191342 -0.426777
v 0.187665 0.097545 -0.453064
v 0.191342 0.000000 -0.461940
v 0.187665 -0.097545 -0.453064
v 0.176777 -0.191342 -0.426777
v 0.159095 -0.277785 -0.384089
v 0.135299 -0.353553 -0.326641
v 0.106304 -0.415735 -0.256640
v 0.073223 -0.461940 -0.176777
v 0.037329 -0.490393 -0.090120
v 0.054193 0.490393 -0.081106
v 0.106304 0.461940 -0.159095
v 0.154329 0.415735 -0.230970
v 0.196424 0.353553 -0.293969
v 0.230970 0.277785 -0.345671
v 0.256640 0.191342 -0.384089
v 0.272448 0.097545 -0.407746
v 0.277785 0.000000 -0.415735
v 0.272448 -0.097545 -0.407746
v 0.256640 -0.191342 -0.384089
v 0.230970 -0.277785 -0.345671
v 0.196424 -0.353553 -0.293969
v 0.154329 -0.415735 -0.230970
v 0.106304 -0.461940 -0.159095
v 0.054193 -0.490393 -0.081106
v 0.068975 0.490393 -0.068975
v 0.135299 0.461940 -0.135299
v 0.196424 0.415735 -0.196424
v 0.250000 0.353553 -0.250000
v 0.293969 0.277785 -0.293969
v 0.326641 0.191342 -0.326641
v 0.346760 0.097545 -0.346760
v 0.353554 0.000000 -0.353553
v 0.346760 -0.097545 -0.346760
v 0.326641 -0.191342 -0.326641
v 0.293969 -0.277785 -0.293969
v 0.250000 -0.353553 -0.250000
v 0.196424 -0.415735 -0.196424
v 0.135299 -0.461940 -0.135299
v 0.068975 -0.490393 -0.068975
v 0.081106 0.490393 -0.054193
v 0.159095 0.461940 -0.106304
v 0.230970 0.415735 -0.154329
v 0.293969 0.353553 -0.196424
v 0.345671 0.277785 -0.230970
v 0.384089 0.191342 -0.256640
v 0.407747 0.097545 -0.272447
v 0.415735 0.000000 -0.277785
v 0.407747 -0.097545 -0.272447
v 0.384089 -0.191342 -0.256640
v 0.345671 -0.277785 -0.230970
v 0.293969 -0.353553 -0.196424
v 0.230970 -0.415735 -0.154329
v 0.159095 -0.461940 -0.106304
v 0.081106 -0.490393 -0.054193
v 0.090120 0.490393 -0.037329
v 0.176777 0.461940 -0.073223
v 0.256640 0.415735 -0.106304
v 0.326641 0.353553 -0.135299
v 0.384089 0.277785 -0.159095
v 0.426777 0.191342 -0.176777
v 0.453064 0.097545 -0.187665
v 0.461940 0.000000 -0.191342
v 0.453064 -0.097545 -0.187665
v 0.426777 -0.191342 -0.176777
v 0.384089 -0.277785 -0.159095
v 0.326641 -0.353553 -0.135299
v 0.256640 -0.415735 -0.106304
v 0.176777 -0.461940 -0.073223
v 0.090120 -0.490393 -0.037329
v 0.095671 0.490393 -0.019030
v 0.187665 0.461940 -0.037329
v 0.272448 0.415735 -0.054193
v 0.346760 0.353553 -0.068975
v 0.407747 0.277785 -0.081106
v 0.453064 0.191342 -0.090120
v 0.480970 0.097545 -0.095671
v 0.490393 0.000000 -0.097545
v 0.480970 -0.097545 -0.095671
v 0.453064 -0.191342 -0.090120
v 0.407747 -0.277785 -0.081106
v 0.346760 -0.353553 -0.068975
v 0.272448 -0.415735 -0.054193
v 0.187665 -0.461940 -0.037329
v 0.095671 -0.490393 -0.019030
v 0.097545 0.490393 0.000000
v 0.191342 0.461940 0.000000
v 0.277785 0.415735 0.000000
v 0.353553 0.353553 0.000000
v 0.415735 0.277785 0.000000
v 0.461940 0.191342 0.000000
v 0.490393 0.097545 0.000000
v 0.500000 0.000000 0.000000
v 0.490393 -0.097545 0.000000
v 0.461940 -0.191342 0.000000
v 0.415735 -0.277785 0.000000
v 0.353553 -0.353553 0.000000
v 0.277785 -0.415735 0.000000
v 0.191342 -0.461940 0.000000
v 0.097545 -0.490393 0.000000
v 0.095671 0.490393 0.019030
v 0.187665 0.461940 0.037329
v 0.272448 0.415735 0.054193
v 0.346760 0.353553 0.068975
v 0.407747 0.277785 0.081106
v 0.453064 0.191342 0.090120
v 0.480970 0.097545 0.095671
v 0.490393 0.000000 0.097545
v 0.480970 -0.097545 0.095671
v 0.453064 -0.191342 0.090120
v 0.407747 -0.277785 0.081106
v 0.346760 -0.353553 0.068975
v 0.272448 -0.415735 0.054193
v 0.187665 -0.461940 0.037329
v 0.095671 -0.490393 0.019030
v 0.090120 0.490393 0.037329
v 0.176777 0.461940 0.073223
v 0.256640 0.415735 0.106304
v 0.326641 0.353553 0.135299
v 0.384089 0.277785 0.159095
v 0.426777 0.191342 0.176777
v 0.453064 0.097545 0.187665
v 0.461940 0.000000 0.191342
v 0.453064 -0.097545 0.187665
v 0.426777 -0.191342 0.176777
v 0.384089 -0.277785 0.159095
v 0.326641 -0.353553 0.135299
v 0.256640 -0.415735 0.106304
v 0.176777 -0.461940 0.073223
v 0.090120 -0.490393 0.037329
v 0.081106 0.490393 0.054193
v 0.159095 0.461940 0.106304
v 0.230970 0.415735 0.154329
v 0.293969 0.353553 0.196424
v 0.345671 0.277785 0.230970
v 0.384089 0.191342 0.256640
v 0.407747 0.097545 0.272448
v 0.415735 0.000000 0.277785
v 0.407747 -0.097545 0.272448
v 0.384089 -0.191342 0.256640
v 0.345671 -0.277785 0.230970
v 0.293969 -0.353553 0.196424
v 0.230970 -0.415735 0.154329
v 0.159095 -0.461940 0.106304
v 0.081106 -0.490393 0.054193
v 0.068975 0.490393 0.068975
v 0.135299 0.461940 0.135299
v 0.196424 0.415735 0.196424
v 0.250000 0.353553 0.250000
v 0.293969 0.277785 0.293969
v 0.326641 0.191342 0.326641
v 0.346760 0.097545 0.346760
v 0.353553 0.000000 0.353554
v 0.346760 -0.097545 0.346760
v 0.326641 -0.191342 0.326641
v 0.293969 -0.277785 0.293969
v 0.250000 -0.353553 0.250000
v 0.196424 -0.415735 0.196424
v 0.135299 -0.461940 0.135299
v 0.068975 -0.490393 0.068975
v 0.054193 0.490393 0.081106
v 0.106304 0.461940 0.159095
v 0.154329 0.415735 0.230970
v 0.196424 0.353553 0.293969
v 0.230970 0.277785 0.345671
v 0.256640 0.191342 0.384089
v 0.272447 0.097545 0.407747
v 0.277785 0.000000 0.415735
v 0.272447 -0.097545 0.407747
v 0.256640 -0.191342 0.384089
v 0.230970 -0.277785 0.345671
v 0.196424 -0.353553 0.293969
v 0.154329 -0.415735 0.230970
v 0.106304 -0.461940 0.159095
v 0.054193 -0.490393 0.081106
v 0.000000 -0.500000 0.000000
v 0.037329 0.490393 0.090120
v 0.073223 0.461940 0.176777
v 0.106304 0.415735 0.256640
v 0.135299 0.353553 0.326641
v 0.159095 0.277785 0.384089
v 0.176777 0.191342 0.426777
v 0.187665 0.097545 0.453064
v 0.191342 0.000000 0.461940
v 0.187665 -0.097545 0.453064
v 0.176777 -0.191342 0.426777
v 0.159095 -0.277785 0.384089
v 0.135299 -0.353553 0.326641
v 0.106304 -0.415735 0.256640
v 0.073223 -0.461940 0.176777
v 0.037329 -0.490393 0.090120
v 0.019030 0.490393 0.095671
v 0.037329 0.461940 0.187665
v 0.054193 0.415735 0.272448
v 0.068975 0.353553 0.346760
v 0.081106 0.277785 0.407747
v 0.090120 0.191342 0.453064
v 0.095671 0.097545 0.480970
v 0.097545 0.000000 0.490393
v 0.095671 -0.097545 0.480970
v 0.090120 -0.191342 0.453064
v 0.081106 -0.277785 0.407747
v 0.068975 -0.353553 0.346760
v 0.054193 -0.415735 0.272448
v 0.037329 -0.461940 0.187665
v 0.019030 -0.490393 0.095671
v -0.000000 0.490393 0.097545
v 0.000000 0.461940 0.191342
v 0.000000 0.415735 0.277785
v -0.000000 0.353553 0.353553
v -0.000000 0.277785 0.415735
v 0.000000 0.191342 0.461940
v -0.000000 0.097545 0.490393
v -0.000000 0.000000 0.500000
v -0.000000 -0.097545 0.490393
v 0.000000 -0.191342 0.461940
v -0.000000 -0.277785 0.415735
v -0.000000 -0.353553 0.353553
v -0.000000 -0.415735 0.277785
v 0.000000 -0.461940 0.191342
v 0.000000 -0.490393 0.097545
v -0.019030 0.490393 0.095671
v -0.037329 0.461940 0.187665
v -0.054193 0.415735 0.272448
v -0.068975 0.353553 0.346760
v -0.081106 0.277785 0.407747
v -0.090120 0.191342 0.453064
v -0.095671 0.097545 0.480970
v -0.097545 0.000000 0.490393
v -0.095671 -0.097545 0.480970
v -0.090120 -0.191342 0.453064
v -0.081106 -0.277785 0.407747
v -0.068975 -0.353553 0.346760
v -0.054193 -0.415735 0.272448
v -0.037329 -0.461940 0.187665
v -0.019030 -0.490393 0.095671
v -0.037329 0.490393 0.090120
v -0.073223 0.461940 0.176777
v -0.106304 0.415735 0.256640
v -0.135299 0.353553 0.326641
v -0.159095 0.277785 0.384089
v -0.176777 0.191342 0.426777
v -0.187665 0.097545 0.453064
v -0.191342 0.000000 0.461940
v -0.187665 -0.097545 0.453064
v -0.176777 -0.191342 0.426777
v -0.159095 -0.277785 0.384089
v -0.135299 -0.353553 0.326641
v -0.106304 -0.415735 0.256640
v -0.073223 -0.461940 0.176777
v -0.037329 -0.490393 0.090120
v -0.054193 0.490393 0.081106
v -0.106304 0.461940 0.159095
v -0.154329 0.415735 0.230970
v -0.196424 0.353553 0.293969
v -0.230970 0.277785 0.345671
v -0.256640 0.191342 0.384089
v -0.272448 0.097545 0.407746
v -0.277785 0.000000 0.415735
v -0.272448 -0.097545 0.407746
v -0.256640 -0.191342 0.384089
v -0.230970 -0.277785 0.345671
v -0.196424 -0.353553 0.293969
v -0.154329 -0.415735 0.230970
v -0.106304 -0.461940 0.159095
v -0.054193 -0.490393 0.081106
v -0.000000 0.500000 0.000000
v -0.068975 0.490393 0.068975
v -0.135299 0.461940 0.135299
v -0.196424 0.415735 0.196424
v -0.250000 0.353553 0.250000
v -0.293969 0.277785 0.293969
v -0.326641 0.191342 0.326641
v -0.346760 0.097545 0.346760
v -0.353553 0.000000 0.353553
v -0.346760 -0.097545 0.346760
v -0.326641 -0.191342 0.326641
v -0.293969 -0.277785 0.293969
v -0.250000 -0.353553 0.250000
v -0.196424 -0.415735 0.196424
v -0.135299 -0.461940 0.135299
v -0.068975 -0.490393 0.068975
v -0.081106 0.490393 0.054193
v -0.159095 0.461940 0.106304
v -0.230970 0.415735 0.154329
v -0.293969 0.353553 0.196424
v -0.345671 0.277785 0.230970
v -0.384089 0.191342 0.256640
v -0.407746 0.097545 0.272447
v -0.415735 0.000000 0.277785
v -0.407746 -0.097545 0.272447
v -0.384089 -0.191342 0.256640
v -0.345671 -0.277785 0.230970
v -0.293969 -0.353553 0.196424
v -0.230970 -0.415735 0.154329
v -0.159095 -0.461940 0.106304
v -0.081106 -0.490393 0.054193
v -0.090120 0.490393 0.037329
v -0.176777 0.461940 0.073223
v -0.256640 0.415735 0.106304
v -0.326641 0.353553 0.135299
v -0.384089 0.277785 0.159095
v -0.426777 0.191342 0.176777
v -0.453064 0.097545 0.187665
v -0.461940 0.000000 0.191342
v -0.453064 -0.097545 0.187665
v -0.426777 -0.191342 0.176777
v -0.384089 -0.277785 0.159095
v -0.326641 -0.353553 0.135299
v -0.256640 -0.415735 0.106304
v -0.176777 -0.461940 0.073223
v -0.090120 -0.490393 0.037329
v -0.095671 0.490393 0.019030
v -0.187665 0.461940 0.037329
v -0.272448 0.415735 0.054193
v -0.346760 0.353553 0.068975
v -0.407746 0.277785 0.081106
v -0.453064 0.191342 0.090120
v -0.480970 0.097545 0.095671
v -0.490393 0.000000 0.097545
v -0.480970 -0.097545 0.095671
v -0.453064 -0.191342 0.090120
v -0.407746 -0.277785 0.081106
v -0.346760 -0.353553 0.068975
v -0.272447 -0.415735 0.054193
v -0.187665 -0.461940 0.037329
v -0.095671 -0.490393 0.019030
v -0.097545 0.490393 0.000000
v -0.191342 0.461940 0.000000
v -0.277785 0.415735 0.000000
v -0.353553 0.353553 0.000000
v -0.415735 0.277785 0.000000
v -0.461940 0.191342 0.000000
v -0.490392 0.097545 0.000000
v -0.500000 0.000000 0.000000
v -0.490392 -0.097545 0.000000
v -0.461940 -0.191342 0.000000
v -0.415735 -0.277785 0.000000
v -0.353553 -0.353553 0.000000
v -0.277785 -0.415735 0.000000
v -0.191342 -0.461940 0.000000
v -0.097545 -0.490393 0.000000
v -0.095671 0.490393 -0.019030
v -0.187665 0.461940 -0.037329
v -0.272448 0.415735 -0.054193
v -0.346760 0.353553 -0.068975
v -0.407746 0.277785 -0.081106
v -0.453064 0.191342 -0.090120
v -0.480970 0.097545 -0.095671
v -0.490393 0.000000 -0.097545
v -0.480970 -0.097545 -0.095671
v -0.453064 -0.191342 -0.090120
v -0.407746 -0.277785 -0.081106
v -0.346760 -0.353553 -0.068975
v -0.272447 -0.415735 -0.054193
v -0.187665 -0.461940 -0.037329
v -0.095671 -0.490393 -0.019030
v -0.090120 0.490393 -0.037329
v -0.176777 0.461940 -0.073223
v -0.256640 0.415735 -0.106304
v -0.326641 0.353553 -0.135299
v -0.384089 0.277785 -0.159095
v -0.426777 0.191342 -0.176776
v -0.453063 0.097545 -0.187665
v -0.461940 0.000000 -0.191342
v -0.453063 -0.097545 -0.187665
v -0.426777 -0.191342 -0.176776
v -0.384089 -0.277785 -0.159095
v -0.326641 -0.353553 -0.135299
v -0.256640 -0.415735 -0.106304
v -0.176777 -0.461940 -0.073223
v -0.090120 -0.490393 -0.037329
v -0.081106 0.490393 -0.054193
v -0.159095 0.461940 -0.106304
v -0.230970 0.415735 -0.154329
v -0.293969 0.353553 -0.196424
v -0.345671 0.277785 -0.230970
v -0.384089 0.191342 -0.256640
v -0.407746 0.097545 -0.272447
v -0.415735 0.000000 -0.277785
v -0.407746 -0.097545 -0.272447
v -0.384089 -0.191342 -0.256640
v -0.345671 -0.277785 -0.230970
v -0.293969 -0.353553 -0.196424
v -0.230970 -0.415735 -0.154329
v -0.159095 -0.461940 -0.106304
v -0.081106 -0.490393 -0.054193
v -0.068975 0.490393 -0.068975
v -0.135299 0.461940 -0.135299
v -0.196424 0.415735 -0.196424
v -0.250000 0.353553 -0.250000
v -0.293969 0.277785 -0.293969
v -0.326641 0.191342 -0.326640
v -0.346760 0.097545 -0.346760
v -0.353553 0.000000 -0.353553
v -0.346760 -0.097545 -0.346760
v -0.326641 -0.191342 -0.326640
v -0.293969 -0.277785 -0.293969
v -0.250000 -0.353553 -0.250000
v -0.196424 -0.415735 -0.196423
v -0.135299 -0.461940 -0.135299
v -0.068975 -0.490393 -0.068975
v -0.054193 0.490393 -0.081106
v -0.106304 0.461940 -0.159095
v -0.154329 0.415735 -0.230970
v -0.196424 0.353553 -0.293969
v -0.230970 0.277785 -0.345670
v -0.256640 0.191342 -0.384089
v -0.272447 0.097545 -0.407746
v -0.277785 0.000000 -0.415734
v -0.272447 -0.097545 -0.407746
v -0.256640 -0.191342 -0.384089
v -0.230970 -0.277785 -0.345670
v -0.196424 -0.353553 -0.293969
v -0.154329 -0.415735 -0.230970
v -0.106304 -0.461940 -0.159095
v -0.054193 -0.490393 -0.081106
v -0.037329 0.490393 -0.090120
v -0.073223 0.461940 -0.176776
v -0.106304 0.415735 -0.256640
v -0.135299 0.353553 -0.326640
v -0.159095 0.277785 -0.384088
v -0.176777 0.191342 -0.426776
v -0.187665 0.097545 -0.453063
v -0.191342 0.000000 -0.461939
v -0.187665 -0.097545 -0.453063
v -0.176777 -0.191342 -0.426776
v -0.159095 -0.277785 -0.384088
v -0.135299 -0.353553 -0.326640
v -0.106304 -0.415735 -0.256640
v -0.073223 -0.461940 -0.176776
v -0.037329 -0.490393 -0.090120
v -0.019030 0.490393 -0.095671
v -0.037329 0.461940 -0.187665
v -0.054193 0.415735 -0.272447
v -0.068975 0.353553 -0.346760
v -0.081106 0.277785 -0.407746
v -0.090120 0.191342 -0.453063
v -0.095671 0.097545 -0.480969
v -0.097545 0.000000 -0.490392
v -0.095671 -0.097545 -0.480969
v -0.090120 -0.191342 -0.453063
v -0.081106 -0.277785 -0.407746
v -0.068975 -0.353553 -0.346760
v -0.054193 -0.415735 -0.272447
v -0.037329 -0.461940 -0.187665
v -0.019030 -0.490393 -0.095671
v 0.000000 -0.191342 -0.461939
v 0.000000 -0.277785 -0.415734
v 0.000000 -0.353553 -0.353553
v 0.000000 -0.461940 -0.191341
v 0.000000 -0.490393 -0.097545
vt 0.750000 0.812500
vt 0.718750 0.812500
vt 0.718750 0.875000
vt 0.750000 0.875000
vt 0.750000 0.312500
vt 0.718750 0.312500
vt 0.718750 0.375000
vt 0.750000 0.375000
vt 0.750000 0.750000
vt 0.718750 0.750000
vt 0.750000 0.250000
vt 0.718750 0.250000
vt 0.750000 0.687500
vt 0.718750 0.687500
vt 0.750000 0.187500
vt 0.718750 0.187500
vt 0.750000 0.625000
vt 0.718750 0.625000
vt 0.750000 0.125000
vt 0.718750 0.125000
vt 0.750000 0.562500
vt 0.718750 0.562500
vt 0.750000 0.062500
vt 0.718750 0.062500
vt 0.750000 0.500000
vt 0.718750 0.500000
vt 0.750000 0.937500
vt 0.718750 0.937500
vt 0.734375 1.000000
vt 0.734375 0.000000
vt 0.750000 0.437500
vt 0.718750 0.437500
vt 0.687500 0.875000
vt 0.687500 0.937500
vt 0.687500 0.375000
vt 0.687500 0.437500
vt 0.687500 0.812500
vt 0.687500 0.312500
vt 0.687500 0.750000
vt 0.687500 0.250000
vt 0.687500 0.687500
vt 0.687500 0.187500
vt 0.687500 0.625000
vt 0.687500 0.125000
vt 0.687500 0.562500
vt 0.687500 0.062500
vt 0.687500 0.500000
vt 0.703125 1.000000
vt 0.703125 0.000000
vt 0.656250 0.625000
vt 0.656250 0.687500
vt 0.656250 0.125000
vt 0.656250 0.187500
vt 0.656250 0.562500
vt 0.656250 0.062500
vt 0.656250 0.500000
vt 0.656250 0.937500
vt 0.671875 1.000000
vt 0.671875 0.000000
vt 0.656250 0.437500
vt 0.656250 0.875000
vt 0.656250 0.375000
vt 0.656250 0.812500
vt 0.656250 0.312500
vt 0.656250 0.750000
vt 0.656250 0.250000
vt 0.625000 0.375000
vt 0.625000 0.437500
vt 0.625000 0.812500
vt 0.625000 0.875000
vt 0.625000 0.312500
vt 0.625000 0.750000
vt 0.625000 0.250000
vt 0.625000 0.687500
vt 0.625000 0.187500
vt 0.625000 0.625000
vt 0.625000 0.125000
vt 0.625000 0.562500
vt 0.625000 0.062500
vt 0.625000 0.500000
vt 0.625000 0.937500
vt 0.640625 1.000000
vt 0.640625 0.000000
vt 0.593750 0.125000
vt 0.593750 0.187500
vt 0.593750 0.562500
vt 0.593750 0.625000
vt 0.593750 0.062500
vt 0.593750 0.500000
vt 0.593750 0.937500
vt 0.609375 1.000000
vt 0.609375 0.000000
vt 0.593750 0.437500
vt 0.593750 0.875000
vt 0.593750 0.375000
vt 0.593750 0.812500
vt 0.593750 0.312500
vt 0.593750 0.750000
vt 0.593750 0.250000
vt 0.593750 0.687500
vt 0.562500 0.812500
vt 0.562500 0.875000
vt 0.562500 0.312500
vt 0.562500 0.375000
vt 0.562500 0.750000
vt 0.562500 0.250000
vt 0.562500 0.687500
vt 0.562500 0.187500
vt 0.562500 0.625000
vt 0.562500 0.125000
vt 0.562500 0.562500
vt 0.562500 0.062500
vt 0.562500 0.500000
vt 0.562500 0.937500
vt 0.578125 1.000000
vt 0.578125 0.000000
vt 0.562500 0.437500
vt 0.531250 0.562500
vt 0.531250 0.625000
vt 0.531250 0.062500
vt 0.531250 0.125000
vt 0.531250 0.500000
vt 0.531250 0.937500
vt 0.546875 1.000000
vt 0.546875 0.000000
vt 0.531250 0.437500
vt 0.531250 0.875000
vt 0.531250 0.375000
vt 0.531250 0.812500
vt 0.531250 0.312500
vt 0.531250 0.750000
vt 0.531250 0.250000
vt 0.531250 0.687500
vt 0.531250 0.187500
vt 0.500000 0.312500
vt 0.500000 0.375000
vt 0.500000 0.750000
vt 0.500000 0.812500
vt 0.500000 0.250000
vt 0.500000 0.687500
vt 0.500000 0.187500
vt 0.500000 0.625000
vt 0.500000 0.125000
vt 0.500000 0.562500
vt 0.500000 0.062500
vt 0.500000 0.500000
vt 0.500000 0.937500
vt 0.515625 1.000000
vt 0.515625 0.000000
vt 0.500000 0.437500
vt 0.500000 0.875000
vt 0.468750 0.062500
vt 0.468750 0.125000
vt 0.468750 0.500000
vt 0.468750 0.562500
vt 0.468750 0.937500
vt 0.484374 1.000000
vt 0.484375 0.000000
vt 0.468750 0.437500
vt 0.468750 0.875000
vt 0.468750 0.375000
vt 0.468750 0.812500
vt 0.468750 0.312500
vt 0.468750 0.750000
vt 0.468750 0.250000
vt 0.468750 0.687500
vt 0.468750 0.187500
vt 0.468750 0.625000
vt 0.437500 0.250000
vt 0.437500 0.312500
vt 0.437500 0.687500
vt 0.437500 0.750000
vt 0.437500 0.187500
vt 0.437500 0.625000
vt 0.437500 0.125000
vt 0.437500 0.562500
vt 0.437500 0.062500
vt 0.437500 0.500000
vt 0.437500 0.937500
vt 0.453124 1.000000
vt 0.453125 0.000000
vt 0.437500 0.437500
vt 0.437500 0.875000
vt 0.437500 0.375000
vt 0.437500 0.812500
vt 0.406250 0.937500
vt 0.421874 1.000000
vt 0.421875 0.000000
vt 0.406250 0.062500
vt 0.406250 0.437500
vt 0.406250 0.500000
vt 0.406250 0.875000
vt 0.406250 0.375000
vt 0.406250 0.812500
vt 0.406250 0.312500
vt 0.406250 0.750000
vt 0.406250 0.250000
vt 0.406250 0.687500
vt 0.406250 0.187500
vt 0.406250 0.625000
vt 0.406250 0.125000
vt 0.406250 0.562500
vt 0.375000 0.687500
vt 0.375000 0.750000
vt 0.375000 0.187500
vt 0.375000 0.250000
vt 0.375000 0.625000
vt 0.375000 0.125000
vt 0.375000 0.562500
vt 0.375000 0.062500
vt 0.375000 0.500000
vt 0.375000 0.937500
vt 0.390625 1.000000
vt 0.390625 0.000000
vt 0.375000 0.437500
vt 0.375000 0.875000
vt 0.375000 0.375000
vt 0.375000 0.812500
vt 0.375000 0.312500
vt 0.343750 0.437500
vt 0.343750 0.500000
vt 0.343750 0.875000
vt 0.343750 0.937500
vt 0.343750 0.375000
vt 0.343750 0.812500
vt 0.343750 0.312500
vt 0.343750 0.750000
vt 0.343750 0.250000
vt 0.343750 0.687500
vt 0.343750 0.187500
vt 0.343750 0.625000
vt 0.343750 0.125000
vt 0.343750 0.562500
vt 0.343750 0.062500
vt 0.359375 1.000000
vt 0.359375 0.000000
vt 0.312500 0.187500
vt 0.312500 0.250000
vt 0.312500 0.625000
vt 0.312500 0.687500
vt 0.312500 0.125000
vt 0.312500 0.562500
vt 0.312500 0.062500
vt 0.312500 0.500000
vt 0.312500 0.937500
vt 0.328125 1.000000
vt 0.328125 0.000000
vt 0.312500 0.437500
vt 0.312500 0.875000
vt 0.312500 0.375000
vt 0.312500 0.812500
vt 0.312500 0.312500
vt 0.312500 0.750000
vt 0.281250 0.875000
vt 0.281250 0.937500
vt 0.281250 0.375000
vt 0.281250 0.437500
vt 0.281250 0.812500
vt 0.281250 0.312500
vt 0.281250 0.750000
vt 0.281250 0.250000
vt 0.281250 0.687500
vt 0.281250 0.187500
vt 0.281250 0.625000
vt 0.281250 0.125000
vt 0.281250 0.562500
vt 0.281250 0.062500
vt 0.281250 0.500000
vt 0.296875 1.000000
vt 0.296875 0.000000
vt 0.250000 0.625000
vt 0.250000 0.687500
vt 0.250000 0.125000
vt 0.250000 0.187500
vt 0.250000 0.562500
vt 0.250000 0.062500
vt 0.250000 0.500000
vt 0.250000 0.937500
vt 0.265625 1.000000
vt 0.265625 0.000000
vt 0.250000 0.437500
vt 0.250000 0.875000
vt 0.250000 0.375000
vt 0.250000 0.812500
vt 0.250000 0.312500
vt 0.250000 0.750000
vt 0.250000 0.250000
vt 0.218750 0.375000
vt 0.218750 0.437500
vt 0.218750 0.812500
vt 0.218750 0.875000
vt 0.218750 0.312500
vt 0.218750 0.750000
vt 0.218750 0.250000
vt 0.218750 0.687500
vt 0.218750 0.187500
vt 0.218750 0.625000
vt 0.218750 0.125000
vt 0.218750 0.562500
vt 0.218750 0.062500
vt 0.218750 0.500000
vt 0.218750 0.937500
vt 0.234375 1.000000
vt 0.234375 0.000000
vt 0.187500 0.125000
vt 0.187500 0.187500
vt 0.187500 0.562500
vt 0.187500 0.625000
vt 0.187500 0.062500
vt 0.187500 0.500000
vt 0.187500 0.937500
vt 0.203125 1.000000
vt 0.203125 0.000000
vt 0.187500 0.437500
vt 0.187500 0.875000
vt 0.187500 0.375000
vt 0.187500 0.812500
vt 0.187500 0.312500
vt 0.187500 0.750000
vt 0.187500 0.250000
vt 0.187500 0.687500
vt 0.156250 0.312500
vt 0.156250 0.375000
vt 0.156250 0.750000
vt 0.156250 0.812500
vt 0.156250 0.250000
vt 0.156250 0.687500
vt 0.156250 0.187500
vt 0.156250 0.625000
vt 0.156250 0.125000
vt 0.156250 0.562500
vt 0.156250 0.062500
vt 0.156250 0.500000
vt 0.156250 0.937500
vt 0.171875 1.000000
vt 0.171875 0.000000
vt 0.156250 0.437500
vt 0.156250 0.875000
vt 0.125000 0.062500
vt 0.125000 0.125000
vt 0.125000 0.500000
vt 0.125000 0.562500
vt 0.125000 0.937500
vt 0.140625 1.000000
vt 0.140625 0.000000
vt 0.125000 0.437500
vt 0.125000 0.875000
vt 0.125000 0.375000
vt 0.125000 0.812500
vt 0.125000 0.312500
vt 0.125000 0.750000
vt 0.125000 0.250000
vt 0.125000 0.687500
vt 0.125000 0.187500
vt 0.125000 0.625000
vt 0.093750 0.750000
vt 0.093750 0.812500
vt 0.093750 0.250000
vt 0.093750 0.312500
vt 0.093750 0.687500
vt 0.093750 0.187500
vt 0.093750 0.625000
vt 0.093750 0.125000
vt 0.093750 0.562500
vt 0.093750 0.062500
vt 0.093750 0.500000
vt 0.093750 0.937500
vt 0.109375 1.000000
vt 0.109375 0.000000
vt 0.093750 0.437500
vt 0.093750 0.875000
vt 0.093750 0.375000
vt 0.062500 0.500000
vt 0.062500 0.562500
vt 0.062500 0.937500
vt 0.078125 1.000000
vt 0.078125 0.000000
vt 0.062500 0.062500
vt 0.062500 0.437500
vt 0.062500 0.875000
vt 0.062500 0.375000
vt 0.062500 0.812500
vt 0.062500 0.312500
vt 0.062500 0.750000
vt 0.062500 0.250000
vt 0.062500 0.687500
vt 0.062500 0.187500
vt 0.062500 0.625000
vt 0.062500 0.125000
vt 0.031250 0.250000
vt 0.031250 0.312500
vt 0.031250 0.687500
vt 0.031250 0.750000
vt 0.031250 0.187500
vt 0.031250 0.625000
vt 0.031250 0.125000
vt 0.031250 0.562500
vt 0.031250 0.062500
vt 0.031250 0.500000
vt 0.031250 0.937500
vt 0.046875 1.000000
vt 0.046875 0.000000
vt 0.031250 0.437500
vt 0.031250 0.875000
vt 0.031250 0.375000
vt 0.031250 0.812500
vt 0.000000 0.937500
vt 0.015625 1.000000
vt 0.015625 0.000000
vt 0.000000 0.062500
vt 0.000000 0.437500
vt 0.000000 0.500000
vt 0.000000 0.875000
vt 0.000000 0.375000
vt 0.000000 0.812500
vt 0.000000 0.312500
vt 0.000000 0.750000
vt 0.000000 0.250000
vt 0.000000 0.687500
vt 0.000000 0.187500
vt 0.000000 0.625000
vt 0.000000 0.125000
vt 0.000000 0.562500
vt 1.000000 0.687500
vt 0.968750 0.687500
vt 0.968750 0.750000
vt 1.000000 0.750000
vt 1.000000 0.187500
vt 0.968750 0.187500
vt 0.968750 0.250000
vt 1.000000 0.250000
vt 1.000000 0.625000
vt 0.968750 0.625000
vt 1.000000 0.125000
vt 0.968750 0.125000
vt 1.000000 0.562500
vt 0.968750 0.562500
vt 1.000000 0.062500
vt 0.968750 0.062500
vt 1.000000 0.500000
vt 0.968750 0.500000
vt 1.000000 0.937500
vt 0.968750 0.937500
vt 0.984375 1.000000
vt 0.984375 0.000000
vt 1.000000 0.437500
vt 0.968750 0.437500
vt 1.000000 0.875000
vt 0.968750 0.875000
vt 1.000000 0.375000
vt 0.968750 0.375000
vt 1.000000 0.812500
vt 0.968750 0.812500
vt 1.000000 0.312500
vt 0.968750 0.312500
vt 0.937500 0.437500
vt 0.937500 0.500000
vt 0.937500 0.875000
vt 0.937500 0.937500
vt 0.937500 0.375000
vt 0.937500 0.812500
vt 0.937500 0.312500
vt 0.937500 0.750000
vt 0.937500 0.250000
vt 0.937500 0.687500
vt 0.937500 0.187500
vt 0.937500 0.625000
vt 0.937500 0.125000
vt 0.937500 0.562500
vt 0.937500 0.062500
vt 0.953125 1.000000
vt 0.953125 0.000000
vt 0.906250 0.187500
vt 0.906250 0.250000
vt 0.906250 0.625000
vt 0.906250 0.687500
vt 0.906250 0.125000
vt 0.906250 0.562500
vt 0.906250 0.062500
vt 0.906250 0.500000
vt 0.906250 0.937500
vt 0.921875 1.000000
vt 0.921875 0.000000
vt 0.906250 0.437500
vt 0.906250 0.875000
vt 0.906250 0.375000
vt 0.906250 0.812500
vt 0.906250 0.312500
vt 0.906250 0.750000
vt 0.875000 0.375000
vt 0.875000 0.437500
vt 0.875000 0.812500
vt 0.875000 0.875000
vt 0.875000 0.312500
vt 0.875000 0.750000
vt 0.875000 0.250000
vt 0.875000 0.687500
vt 0.875000 0.187500
vt 0.875000 0.625000
vt 0.875000 0.125000
vt 0.875000 0.562500
vt 0.875000 0.062500
vt 0.875000 0.500000
vt 0.875000 0.937500
vt 0.890625 1.000000
vt 0.890625 0.000000
vt 0.843750 0.125000
vt 0.843750 0.187500
vt 0.843750 0.562500
vt 0.843750 0.625000
vt 0.843750 0.062500
vt 0.843750 0.500000
vt 0.843750 0.937500
vt 0.859375 1.000000
vt 0.859375 0.000000
vt 0.843750 0.437500
vt 0.843750 0.875000
vt 0.843750 0.375000
vt 0.843750 0.812500
vt 0.843750 0.312500
vt 0.843750 0.750000
vt 0.843750 0.250000
vt 0.843750 0.687500
vt 0.812500 0.812500
vt 0.812500 0.875000
vt 0.812500 0.312500
vt 0.812500 0.375000
vt 0.812500 0.750000
vt 0.812500 0.250000
vt 0.812500 0.687500
vt 0.812500 0.187500
vt 0.812500 0.625000
vt 0.812500 0.125000
vt 0.812500 0.562500
vt 0.812500 0.062500
vt 0.812500 0.500000
vt 0.812500 0.937500
vt 0.828125 1.000000
vt 0.828125 0.000000
vt 0.812500 0.437500
vt 0.781250 0.562500
vt 0.781250 0.625000
vt 0.781250 0.062500
vt 0.781250 0.125000
vt 0.781250 0.500000
vt 0.781250 0.937500
vt 0.796875 1.000000
vt 0.796875 0.000000
vt 0.781250 0.437500
vt 0.781250 0.875000
vt 0.781250 0.375000
vt 0.781250 0.812500
vt 0.781250 0.312500
vt 0.781250 0.750000
vt 0.781250 0.250000
vt 0.781250 0.687500
vt 0.781250 0.187500
vt 0.765625 1.000000
vt 0.765625 0.000000
vn -0.0464 -0.8810 0.4709
vn -0.0865 0.4696 0.8786
vn -0.0624 -0.7715 0.6332
vn -0.0759 0.6326 0.7708
vn -0.0759 -0.6326 0.7708
vn -0.0624 0.7715 0.6332
vn -0.0865 -0.4696 0.8786
vn -0.0464 0.8810 0.4709
vn -0.0938 -0.2890 0.9527
vn -0.0286 0.9565 0.2902
vn -0.0975 -0.0975 0.9904
vn -0.0097 -0.9951 0.0980
vn -0.0097 0.9951 0.0980
vn -0.0976 0.0975 0.9904
vn -0.0286 -0.9565 0.2902
vn -0.0938 0.2890 0.9527
vn -0.0846 -0.9565 0.2790
vn -0.2779 0.2890 0.9161
vn -0.1374 -0.8810 0.4528
vn -0.2563 0.4696 0.8448
vn -0.1847 -0.7715 0.6088
vn -0.2248 0.6326 0.7412
vn -0.2248 -0.6326 0.7412
vn -0.1847 0.7715 0.6088
vn -0.2563 -0.4696 0.8448
vn -0.1374 0.8810 0.4528
vn -0.2779 -0.2890 0.9161
vn -0.0846 0.9565 0.2790
vn -0.2889 -0.0975 0.9524
vn -0.0286 -0.9951 0.0942
vn -0.0286 0.9951 0.0942
vn -0.2889 0.0975 0.9524
vn -0.4162 -0.4696 0.7786
vn -0.2230 0.8810 0.4173
vn -0.4513 -0.2890 0.8443
vn -0.1374 0.9565 0.2571
vn -0.4691 -0.0975 0.8777
vn -0.0464 -0.9951 0.0869
vn -0.0464 0.9951 0.0869
vn -0.4691 0.0975 0.8777
vn -0.1374 -0.9565 0.2571
vn -0.4513 0.2890 0.8443
vn -0.2230 -0.8810 0.4173
vn -0.4162 0.4696 0.7786
vn -0.2999 -0.7715 0.5611
vn -0.3651 0.6326 0.6831
vn -0.3651 -0.6326 0.6831
vn -0.2999 0.7715 0.5611
vn -0.6073 0.2890 0.7400
vn -0.3002 -0.8810 0.3658
vn -0.5601 0.4696 0.6825
vn -0.4036 -0.7715 0.4918
vn -0.4913 0.6326 0.5987
vn -0.4913 -0.6326 0.5987
vn -0.4036 0.7715 0.4918
vn -0.5601 -0.4696 0.6825
vn -0.3002 0.8810 0.3658
vn -0.6073 -0.2890 0.7400
vn -0.1850 0.9565 0.2254
vn -0.6314 -0.0976 0.7693
vn -0.0625 -0.9951 0.0761
vn -0.0625 0.9951 0.0761
vn -0.6314 0.0976 0.7693
vn -0.1850 -0.9565 0.2254
vn -0.3658 0.8810 0.3002
vn -0.7400 -0.2890 0.6073
vn -0.2254 0.9565 0.1850
vn -0.7693 -0.0975 0.6314
vn -0.0761 -0.9951 0.0625
vn -0.0761 0.9951 0.0625
vn -0.7693 0.0975 0.6314
vn -0.2254 -0.9565 0.1850
vn -0.7400 0.2890 0.6073
vn -0.3658 -0.8810 0.3002
vn -0.6825 0.4696 0.5601
vn -0.4918 -0.7715 0.4036
vn -0.5987 0.6326 0.4913
vn -0.5987 -0.6326 0.4913
vn -0.4918 0.7715 0.4036
vn -0.6825 -0.4696 0.5601
vn -0.4173 -0.8810 0.2231
vn -0.7786 0.4696 0.4162
vn -0.5611 -0.7715 0.2999
vn -0.6831 0.6326 0.3651
vn -0.6831 -0.6326 0.3651
vn -0.5611 0.7715 0.2999
vn -0.7786 -0.4696 0.4162
vn -0.4173 0.8810 0.2231
vn -0.8443 -0.2890 0.4513
vn -0.2571 0.9565 0.1374
vn -0.8777 -0.0976 0.4691
vn -0.0869 -0.9951 0.0464
vn -0.0869 0.9951 0.0464
vn -0.8777 0.0976 0.4691
vn -0.2571 -0.9565 0.1374
vn -0.8443 0.2890 0.4513
vn -0.9161 -0.2890 0.2779
vn -0.2790 0.9565 0.0846
vn -0.9524 -0.0976 0.2889
vn -0.0942 -0.9951 0.0286
vn -0.0942 0.9951 0.0286
vn -0.9524 0.0976 0.2889
vn -0.2790 -0.9565 0.0846
vn -0.9161 0.2890 0.2779
vn -0.4528 -0.8810 0.1374
vn -0.8448 0.4696 0.2563
vn -0.6088 -0.7715 0.1847
vn -0.7412 0.6326 0.2248
vn -0.7412 -0.6326 0.2248
vn -0.6088 0.7715 0.1847
vn -0.8448 -0.4696 0.2563
vn -0.4528 0.8810 0.1374
vn -0.8786 0.4696 0.0865
vn -0.6332 -0.7715 0.0624
vn -0.7708 0.6326 0.0759
vn -0.7708 -0.6326 0.0759
vn -0.6332 0.7715 0.0624
vn -0.8786 -0.4696 0.0865
vn -0.4709 0.8810 0.0464
vn -0.9527 -0.2890 0.0938
vn -0.2902 0.9565 0.0286
vn -0.9904 -0.0976 0.0975
vn -0.0980 -0.9951 0.0097
vn -0.0980 0.9951 0.0097
vn -0.9904 0.0976 0.0975
vn -0.2902 -0.9565 0.0286
vn -0.9527 0.2890 0.0938
vn -0.4709 -0.8810 0.0464
vn -0.2902 0.9565 -0.0286
vn -0.9904 -0.0976 -0.0975
vn -0.0980 -0.9951 -0.0097
vn -0.0980 0.9951 -0.0097
vn -0.9904 0.0976 -0.0975
vn -0.2902 -0.9565 -0.0286
vn -0.9527 0.2890 -0.0938
vn -0.4709 -0.8810 -0.0464
vn -0.8786 0.4696 -0.0865
vn -0.6332 -0.7715 -0.0624
vn -0.7708 0.6326 -0.0759
vn -0.7708 -0.6326 -0.0759
vn -0.6332 0.7715 -0.0624
vn -0.8786 -0.4696 -0.0865
vn -0.4709 0.8810 -0.0464
vn -0.9527 -0.2890 -0.0938
vn -0.7412 0.6326 -0.2248
vn -0.7412 -0.6326 -0.2248
vn -0.6088 0.7715 -0.1847
vn -0.8448 -0.4696 -0.2563
vn -0.4528 0.8810 -0.1374
vn -0.9161 -0.2890 -0.2779
vn -0.2790 0.9565 -0.0846
vn -0.9524 -0.0976 -0.2889
vn -0.0942 -0.9951 -0.0286
vn -0.0942 0.9951 -0.0286
vn -0.9524 0.0976 -0.2889
vn -0.2790 -0.9565 -0.0846
vn -0.9161 0.2890 -0.2779
vn -0.4528 -0.8810 -0.1374
vn -0.8448 0.4696 -0.2563
vn -0.6088 -0.7715 -0.1847
vn -0.0869 -0.9951 -0.0464
vn -0.0869 0.9951 -0.0464
vn -0.8777 0.0976 -0.4691
vn -0.2571 -0.9565 -0.1374
vn -0.8443 0.2890 -0.4513
vn -0.4173 -0.8810 -0.2231
vn -0.7786 0.4696 -0.4162
vn -0.5611 -0.7715 -0.2999
vn -0.6831 0.6326 -0.3651
vn -0.6831 -0.6326 -0.3651
vn -0.5611 0.7715 -0.2999
vn -0.7786 -0.4696 -0.4162
vn -0.4173 0.8810 -0.2231
vn -0.8443 -0.2890 -0.4513
vn -0.2571 0.9565 -0.1374
vn -0.8777 -0.0976 -0.4691
vn -0.5987 -0.6326 -0.4913
vn -0.4918 0.7715 -0.4036
vn -0.6825 -0.4696 -0.5601
vn -0.3658 0.8810 -0.3002
vn -0.7400 -0.2890 -0.6073
vn -0.2254 0.9565 -0.1850
vn -0.7693 -0.0976 -0.6314
vn -0.0761 -0.9951 -0.0625
vn -0.0761 0.9951 -0.0625
vn -0.7693 0.0976 -0.6314
vn -0.2254 -0.9565 -0.1850
vn -0.7400 0.2890 -0.6073
vn -0.3658 -0.8810 -0.3002
vn -0.6825 0.4696 -0.5601
vn -0.4918 -0.7715 -0.4036
vn -0.5987 0.6326 -0.4913
vn -0.6314 0.0976 -0.7693
vn -0.1850 -0.9565 -0.2254
vn -0.6073 0.2890 -0.7400
vn -0.3002 -0.8810 -0.3658
vn -0.5601 0.4696 -0.6825
vn -0.4036 -0.7715 -0.4918
vn -0.4913 0.6326 -0.5987
vn -0.4913 -0.6326 -0.5987
vn -0.4036 0.7715 -0.4918
vn -0.5601 -0.4696 -0.6825
vn -0.3002 0.8810 -0.3658
vn -0.6073 -0.2890 -0.7400
vn -0.1850 0.9565 -0.2254
vn -0.6314 -0.0976 -0.7693
vn -0.0625 -0.9951 -0.0761
vn -0.0625 0.9951 -0.0761
vn -0.2999 0.7715 -0.5611
vn -0.4162 -0.4696 -0.7786
vn -0.2230 0.8810 -0.4173
vn -0.4513 -0.2890 -0.8443
vn -0.1374 0.9565 -0.2571
vn -0.4691 -0.0976 -0.8777
vn -0.0464 -0.9951 -0.0869
vn -0.0464 0.9951 -0.0869
vn -0.4691 0.0976 -0.8777
vn -0.1374 -0.9565 -0.2571
vn -0.4513 0.2890 -0.8443
vn -0.2230 -0.8810 -0.4173
vn -0.4162 0.4696 -0.7786
vn -0.2999 -0.7715 -0.5611
vn -0.3651 0.6326 -0.6831
vn -0.3651 -0.6326 -0.6831
vn -0.0846 -0.9565 -0.2790
vn -0.2779 0.2890 -0.9161
vn -0.1374 -0.8810 -0.4528
vn -0.2563 0.4696 -0.8448
vn -0.1847 -0.7715 -0.6088
vn -0.2248 0.6326 -0.7412
vn -0.2248 -0.6326 -0.7412
vn -0.1847 0.7715 -0.6088
vn -0.2563 -0.4696 -0.8448
vn -0.1374 0.8810 -0.4528
vn -0.2779 -0.2890 -0.9161
vn -0.0846 0.9565 -0.2790
vn -0.2889 -0.0976 -0.9524
vn -0.0286 -0.9951 -0.0942
vn -0.0286 0.9951 -0.0942
vn -0.2889 0.0976 -0.9524
vn -0.0865 -0.4696 -0.8786
vn -0.0464 0.8810 -0.4709
vn -0.0938 -0.2890 -0.9527
vn -0.0286 0.9565 -0.2902
vn -0.0975 -0.0976 -0.9904
vn -0.0097 -0.9951 -0.0980
vn -0.0097 0.9951 -0.0980
vn -0.0975 0.0976 -0.9904
vn -0.0286 -0.9565 -0.2902
vn -0.0938 0.2890 -0.9527
vn -0.0464 -0.8810 -0.4709
vn -0.0865 0.4696 -0.8786
vn -0.0624 -0.7715 -0.6332
vn -0.0759 0.6326 -0.7708
vn -0.0759 -0.6326 -0.7708
vn -0.0624 0.7715 -0.6332
vn 0.0938 0.2890 -0.9527
vn 0.0464 -0.8810 -0.4709
vn 0.0865 0.4696 -0.8786
vn 0.0624 -0.7715 -0.6332
vn 0.0759 0.6326 -0.7708
vn 0.0759 -0.6326 -0.7708
vn 0.0624 0.7715 -0.6332
vn 0.0865 -0.4696 -0.8786
vn 0.0464 0.8810 -0.4709
vn 0.0938 -0.2890 -0.9527
vn 0.0286 0.9565 -0.2902
vn 0.0975 -0.0976 -0.9904
vn 0.0097 -0.9951 -0.0980
vn 0.0097 0.9951 -0.0980
vn 0.0975 0.0976 -0.9904
vn 0.0286 -0.9565 -0.2902
vn 0.1374 0.8810 -0.4528
vn 0.2779 -0.2890 -0.9161
vn 0.0846 0.9565 -0.2790
vn 0.2889 -0.0976 -0.9524
vn 0.0286 -0.9951 -0.0942
vn 0.0286 0.9951 -0.0942
vn 0.2889 0.0976 -0.9524
vn 0.0846 -0.9565 -0.2790
vn 0.2779 0.2890 -0.9161
vn 0.1374 -0.8810 -0.4528
vn 0.2563 0.4696 -0.8448
vn 0.1847 -0.7715 -0.6088
vn 0.2248 0.6326 -0.7412
vn 0.2248 -0.6326 -0.7412
vn 0.1847 0.7715 -0.6088
vn 0.2563 -0.4696 -0.8448
vn 0.4162 0.4696 -0.7786
vn 0.2999 -0.7715 -0.5611
vn 0.3651 0.6326 -0.6831
vn 0.3651 -0.6326 -0.6831
vn 0.2999 0.7715 -0.5611
vn 0.4162 -0.4696 -0.7786
vn 0.2230 0.8810 -0.4173
vn 0.4513 -0.2890 -0.8443
vn 0.1374 0.9565 -0.2571
vn 0.4691 -0.0976 -0.8777
vn 0.0464 -0.9951 -0.0869
vn 0.0464 0.9951 -0.0869
vn 0.4691 0.0976 -0.8777
vn 0.1374 -0.9565 -0.2571
vn 0.4513 0.2890 -0.8443
vn 0.2230 -0.8810 -0.4173
vn 0.1850 0.9565 -0.2254
vn 0.6314 -0.0976 -0.7693
vn 0.0625 -0.9951 -0.0761
vn 0.0625 0.9951 -0.0761
vn 0.6314 0.0976 -0.7693
vn 0.1850 -0.9565 -0.2254
vn 0.6073 0.2890 -0.7400
vn 0.3002 -0.8810 -0.3658
vn 0.5601 0.4696 -0.6825
vn 0.4036 -0.7715 -0.4918
vn 0.4913 0.6326 -0.5987
vn 0.4913 -0.6326 -0.5987
vn 0.4036 0.7715 -0.4918
vn 0.5601 -0.4696 -0.6825
vn 0.3002 0.8810 -0.3658
vn 0.6073 -0.2890 -0.7400
vn 0.4918 -0.7715 -0.4036
vn 0.5987 0.6326 -0.4913
vn 0.5987 -0.6326 -0.4913
vn 0.4918 0.7715 -0.4036
vn 0.6825 -0.4696 -0.5601
vn 0.3658 0.8810 -0.3002
vn 0.7400 -0.2890 -0.6073
vn 0.2254 0.9565 -0.1850
vn 0.7693 -0.0976 -0.6314
vn 0.0761 -0.9951 -0.0625
vn 0.0761 0.9951 -0.0625
vn 0.7693 0.0976 -0.6314
vn 0.2254 -0.9565 -0.1850
vn 0.7400 0.2890 -0.6073
vn 0.3658 -0.8810 -0.3002
vn 0.6825 0.4696 -0.5601
vn 0.8777 -0.0976 -0.4691
vn 0.0869 -0.9951 -0.0464
vn 0.0869 0.9951 -0.0464
vn 0.8777 0.0976 -0.4691
vn 0.2571 -0.9565 -0.1374
vn 0.8443 0.2890 -0.4513
vn 0.4173 -0.8810 -0.2230
vn 0.7786 0.4696 -0.4162
vn 0.5611 -0.7715 -0.2999
vn 0.6831 0.6326 -0.3651
vn 0.6831 -0.6326 -0.3651
vn 0.5611 0.7715 -0.2999
vn 0.7786 -0.4696 -0.4162
vn 0.4173 0.8810 -0.2231
vn 0.8443 -0.2890 -0.4513
vn 0.2571 0.9565 -0.1374
vn 0.7412 0.6326 -0.2248
vn 0.7412 -0.6326 -0.2248
vn 0.6088 0.7715 -0.1847
vn 0.8448 -0.4696 -0.2563
vn 0.4528 0.8810 -0.1374
vn 0.9161 -0.2890 -0.2779
vn 0.2790 0.9565 -0.0846
vn 0.9524 -0.0976 -0.2889
vn 0.0942 -0.9951 -0.0286
vn 0.0942 0.9951 -0.0286
vn 0.9524 0.0976 -0.2889
vn 0.2790 -0.9565 -0.0846
vn 0.9161 0.2890 -0.2779
vn 0.4528 -0.8810 -0.1374
vn 0.8448 0.4696 -0.2563
vn 0.6088 -0.7715 -0.1847
vn 0.0980 -0.9951 -0.0097
vn 0.0980 0.9951 -0.0097
vn 0.9904 0.0976 -0.0975
vn 0.2902 -0.9565 -0.0286
vn 0.9527 0.2890 -0.0938
vn 0.4709 -0.8810 -0.0464
vn 0.8786 0.4696 -0.0865
vn 0.6332 -0.7715 -0.0624
vn 0.7708 0.6326 -0.0759
vn 0.7708 -0.6326 -0.0759
vn 0.6332 0.7715 -0.0624
vn 0.8786 -0.4696 -0.0865
vn 0.4709 0.8810 -0.0464
vn 0.9527 -0.2890 -0.0938
vn 0.2902 0.9565 -0.0286
vn 0.9904 -0.0976 -0.0975
vn 0.7708 -0.6326 0.0759
vn 0.6332 0.7715 0.0624
vn 0.8786 -0.4696 0.0865
vn 0.4709 0.8810 0.0464
vn 0.9527 -0.2890 0.0938
vn 0.2902 0.9565 0.0286
vn 0.9904 -0.0976 0.0976
vn 0.0980 -0.9951 0.0097
vn 0.0980 0.9951 0.0097
vn 0.9904 0.0976 0.0976
vn 0.2902 -0.9565 0.0286
vn 0.9527 0.2890 0.0938
vn 0.4709 -0.8810 0.0464
vn 0.8786 0.4696 0.0865
vn 0.6332 -0.7715 0.0624
vn 0.7708 0.6326 0.0759
vn 0.9524 0.0976 0.2889
vn 0.2790 -0.9565 0.0846
vn 0.9161 0.2890 0.2779
vn 0.4528 -0.8810 0.1374
vn 0.8448 0.4696 0.2563
vn 0.6088 -0.7715 0.1847
vn 0.7412 0.6326 0.2248
vn 0.7412 -0.6326 0.2248
vn 0.6088 0.7715 0.1847
vn 0.8448 -0.4696 0.2563
vn 0.4528 0.8810 0.1374
vn 0.9161 -0.2890 0.2779
vn 0.2790 0.9565 0.0846
vn 0.9524 -0.0976 0.2889
vn 0.0942 -0.9951 0.0286
vn 0.0942 0.9951 0.0286
vn 0.5611 0.7715 0.2999
vn 0.7786 -0.4696 0.4162
vn 0.4173 0.8810 0.2231
vn 0.8443 -0.2890 0.4513
vn 0.2571 0.9565 0.1374
vn 0.8777 -0.0976 0.4691
vn 0.0869 -0.9951 0.0464
vn 0.0869 0.9951 0.0464
vn 0.8777 0.0976 0.4691
vn 0.2571 -0.9565 0.1374
vn 0.8443 0.2890 0.4513
vn 0.4173 -0.8810 0.2231
vn 0.7786 0.4696 0.4162
vn 0.5611 -0.7715 0.2999
vn 0.6831 0.6326 0.3651
vn 0.6831 -0.6326 0.3651
vn 0.7400 0.2890 0.6073
vn 0.3658 -0.8810 0.3002
vn 0.6825 0.4696 0.5601
vn 0.4918 -0.7715 0.4036
vn 0.5987 0.6326 0.4913
vn 0.5987 -0.6326 0.4913
vn 0.4918 0.7715 0.4036
vn 0.6825 -0.4696 0.5601
vn 0.3658 0.8810 0.3002
vn 0.7400 -0.2890 0.6073
vn 0.2254 0.9565 0.1850
vn 0.7693 -0.0976 0.6314
vn 0.0761 -0.9951 0.0625
vn 0.0761 0.9951 0.0625
vn 0.7693 0.0976 0.6314
vn 0.2254 -0.9565 0.1850
vn 0.3002 0.8810 0.3658
vn 0.6073 -0.2890 0.7400
vn 0.1850 0.9565 0.2254
vn 0.6314 -0.0976 0.7693
vn 0.0625 -0.9951 0.0761
vn 0.0625 0.9951 0.0761
vn 0.6314 0.0976 0.7693
vn 0.1850 -0.9565 0.2254
vn 0.6073 0.2890 0.7400
vn 0.3002 -0.8810 0.3658
vn 0.5601 0.4696 0.6825
vn 0.4036 -0.7715 0.4918
vn 0.4913 0.6326 0.5987
vn 0.4913 -0.6326 0.5987
vn 0.4036 0.7715 0.4918
vn 0.5601 -0.4696 0.6825
vn 0.2230 -0.8810 0.4173
vn 0.4162 0.4696 0.7786
vn 0.2999 -0.7715 0.5611
vn 0.3651 0.6326 0.6831
vn 0.3651 -0.6326 0.6831
vn 0.2999 0.7715 0.5611
vn 0.4162 -0.4696 0.7786
vn 0.2230 0.8810 0.4173
vn 0.4513 -0.2890 0.8443
vn 0.1374 0.9565 0.2571
vn 0.4691 -0.0976 0.8777
vn 0.0464 -0.9951 0.0869
vn 0.0464 0.9951 0.0869
vn 0.4691 0.0976 0.8777
vn 0.1374 -0.9565 0.2571
vn 0.4513 0.2890 0.8443
vn 0.2779 -0.2890 0.9161
vn 0.0846 0.9565 0.2790
vn 0.2889 -0.0976 0.9524
vn 0.0286 -0.9951 0.0942
vn 0.0286 0.9951 0.0942
vn 0.2889 0.0976 0.9524
vn 0.0846 -0.9565 0.2790
vn 0.2779 0.2890 0.9161
vn 0.1374 -0.8810 0.4528
vn 0.2563 0.4696 0.8448
vn 0.1847 -0.7715 0.6088
vn 0.2248 0.6326 0.7412
vn 0.2248 -0.6326 0.7412
vn 0.1847 0.7715 0.6088
vn 0.2563 -0.4696 0.8448
vn 0.1374 0.8810 0.4528
vn 0.0865 0.4696 0.8786
vn 0.0624 -0.7715 0.6332
vn 0.0759 0.6326 0.7708
vn 0.0759 -0.6326 0.7708
vn 0.0624 0.7715 0.6332
vn 0.0865 -0.4696 0.8786
vn 0.0464 0.8810 0.4709
vn 0.0938 -0.2890 0.9527
vn 0.0286 0.9565 0.2902
vn 0.0976 -0.0976 0.9904
vn 0.0097 -0.9951 0.0980
vn 0.0097 0.9951 0.0980
vn 0.0976 0.0976 0.9904
vn 0.0286 -0.9565 0.2902
vn 0.0938 0.2890 0.9527
vn 0.0464 -0.8810 0.4709
usemtl Material
s off
f 3/1/1 13/2/1 12/3/1 2/4/1
f 479/5/2 21/6/2 20/7/2 478/8/2
f 4/9/3 14/10/3 13/2/3 3/1/3
f 480/11/4 22/12/4 21/6/4 479/5/4
f 5/13/5 15/14/5 14/10/5 4/9/5
f 10/15/6 23/16/6 22/12/6 480/11/6
f 6/17/7 16/18/7 15/14/7 5/13/7
f 481/19/8 24/20/8 23/16/8 10/15/8
f 7/21/9 17/22/9 16/18/9 6/17/9
f 482/23/10 25/24/10 24/20/10 481/19/10
f 8/25/11 18/26/11 17/22/11 7/21/11
f 1/27/12 11/28/12 297/29/12
f 206/30/13 25/24/13 482/23/13
f 9/31/14 19/32/14 18/26/14 8/25/14
f 2/4/15 12/3/15 11/28/15 1/27/15
f 478/8/16 20/7/16 19/32/16 9/31/16
f 12/3/17 27/33/17 26/34/17 11/28/17
f 20/7/18 35/35/18 34/36/18 19/32/18
f 13/2/19 28/37/19 27/33/19 12/3/19
f 21/6/20 36/38/20 35/35/20 20/7/20
f 14/10/21 29/39/21 28/37/21 13/2/21
f 22/12/22 37/40/22 36/38/22 21/6/22
f 15/14/23 30/41/23 29/39/23 14/10/23
f 23/16/24 38/42/24 37/40/24 22/12/24
f 16/18/25 31/43/25 30/41/25 15/14/25
f 24/20/26 39/44/26 38/42/26 23/16/26
f 17/22/27 32/45/27 31/43/27 16/18/27
f 25/24/28 40/46/28 39/44/28 24/20/28
f 18/26/29 33/47/29 32/45/29 17/22/29
f 11/28/30 26/34/30 297/48/30
f 206/49/31 40/46/31 25/24/31
f 19/32/32 34/36/32 33/47/32 18/26/32
f 31/43/33 46/50/33 45/51/33 30/41/33
f 39/44/34 54/52/34 53/53/34 38/42/34
f 32/45/35 47/54/35 46/50/35 31/43/35
f 40/46/36 55/55/36 54/52/36 39/44/36
f 33/47/37 48/56/37 47/54/37 32/45/37
f 26/34/38 41/57/38 297/58/38
f 206/59/39 55/55/39 40/46/39
f 34/36/40 49/60/40 48/56/40 33/47/40
f 27/33/41 42/61/41 41/57/41 26/34/41
f 35/35/42 50/62/42 49/60/42 34/36/42
f 28/37/43 43/63/43 42/61/43 27/33/43
f 36/38/44 51/64/44 50/62/44 35/35/44
f 29/39/45 44/65/45 43/63/45 28/37/45
f 37/40/46 52/66/46 51/64/46 36/38/46
f 30/41/47 45/51/47 44/65/47 29/39/47
f 38/42/48 53/53/48 52/66/48 37/40/48
f 50/62/49 65/67/49 64/68/49 49/60/49
f 43/63/50 58/69/50 57/70/50 42/61/50
f 51/64/51 66/71/51 65/67/51 50/62/51
f 44/65/52 59/72/52 58/69/52 43/63/52
f 52/66/53 67/73/53 66/71/53 51/64/53
f 45/51/54 60/74/54 59/72/54 44/65/54
f 53/53/55 68/75/55 67/73/55 52/66/55
f 46/50/56 61/76/56 60/74/56 45/51/56
f 54/52/57 69/77/57 68/75/57 53/53/57
f 47/54/58 62/78/58 61/76/58 46/50/58
f 55/55/59 70/79/59 69/77/59 54/52/59
f 48/56/60 63/80/60 62/78/60 47/54/60
f 41/57/61 56/81/61 297/82/61
f 206/83/62 70/79/62 55/55/62
f 49/60/63 64/68/63 63/80/63 48/56/63
f 42/61/64 57/70/64 56/81/64 41/57/64
f 69/77/65 84/84/65 83/85/65 68/75/65
f 62/78/66 77/86/66 76/87/66 61/76/66
f 70/79/67 85/88/67 84/84/67 69/77/67
f 63/80/68 78/89/68 77/86/68 62/78/68
f 56/81/69 71/90/69 297/91/69
f 206/92/70 85/88/70 70/79/70
f 64/68/71 79/93/71 78/89/71 63/80/71
f 57/70/72 72/94/72 71/90/72 56/81/72
f 65/67/73 80/95/73 79/93/73 64/68/73
f 58/69/74 73/96/74 72/94/74 57/70/74
f 66/71/75 81/97/75 80/95/75 65/67/75
f 59/72/76 74/98/76 73/96/76 58/69/76
f 67/73/77 82/99/77 81/97/77 66/71/77
f 60/74/78 75/100/78 74/98/78 59/72/78
f 68/75/79 83/85/79 82/99/79 67/73/79
f 61/76/80 76/87/80 75/100/80 60/74/80
f 73/96/81 88/101/81 87/102/81 72/94/81
f 81/97/82 96/103/82 95/104/82 80/95/82
f 74/98/83 89/105/83 88/101/83 73/96/83
f 82/99/84 97/106/84 96/103/84 81/97/84
f 75/100/85 90/107/85 89/105/85 74/98/85
f 83/85/86 98/108/86 97/106/86 82/99/86
f 76/87/87 91/109/87 90/107/87 75/100/87
f 84/84/88 99/110/88 98/108/88 83/85/88
f 77/86/89 92/111/89 91/109/89 76/87/89
f 85/88/90 100/112/90 99/110/90 84/84/90
f 78/89/91 93/113/91 92/111/91 77/86/91
f 71/90/92 86/114/92 297/115/92
f 206/116/93 100/112/93 85/88/93
f 79/93/94 94/117/94 93/113/94 78/89/94
f 72/94/95 87/102/95 86/114/95 71/90/95
f 80/95/96 95/104/96 94/117/96 79/93/96
f 92/111/97 107/118/97 106/119/97 91/109/97
f 100/112/98 115/120/98 114/121/98 99/110/98
f 93/113/99 108/122/99 107/118/99 92/111/99
f 86/114/100 101/123/100 297/124/100
f 206/125/101 115/120/101 100/112/101
f 94/117/102 109/126/102 108/122/102 93/113/102
f 87/102/103 102/127/103 101/123/103 86/114/103
f 95/104/104 110/128/104 109/126/104 94/117/104
f 88/101/105 103/129/105 102/127/105 87/102/105
f 96/103/106 111/130/106 110/128/106 95/104/106
f 89/105/107 104/131/107 103/129/107 88/101/107
f 97/106/108 112/132/108 111/130/108 96/103/108
f 90/107/109 105/133/109 104/131/109 89/105/109
f 98/108/110 113/134/110 112/132/110 97/106/110
f 91/109/111 106/119/111 105/133/111 90/107/111
f 99/110/112 114/121/112 113/134/112 98/108/112
f 111/130/113 126/135/113 125/136/113 110/128/113
f 104/131/114 119/137/114 118/138/114 103/129/114
f 112/132/115 127/139/115 126/135/115 111/130/115
f 105/133/116 120/140/116 119/137/116 104/131/116
f 113/134/117 128/141/117 127/139/117 112/132/117
f 106/119/118 121/142/118 120/140/118 105/133/118
f 114/121/119 129/143/119 128/141/119 113/134/119
f 107/118/120 122/144/120 121/142/120 106/119/120
f 115/120/121 130/145/121 129/143/121 114/121/121
f 108/122/122 123/146/122 122/144/122 107/118/122
f 101/123/123 116/147/123 297/148/123
f 206/149/124 130/145/124 115/120/124
f 109/126/125 124/150/125 123/146/125 108/122/125
f 102/127/126 117/151/126 116/147/126 101/123/126
f 110/128/127 125/136/127 124/150/127 109/126/127
f 103/129/128 118/138/128 117/151/128 102/127/128
f 130/145/129 145/152/129 144/153/129 129/143/129
f 123/146/130 138/154/130 137/155/130 122/144/130
f 116/147/131 131/156/131 297/157/131
f 206/158/132 145/152/132 130/145/132
f 124/150/133 139/159/133 138/154/133 123/146/133
f 117/151/134 132/160/134 131/156/134 116/147/134
f 125/136/135 140/161/135 139/159/135 124/150/135
f 118/138/136 133/162/136 132/160/136 117/151/136
f 126/135/137 141/163/137 140/161/137 125/136/137
f 119/137/138 134/164/138 133/162/138 118/138/138
f 127/139/139 142/165/139 141/163/139 126/135/139
f 120/140/140 135/166/140 134/164/140 119/137/140
f 128/141/141 143/167/141 142/165/141 127/139/141
f 121/142/142 136/168/142 135/166/142 120/140/142
f 129/143/143 144/153/143 143/167/143 128/141/143
f 122/144/144 137/155/144 136/168/144 121/142/144
f 142/165/145 157/169/145 156/170/145 141/163/145
f 135/166/146 150/171/146 149/172/146 134/164/146
f 143/167/147 158/173/147 157/169/147 142/165/147
f 136/168/148 151/174/148 150/171/148 135/166/148
f 144/153/149 159/175/149 158/173/149 143/167/149
f 137/155/150 152/176/150 151/174/150 136/168/150
f 145/152/151 160/177/151 159/175/151 144/153/151
f 138/154/152 153/178/152 152/176/152 137/155/152
f 131/156/153 146/179/153 297/180/153
f 206/181/154 160/177/154 145/152/154
f 139/159/155 154/182/155 153/178/155 138/154/155
f 132/160/156 147/183/156 146/179/156 131/156/156
f 140/161/157 155/184/157 154/182/157 139/159/157
f 133/162/158 148/185/158 147/183/158 132/160/158
f 141/163/159 156/170/159 155/184/159 140/161/159
f 134/164/160 149/172/160 148/185/160 133/162/160
f 146/179/161 161/186/161 297/187/161
f 206/188/162 175/189/162 160/177/162
f 154/182/163 169/190/163 168/191/163 153/178/163
f 147/183/164 162/192/164 161/186/164 146/179/164
f 155/184/165 170/193/165 169/190/165 154/182/165
f 148/185/166 163/194/166 162/192/166 147/183/166
f 156/170/167 171/195/167 170/193/167 155/184/167
f 149/172/168 164/196/168 163/194/168 148/185/168
f 157/169/169 172/197/169 171/195/169 156/170/169
f 150/171/170 165/198/170 164/196/170 149/172/170
f 158/173/171 173/199/171 172/197/171 157/169/171
f 151/174/172 166/200/172 165/198/172 150/171/172
f 159/175/173 174/201/173 173/199/173 158/173/173
f 152/176/174 167/202/174 166/200/174 151/174/174
f 160/177/175 175/189/175 174/201/175 159/175/175
f 153/178/176 168/191/176 167/202/176 152/176/176
f 165/198/177 180/203/177 179/204/177 164/196/177
f 173/199/178 188/205/178 187/206/178 172/197/178
f 166/200/179 181/207/179 180/203/179 165/198/179
f 174/201/180 189/208/180 188/205/180 173/199/180
f 167/202/181 182/209/181 181/207/181 166/200/181
f 175/189/182 190/210/182 189/208/182 174/201/182
f 168/191/183 183/211/183 182/209/183 167/202/183
f 161/186/184 176/212/184 297/213/184
f 206/214/185 190/210/185 175/189/185
f 169/190/186 184/215/186 183/211/186 168/191/186
f 162/192/187 177/216/187 176/212/187 161/186/187
f 170/193/188 185/217/188 184/215/188 169/190/188
f 163/194/189 178/218/189 177/216/189 162/192/189
f 171/195/190 186/219/190 185/217/190 170/193/190
f 164/196/191 179/204/191 178/218/191 163/194/191
f 172/197/192 187/206/192 186/219/192 171/195/192
f 184/215/193 199/220/193 198/221/193 183/211/193
f 177/216/194 192/222/194 191/223/194 176/212/194
f 185/217/195 200/224/195 199/220/195 184/215/195
f 178/218/196 193/225/196 192/222/196 177/216/196
f 186/219/197 201/226/197 200/224/197 185/217/197
f 179/204/198 194/227/198 193/225/198 178/218/198
f 187/206/199 202/228/199 201/226/199 186/219/199
f 180/203/200 195/229/200 194/227/200 179/204/200
f 188/205/201 203/230/201 202/228/201 187/206/201
f 181/207/202 196/231/202 195/229/202 180/203/202
f 189/208/203 204/232/203 203/230/203 188/205/203
f 182/209/204 197/233/204 196/231/204 181/207/204
f 190/210/205 205/234/205 204/232/205 189/208/205
f 183/211/206 198/221/206 197/233/206 182/209/206
f 176/212/207 191/223/207 297/235/207
f 206/236/208 205/234/208 190/210/208
f 203/230/209 219/237/209 218/238/209 202/228/209
f 196/231/210 212/239/210 211/240/210 195/229/210
f 204/232/211 220/241/211 219/237/211 203/230/211
f 197/233/212 213/242/212 212/239/212 196/231/212
f 205/234/213 221/243/213 220/241/213 204/232/213
f 198/221/214 214/244/214 213/242/214 197/233/214
f 191/223/215 207/245/215 297/246/215
f 206/247/216 221/243/216 205/234/216
f 199/220/217 215/248/217 214/244/217 198/221/217
f 192/222/218 208/249/218 207/245/218 191/223/218
f 200/224/219 216/250/219 215/248/219 199/220/219
f 193/225/220 209/251/220 208/249/220 192/222/220
f 201/226/221 217/252/221 216/250/221 200/224/221
f 194/227/222 210/253/222 209/251/222 193/225/222
f 202/228/223 218/238/223 217/252/223 201/226/223
f 195/229/224 211/240/224 210/253/224 194/227/224
f 208/249/225 223/254/225 222/255/225 207/245/225
f 216/250/226 231/256/226 230/257/226 215/248/226
f 209/251/227 224/258/227 223/254/227 208/249/227
f 217/252/228 232/259/228 231/256/228 216/250/228
f 210/253/229 225/260/229 224/258/229 209/251/229
f 218/238/230 233/261/230 232/259/230 217/252/230
f 211/240/231 226/262/231 225/260/231 210/253/231
f 219/237/232 234/263/232 233/261/232 218/238/232
f 212/239/233 227/264/233 226/262/233 211/240/233
f 220/241/234 235/265/234 234/263/234 219/237/234
f 213/242/235 228/266/235 227/264/235 212/239/235
f 221/243/236 236/267/236 235/265/236 220/241/236
f 214/244/237 229/268/237 228/266/237 213/242/237
f 207/245/238 222/255/238 297/269/238
f 206/270/239 236/267/239 221/243/239
f 215/248/240 230/257/240 229/268/240 214/244/240
f 227/264/241 242/271/241 241/272/241 226/262/241
f 235/265/242 250/273/242 249/274/242 234/263/242
f 228/266/243 243/275/243 242/271/243 227/264/243
f 236/267/244 251/276/244 250/273/244 235/265/244
f 229/268/245 244/277/245 243/275/245 228/266/245
f 222/255/246 237/278/246 297/279/246
f 206/280/247 251/276/247 236/267/247
f 230/257/248 245/281/248 244/277/248 229/268/248
f 223/254/249 238/282/249 237/278/249 222/255/249
f 231/256/250 246/283/250 245/281/250 230/257/250
f 224/258/251 239/284/251 238/282/251 223/254/251
f 232/259/252 247/285/252 246/283/252 231/256/252
f 225/260/253 240/286/253 239/284/253 224/258/253
f 233/261/254 248/287/254 247/285/254 232/259/254
f 226/262/255 241/272/255 240/286/255 225/260/255
f 234/263/256 249/274/256 248/287/256 233/261/256
f 246/283/257 261/288/257 260/289/257 245/281/257
f 239/284/258 254/290/258 253/291/258 238/282/258
f 247/285/259 262/292/259 261/288/259 246/283/259
f 240/286/260 255/293/260 254/290/260 239/284/260
f 248/287/261 263/294/261 262/292/261 247/285/261
f 241/272/262 256/295/262 255/293/262 240/286/262
f 249/274/263 264/296/263 263/294/263 248/287/263
f 242/271/264 257/297/264 256/295/264 241/272/264
f 250/273/265 265/298/265 264/296/265 249/274/265
f 243/275/266 258/299/266 257/297/266 242/271/266
f 251/276/267 266/300/267 265/298/267 250/273/267
f 244/277/268 259/301/268 258/299/268 243/275/268
f 237/278/269 252/302/269 297/303/269
f 206/304/270 266/300/270 251/276/270
f 245/281/271 260/289/271 259/301/271 244/277/271
f 238/282/272 253/291/272 252/302/272 237/278/272
f 265/298/273 280/305/273 279/306/273 264/296/273
f 258/299/274 273/307/274 272/308/274 257/297/274
f 266/300/275 281/309/275 280/305/275 265/298/275
f 259/301/276 274/310/276 273/307/276 258/299/276
f 252/302/277 267/311/277 297/312/277
f 206/313/278 281/309/278 266/300/278
f 260/289/279 275/314/279 274/310/279 259/301/279
f 253/291/280 268/315/280 267/311/280 252/302/280
f 261/288/281 276/316/281 275/314/281 260/289/281
f 254/290/282 269/317/282 268/315/282 253/291/282
f 262/292/283 277/318/283 276/316/283 261/288/283
f 255/293/284 270/319/284 269/317/284 254/290/284
f 263/294/285 278/320/285 277/318/285 262/292/285
f 256/295/286 271/321/286 270/319/286 255/293/286
f 264/296/287 279/306/287 278/320/287 263/294/287
f 257/297/288 272/308/288 271/321/288 256/295/288
f 277/318/289 292/322/289 291/323/289 276/316/289
f 270/319/290 285/324/290 284/325/290 269/317/290
f 278/320/291 293/326/291 292/322/291 277/318/291
f 271/321/292 286/327/292 285/324/292 270/319/292
f 279/306/293 294/328/293 293/326/293 278/320/293
f 272/308/294 287/329/294 286/327/294 271/321/294
f 280/305/295 295/330/295 294/328/295 279/306/295
f 273/307/296 288/331/296 287/329/296 272/308/296
f 281/309/297 296/332/297 295/330/297 280/305/297
f 274/310/298 289/333/298 288/331/298 273/307/298
f 267/311/299 282/334/299 297/335/299
f 206/336/300 296/332/300 281/309/300
f 275/314/301 290/337/301 289/333/301 274/310/301
f 268/315/302 283/338/302 282/334/302 267/311/302
f 276/316/303 291/323/303 290/337/303 275/314/303
f 269/317/304 284/325/304 283/338/304 268/315/304
f 296/332/305 312/339/305 311/340/305 295/330/305
f 289/333/306 305/341/306 304/342/306 288/331/306
f 282/334/307 298/343/307 297/344/307
f 206/345/308 312/339/308 296/332/308
f 290/337/309 306/346/309 305/341/309 289/333/309
f 283/338/310 299/347/310 298/343/310 282/334/310
f 291/323/311 307/348/311 306/346/311 290/337/311
f 284/325/312 300/349/312 299/347/312 283/338/312
f 292/322/313 308/350/313 307/348/313 291/323/313
f 285/324/314 301/351/314 300/349/314 284/325/314
f 293/326/315 309/352/315 308/350/315 292/322/315
f 286/327/316 302/353/316 301/351/316 285/324/316
f 294/328/317 310/354/317 309/352/317 293/326/317
f 287/329/318 303/355/318 302/353/318 286/327/318
f 295/330/319 311/340/319 310/354/319 294/328/319
f 288/331/320 304/342/320 303/355/320 287/329/320
f 301/351/321 316/356/321 315/357/321 300/349/321
f 309/352/322 324/358/322 323/359/322 308/350/322
f 302/353/323 317/360/323 316/356/323 301/351/323
f 310/354/324 325/361/324 324/358/324 309/352/324
f 303/355/325 318/362/325 317/360/325 302/353/325
f 311/340/326 326/363/326 325/361/326 310/354/326
f 304/342/327 319/364/327 318/362/327 303/355/327
f 312/339/328 327/365/328 326/363/328 311/340/328
f 305/341/329 320/366/329 319/364/329 304/342/329
f 298/343/330 313/367/330 297/368/330
f 206/369/331 327/365/331 312/339/331
f 306/346/332 321/370/332 320/366/332 305/341/332
f 299/347/333 314/371/333 313/367/333 298/343/333
f 307/348/334 322/372/334 321/370/334 306/346/334
f 300/349/335 315/357/335 314/371/335 299/347/335
f 308/350/336 323/359/336 322/372/336 307/348/336
f 320/366/337 335/373/337 334/374/337 319/364/337
f 313/367/338 328/375/338 297/376/338
f 206/377/339 342/378/339 327/365/339
f 321/370/340 336/379/340 335/373/340 320/366/340
f 314/371/341 329/380/341 328/375/341 313/367/341
f 322/372/342 337/381/342 336/379/342 321/370/342
f 315/357/343 330/382/343 329/380/343 314/371/343
f 323/359/344 338/383/344 337/381/344 322/372/344
f 316/356/345 331/384/345 330/382/345 315/357/345
f 324/358/346 339/385/346 338/383/346 323/359/346
f 317/360/347 332/386/347 331/384/347 316/356/347
f 325/361/348 340/387/348 339/385/348 324/358/348
f 318/362/349 333/388/349 332/386/349 317/360/349
f 326/363/350 341/389/350 340/387/350 325/361/350
f 319/364/351 334/374/351 333/388/351 318/362/351
f 327/365/352 342/378/352 341/389/352 326/363/352
f 339/385/353 354/390/353 353/391/353 338/383/353
f 332/386/354 347/392/354 346/393/354 331/384/354
f 340/387/355 355/394/355 354/390/355 339/385/355
f 333/388/356 348/395/356 347/392/356 332/386/356
f 341/389/357 356/396/357 355/394/357 340/387/357
f 334/374/358 349/397/358 348/395/358 333/388/358
f 342/378/359 357/398/359 356/396/359 341/389/359
f 335/373/360 350/399/360 349/397/360 334/374/360
f 328/375/361 343/400/361 297/401/361
f 206/402/362 357/398/362 342/378/362
f 336/379/363 351/403/363 350/399/363 335/373/363
f 329/380/364 344/404/364 343/400/364 328/375/364
f 337/381/365 352/405/365 351/403/365 336/379/365
f 330/382/366 345/406/366 344/404/366 329/380/366
f 338/383/367 353/391/367 352/405/367 337/381/367
f 331/384/368 346/393/368 345/406/368 330/382/368
f 343/400/369 358/407/369 297/408/369
f 206/409/370 372/410/370 357/398/370
f 351/403/371 366/411/371 365/412/371 350/399/371
f 344/404/372 359/413/372 358/407/372 343/400/372
f 352/405/373 367/414/373 366/411/373 351/403/373
f 345/406/374 360/415/374 359/413/374 344/404/374
f 353/391/375 368/416/375 367/414/375 352/405/375
f 346/393/376 361/417/376 360/415/376 345/406/376
f 354/390/377 369/418/377 368/416/377 353/391/377
f 347/392/378 362/419/378 361/417/378 346/393/378
f 355/394/379 370/420/379 369/418/379 354/390/379
f 348/395/380 363/421/380 362/419/380 347/392/380
f 356/396/381 371/422/381 370/420/381 355/394/381
f 349/397/382 364/423/382 363/421/382 348/395/382
f 357/398/383 372/410/383 371/422/383 356/396/383
f 350/399/384 365/412/384 364/423/384 349/397/384
f 362/424/385 377/425/385 376/426/385 361/427/385
f 370/428/386 385/429/386 384/430/386 369/431/386
f 363/432/387 378/433/387 377/425/387 362/424/387
f 371/434/388 386/435/388 385/429/388 370/428/388
f 364/436/389 379/437/389 378/433/389 363/432/389
f 372/438/390 387/439/390 386/435/390 371/434/390
f 365/440/391 380/441/391 379/437/391 364/436/391
f 358/442/392 373/443/392 297/444/392
f 206/445/393 387/439/393 372/438/393
f 366/446/394 381/447/394 380/441/394 365/440/394
f 359/448/395 374/449/395 373/443/395 358/442/395
f 367/450/396 382/451/396 381/447/396 366/446/396
f 360/452/397 375/453/397 374/449/397 359/448/397
f 368/454/398 383/455/398 382/451/398 367/450/398
f 361/427/399 376/426/399 375/453/399 360/452/399
f 369/431/400 384/430/400 383/455/400 368/454/400
f 381/447/401 396/456/401 395/457/401 380/441/401
f 374/449/402 389/458/402 388/459/402 373/443/402
f 382/451/403 397/460/403 396/456/403 381/447/403
f 375/453/404 390/461/404 389/458/404 374/449/404
f 383/455/405 398/462/405 397/460/405 382/451/405
f 376/426/406 391/463/406 390/461/406 375/453/406
f 384/430/407 399/464/407 398/462/407 383/455/407
f 377/425/408 392/465/408 391/463/408 376/426/408
f 385/429/409 400/466/409 399/464/409 384/430/409
f 378/433/410 393/467/410 392/465/410 377/425/410
f 386/435/411 401/468/411 400/466/411 385/429/411
f 379/437/412 394/469/412 393/467/412 378/433/412
f 387/439/413 402/470/413 401/468/413 386/435/413
f 380/441/414 395/457/414 394/469/414 379/437/414
f 373/443/415 388/459/415 297/471/415
f 206/472/416 402/470/416 387/439/416
f 400/466/417 415/473/417 414/474/417 399/464/417
f 393/467/418 408/475/418 407/476/418 392/465/418
f 401/468/419 416/477/419 415/473/419 400/466/419
f 394/469/420 409/478/420 408/475/420 393/467/420
f 402/470/421 417/479/421 416/477/421 401/468/421
f 395/457/422 410/480/422 409/478/422 394/469/422
f 388/459/423 403/481/423 297/482/423
f 206/483/424 417/479/424 402/470/424
f 396/456/425 411/484/425 410/480/425 395/457/425
f 389/458/426 404/485/426 403/481/426 388/459/426
f 397/460/427 412/486/427 411/484/427 396/456/427
f 390/461/428 405/487/428 404/485/428 389/458/428
f 398/462/429 413/488/429 412/486/429 397/460/429
f 391/463/430 406/489/430 405/487/430 390/461/430
f 399/464/431 414/474/431 413/488/431 398/462/431
f 392/465/432 407/476/432 406/489/432 391/463/432
f 412/486/433 427/490/433 426/491/433 411/484/433
f 405/487/434 420/492/434 419/493/434 404/485/434
f 413/488/435 428/494/435 427/490/435 412/486/435
f 406/489/436 421/495/436 420/492/436 405/487/436
f 414/474/437 429/496/437 428/494/437 413/488/437
f 407/476/438 422/497/438 421/495/438 406/489/438
f 415/473/439 430/498/439 429/496/439 414/474/439
f 408/475/440 423/499/440 422/497/440 407/476/440
f 416/477/441 431/500/441 430/498/441 415/473/441
f 409/478/442 424/501/442 423/499/442 408/475/442
f 417/479/443 432/502/443 431/500/443 416/477/443
f 410/480/444 425/503/444 424/501/444 409/478/444
f 403/481/445 418/504/445 297/505/445
f 206/506/446 432/502/446 417/479/446
f 411/484/447 426/491/447 425/503/447 410/480/447
f 404/485/448 419/493/448 418/504/448 403/481/448
f 431/500/449 446/507/449 445/508/449 430/498/449
f 424/501/450 439/509/450 438/510/450 423/499/450
f 432/502/451 447/511/451 446/507/451 431/500/451
f 425/503/452 440/512/452 439/509/452 424/501/452
f 418/504/453 433/513/453 297/514/453
f 206/515/454 447/511/454 432/502/454
f 426/491/455 441/516/455 440/512/455 425/503/455
f 419/493/456 434/517/456 433/513/456 418/504/456
f 427/490/457 442/518/457 441/516/457 426/491/457
f 420/492/458 435/519/458 434/517/458 419/493/458
f 428/494/459 443/520/459 442/518/459 427/490/459
f 421/495/460 436/521/460 435/519/460 420/492/460
f 429/496/461 444/522/461 443/520/461 428/494/461
f 422/497/462 437/523/462 436/521/462 421/495/462
f 430/498/463 445/508/463 444/522/463 429/496/463
f 423/499/464 438/510/464 437/523/464 422/497/464
f 435/519/465 450/524/465 449/525/465 434/517/465
f 443/520/466 458/526/466 457/527/466 442/518/466
f 436/521/467 451/528/467 450/524/467 435/519/467
f 444/522/468 459/529/468 458/526/468 443/520/468
f 437/523/469 452/530/469 451/528/469 436/521/469
f 445/508/470 460/531/470 459/529/470 444/522/470
f 438/510/471 453/532/471 452/530/471 437/523/471
f 446/507/472 461/533/472 460/531/472 445/508/472
f 439/509/473 454/534/473 453/532/473 438/510/473
f 447/511/474 462/535/474 461/533/474 446/507/474
f 440/512/475 455/536/475 454/534/475 439/509/475
f 433/513/476 448/537/476 297/538/476
f 206/539/477 462/535/477 447/511/477
f 441/516/478 456/540/478 455/536/478 440/512/478
f 434/517/479 449/525/479 448/537/479 433/513/479
f 442/518/480 457/527/480 456/540/480 441/516/480
f 454/534/481 469/541/481 468/542/481 453/532/481
f 462/535/482 477/543/482 476/544/482 461/533/482
f 455/536/483 470/545/483 469/541/483 454/534/483
f 448/537/484 463/546/484 297/547/484
f 206/548/485 477/543/485 462/535/485
f 456/540/486 471/549/486 470/545/486 455/536/486
f 449/525/487 464/550/487 463/546/487 448/537/487
f 457/527/488 472/551/488 471/549/488 456/540/488
f 450/524/489 465/552/489 464/550/489 449/525/489
f 458/526/490 473/553/490 472/551/490 457/527/490
f 451/528/491 466/554/491 465/552/491 450/524/491
f 459/529/492 474/555/492 473/553/492 458/526/492
f 452/530/493 467/556/493 466/554/493 451/528/493
f 460/531/494 475/557/494 474/555/494 459/529/494
f 453/532/495 468/542/495 467/556/495 452/530/495
f 461/533/496 476/544/496 475/557/496 460/531/496
f 473/553/497 479/5/497 478/8/497 472/551/497
f 466/554/498 4/9/498 3/1/498 465/552/498
f 474/555/499 480/11/499 479/5/499 473/553/499
f 467/556/500 5/13/500 4/9/500 466/554/500
f 475/557/501 10/15/501 480/11/501 474/555/501
f 468/542/502 6/17/502 5/13/502 467/556/502
f 476/544/503 481/19/503 10/15/503 475/557/503
f 469/541/504 7/21/504 6/17/504 468/542/504
f 477/543/505 482/23/505 481/19/505 476/544/505
f 470/545/506 8/25/506 7/21/506 469/541/506
f 463/546/507 1/27/507 297/558/507
f 206/559/508 482/23/508 477/543/508
f 471/549/509 9/31/509 8/25/509 470/545/509
f 464/550/510 2/4/510 1/27/510 463/546/510
f 472/551/511 478/8/511 9/31/511 471/549/511
f 465/552/512 3/1/512 2/4/512 464/550/512
