# Blender v2.83.1 OBJ File: ''
# www.blender.org
mtllib sphere_lowpoly.mtl
o Sphere_Sphere.002
v 0.000000 0.404509 -0.293893
v 0.000000 0.154508 -0.475528
v 0.000000 -0.154509 -0.475528
v 0.000000 -0.404509 -0.293893
v 0.207813 0.404509 -0.207813
v 0.336249 0.154508 -0.336249
v 0.336249 -0.154509 -0.336249
v 0.207813 -0.404509 -0.207813
v 0.293893 0.404509 0.000000
v 0.475528 0.154508 0.000000
v 0.475528 -0.154509 0.000000
v 0.293893 -0.404509 0.000000
v 0.000000 -0.500000 0.000000
v 0.207813 0.404509 0.207814
v 0.336249 0.154508 0.336249
v 0.336249 -0.154509 0.336249
v 0.207813 -0.404509 0.207814
v 0.000000 0.404509 0.293893
v 0.000000 0.154508 0.475528
v 0.000000 -0.154509 0.475528
v -0.000000 -0.404509 0.293893
v -0.000000 0.500000 0.000000
v -0.207813 0.404509 0.207814
v -0.336249 0.154508 0.336249
v -0.336249 -0.154509 0.336249
v -0.207813 -0.404509 0.207813
v -0.293893 0.404509 0.000000
v -0.475528 0.154508 0.000000
v -0.475528 -0.154509 0.000000
v -0.293893 -0.404509 0.000000
v -0.207813 0.404509 -0.207813
v -0.336249 0.154508 -0.336249
v -0.336249 -0.154509 -0.336249
v -0.207813 -0.404509 -0.207813
vt 0.750000 0.400000
vt 0.750000 0.600000
vt 0.625000 0.600000
vt 0.625000 0.400000
vt 0.750000 0.800000
vt 0.687500 1.000000
vt 0.625000 0.800000
vt 0.750000 0.200000
vt 0.625000 0.200000
vt 0.687500 0.000000
vt 0.562500 0.000000
vt 0.500000 0.200000
vt 0.500000 0.600000
vt 0.500000 0.400000
vt 0.562500 1.000000
vt 0.500000 0.800000
vt 0.437500 0.000000
vt 0.375000 0.200000
vt 0.375000 0.600000
vt 0.375000 0.400000
vt 0.437500 1.000000
vt 0.375000 0.800000
vt 0.312500 0.000000
vt 0.250000 0.200000
vt 0.250000 0.600000
vt 0.250000 0.400000
vt 0.312500 1.000000
vt 0.250000 0.800000
vt 0.187500 0.000000
vt 0.125000 0.200000
vt 0.125000 0.600000
vt 0.125000 0.400000
vt 0.187500 1.000000
vt 0.125000 0.800000
vt 0.062500 0.000000
vt 0.000000 0.200000
vt 0.000000 0.600000
vt 0.000000 0.400000
vt 0.062500 1.000000
vt 0.000000 0.800000
vt 0.937500 0.000000
vt 1.000000 0.200000
vt 0.875000 0.200000
vt 1.000000 0.400000
vt 1.000000 0.600000
vt 0.875000 0.600000
vt 0.875000 0.400000
vt 1.000000 0.800000
vt 0.937500 1.000000
vt 0.875000 0.800000
vt 0.812500 0.000000
vt 0.812500 1.000000
vn 0.3827 -0.0000 -0.9239
vn 0.1270 0.9434 -0.3065
vn 0.3177 -0.5573 -0.7671
vn 0.3177 0.5573 -0.7671
vn 0.1270 -0.9434 -0.3065
vn 0.3065 -0.9434 -0.1270
vn 0.9239 -0.0000 -0.3827
vn 0.3065 0.9434 -0.1270
vn 0.7671 -0.5573 -0.3177
vn 0.7671 0.5573 -0.3177
vn 0.3065 -0.9434 0.1270
vn 0.9239 -0.0000 0.3827
vn 0.3065 0.9434 0.1270
vn 0.7671 -0.5573 0.3177
vn 0.7671 0.5573 0.3177
vn 0.1270 -0.9434 0.3065
vn 0.3827 -0.0000 0.9239
vn 0.1270 0.9434 0.3065
vn 0.3177 -0.5573 0.7671
vn 0.3177 0.5573 0.7671
vn -0.1270 -0.9434 0.3065
vn -0.3827 0.0000 0.9239
vn -0.1270 0.9434 0.3065
vn -0.3177 -0.5573 0.7671
vn -0.3177 0.5573 0.7671
vn -0.3065 -0.9434 0.1270
vn -0.9239 0.0000 0.3827
vn -0.3065 0.9434 0.1270
vn -0.7671 -0.5573 0.3177
vn -0.7671 0.5573 0.3177
vn -0.3065 -0.9434 -0.1270
vn -0.9239 0.0000 -0.3827
vn -0.3065 0.9434 -0.1270
vn -0.7671 -0.5573 -0.3177
vn -0.7671 0.5573 -0.3177
vn -0.1270 -0.9434 -0.3065
vn -0.3827 -0.0000 -0.9239
vn -0.1270 0.9434 -0.3065
vn -0.3177 -0.5573 -0.7671
vn -0.3177 0.5573 -0.7671
usemtl None
s off
f 3/1/1 2/2/1 6/3/1 7/4/1
f 1/5/2 22/6/2 5/7/2
f 4/8/3 3/1/3 7/4/3 8/9/3
f 2/2/4 1/5/4 5/7/4 6/3/4
f 13/10/5 4/8/5 8/9/5
f 13/11/6 8/9/6 12/12/6
f 7/4/7 6/3/7 10/13/7 11/14/7
f 5/7/8 22/15/8 9/16/8
f 8/9/9 7/4/9 11/14/9 12/12/9
f 6/3/10 5/7/10 9/16/10 10/13/10
f 13/17/11 12/12/11 17/18/11
f 11/14/12 10/13/12 15/19/12 16/20/12
f 9/16/13 22/21/13 14/22/13
f 12/12/14 11/14/14 16/20/14 17/18/14
f 10/13/15 9/16/15 14/22/15 15/19/15
f 13/23/16 17/18/16 21/24/16
f 16/20/17 15/19/17 19/25/17 20/26/17
f 14/22/18 22/27/18 18/28/18
f 17/18/19 16/20/19 20/26/19 21/24/19
f 15/19/20 14/22/20 18/28/20 19/25/20
f 13/29/21 21/24/21 26/30/21
f 20/26/22 19/25/22 24/31/22 25/32/22
f 18/28/23 22/33/23 23/34/23
f 21/24/24 20/26/24 25/32/24 26/30/24
f 19/25/25 18/28/25 23/34/25 24/31/25
f 13/35/26 26/30/26 30/36/26
f 25/32/27 24/31/27 28/37/27 29/38/27
f 23/34/28 22/39/28 27/40/28
f 26/30/29 25/32/29 29/38/29 30/36/29
f 24/31/30 23/34/30 27/40/30 28/37/30
f 13/41/31 30/42/31 34/43/31
f 29/44/32 28/45/32 32/46/32 33/47/32
f 27/48/33 22/49/33 31/50/33
f 30/42/34 29/44/34 33/47/34 34/43/34
f 28/45/35 27/48/35 31/50/35 32/46/35
f 13/51/36 34/43/36 4/8/36
f 33/47/37 32/46/37 2/2/37 3/1/37
f 31/50/38 22/52/38 1/5/38
f 34/43/39 33/47/39 3/1/39 4/8/39
f 32/46/40 31/50/40 1/5/40 2/2/40
