# Blender v2.82 (sub 7) OBJ File: 'sphere_lp.blend'
# www.blender.org
mtllib sphere_lp.mtl
o Sphere.001
v 0.000000 -0.250000 -0.433013
v 0.000000 -0.433013 -0.250000
v -0.000000 0.500000 -0.000000
v 0.146946 0.433013 -0.202254
v 0.254518 0.250000 -0.350315
v 0.293893 -0.000000 -0.404509
v 0.254518 -0.250000 -0.350315
v 0.146946 -0.433013 -0.202254
v 0.237764 0.433013 -0.077254
v 0.411819 0.250000 -0.133808
v 0.475528 -0.000000 -0.154509
v 0.411819 -0.250000 -0.133808
v 0.237764 -0.433013 -0.077254
v 0.237764 0.433013 0.077254
v 0.411819 0.250000 0.133808
v 0.475528 -0.000000 0.154508
v 0.411819 -0.250000 0.133808
v 0.237764 -0.433013 0.077254
v 0.146946 0.433013 0.202254
v 0.254518 0.250000 0.350314
v 0.293893 -0.000000 0.404508
v 0.254518 -0.250000 0.350315
v 0.146946 -0.433013 0.202254
v 0.000000 0.433013 0.250000
v 0.000000 0.250000 0.433013
v -0.000000 -0.000000 0.500000
v -0.000000 -0.250000 0.433013
v 0.000000 -0.433013 0.250000
v -0.146946 0.433013 0.202254
v -0.254518 0.250000 0.350314
v -0.293893 -0.000000 0.404508
v -0.254518 -0.250000 0.350314
v -0.146946 -0.433013 0.202254
v 0.000000 -0.500000 -0.000000
v -0.237764 0.433013 0.077254
v -0.411819 0.250000 0.133808
v -0.475528 -0.000000 0.154508
v -0.411819 -0.250000 0.133808
v -0.237764 -0.433013 0.077254
v -0.237764 0.433013 -0.077254
v -0.411819 0.250000 -0.133808
v -0.475528 -0.000000 -0.154509
v -0.411819 -0.250000 -0.133808
v -0.237764 -0.433013 -0.077254
v -0.146946 0.433013 -0.202254
v -0.254518 0.250000 -0.350315
v -0.293893 -0.000000 -0.404508
v -0.254518 -0.250000 -0.350315
v -0.146946 -0.433013 -0.202254
v -0.000000 0.433013 -0.250000
v -0.000000 0.250000 -0.433013
v -0.000000 -0.000000 -0.500000
vt 0.650000 0.000000
vt 0.700000 0.166667
vt 0.600000 0.166667
vt 0.700000 0.333333
vt 0.700000 0.500000
vt 0.600000 0.500000
vt 0.600000 0.333333
vt 0.700000 0.666667
vt 0.700000 0.833333
vt 0.600000 0.833333
vt 0.600000 0.666667
vt 0.650000 1.000000
vt 0.500000 0.333333
vt 0.500000 0.166667
vt 0.500000 0.666667
vt 0.500000 0.500000
vt 0.550000 1.000000
vt 0.500000 0.833333
vt 0.550000 0.000000
vt 0.400000 0.333333
vt 0.400000 0.166667
vt 0.400000 0.666667
vt 0.400000 0.500000
vt 0.450000 1.000000
vt 0.400000 0.833333
vt 0.450000 0.000000
vt 0.300000 0.333333
vt 0.300000 0.166667
vt 0.300000 0.666667
vt 0.300000 0.500000
vt 0.350000 1.000000
vt 0.300000 0.833333
vt 0.350000 0.000000
vt 0.200000 0.333333
vt 0.200000 0.166667
vt 0.200000 0.666667
vt 0.200000 0.500000
vt 0.250000 1.000000
vt 0.200000 0.833333
vt 0.250000 0.000000
vt 0.100000 0.666667
vt 0.100000 0.500000
vt 0.150000 1.000000
vt 0.100000 0.833333
vt 0.150000 0.000000
vt 0.100000 0.166667
vt 0.100000 0.333333
vt 0.050000 1.000000
vt 0.000000 0.833333
vt 0.050000 0.000000
vt 0.000000 0.166667
vt 0.000000 0.500000
vt 0.000000 0.333333
vt 0.000000 0.666667
vt 0.950000 0.000000
vt 1.000000 0.166667
vt 0.900000 0.166667
vt 1.000000 0.333333
vt 1.000000 0.500000
vt 0.900000 0.500000
vt 0.900000 0.333333
vt 1.000000 0.666667
vt 1.000000 0.833333
vt 0.900000 0.833333
vt 0.900000 0.666667
vt 0.950000 1.000000
vt 0.850000 0.000000
vt 0.800000 0.166667
vt 0.800000 0.500000
vt 0.800000 0.333333
vt 0.800000 0.833333
vt 0.800000 0.666667
vt 0.850000 1.000000
vt 0.750000 0.000000
vt 0.750000 1.000000
vn 0.0838 -0.9625 -0.2579
vn 0.2994 -0.2469 -0.9216
vn 0.2239 0.6892 -0.6892
vn 0.2239 -0.6892 -0.6892
vn 0.2994 0.2469 -0.9216
vn 0.0838 0.9625 -0.2579
vn 0.5862 -0.6892 -0.4259
vn 0.7840 0.2469 -0.5696
vn 0.2194 0.9625 -0.1594
vn 0.2194 -0.9625 -0.1594
vn 0.7840 -0.2469 -0.5696
vn 0.5862 0.6892 -0.4259
vn 0.7246 -0.6892 -0.0000
vn 0.9690 0.2469 0.0000
vn 0.2712 0.9625 0.0000
vn 0.2712 -0.9625 -0.0000
vn 0.9690 -0.2469 0.0000
vn 0.7246 0.6892 0.0000
vn 0.5862 -0.6892 0.4259
vn 0.7840 0.2469 0.5696
vn 0.2194 0.9625 0.1594
vn 0.2194 -0.9625 0.1594
vn 0.7840 -0.2469 0.5696
vn 0.5862 0.6892 0.4259
vn 0.2239 -0.6892 0.6892
vn 0.2994 0.2469 0.9216
vn 0.0838 0.9625 0.2579
vn 0.0838 -0.9625 0.2579
vn 0.2994 -0.2469 0.9216
vn 0.2239 0.6892 0.6892
vn -0.2994 0.2469 0.9216
vn -0.0838 0.9625 0.2579
vn -0.0838 -0.9625 0.2579
vn -0.2994 -0.2469 0.9216
vn -0.2239 0.6892 0.6892
vn -0.2239 -0.6892 0.6892
vn -0.2194 0.9625 0.1594
vn -0.2194 -0.9625 0.1594
vn -0.7840 -0.2469 0.5696
vn -0.5862 0.6892 0.4259
vn -0.5862 -0.6892 0.4259
vn -0.7840 0.2469 0.5696
vn -0.2712 -0.9625 0.0000
vn -0.9690 -0.2469 -0.0000
vn -0.7246 0.6892 0.0000
vn -0.7246 -0.6892 0.0000
vn -0.9690 0.2469 0.0000
vn -0.2712 0.9625 0.0000
vn -0.2194 -0.9625 -0.1594
vn -0.7840 -0.2469 -0.5696
vn -0.5862 0.6892 -0.4259
vn -0.5862 -0.6892 -0.4259
vn -0.7840 0.2469 -0.5696
vn -0.2194 0.9625 -0.1594
vn -0.0838 -0.9625 -0.2579
vn -0.2994 -0.2469 -0.9216
vn -0.2239 0.6892 -0.6892
vn -0.2239 -0.6892 -0.6892
vn -0.2994 0.2469 -0.9216
vn -0.0838 0.9625 -0.2579
usemtl None
s off
f 34/1/1 2/2/1 8/3/1
f 1/4/2 52/5/2 6/6/2 7/7/2
f 51/8/3 50/9/3 4/10/3 5/11/3
f 2/2/4 1/4/4 7/7/4 8/3/4
f 52/5/5 51/8/5 5/11/5 6/6/5
f 50/9/6 3/12/6 4/10/6
f 8/3/7 7/7/7 12/13/7 13/14/7
f 6/6/8 5/11/8 10/15/8 11/16/8
f 4/10/9 3/17/9 9/18/9
f 34/19/10 8/3/10 13/14/10
f 7/7/11 6/6/11 11/16/11 12/13/11
f 5/11/12 4/10/12 9/18/12 10/15/12
f 13/14/13 12/13/13 17/20/13 18/21/13
f 11/16/14 10/15/14 15/22/14 16/23/14
f 9/18/15 3/24/15 14/25/15
f 34/26/16 13/14/16 18/21/16
f 12/13/17 11/16/17 16/23/17 17/20/17
f 10/15/18 9/18/18 14/25/18 15/22/18
f 18/21/19 17/20/19 22/27/19 23/28/19
f 16/23/20 15/22/20 20/29/20 21/30/20
f 14/25/21 3/31/21 19/32/21
f 34/33/22 18/21/22 23/28/22
f 17/20/23 16/23/23 21/30/23 22/27/23
f 15/22/24 14/25/24 19/32/24 20/29/24
f 23/28/25 22/27/25 27/34/25 28/35/25
f 21/30/26 20/29/26 25/36/26 26/37/26
f 19/32/27 3/38/27 24/39/27
f 34/40/28 23/28/28 28/35/28
f 22/27/29 21/30/29 26/37/29 27/34/29
f 20/29/30 19/32/30 24/39/30 25/36/30
f 26/37/31 25/36/31 30/41/31 31/42/31
f 24/39/32 3/43/32 29/44/32
f 34/45/33 28/35/33 33/46/33
f 27/34/34 26/37/34 31/42/34 32/47/34
f 25/36/35 24/39/35 29/44/35 30/41/35
f 28/35/36 27/34/36 32/47/36 33/46/36
f 29/44/37 3/48/37 35/49/37
f 34/50/38 33/46/38 39/51/38
f 32/47/39 31/42/39 37/52/39 38/53/39
f 30/41/40 29/44/40 35/49/40 36/54/40
f 33/46/41 32/47/41 38/53/41 39/51/41
f 31/42/42 30/41/42 36/54/42 37/52/42
f 34/55/43 39/56/43 44/57/43
f 38/58/44 37/59/44 42/60/44 43/61/44
f 36/62/45 35/63/45 40/64/45 41/65/45
f 39/56/46 38/58/46 43/61/46 44/57/46
f 37/59/47 36/62/47 41/65/47 42/60/47
f 35/63/48 3/66/48 40/64/48
f 34/67/49 44/57/49 49/68/49
f 43/61/50 42/60/50 47/69/50 48/70/50
f 41/65/51 40/64/51 45/71/51 46/72/51
f 44/57/52 43/61/52 48/70/52 49/68/52
f 42/60/53 41/65/53 46/72/53 47/69/53
f 40/64/54 3/73/54 45/71/54
f 34/74/55 49/68/55 2/2/55
f 48/70/56 47/69/56 52/5/56 1/4/56
f 46/72/57 45/71/57 50/9/57 51/8/57
f 49/68/58 48/70/58 1/4/58 2/2/58
f 47/69/59 46/72/59 51/8/59 52/5/59
f 45/71/60 3/75/60 50/9/60
