# Blender 4.1.1
# www.blender.org
o Icosphere
v 0.199972 -0.457853 -0.019544
v 0.407685 -0.078032 0.278755
v -0.057888 -0.286785 0.405467
v -0.319872 -0.382181 -0.040243
v -0.016208 -0.232388 -0.442417
v 0.433444 -0.044414 -0.245262
v 0.016208 0.232388 0.442417
v -0.433444 0.044414 0.245262
v -0.407685 0.078032 -0.278755
v 0.057888 0.286785 -0.405467
v 0.319872 0.382181 0.040243
v -0.199972 0.457853 0.019544
v -0.027363 -0.328681 0.375793
v 0.007388 -0.370142 0.336066
v 0.045089 -0.407711 0.285900
v 0.083515 -0.437687 0.226838
v 0.119983 -0.457397 0.162457
v 0.152197 -0.466210 0.097388
v 0.178904 -0.465522 0.035818
v 0.240974 -0.437691 0.018924
v 0.282925 -0.407595 0.061808
v 0.322817 -0.366451 0.107253
v 0.357170 -0.314986 0.152359
v 0.383147 -0.256134 0.193892
v 0.399573 -0.194294 0.229327
v 0.407129 -0.133865 0.257540
v 0.372751 -0.111057 0.314202
v 0.327169 -0.146259 0.348667
v 0.270806 -0.181603 0.379057
v 0.205605 -0.214434 0.402175
v 0.135582 -0.242235 0.415860
v 0.065711 -0.263491 0.419827
v 0.000329 -0.278043 0.415563
v 0.458860 -0.051852 -0.191725
v 0.479596 -0.059324 -0.128330
v 0.492344 -0.066246 -0.056644
v 0.494401 -0.071972 0.019686
v 0.484863 -0.076010 0.095555
v 0.465130 -0.078203 0.165948
v 0.438255 -0.078744 0.227447
v 0.244408 -0.433209 -0.050937
v 0.290158 -0.398155 -0.085330
v 0.334039 -0.351804 -0.121043
v 0.372311 -0.295226 -0.155648
v 0.401851 -0.231723 -0.186602
v 0.421272 -0.165975 -0.212090
v 0.431168 -0.102490 -0.231494
v -0.271858 -0.417709 -0.040162
v -0.213302 -0.450501 -0.039387
v -0.145142 -0.476980 -0.037736
v -0.070475 -0.493759 -0.035142
v 0.005844 -0.498958 -0.031724
v 0.078634 -0.492997 -0.027763
v 0.143977 -0.478240 -0.023604
v -0.096669 -0.318592 0.373034
v -0.138581 -0.348894 0.330255
v -0.181393 -0.374744 0.276882
v -0.222043 -0.393209 0.214672
v -0.257485 -0.402451 0.147427
v -0.285707 -0.402467 0.079951
v -0.306236 -0.394902 0.016500
v 0.011535 -0.277916 -0.415487
v 0.042498 -0.324320 -0.378168
v 0.075353 -0.368213 -0.329759
v 0.108014 -0.405713 -0.271532
v 0.138142 -0.433698 -0.206937
v 0.163900 -0.450936 -0.140689
v 0.184461 -0.458270 -0.077221
v -0.300679 -0.387650 -0.096539
v -0.274004 -0.387193 -0.158126
v -0.239326 -0.378752 -0.221968
v -0.197544 -0.361235 -0.283700
v -0.151128 -0.335246 -0.338778
v -0.103471 -0.303072 -0.383981
v -0.057772 -0.267827 -0.418247
v 0.042661 -0.222796 -0.445581
v 0.108054 -0.208229 -0.441548
v 0.177070 -0.188090 -0.428099
v 0.245245 -0.162700 -0.404207
v 0.307669 -0.133494 -0.370836
v 0.360571 -0.102666 -0.330829
v 0.402348 -0.072431 -0.287872
v 0.352871 0.346265 0.074720
v 0.383927 0.300030 0.112171
v 0.409880 0.243513 0.150666
v 0.427647 0.178776 0.187502
v 0.435385 0.109845 0.219941
v 0.433241 0.041582 0.246116
v 0.423114 -0.021870 0.265511
v 0.447154 0.009504 -0.223524
v 0.454940 0.069901 -0.195302
v 0.454090 0.134256 -0.160555
v 0.442788 0.198536 -0.120506
v 0.421102 0.258159 -0.077631
v 0.391160 0.309470 -0.034967
v 0.356305 0.350747 0.004859
v 0.007408 0.178640 0.466940
v -0.002601 0.115232 0.486534
v -0.013451 0.043798 0.497896
v -0.024499 -0.031973 0.498375
v -0.034972 -0.106994 0.487164
v -0.044212 -0.176328 0.465783
v -0.051863 -0.236658 0.437383
v 0.382630 -0.041841 0.319129
v 0.347976 -0.000480 0.359044
v 0.303089 0.044584 0.395157
v 0.249159 0.090729 0.423896
v 0.189385 0.134745 0.442693
v 0.128128 0.173848 0.450955
v 0.069479 0.206472 0.450047
v -0.447154 -0.009504 0.223524
v -0.454940 -0.069901 0.195302
v -0.454089 -0.134256 0.160555
v -0.442788 -0.198536 0.120506
v -0.421102 -0.258159 0.077631
v -0.391160 -0.309470 0.034967
v -0.356305 -0.350747 -0.004859
v -0.111811 -0.261719 0.411098
v -0.170472 -0.229110 0.410424
v -0.230873 -0.188890 0.401271
v -0.288799 -0.142463 0.382491
v -0.339952 -0.092694 0.354740
v -0.381378 -0.043114 0.320455
v -0.412227 0.003215 0.282946
v -0.382630 0.041841 -0.319129
v -0.347976 0.000480 -0.359044
v -0.303089 -0.044584 -0.395157
v -0.249159 -0.090729 -0.423896
v -0.189385 -0.134745 -0.442693
v -0.128128 -0.173848 -0.450955
v -0.069479 -0.206472 -0.450047
v -0.352871 -0.346265 -0.074720
v -0.383927 -0.300030 -0.112171
v -0.409880 -0.243513 -0.150666
v -0.427647 -0.178776 -0.187502
v -0.435385 -0.109845 -0.219941
v -0.433241 -0.041582 -0.246116
v -0.423114 0.021870 -0.265511
v 0.111811 0.261719 -0.411098
v 0.170472 0.229110 -0.410424
v 0.230873 0.188890 -0.401271
v 0.288799 0.142463 -0.382491
v 0.339952 0.092694 -0.354740
v 0.381378 0.043114 -0.320455
v 0.412227 -0.003215 -0.282946
v -0.007408 -0.178640 -0.466940
v 0.002601 -0.115232 -0.486534
v 0.013451 -0.043798 -0.497896
v 0.024499 0.031973 -0.498375
v 0.034972 0.106994 -0.487164
v 0.044212 0.176328 -0.465783
v 0.051863 0.236658 -0.437383
v 0.300679 0.387650 0.096539
v 0.274004 0.387193 0.158126
v 0.239326 0.378752 0.221968
v 0.197544 0.361235 0.283700
v 0.151128 0.335246 0.338778
v 0.103471 0.303072 0.383981
v 0.057772 0.267827 0.418247
v -0.042661 0.222796 0.445581
v -0.108054 0.208229 0.441548
v -0.177070 0.188090 0.428099
v -0.245245 0.162700 0.404207
v -0.307669 0.133494 0.370836
v -0.360571 0.102666 0.330829
v -0.402348 0.072431 0.287872
v -0.458860 0.051852 0.191725
v -0.479596 0.059324 0.128330
v -0.492344 0.066246 0.056644
v -0.494401 0.071972 -0.019686
v -0.484863 0.076010 -0.095555
v -0.465130 0.078203 -0.165948
v -0.438255 0.078744 -0.227447
v -0.372751 0.111057 -0.314202
v -0.327169 0.146259 -0.348667
v -0.270806 0.181603 -0.379057
v -0.205605 0.214434 -0.402175
v -0.135582 0.242235 -0.415860
v -0.065711 0.263491 -0.419827
v -0.000329 0.278043 -0.415563
v 0.096669 0.318592 -0.373034
v 0.138581 0.348894 -0.330255
v 0.181393 0.374744 -0.276882
v 0.222043 0.393209 -0.214672
v 0.257485 0.402451 -0.147427
v 0.285707 0.402466 -0.079951
v 0.306236 0.394902 -0.016500
v -0.184461 0.458270 0.077221
v -0.163900 0.450936 0.140689
v -0.138142 0.433698 0.206937
v -0.108014 0.405713 0.271532
v -0.075353 0.368213 0.329759
v -0.042498 0.324320 0.378168
v -0.011535 0.277916 0.415487
v 0.271858 0.417708 0.040162
v 0.213302 0.450501 0.039387
v 0.145142 0.476980 0.037736
v 0.070475 0.493759 0.035142
v -0.005844 0.498958 0.031724
v -0.078634 0.492997 0.027763
v -0.143977 0.478240 0.023604
v -0.244408 0.433209 0.050937
v -0.290157 0.398155 0.085330
v -0.334039 0.351804 0.121043
v -0.372311 0.295226 0.155648
v -0.401851 0.231723 0.186602
v -0.421272 0.165975 0.212090
v -0.431168 0.102491 0.231494
v -0.240974 0.437691 -0.018924
v -0.282924 0.407595 -0.061808
v -0.322817 0.366451 -0.107253
v -0.357170 0.314986 -0.152359
v -0.383146 0.256134 -0.193892
v -0.399573 0.194294 -0.229327
v -0.407128 0.133865 -0.257540
v -0.178904 0.465522 -0.035818
v -0.152197 0.466210 -0.097388
v -0.119983 0.457397 -0.162457
v -0.083515 0.437687 -0.226838
v -0.045089 0.407711 -0.285900
v -0.007388 0.370142 -0.336066
v 0.027363 0.328681 -0.375793
v -0.116694 0.484916 -0.035198
v -0.044951 0.496827 -0.033801
v -0.083917 0.482638 -0.100092
v 0.033188 0.497902 -0.031502
v -0.006855 0.489690 -0.100781
v -0.046722 0.468804 -0.167451
v 0.112469 0.486361 -0.028346
v 0.074454 0.484434 -0.098897
v 0.033430 0.469496 -0.168690
v -0.007396 0.442715 -0.232269
v 0.187002 0.463063 -0.024565
v 0.153785 0.466306 -0.094385
v 0.114832 0.457647 -0.165449
v 0.072828 0.436827 -0.232116
v 0.031139 0.406309 -0.289730
v 0.252268 0.431208 -0.020507
v 0.225354 0.437619 -0.087778
v 0.191121 0.434183 -0.157982
v 0.151166 0.419634 -0.225956
v 0.108457 0.395054 -0.286652
v 0.066323 0.363500 -0.336852
v -0.219971 0.441742 -0.080480
v -0.192127 0.437401 -0.147537
v -0.261372 0.406354 -0.128691
v -0.157680 0.422419 -0.216101
v -0.231682 0.395703 -0.199356
v -0.299687 0.358746 -0.177451
v -0.118354 0.396329 -0.280919
v -0.194423 0.374243 -0.268592
v -0.267326 0.341555 -0.248750
v -0.331365 0.300820 -0.222945
v -0.077072 0.361072 -0.337175
v -0.151999 0.342840 -0.330691
v -0.226949 0.314768 -0.315302
v -0.295868 0.278332 -0.291535
v -0.354053 0.236879 -0.261791
v -0.036954 0.320326 -0.382133
v -0.107965 0.304580 -0.381542
v -0.181710 0.280477 -0.371906
v -0.252714 0.248641 -0.352581
v -0.315702 0.211436 -0.325004
v -0.367396 0.172163 -0.292199
v -0.289715 0.407337 0.011891
v -0.334449 0.370305 -0.031907
v -0.338280 0.365305 0.046030
v -0.374619 0.321782 -0.078210
v -0.383510 0.320807 0.001729
v -0.382476 0.311528 0.081623
v -0.406297 0.263857 -0.123703
v -0.421199 0.265650 -0.044958
v -0.425233 0.260386 0.037097
v -0.418083 0.248475 0.116047
v -0.427130 0.200831 -0.165006
v -0.447697 0.203436 -0.090450
v -0.457758 0.200910 -0.009613
v -0.455657 0.193047 0.071479
v -0.442455 0.180830 0.146745
v -0.437141 0.137758 -0.199827
v -0.461854 0.139339 -0.131435
v -0.477510 0.137750 -0.054855
v -0.481439 0.132623 0.025061
v -0.473348 0.124338 0.102379
v -0.455424 0.113897 0.172095
v -0.229544 0.429248 0.114261
v -0.275234 0.388263 0.153291
v -0.208357 0.416221 0.182614
v -0.317829 0.335069 0.191607
v -0.252522 0.368505 0.224581
v -0.180678 0.392404 0.251743
v -0.353436 0.272016 0.226032
v -0.292480 0.308727 0.262950
v -0.222071 0.338161 0.293822
v -0.147709 0.358019 0.316235
v -0.379409 0.203788 0.254006
v -0.324669 0.240746 0.294333
v -0.258630 0.273422 0.329168
v -0.185719 0.298833 0.355257
v -0.111899 0.315619 0.371299
v -0.395252 0.135808 0.274466
v -0.347256 0.170254 0.316901
v -0.287498 0.203245 0.355016
v -0.218922 0.231913 0.385084
v -0.146623 0.254127 0.404871
v -0.076110 0.269224 0.414398
v -0.122610 0.477195 0.085159
v -0.096315 0.466457 0.152122
v -0.051150 0.488736 0.092306
v -0.065791 0.443916 0.220476
v -0.019735 0.472881 0.161228
v 0.026832 0.489606 0.097807
v -0.032822 0.409531 0.284968
v 0.013850 0.443942 0.229616
v 0.061401 0.467398 0.166640
v 0.106113 0.478065 0.100964
v 0.000143 0.365856 0.340807
v 0.047068 0.403209 0.291903
v 0.095252 0.432093 0.232857
v 0.140905 0.449497 0.167625
v 0.180802 0.454972 0.101542
v 0.030824 0.317170 0.385296
v 0.077461 0.354601 0.343886
v 0.125740 0.386450 0.291283
v 0.172051 0.409295 0.229948
v 0.212955 0.421438 0.164437
v 0.246351 0.423486 0.099851
v 0.342182 0.359911 -0.058096
v 0.375421 0.313657 -0.103335
v 0.319564 0.362917 -0.127162
v 0.402275 0.256562 -0.149501
v 0.349523 0.311099 -0.176214
v 0.287724 0.357583 -0.198366
v 0.419596 0.191503 -0.193043
v 0.372013 0.248488 -0.223294
v 0.313205 0.300349 -0.248380
v 0.247769 0.343035 -0.266341
v 0.426098 0.123312 -0.230727
v 0.384619 0.179274 -0.264441
v 0.330990 0.233550 -0.293088
v 0.268566 0.281620 -0.313947
v 0.202668 0.320351 -0.326038
v 0.422792 0.057133 -0.260735
v 0.387133 0.109123 -0.297020
v 0.339687 0.162405 -0.328995
v 0.282411 0.212916 -0.353427
v 0.219560 0.256903 -0.368503
v 0.156238 0.292203 -0.374442
v -0.010868 0.222345 -0.447710
v -0.022408 0.155749 -0.474595
v -0.080633 0.201919 -0.450252
v -0.034277 0.080526 -0.492281
v -0.095213 0.129544 -0.473448
v -0.153685 0.175210 -0.442360
v -0.045578 0.001347 -0.497917
v -0.108098 0.049991 -0.485609
v -0.169399 0.098600 -0.459981
v -0.224689 0.143373 -0.423036
v -0.055469 -0.075904 -0.491082
v -0.118110 -0.030889 -0.484867
v -0.181002 0.017303 -0.465767
v -0.239084 0.065036 -0.434292
v -0.288371 0.108774 -0.393714
v -0.063458 -0.146141 -0.473937
v -0.124715 -0.106953 -0.472236
v -0.187586 -0.062326 -0.459268
v -0.247290 -0.014984 -0.434307
v -0.299392 0.031557 -0.399210
v -0.341311 0.074182 -0.357776
v -0.454161 0.018514 -0.208314
v -0.462797 -0.049051 -0.182791
v -0.479688 0.014398 -0.140328
v -0.461156 -0.120483 -0.151058
v -0.484750 -0.056150 -0.108925
v -0.495797 0.009636 -0.063974
v -0.447764 -0.190670 -0.114683
v -0.477526 -0.128970 -0.073044
v -0.495310 -0.062170 -0.028337
v -0.499725 0.004509 0.015943
v -0.423616 -0.254397 -0.076368
v -0.457615 -0.198364 -0.035221
v -0.481560 -0.134234 0.009011
v -0.492710 -0.066538 0.053004
v -0.491182 -0.000602 0.093487
v -0.391836 -0.308125 -0.039030
v -0.427447 -0.259397 0.001570
v -0.455622 -0.200924 0.045152
v -0.472942 -0.135864 0.088694
v -0.478122 -0.069051 0.128961
v -0.472444 -0.005347 0.163609
v -0.375084 0.030106 0.329250
v -0.337146 -0.017716 0.368807
v -0.326125 0.059502 0.374302
v -0.288431 -0.068677 0.402605
v -0.280764 0.010639 0.413592
v -0.265830 0.089680 0.413874
v -0.231156 -0.119188 0.427038
v -0.225736 -0.041079 0.444247
v -0.214134 0.040217 0.450033
v -0.197254 0.118348 0.443942
v -0.169574 -0.165496 0.440291
v -0.164711 -0.091707 0.463099
v -0.155326 -0.011645 0.475119
v -0.141813 0.068727 0.474516
v -0.125491 0.143376 0.462272
v -0.108531 -0.204964 0.442957
v -0.102695 -0.137538 0.469614
v -0.094003 -0.061852 0.487173
v -0.082702 0.017327 0.492808
v -0.069634 0.094116 0.486100
v -0.055941 0.163522 0.469182
v 0.117082 0.241101 0.422092
v 0.180901 0.206450 0.417915
v 0.167841 0.274899 0.382440
v 0.245199 0.164350 0.403567
v 0.234846 0.237612 0.372006
v 0.218414 0.304724 0.330815
v 0.304903 0.117008 0.378607
v 0.299309 0.192202 0.351387
v 0.285558 0.264267 0.314038
v 0.264726 0.327568 0.269480
v 0.355578 0.067940 0.344889
v 0.355819 0.141686 0.321431
v 0.346859 0.215658 0.288410
v 0.328683 0.283900 0.247726
v 0.303335 0.341735 0.202990
v 0.394935 0.020778 0.305932
v 0.400742 0.090219 0.285073
v 0.397525 0.162697 0.255936
v 0.384133 0.232884 0.219560
v 0.361560 0.295566 0.178649
v 0.332610 0.347417 0.136646
v 0.108531 0.204964 -0.442957
v 0.169574 0.165496 -0.440291
v 0.102696 0.137538 -0.469614
v 0.231156 0.119188 -0.427038
v 0.164711 0.091706 -0.463099
v 0.094003 0.061852 -0.487173
v 0.288432 0.068677 -0.402605
v 0.225737 0.041079 -0.444247
v 0.155326 0.011644 -0.475119
v 0.082703 -0.017327 -0.492808
v 0.337146 0.017716 -0.368807
v 0.280764 -0.010640 -0.413592
v 0.214134 -0.040218 -0.450033
v 0.141814 -0.068727 -0.474516
v 0.069634 -0.094116 -0.486100
v 0.375084 -0.030106 -0.329250
v 0.326125 -0.059502 -0.374302
v 0.265830 -0.089681 -0.413874
v 0.197254 -0.118349 -0.443942
v 0.125491 -0.143376 -0.462272
v 0.055941 -0.163522 -0.469181
v -0.394935 -0.020779 -0.305932
v -0.355577 -0.067941 -0.344889
v -0.400742 -0.090220 -0.285072
v -0.304902 -0.117008 -0.378607
v -0.355818 -0.141687 -0.321431
v -0.397525 -0.162698 -0.255936
v -0.245198 -0.164350 -0.403568
v -0.299308 -0.192203 -0.351387
v -0.346858 -0.215659 -0.288410
v -0.384133 -0.232885 -0.219560
v -0.180901 -0.206450 -0.417915
v -0.234845 -0.237612 -0.372006
v -0.285557 -0.264267 -0.314038
v -0.328682 -0.283901 -0.247727
v -0.361559 -0.295566 -0.178649
v -0.117082 -0.241101 -0.422092
v -0.167840 -0.274898 -0.382440
v -0.218413 -0.304723 -0.330816
v -0.264725 -0.327568 -0.269481
v -0.303334 -0.341736 -0.202991
v -0.332609 -0.347418 -0.136646
v -0.422792 -0.057133 0.260736
v -0.426097 -0.123312 0.230727
v -0.387132 -0.109123 0.297020
v -0.419596 -0.191503 0.193044
v -0.384619 -0.179274 0.264442
v -0.339687 -0.162405 0.328995
v -0.402275 -0.256562 0.149502
v -0.372013 -0.248487 0.223295
v -0.330989 -0.233549 0.293089
v -0.282411 -0.212915 0.353428
v -0.375421 -0.313657 0.103335
v -0.349522 -0.311099 0.176215
v -0.313205 -0.300349 0.248381
v -0.268565 -0.281620 0.313948
v -0.219560 -0.256903 0.368503
v -0.342182 -0.359911 0.058096
v -0.319564 -0.362917 0.127163
v -0.287723 -0.357583 0.198367
v -0.247768 -0.343034 0.266342
v -0.202667 -0.320351 0.326039
v -0.156238 -0.292203 0.374442
v 0.063459 0.146141 0.473937
v 0.055470 0.075904 0.491082
v 0.124716 0.106953 0.472236
v 0.045578 -0.001347 0.497917
v 0.118111 0.030889 0.484867
v 0.187587 0.062326 0.459268
v 0.034278 -0.080526 0.492281
v 0.108098 -0.049992 0.485608
v 0.181002 -0.017303 0.465767
v 0.247291 0.014984 0.434307
v 0.022408 -0.155750 0.474594
v 0.095214 -0.129544 0.473448
v 0.169399 -0.098600 0.459980
v 0.239084 -0.065036 0.434292
v 0.299392 -0.031557 0.399210
v 0.010868 -0.222345 0.447710
v 0.080634 -0.201919 0.450252
v 0.153685 -0.175210 0.442360
v 0.224689 -0.143373 0.423035
v 0.288371 -0.108774 0.393713
v 0.341312 -0.074182 0.357776
v 0.391836 0.308125 0.039030
v 0.423615 0.254397 0.076368
v 0.427447 0.259397 -0.001569
v 0.447764 0.190670 0.114683
v 0.457615 0.198364 0.035221
v 0.455621 0.200924 -0.045151
v 0.461157 0.120483 0.151058
v 0.477526 0.128970 0.073044
v 0.481560 0.134235 -0.009011
v 0.472942 0.135865 -0.088693
v 0.462797 0.049051 0.182791
v 0.484750 0.056150 0.108925
v 0.495310 0.062170 0.028337
v 0.492710 0.066539 -0.053004
v 0.478122 0.069051 -0.128961
v 0.454161 -0.018514 0.208314
v 0.479688 -0.014398 0.140327
v 0.495797 -0.009636 0.063974
v 0.499725 -0.004509 -0.015943
v 0.491182 0.000602 -0.093487
v 0.472444 0.005347 -0.163609
v 0.395252 -0.135808 -0.274466
v 0.379409 -0.203788 -0.254006
v 0.347256 -0.170254 -0.316902
v 0.353436 -0.272016 -0.226032
v 0.324668 -0.240746 -0.294333
v 0.287498 -0.203245 -0.355016
v 0.317829 -0.335069 -0.191608
v 0.292480 -0.308727 -0.262951
v 0.258629 -0.273421 -0.329168
v 0.218922 -0.231912 -0.385084
v 0.275234 -0.388263 -0.153292
v 0.252521 -0.368505 -0.224582
v 0.222070 -0.338161 -0.293823
v 0.185719 -0.298832 -0.355257
v 0.146623 -0.254127 -0.404872
v 0.229544 -0.429248 -0.114262
v 0.208356 -0.416220 -0.182615
v 0.180678 -0.392403 -0.251744
v 0.147709 -0.358018 -0.316236
v 0.111898 -0.315619 -0.371300
v 0.076110 -0.269224 -0.414398
v -0.030824 -0.317171 -0.385295
v -0.000144 -0.365856 -0.340806
v -0.077462 -0.354602 -0.343885
v 0.032822 -0.409531 -0.284968
v -0.047068 -0.403209 -0.291903
v -0.125741 -0.386451 -0.291282
v 0.065791 -0.443917 -0.220476
v -0.013851 -0.443943 -0.229615
v -0.095253 -0.432093 -0.232857
v -0.172052 -0.409295 -0.229947
v 0.096315 -0.466457 -0.152121
v 0.019735 -0.472881 -0.161228
v -0.061401 -0.467398 -0.166640
v -0.140906 -0.449497 -0.167624
v -0.212956 -0.421438 -0.164437
v 0.122610 -0.477195 -0.085159
v 0.051150 -0.488736 -0.092306
v -0.026832 -0.489606 -0.097807
v -0.106113 -0.478065 -0.100963
v -0.180803 -0.454972 -0.101542
v -0.246352 -0.423486 -0.099851
v -0.252268 -0.431208 0.020506
v -0.187002 -0.463063 0.024565
v -0.225354 -0.437619 0.087777
v -0.112469 -0.486361 0.028346
v -0.153786 -0.466306 0.094385
v -0.191122 -0.434183 0.157981
v -0.033189 -0.497902 0.031503
v -0.074455 -0.484434 0.098897
v -0.114833 -0.457646 0.165449
v -0.151167 -0.419634 0.225956
v 0.044951 -0.496827 0.033801
v 0.006855 -0.489690 0.100782
v -0.033431 -0.469496 0.168690
v -0.072828 -0.436827 0.232117
v -0.108458 -0.395054 0.286652
v 0.116694 -0.484916 0.035199
v 0.083916 -0.482638 0.100093
v 0.046721 -0.468804 0.167452
v 0.007395 -0.442714 0.232270
v -0.031140 -0.406308 0.289731
v -0.066324 -0.363500 0.336852
v 0.455424 -0.113897 -0.172095
v 0.473348 -0.124338 -0.102379
v 0.442455 -0.180830 -0.146745
v 0.481439 -0.132623 -0.025061
v 0.455657 -0.193047 -0.071479
v 0.418083 -0.248475 -0.116047
v 0.477510 -0.137750 0.054856
v 0.457758 -0.200910 0.009613
v 0.425233 -0.260386 -0.037097
v 0.382476 -0.311528 -0.081623
v 0.461854 -0.139339 0.131435
v 0.447697 -0.203435 0.090450
v 0.421199 -0.265650 0.044958
v 0.383511 -0.320806 -0.001728
v 0.338280 -0.365305 -0.046030
v 0.437141 -0.137758 0.199827
v 0.427130 -0.200830 0.165007
v 0.406297 -0.263856 0.123704
v 0.374619 -0.321782 0.078211
v 0.334449 -0.370305 0.031908
v 0.289715 -0.407337 -0.011891
v 0.036954 -0.320326 0.382133
v 0.077072 -0.361072 0.337175
v 0.107965 -0.304580 0.381542
v 0.118355 -0.396329 0.280919
v 0.152000 -0.342840 0.330692
v 0.181710 -0.280477 0.371906
v 0.157680 -0.422418 0.216101
v 0.194424 -0.374243 0.268592
v 0.226949 -0.314767 0.315302
v 0.252714 -0.248640 0.352581
v 0.192128 -0.437401 0.147537
v 0.231682 -0.395702 0.199356
v 0.267327 -0.341554 0.248751
v 0.295869 -0.278332 0.291536
v 0.315702 -0.211435 0.325004
v 0.219971 -0.441742 0.080480
v 0.261373 -0.406353 0.128691
v 0.299688 -0.358745 0.177452
v 0.331366 -0.300819 0.222945
v 0.354054 -0.236878 0.261791
v 0.367396 -0.172163 0.292199
vn 0.3999 -0.9157 -0.0391
vn 0.8154 -0.1561 0.5575
vn -0.1158 -0.5736 0.8109
vn -0.6397 -0.7644 -0.0805
vn -0.0324 -0.4648 -0.8848
vn 0.8669 -0.0888 -0.4905
vn 0.0324 0.4648 0.8848
vn -0.8669 0.0888 0.4905
vn -0.8154 0.1561 -0.5575
vn 0.1158 0.5736 -0.8109
vn 0.6397 0.7644 0.0805
vn -0.3999 0.9157 0.0391
vn -0.0533 -0.6592 0.7501
vn 0.0159 -0.7415 0.6708
vn 0.0908 -0.8159 0.5710
vn 0.1670 -0.8754 0.4537
vn 0.2394 -0.9146 0.3259
vn 0.3035 -0.9323 0.1967
vn 0.3568 -0.9312 0.0742
vn 0.4838 -0.8743 0.0397
vn 0.5671 -0.8141 0.1250
vn 0.6462 -0.7322 0.2152
vn 0.7143 -0.6300 0.3047
vn 0.7660 -0.5132 0.3872
vn 0.7988 -0.3905 0.4577
vn 0.8141 -0.2703 0.5140
vn 0.7437 -0.2236 0.6300
vn 0.6528 -0.2936 0.6983
vn 0.5407 -0.3637 0.7585
vn 0.4112 -0.4289 0.8044
vn 0.2723 -0.4841 0.8316
vn 0.1335 -0.5264 0.8397
vn 0.0034 -0.5556 0.8315
vn 0.9188 -0.1040 -0.3809
vn 0.9597 -0.1189 -0.2546
vn 0.9848 -0.1326 -0.1121
vn 0.9888 -0.1439 0.0394
vn 0.9700 -0.1520 0.1900
vn 0.9310 -0.1564 0.3299
vn 0.8778 -0.1575 0.4524
vn 0.4908 -0.8651 -0.1033
vn 0.5817 -0.7951 -0.1717
vn 0.6687 -0.7028 -0.2426
vn 0.7446 -0.5905 -0.3113
vn 0.8033 -0.4644 -0.3728
vn 0.8421 -0.3339 -0.4235
vn 0.8621 -0.2077 -0.4623
vn -0.5414 -0.8369 -0.0803
vn -0.4247 -0.9019 -0.0787
vn -0.2892 -0.9543 -0.0754
vn -0.1410 -0.9875 -0.0703
vn 0.0105 -0.9979 -0.0635
vn 0.1552 -0.9863 -0.0556
vn 0.2853 -0.9573 -0.0474
vn -0.1951 -0.6386 0.7444
vn -0.2785 -0.6986 0.6591
vn -0.3634 -0.7498 0.5529
vn -0.4441 -0.7864 0.4293
vn -0.5145 -0.8048 0.2959
vn -0.5707 -0.8051 0.1619
vn -0.6117 -0.7903 0.0357
vn 0.0244 -0.5579 -0.8296
vn 0.0860 -0.6500 -0.7550
vn 0.1512 -0.7371 -0.6587
vn 0.2160 -0.8114 -0.5431
vn 0.2759 -0.8670 -0.4149
vn 0.3271 -0.9015 -0.2834
vn 0.3681 -0.9164 -0.1571
vn -0.6004 -0.7754 -0.1957
vn -0.5471 -0.7743 -0.3182
vn -0.4781 -0.7573 -0.4449
vn -0.3951 -0.7225 -0.5674
vn -0.3030 -0.6709 -0.6768
vn -0.2084 -0.6072 -0.7668
vn -0.1175 -0.5372 -0.8352
vn 0.0881 -0.4451 -0.8912
vn 0.2182 -0.4159 -0.8828
vn 0.3552 -0.3758 -0.8559
vn 0.4905 -0.3254 -0.8084
vn 0.6144 -0.2675 -0.7422
vn 0.7197 -0.2063 -0.6629
vn 0.8031 -0.1462 -0.5776
vn 0.7072 0.6907 0.1510
vn 0.7687 0.5985 0.2255
vn 0.8201 0.4861 0.3019
vn 0.8553 0.3576 0.3750
vn 0.8707 0.2208 0.4394
vn 0.8667 0.0852 0.4915
vn 0.8468 -0.0411 0.5303
vn 0.8948 0.0215 -0.4459
vn 0.9100 0.1417 -0.3897
vn 0.9081 0.2695 -0.3205
vn 0.8856 0.3971 -0.2410
vn 0.8426 0.5155 -0.1559
vn 0.7833 0.6175 -0.0712
vn 0.7142 0.6999 0.0081
vn 0.0144 0.3547 0.9349
vn -0.0055 0.2284 0.9735
vn -0.0271 0.0865 0.9959
vn -0.0490 -0.0639 0.9967
vn -0.0698 -0.2129 0.9746
vn -0.0882 -0.3507 0.9323
vn -0.1034 -0.4709 0.8761
vn 0.7640 -0.0820 0.6400
vn 0.6947 0.0004 0.7193
vn 0.6054 0.0899 0.7908
vn 0.4983 0.1815 0.8478
vn 0.3797 0.2688 0.8852
vn 0.2581 0.3466 0.9018
vn 0.1414 0.4117 0.9003
vn -0.8948 -0.0215 0.4459
vn -0.9100 -0.1417 0.3897
vn -0.9081 -0.2695 0.3205
vn -0.8856 -0.3971 0.2410
vn -0.8426 -0.5155 0.1559
vn -0.7833 -0.6175 0.0712
vn -0.7142 -0.6999 -0.0081
vn -0.2261 -0.5222 0.8223
vn -0.3428 -0.4571 0.8207
vn -0.4627 -0.3771 0.8023
vn -0.5776 -0.2849 0.7650
vn -0.6792 -0.1862 0.7100
vn -0.7617 -0.0877 0.6420
vn -0.8233 0.0045 0.5676
vn -0.7640 0.0820 -0.6400
vn -0.6947 -0.0004 -0.7193
vn -0.6054 -0.0899 -0.7908
vn -0.4983 -0.1815 -0.8478
vn -0.3797 -0.2688 -0.8852
vn -0.2581 -0.3466 -0.9018
vn -0.1414 -0.4117 -0.9003
vn -0.7072 -0.6907 -0.1510
vn -0.7687 -0.5985 -0.2255
vn -0.8201 -0.4861 -0.3019
vn -0.8553 -0.3576 -0.3750
vn -0.8707 -0.2208 -0.4394
vn -0.8667 -0.0852 -0.4915
vn -0.8468 0.0411 -0.5303
vn 0.2261 0.5222 -0.8223
vn 0.3428 0.4571 -0.8207
vn 0.4627 0.3771 -0.8023
vn 0.5776 0.2849 -0.7650
vn 0.6792 0.1862 -0.7100
vn 0.7617 0.0877 -0.6420
vn 0.8233 -0.0045 -0.5676
vn -0.0144 -0.3547 -0.9349
vn 0.0055 -0.2284 -0.9735
vn 0.0271 -0.0865 -0.9959
vn 0.0490 0.0639 -0.9967
vn 0.0698 0.2129 -0.9746
vn 0.0882 0.3507 -0.9323
vn 0.1034 0.4709 -0.8761
vn 0.6004 0.7754 0.1957
vn 0.5471 0.7743 0.3182
vn 0.4781 0.7573 0.4449
vn 0.3951 0.7225 0.5674
vn 0.3030 0.6709 0.6768
vn 0.2084 0.6072 0.7668
vn 0.1175 0.5372 0.8352
vn -0.0881 0.4451 0.8912
vn -0.2182 0.4159 0.8828
vn -0.3552 0.3758 0.8559
vn -0.4905 0.3254 0.8084
vn -0.6144 0.2675 0.7422
vn -0.7197 0.2063 0.6629
vn -0.8031 0.1462 0.5776
vn -0.9188 0.1040 0.3809
vn -0.9597 0.1189 0.2546
vn -0.9848 0.1326 0.1121
vn -0.9888 0.1439 -0.0394
vn -0.9700 0.1520 -0.1900
vn -0.9310 0.1564 -0.3299
vn -0.8778 0.1575 -0.4524
vn -0.7437 0.2236 -0.6300
vn -0.6528 0.2936 -0.6983
vn -0.5407 0.3637 -0.7585
vn -0.4112 0.4289 -0.8043
vn -0.2723 0.4841 -0.8316
vn -0.1335 0.5264 -0.8397
vn -0.0034 0.5556 -0.8315
vn 0.1951 0.6386 -0.7444
vn 0.2785 0.6986 -0.6591
vn 0.3634 0.7498 -0.5529
vn 0.4441 0.7864 -0.4293
vn 0.5145 0.8048 -0.2959
vn 0.5707 0.8051 -0.1619
vn 0.6117 0.7903 -0.0357
vn -0.3681 0.9164 0.1571
vn -0.3271 0.9015 0.2834
vn -0.2759 0.8670 0.4149
vn -0.2160 0.8114 0.5431
vn -0.1512 0.7371 0.6587
vn -0.0860 0.6500 0.7550
vn -0.0244 0.5579 0.8296
vn 0.5414 0.8369 0.0803
vn 0.4247 0.9019 0.0787
vn 0.2892 0.9543 0.0754
vn 0.1410 0.9875 0.0703
vn -0.0105 0.9979 0.0635
vn -0.1552 0.9863 0.0557
vn -0.2853 0.9573 0.0474
vn -0.4908 0.8651 0.1033
vn -0.5817 0.7951 0.1717
vn -0.6687 0.7028 0.2426
vn -0.7446 0.5905 0.3113
vn -0.8033 0.4644 0.3728
vn -0.8421 0.3339 0.4235
vn -0.8621 0.2077 0.4623
vn -0.4838 0.8743 -0.0397
vn -0.5671 0.8141 -0.1250
vn -0.6462 0.7322 -0.2152
vn -0.7143 0.6300 -0.3047
vn -0.7660 0.5132 -0.3872
vn -0.7988 0.3905 -0.4577
vn -0.8141 0.2703 -0.5140
vn -0.3568 0.9312 -0.0742
vn -0.3035 0.9323 -0.1967
vn -0.2394 0.9146 -0.3259
vn -0.1670 0.8754 -0.4537
vn -0.0908 0.8159 -0.5710
vn -0.0159 0.7415 -0.6708
vn 0.0533 0.6592 -0.7501
vn -0.2296 0.9706 -0.0728
vn -0.0872 0.9937 -0.0702
vn -0.1642 0.9656 -0.2014
vn 0.0674 0.9956 -0.0658
vn -0.0116 0.9792 -0.2027
vn -0.0905 0.9381 -0.3345
vn 0.2241 0.9727 -0.0596
vn 0.1489 0.9686 -0.1990
vn 0.0679 0.9391 -0.3368
vn -0.0128 0.8865 -0.4626
vn 0.3716 0.9269 -0.0520
vn 0.3056 0.9330 -0.1901
vn 0.2286 0.9157 -0.3304
vn 0.1457 0.8748 -0.4621
vn 0.0633 0.8147 -0.5765
vn 0.5013 0.8642 -0.0437
vn 0.4475 0.8766 -0.1770
vn 0.3795 0.8696 -0.3158
vn 0.3006 0.8409 -0.4501
vn 0.2163 0.7924 -0.5704
vn 0.1330 0.7300 -0.6704
vn -0.4406 0.8824 -0.1653
vn -0.3854 0.8732 -0.2983
vn -0.5224 0.8118 -0.2610
vn -0.3173 0.8432 -0.4339
vn -0.4634 0.7903 -0.4008
vn -0.5979 0.7174 -0.3575
vn -0.2396 0.7917 -0.5620
vn -0.3898 0.7478 -0.5375
vn -0.5337 0.6832 -0.4983
vn -0.6605 0.6030 -0.4474
vn -0.1578 0.7222 -0.6734
vn -0.3061 0.6859 -0.6602
vn -0.4540 0.6304 -0.6297
vn -0.5902 0.5585 -0.5829
vn -0.7057 0.4766 -0.5243
vn -0.0780 0.6418 -0.7629
vn -0.2189 0.6105 -0.7612
vn -0.3648 0.5628 -0.7418
vn -0.5051 0.4998 -0.7036
vn -0.6298 0.4262 -0.6493
vn -0.7327 0.3483 -0.5847
vn -0.5831 0.8121 0.0234
vn -0.6717 0.7381 -0.0632
vn -0.6793 0.7282 0.0909
vn -0.7511 0.6419 -0.1547
vn -0.7685 0.6398 0.0033
vn -0.7666 0.6216 0.1611
vn -0.8136 0.5274 -0.2446
vn -0.8429 0.5307 -0.0889
vn -0.8508 0.5204 0.0731
vn -0.8369 0.4970 0.2292
vn -0.8550 0.4029 -0.3265
vn -0.8953 0.4080 -0.1788
vn -0.9150 0.4030 -0.0191
vn -0.9110 0.3875 0.1410
vn -0.8853 0.3633 0.2901
vn -0.8752 0.2780 -0.3960
vn -0.9237 0.2813 -0.2601
vn -0.9544 0.2782 -0.1085
vn -0.9621 0.2681 0.0494
vn -0.9464 0.2516 0.2024
vn -0.9114 0.2307 0.3408
vn -0.4602 0.8568 0.2326
vn -0.5504 0.7751 0.3101
vn -0.4182 0.8304 0.3681
vn -0.6344 0.6697 0.3860
vn -0.5053 0.7356 0.4511
vn -0.3634 0.7830 0.5048
vn -0.7048 0.5451 0.4540
vn -0.5841 0.6175 0.5268
vn -0.4451 0.6756 0.5878
vn -0.2983 0.7151 0.6322
vn -0.7565 0.4103 0.5093
vn -0.6478 0.4833 0.5889
vn -0.5173 0.5478 0.6575
vn -0.3734 0.5980 0.7092
vn -0.2274 0.6315 0.7413
vn -0.7885 0.2755 0.5500
vn -0.6929 0.3439 0.6337
vn -0.5745 0.4092 0.7089
vn -0.4390 0.4659 0.7683
vn -0.2960 0.5098 0.8077
vn -0.1562 0.5398 0.8272
vn -0.2417 0.9548 0.1731
vn -0.1892 0.9331 0.3058
vn -0.0998 0.9772 0.1875
vn -0.1286 0.8883 0.4409
vn -0.0375 0.9454 0.3238
vn 0.0544 0.9786 0.1985
vn -0.0634 0.8204 0.5683
vn 0.0288 0.8881 0.4588
vn 0.1227 0.9344 0.3345
vn 0.2111 0.9558 0.2047
vn 0.0016 0.7341 0.6790
vn 0.0944 0.8078 0.5819
vn 0.1895 0.8647 0.4652
vn 0.2797 0.8992 0.3364
vn 0.3589 0.9104 0.2058
vn 0.0623 0.6378 0.7677
vn 0.1545 0.7119 0.6851
vn 0.2499 0.7748 0.5808
vn 0.3414 0.8199 0.4596
vn 0.4225 0.8441 0.3302
vn 0.4892 0.8484 0.2022
vn 0.6850 0.7185 -0.1204
vn 0.7505 0.6265 -0.2104
vn 0.6400 0.7239 -0.2575
vn 0.8033 0.5134 -0.3017
vn 0.6990 0.6211 -0.3545
vn 0.5770 0.7131 -0.3983
vn 0.8375 0.3849 -0.3878
vn 0.7432 0.4974 -0.4475
vn 0.6272 0.5997 -0.4970
vn 0.4980 0.6843 -0.5326
vn 0.8507 0.2500 -0.4623
vn 0.7683 0.3607 -0.5288
vn 0.6623 0.4679 -0.5852
vn 0.5391 0.5629 -0.6266
vn 0.4088 0.6397 -0.6509
vn 0.8447 0.1187 -0.5219
vn 0.7737 0.2219 -0.5935
vn 0.6796 0.3274 -0.6564
vn 0.5665 0.4272 -0.7047
vn 0.4422 0.5142 -0.7349
vn 0.3166 0.5844 -0.7472
vn -0.0247 0.4417 -0.8968
vn -0.0479 0.3094 -0.9497
vn -0.1631 0.4007 -0.9016
vn -0.0715 0.1605 -0.9844
vn -0.1920 0.2573 -0.9471
vn -0.3075 0.3476 -0.8858
vn -0.0939 0.0040 -0.9956
vn -0.2174 0.1001 -0.9709
vn -0.3384 0.1961 -0.9203
vn -0.4478 0.2847 -0.8476
vn -0.1133 -0.1488 -0.9824
vn -0.2372 -0.0596 -0.9696
vn -0.3613 0.0356 -0.9318
vn -0.4761 0.1299 -0.8698
vn -0.5740 0.2164 -0.7898
vn -0.1289 -0.2884 -0.9488
vn -0.2503 -0.2103 -0.9451
vn -0.3745 -0.1218 -0.9192
vn -0.4924 -0.0282 -0.8699
vn -0.5958 0.0637 -0.8006
vn -0.6794 0.1481 -0.7187
vn -0.9099 0.0344 -0.4133
vn -0.9267 -0.0996 -0.3623
vn -0.9601 0.0259 -0.2783
vn -0.9233 -0.2408 -0.2993
vn -0.9698 -0.1137 -0.2159
vn -0.9917 0.0163 -0.1272
vn -0.8968 -0.3795 -0.2274
vn -0.9554 -0.2574 -0.1450
vn -0.9905 -0.1256 -0.0567
vn -0.9995 0.0062 0.0307
vn -0.8492 -0.5057 -0.1518
vn -0.9162 -0.3945 -0.0703
vn -0.9633 -0.2678 0.0170
vn -0.9855 -0.1342 0.1039
vn -0.9829 -0.0037 0.1842
vn -0.7865 -0.6127 -0.0780
vn -0.8568 -0.5156 0.0024
vn -0.9124 -0.3997 0.0885
vn -0.9466 -0.2712 0.1745
vn -0.9571 -0.1391 0.2544
vn -0.9461 -0.0129 0.3235
vn -0.7473 0.0596 0.6619
vn -0.6715 -0.0351 0.7402
vn -0.6497 0.1176 0.7510
vn -0.5749 -0.1358 0.8069
vn -0.5596 0.0209 0.8285
vn -0.5302 0.1771 0.8292
vn -0.4617 -0.2356 0.8552
vn -0.4508 -0.0812 0.8889
vn -0.4279 0.0793 0.9003
vn -0.3947 0.2338 0.8886
vn -0.3401 -0.3274 0.8816
vn -0.3304 -0.1812 0.9263
vn -0.3118 -0.0231 0.9499
vn -0.2852 0.1356 0.9488
vn -0.2529 0.2835 0.9250
vn -0.2192 -0.4061 0.8871
vn -0.2078 -0.2721 0.9396
vn -0.1907 -0.1223 0.9740
vn -0.1683 0.0341 0.9851
vn -0.1424 0.1861 0.9722
vn -0.1150 0.3239 0.9391
vn 0.2385 0.4824 0.8429
vn 0.3651 0.4136 0.8341
vn 0.3392 0.5490 0.7639
vn 0.4922 0.3303 0.8054
vn 0.4718 0.4750 0.7428
vn 0.4393 0.6077 0.6616
vn 0.6102 0.2368 0.7560
vn 0.5990 0.3853 0.7020
vn 0.5718 0.5275 0.6283
vn 0.5308 0.6528 0.5404
vn 0.7106 0.1396 0.6896
vn 0.7107 0.2856 0.6430
vn 0.6928 0.4316 0.5777
vn 0.6571 0.5664 0.4974
vn 0.6072 0.6812 0.4089
vn 0.7889 0.0459 0.6128
vn 0.7999 0.1837 0.5713
vn 0.7932 0.3271 0.5136
vn 0.7668 0.4657 0.4418
vn 0.7224 0.5899 0.3608
vn 0.6655 0.6930 0.2774
vn 0.2192 0.4061 -0.8871
vn 0.3401 0.3274 -0.8816
vn 0.2078 0.2721 -0.9396
vn 0.4617 0.2356 -0.8552
vn 0.3304 0.1812 -0.9263
vn 0.1907 0.1223 -0.9740
vn 0.5749 0.1358 -0.8069
vn 0.4508 0.0812 -0.8889
vn 0.3118 0.0231 -0.9499
vn 0.1683 -0.0341 -0.9851
vn 0.6715 0.0351 -0.7402
vn 0.5596 -0.0209 -0.8285
vn 0.4279 -0.0793 -0.9003
vn 0.2852 -0.1356 -0.9488
vn 0.1424 -0.1861 -0.9722
vn 0.7473 -0.0596 -0.6619
vn 0.6497 -0.1176 -0.7510
vn 0.5302 -0.1771 -0.8292
vn 0.3947 -0.2338 -0.8886
vn 0.2529 -0.2835 -0.9250
vn 0.1150 -0.3239 -0.9391
vn -0.7889 -0.0459 -0.6128
vn -0.7106 -0.1396 -0.6896
vn -0.7999 -0.1837 -0.5713
vn -0.6102 -0.2368 -0.7560
vn -0.7107 -0.2856 -0.6430
vn -0.7932 -0.3271 -0.5136
vn -0.4922 -0.3303 -0.8054
vn -0.5990 -0.3853 -0.7020
vn -0.6928 -0.4316 -0.5777
vn -0.7668 -0.4658 -0.4418
vn -0.3651 -0.4136 -0.8341
vn -0.4718 -0.4750 -0.7428
vn -0.5718 -0.5275 -0.6283
vn -0.6571 -0.5664 -0.4974
vn -0.7224 -0.5899 -0.3608
vn -0.2385 -0.4824 -0.8429
vn -0.3392 -0.5490 -0.7639
vn -0.4393 -0.6077 -0.6616
vn -0.5308 -0.6528 -0.5404
vn -0.6072 -0.6812 -0.4089
vn -0.6655 -0.6930 -0.2774
vn -0.8447 -0.1187 0.5219
vn -0.8507 -0.2500 0.4623
vn -0.7737 -0.2219 0.5935
vn -0.8375 -0.3849 0.3878
vn -0.7683 -0.3607 0.5288
vn -0.6796 -0.3274 0.6564
vn -0.8033 -0.5134 0.3017
vn -0.7432 -0.4974 0.4475
vn -0.6623 -0.4679 0.5852
vn -0.5665 -0.4272 0.7047
vn -0.7505 -0.6265 0.2104
vn -0.6990 -0.6211 0.3545
vn -0.6272 -0.5997 0.4970
vn -0.5391 -0.5629 0.6266
vn -0.4422 -0.5142 0.7349
vn -0.6850 -0.7185 0.1204
vn -0.6400 -0.7239 0.2575
vn -0.5770 -0.7131 0.3983
vn -0.4980 -0.6843 0.5326
vn -0.4088 -0.6397 0.6509
vn -0.3166 -0.5844 0.7472
vn 0.1289 0.2884 0.9488
vn 0.1133 0.1488 0.9823
vn 0.2503 0.2103 0.9451
vn 0.0939 -0.0040 0.9956
vn 0.2372 0.0596 0.9696
vn 0.3745 0.1218 0.9192
vn 0.0715 -0.1605 0.9844
vn 0.2174 -0.1001 0.9709
vn 0.3613 -0.0356 0.9318
vn 0.4924 0.0282 0.8699
vn 0.0479 -0.3094 0.9497
vn 0.1920 -0.2573 0.9471
vn 0.3384 -0.1961 0.9203
vn 0.4761 -0.1299 0.8698
vn 0.5958 -0.0637 0.8006
vn 0.0247 -0.4417 0.8968
vn 0.1631 -0.4007 0.9016
vn 0.3075 -0.3476 0.8858
vn 0.4478 -0.2847 0.8476
vn 0.5740 -0.2164 0.7898
vn 0.6794 -0.1481 0.7187
vn 0.7865 0.6127 0.0780
vn 0.8492 0.5057 0.1518
vn 0.8568 0.5156 -0.0024
vn 0.8968 0.3795 0.2274
vn 0.9162 0.3945 0.0703
vn 0.9124 0.3997 -0.0885
vn 0.9233 0.2408 0.2993
vn 0.9554 0.2574 0.1450
vn 0.9633 0.2678 -0.0170
vn 0.9466 0.2712 -0.1745
vn 0.9267 0.0996 0.3623
vn 0.9698 0.1137 0.2159
vn 0.9905 0.1256 0.0567
vn 0.9855 0.1342 -0.1039
vn 0.9571 0.1391 -0.2544
vn 0.9099 -0.0344 0.4133
vn 0.9601 -0.0259 0.2783
vn 0.9917 -0.0163 0.1272
vn 0.9995 -0.0062 -0.0307
vn 0.9829 0.0037 -0.1842
vn 0.9461 0.0129 -0.3235
vn 0.7885 -0.2755 -0.5500
vn 0.7565 -0.4103 -0.5093
vn 0.6929 -0.3439 -0.6337
vn 0.7048 -0.5451 -0.4540
vn 0.6478 -0.4833 -0.5889
vn 0.5745 -0.4092 -0.7089
vn 0.6344 -0.6697 -0.3860
vn 0.5841 -0.6175 -0.5268
vn 0.5173 -0.5478 -0.6575
vn 0.4390 -0.4659 -0.7683
vn 0.5504 -0.7751 -0.3101
vn 0.5053 -0.7356 -0.4511
vn 0.4451 -0.6756 -0.5878
vn 0.3734 -0.5980 -0.7092
vn 0.2960 -0.5098 -0.8077
vn 0.4602 -0.8568 -0.2326
vn 0.4181 -0.8304 -0.3681
vn 0.3634 -0.7830 -0.5048
vn 0.2983 -0.7151 -0.6322
vn 0.2274 -0.6315 -0.7413
vn 0.1562 -0.5398 -0.8272
vn -0.0623 -0.6378 -0.7677
vn -0.0016 -0.7341 -0.6790
vn -0.1545 -0.7119 -0.6851
vn 0.0634 -0.8204 -0.5683
vn -0.0944 -0.8078 -0.5819
vn -0.2499 -0.7748 -0.5808
vn 0.1286 -0.8883 -0.4409
vn -0.0288 -0.8881 -0.4588
vn -0.1895 -0.8647 -0.4652
vn -0.3414 -0.8199 -0.4596
vn 0.1892 -0.9331 -0.3058
vn 0.0375 -0.9454 -0.3238
vn -0.1227 -0.9344 -0.3345
vn -0.2797 -0.8992 -0.3364
vn -0.4226 -0.8441 -0.3302
vn 0.2417 -0.9548 -0.1731
vn 0.0998 -0.9772 -0.1875
vn -0.0544 -0.9786 -0.1985
vn -0.2111 -0.9558 -0.2047
vn -0.3590 -0.9104 -0.2058
vn -0.4892 -0.8484 -0.2022
vn -0.5013 -0.8642 0.0437
vn -0.3716 -0.9269 0.0520
vn -0.4475 -0.8766 0.1770
vn -0.2241 -0.9727 0.0596
vn -0.3056 -0.9330 0.1901
vn -0.3795 -0.8696 0.3158
vn -0.0674 -0.9956 0.0658
vn -0.1489 -0.9686 0.1990
vn -0.2286 -0.9157 0.3304
vn -0.3006 -0.8409 0.4501
vn 0.0872 -0.9937 0.0702
vn 0.0116 -0.9792 0.2027
vn -0.0679 -0.9391 0.3368
vn -0.1457 -0.8748 0.4621
vn -0.2163 -0.7924 0.5704
vn 0.2296 -0.9706 0.0728
vn 0.1642 -0.9656 0.2014
vn 0.0905 -0.9381 0.3345
vn 0.0128 -0.8865 0.4626
vn -0.0633 -0.8147 0.5765
vn -0.1330 -0.7300 0.6704
vn 0.9114 -0.2307 -0.3408
vn 0.9464 -0.2516 -0.2024
vn 0.8853 -0.3633 -0.2901
vn 0.9621 -0.2681 -0.0494
vn 0.9110 -0.3875 -0.1410
vn 0.8369 -0.4970 -0.2292
vn 0.9544 -0.2782 0.1085
vn 0.9150 -0.4030 0.0191
vn 0.8508 -0.5204 -0.0731
vn 0.7666 -0.6216 -0.1611
vn 0.9237 -0.2813 0.2601
vn 0.8953 -0.4080 0.1788
vn 0.8429 -0.5307 0.0889
vn 0.7685 -0.6398 -0.0033
vn 0.6793 -0.7282 -0.0909
vn 0.8752 -0.2780 0.3960
vn 0.8550 -0.4029 0.3265
vn 0.8136 -0.5274 0.2446
vn 0.7511 -0.6419 0.1547
vn 0.6717 -0.7381 0.0633
vn 0.5831 -0.8121 -0.0234
vn 0.0780 -0.6418 0.7629
vn 0.1578 -0.7222 0.6734
vn 0.2189 -0.6105 0.7612
vn 0.2396 -0.7917 0.5620
vn 0.3061 -0.6859 0.6602
vn 0.3648 -0.5628 0.7418
vn 0.3173 -0.8432 0.4339
vn 0.3898 -0.7478 0.5375
vn 0.4540 -0.6304 0.6297
vn 0.5051 -0.4998 0.7036
vn 0.3854 -0.8732 0.2983
vn 0.4634 -0.7903 0.4008
vn 0.5337 -0.6832 0.4983
vn 0.5902 -0.5585 0.5829
vn 0.6298 -0.4262 0.6493
vn 0.4406 -0.8824 0.1653
vn 0.5224 -0.8118 0.2610
vn 0.5979 -0.7174 0.3575
vn 0.6605 -0.6030 0.4474
vn 0.7057 -0.4766 0.5243
vn 0.7327 -0.3483 0.5847
vt 0.996055 0.136005
vt 0.967786 0.164196
vt 0.951027 0.121927
vt 0.880992 0.450770
vt 0.887027 0.414596
vt 0.900244 0.451024
vt 1.007867 0.098900
vt 1.042039 0.136340
vt 1.011761 0.171188
vt 0.886911 0.486950
vt 0.704555 0.300515
vt 0.727431 0.307772
vt 0.708107 0.338090
vt 0.453045 0.219811
vt 0.481691 0.206093
vt 0.471500 0.248724
vt 0.230762 0.350553
vt 0.246428 0.324060
vt 0.249345 0.368419
vt 0.058012 0.477314
vt 0.074917 0.459537
vt 0.071711 0.503735
vt 0.865590 0.473408
vt 0.684517 0.319244
vt 0.440209 0.253677
vt 0.227762 0.388201
vt 0.049721 0.511564
vt 0.730762 0.649447
vt 0.746428 0.675940
vt 0.720328 0.682929
vt 0.558012 0.522686
vt 0.574917 0.540463
vt 0.554614 0.560133
vt 0.380992 0.549230
vt 0.400244 0.548976
vt 0.387027 0.585404
vt 0.204555 0.699485
vt 0.227431 0.692228
vt 0.215990 0.733131
vt 0.953045 0.780189
vt 0.981691 0.793907
vt 0.948708 0.817893
vt 0.507867 0.901100
vt 0.451027 0.878073
vt 0.496054 0.863995
vt 0.538056 0.941405
vt 0.439908 0.919024
vt 0.678537 0.974096
vt 0.399245 0.963259
vt 0.883697 0.950765
vt 1.092569 0.976773
vt 0.926702 0.905505
vt 1.007504 0.930281
vt 0.941417 0.860075
vt 0.991660 0.881266
vt 0.985193 0.835246
vt 0.392969 0.881343
vt 0.348042 0.916656
vt 0.333890 0.868875
vt 0.092570 0.976773
vt 0.247645 0.939380
vt 0.276186 0.890195
vt 0.286940 0.842232
vt 0.007504 0.930281
vt 0.124054 0.926338
vt 0.199038 0.893419
vt 0.235001 0.850510
vt 0.254146 0.807338
vt 1.061079 0.888157
vt 0.061079 0.888157
vt 0.130127 0.873995
vt 0.179775 0.843746
vt 0.211359 0.806872
vt 0.231719 0.769744
vt 1.032441 0.844547
vt 0.032441 0.844547
vt 0.084977 0.840723
vt 0.132697 0.822959
vt 0.169754 0.795599
vt 0.196630 0.764287
vt 1.017079 0.802746
vt 0.017079 0.802746
vt 0.057327 0.803409
vt 0.097917 0.794024
vt 0.134114 0.775636
vt 0.163657 0.751528
vt 0.186731 0.725272
vt 0.467786 0.835804
vt 0.425369 0.842628
vt 0.377135 0.838595
vt 0.330935 0.821602
vt 0.292966 0.793928
vt 0.264293 0.760374
vt 0.243151 0.725466
vt 0.445399 0.800479
vt 0.407171 0.800455
vt 0.427879 0.759527
vt 0.366764 0.790598
vt 0.393913 0.753626
vt 0.414103 0.715101
vt 0.329003 0.770565
vt 0.359503 0.739574
vt 0.383951 0.704758
vt 0.403139 0.669748
vt 0.297136 0.742962
vt 0.327640 0.718133
vt 0.354155 0.688306
vt 0.376247 0.656652
vt 0.394285 0.625907
vt 0.271807 0.711783
vt 0.300189 0.691915
vt 0.326628 0.667071
vt 0.350060 0.639506
vt 0.370139 0.611661
vt 0.252121 0.680550
vt 0.277571 0.664085
vt 0.302520 0.643346
vt 0.325847 0.619739
vt 0.346829 0.595133
vt 0.365190 0.571242
vt 0.511761 0.828812
vt 0.485518 0.798971
vt 0.463494 0.761984
vt 0.445398 0.719633
vt 0.430624 0.674526
vt 0.418530 0.629558
vt 0.408553 0.587189
vt 0.523593 0.788181
vt 0.499587 0.756271
vt 0.532733 0.743209
vt 0.478557 0.717799
vt 0.510858 0.709340
vt 0.539962 0.695699
vt 0.460578 0.674889
vt 0.491081 0.670070
vt 0.520005 0.660573
vt 0.545800 0.647938
vt 0.445397 0.630451
vt 0.473632 0.627816
vt 0.501537 0.621619
vt 0.527529 0.612661
vt 0.550602 0.602184
vt 0.432627 0.587388
vt 0.458469 0.585488
vt 0.484835 0.581325
vt 0.510327 0.575228
vt 0.533802 0.567902
vt 0.421867 0.547850
vt 0.445396 0.545636
vt 0.469970 0.542269
vt 0.494465 0.537911
vt 0.517777 0.532921
vt 0.539096 0.527726
vt 0.542039 0.863660
vt 0.551379 0.823078
vt 0.558101 0.777400
vt 0.563153 0.728080
vt 0.567081 0.677372
vt 0.570220 0.627861
vt 0.572784 0.581768
vt 0.589792 0.851890
vt 0.591136 0.807132
vt 0.631701 0.828263
vt 0.592099 0.757832
vt 0.626590 0.781274
vt 0.664420 0.795635
vt 0.592822 0.705901
vt 0.622811 0.730452
vt 0.655633 0.748273
vt 0.688748 0.758173
vt 0.593386 0.653967
vt 0.619906 0.678190
vt 0.648825 0.698069
vt 0.678432 0.711967
vt 0.706767 0.719691
vt 0.593837 0.604659
vt 0.617606 0.627263
vt 0.643415 0.647644
vt 0.670071 0.664102
vt 0.696130 0.675802
vt 0.594207 0.559885
vt 0.615739 0.580043
vt 0.639020 0.599591
vt 0.663192 0.617069
vt 0.687178 0.631379
vt 0.709949 0.642097
vt 0.574881 0.897691
vt 0.635095 0.876816
vt 0.677568 0.842300
vt 0.705404 0.800516
vt 0.724000 0.756705
vt 0.736975 0.714480
vt 0.642895 0.926433
vt 0.702001 0.889645
vt 0.757243 0.931446
vt 0.731671 0.843467
vt 0.775468 0.881383
vt 0.845224 0.904864
vt 0.748373 0.794679
vt 0.783283 0.829352
vt 0.831213 0.854608
vt 0.888038 0.864918
vt 0.758867 0.747324
vt 0.787605 0.778504
vt 0.824081 0.803854
vt 0.866637 0.819349
vt 0.910115 0.823390
vt 0.766015 0.703874
vt 0.790345 0.731304
vt 0.819778 0.755427
vt 0.853498 0.773273
vt 0.889053 0.782968
vt 0.923102 0.784653
vt 0.971500 0.751276
vt 0.988485 0.716694
vt 1.000710 0.760348
vt 1.003831 0.677333
vt 1.017344 0.720788
vt 0.017520 0.634913
vt 0.031716 0.676734
vt 0.003831 0.677333
vt 0.029635 0.591711
vt 0.044069 0.630542
vt 0.040315 0.550014
vt 0.054679 0.584906
vt 0.063813 0.542150
vt 0.017343 0.720788
vt 0.034741 0.763828
vt 0.000710 0.760348
vt 0.049354 0.719274
vt 0.071233 0.759430
vt 0.061456 0.671229
vt 0.082243 0.710984
vt 0.106601 0.746646
vt 0.071532 0.622509
vt 0.091097 0.660628
vt 0.113350 0.696431
vt 0.137847 0.727274
vt 0.079988 0.575888
vt 0.098332 0.611259
vt 0.118727 0.646001
vt 0.140768 0.677664
vt 0.163742 0.704366
vt 0.087148 0.533386
vt 0.104330 0.565330
vt 0.123103 0.597944
vt 0.143113 0.629195
vt 0.163810 0.657204
vt 0.184517 0.680756
vt 0.208107 0.661910
vt 0.211580 0.619612
vt 0.230853 0.651128
vt 0.214975 0.573458
vt 0.234174 0.605184
vt 0.218290 0.525103
vt 0.237398 0.555753
vt 0.221526 0.476738
vt 0.240524 0.505034
vt 0.224683 0.430553
vt 0.243556 0.455580
vt 0.246496 0.409589
vt 0.255221 0.636103
vt 0.258210 0.587107
vt 0.280176 0.616967
vt 0.261091 0.535472
vt 0.282674 0.566102
vt 0.304528 0.594753
vt 0.263868 0.483826
vt 0.285070 0.513849
vt 0.306446 0.543625
vt 0.327245 0.571167
vt 0.266546 0.434796
vt 0.287369 0.462966
vt 0.308281 0.492491
vt 0.328580 0.521407
vt 0.347679 0.548001
vt 0.269128 0.390293
vt 0.289576 0.415812
vt 0.310037 0.443880
vt 0.329855 0.472828
vt 0.348491 0.500867
vt 0.365590 0.526591
vt 0.386911 0.513050
vt 0.393504 0.472369
vt 0.407632 0.510149
vt 0.400867 0.428088
vt 0.415820 0.466783
vt 0.409106 0.381897
vt 0.424898 0.420269
vt 0.418334 0.336030
vt 0.434948 0.372843
vt 0.428666 0.292722
vt 0.446041 0.327097
vt 0.458224 0.285262
vt 0.430749 0.506711
vt 0.440487 0.461387
vt 0.455589 0.502860
vt 0.451126 0.413811
vt 0.466568 0.456701
vt 0.481058 0.498839
vt 0.462687 0.366634
vt 0.478314 0.409518
vt 0.492742 0.453165
vt 0.505894 0.494946
vt 0.475160 0.322496
vt 0.490768 0.364062
vt 0.504935 0.407750
vt 0.517657 0.450963
vt 0.529007 0.491432
vt 0.488485 0.283306
vt 0.503831 0.322667
vt 0.517520 0.365087
vt 0.529635 0.408289
vt 0.540315 0.449986
vt 0.549721 0.488436
vt 0.571711 0.496265
vt 0.587148 0.466614
vt 0.590656 0.513253
vt 0.604330 0.434670
vt 0.608105 0.482737
vt 0.623103 0.402056
vt 0.627075 0.450176
vt 0.643113 0.370805
vt 0.647174 0.417533
vt 0.663810 0.342796
vt 0.667827 0.386975
vt 0.688356 0.360214
vt 0.611909 0.531984
vt 0.631055 0.500825
vt 0.635038 0.551472
vt 0.651217 0.468000
vt 0.655238 0.519851
vt 0.659231 0.570326
vt 0.671800 0.435696
vt 0.675725 0.487053
vt 0.679599 0.538417
vt 0.683417 0.587162
vt 0.692130 0.406024
vt 0.695836 0.455320
vt 0.699473 0.505901
vt 0.703038 0.555216
vt 0.706530 0.601068
vt 0.711580 0.380388
vt 0.714975 0.426542
vt 0.718290 0.474897
vt 0.721526 0.523262
vt 0.724683 0.569447
vt 0.727762 0.611799
vt 0.749345 0.631581
vt 0.769128 0.609707
vt 0.767696 0.656797
vt 0.789576 0.584188
vt 0.789791 0.632832
vt 0.810037 0.556120
vt 0.811892 0.604723
vt 0.829855 0.527172
vt 0.833178 0.574069
vt 0.848491 0.499133
vt 0.852997 0.543002
vt 0.870954 0.513517
vt 0.790043 0.682661
vt 0.814068 0.655833
vt 0.816654 0.706914
vt 0.837041 0.624628
vt 0.841580 0.676473
vt 0.846981 0.726819
vt 0.858168 0.591272
vt 0.864148 0.642005
vt 0.871121 0.692533
vt 0.879323 0.740179
vt 0.877020 0.558273
vt 0.883912 0.606284
vt 0.891779 0.655311
vt 0.900797 0.702750
vt 0.911166 0.746341
vt 0.893504 0.527631
vt 0.900867 0.571912
vt 0.909106 0.618103
vt 0.918334 0.663970
vt 0.928666 0.707278
vt 0.940209 0.746323
vt 0.188356 0.639786
vt 0.167827 0.613025
vt 0.147174 0.582467
vt 0.127075 0.549823
vt 0.108105 0.517263
vt 0.090656 0.486747
vt 0.192130 0.593976
vt 0.171800 0.564304
vt 0.195836 0.544680
vt 0.151217 0.531999
vt 0.175725 0.512947
vt 0.199473 0.494099
vt 0.131055 0.499175
vt 0.155238 0.480149
vt 0.179599 0.461583
vt 0.203038 0.444783
vt 0.111909 0.468015
vt 0.135038 0.448527
vt 0.159231 0.429674
vt 0.183417 0.412838
vt 0.206530 0.398932
vt 0.094207 0.440115
vt 0.115739 0.419957
vt 0.139020 0.400409
vt 0.163192 0.382931
vt 0.187178 0.368621
vt 0.209949 0.357903
vt 0.370954 0.486483
vt 0.352997 0.456998
vt 0.333178 0.425931
vt 0.311892 0.395277
vt 0.289790 0.367168
vt 0.267696 0.343203
vt 0.377020 0.441727
vt 0.358168 0.408728
vt 0.383911 0.393715
vt 0.337041 0.375372
vt 0.364147 0.357995
vt 0.391779 0.344688
vt 0.314067 0.344167
vt 0.341580 0.323527
vt 0.371121 0.307466
vt 0.400797 0.297249
vt 0.290043 0.317339
vt 0.316654 0.293086
vt 0.346981 0.273180
vt 0.379323 0.259820
vt 0.411166 0.253659
vt 0.266015 0.296126
vt 0.290345 0.268696
vt 0.319778 0.244573
vt 0.353498 0.226727
vt 0.389053 0.217032
vt 0.423102 0.215347
vt 0.563813 0.457850
vt 0.554679 0.415094
vt 0.544069 0.369458
vt 0.531716 0.323266
vt 0.517344 0.279212
vt 0.500710 0.239652
vt 0.579988 0.424112
vt 0.571532 0.377491
vt 0.598332 0.388741
vt 0.561456 0.328771
vt 0.591098 0.339372
vt 0.618727 0.353999
vt 0.549355 0.280726
vt 0.582243 0.289016
vt 0.613350 0.303569
vt 0.640768 0.322336
vt 0.534741 0.236172
vt 0.571233 0.240570
vt 0.606602 0.253354
vt 0.637848 0.272727
vt 0.663742 0.295634
vt 0.517079 0.197254
vt 0.557327 0.196591
vt 0.597917 0.205976
vt 0.634114 0.224363
vt 0.663657 0.248472
vt 0.686731 0.274727
vt 0.746496 0.590411
vt 0.743556 0.544420
vt 0.740524 0.494966
vt 0.737398 0.444247
vt 0.734174 0.394816
vt 0.730853 0.348871
vt 0.766546 0.565204
vt 0.763868 0.516174
vt 0.787369 0.537034
vt 0.761091 0.464528
vt 0.785070 0.486151
vt 0.808281 0.507509
vt 0.758210 0.412893
vt 0.782674 0.433898
vt 0.806446 0.456375
vt 0.828580 0.478593
vt 0.755221 0.363897
vt 0.780176 0.383033
vt 0.804528 0.405246
vt 0.827245 0.428833
vt 0.847679 0.451999
vt 0.752121 0.319450
vt 0.777571 0.335915
vt 0.802520 0.356654
vt 0.825847 0.380260
vt 0.846829 0.404867
vt 0.865190 0.428758
vt 0.958224 0.714738
vt 0.946041 0.672903
vt 0.934948 0.627157
vt 0.924898 0.579731
vt 0.915820 0.533217
vt 0.907632 0.489851
vt 0.975160 0.677504
vt 0.962687 0.633367
vt 0.990768 0.635939
vt 1.017520 0.634913
vt 0.951126 0.586189
vt 0.978314 0.590482
vt 1.004935 0.592250
vt 0.004935 0.592250
vt 0.940487 0.538613
vt 0.966569 0.543299
vt 0.992742 0.546835
vt 1.017657 0.549038
vt 0.017657 0.549038
vt 0.930749 0.493289
vt 0.955589 0.497140
vt 0.981058 0.501161
vt 1.005894 0.505054
vt 0.005894 0.505054
vt 0.029007 0.508568
vt 0.921867 0.452150
vt 0.945396 0.454364
vt 0.969970 0.457731
vt 0.994465 0.462089
vt 1.017777 0.467079
vt 0.017777 0.467079
vt 0.039096 0.472274
vt 0.054614 0.439867
vt 0.050602 0.397816
vt 0.072784 0.418232
vt 0.045800 0.352061
vt 0.070221 0.372139
vt 0.039962 0.304301
vt 0.067082 0.322628
vt 0.032733 0.256791
vt 0.063153 0.271920
vt 0.023593 0.211819
vt 0.058101 0.222600
vt 0.011761 0.171188
vt 0.051380 0.176922
vt 0.093837 0.395341
vt 0.093386 0.346033
vt 0.117606 0.372737
vt 0.092823 0.294099
vt 0.119907 0.321810
vt 0.143415 0.352356
vt 0.092099 0.242168
vt 0.122811 0.269548
vt 0.148826 0.301932
vt 0.170071 0.335898
vt 0.091137 0.192869
vt 0.126590 0.218727
vt 0.155633 0.251727
vt 0.178433 0.288034
vt 0.196130 0.324198
vt 0.042039 0.136340
vt 0.089792 0.148110
vt 0.131701 0.171737
vt 0.164420 0.204365
vt 0.188748 0.241827
vt 0.206767 0.280310
vt 0.220328 0.317071
vt 0.236975 0.285520
vt 0.224001 0.243295
vt 0.205405 0.199484
vt 0.177568 0.157700
vt 0.135096 0.123184
vt 0.074881 0.102309
vt 0.258868 0.252675
vt 0.248374 0.205320
vt 0.287606 0.221496
vt 0.231672 0.156533
vt 0.283284 0.170648
vt 0.324082 0.196146
vt 0.202001 0.110355
vt 0.275469 0.118617
vt 0.331214 0.145392
vt 0.366638 0.180651
vt 0.142896 0.073567
vt 0.257244 0.068554
vt 0.345225 0.095136
vt 0.388039 0.135082
vt 0.410115 0.176610
vt 0.007867 0.098900
vt 0.038056 0.058596
vt 0.178537 0.025904
vt 0.383696 0.049235
vt 0.426702 0.094495
vt 0.441417 0.139925
vt 0.448708 0.182107
vt 0.485193 0.164755
vt 0.491660 0.118735
vt 0.507503 0.069719
vt 0.592569 0.023227
vt 1.038056 0.058596
vt 0.899244 0.036740
vt 1.178537 0.025904
vt 0.939907 0.080976
vt 0.532441 0.155453
vt 0.561078 0.111843
vt 0.584976 0.159277
vt 0.624053 0.073662
vt 0.630127 0.126005
vt 0.632696 0.177041
vt 0.747644 0.060620
vt 0.699038 0.106581
vt 0.679775 0.156254
vt 0.669754 0.204401
vt 0.848041 0.083344
vt 0.776185 0.109805
vt 0.735000 0.149490
vt 0.711358 0.193128
vt 0.696630 0.235713
vt 0.892969 0.118657
vt 0.833890 0.131125
vt 0.786940 0.157768
vt 0.754146 0.192662
vt 0.731719 0.230256
vt 0.715990 0.266869
vt 0.033802 0.432098
vt 1.010327 0.424772
vt 0.984835 0.418675
vt 0.958469 0.414512
vt 0.932627 0.412612
vt 0.908553 0.412811
vt 0.010327 0.424772
vt 0.027529 0.387339
vt 1.001537 0.378381
vt 0.001537 0.378381
vt 0.020005 0.339427
vt 0.973632 0.372185
vt 0.991081 0.329930
vt 1.020005 0.339427
vt 1.010858 0.290660
vt 0.010858 0.290660
vt 0.945397 0.369550
vt 0.960578 0.325111
vt 0.978557 0.282202
vt 0.999587 0.243729
vt 1.032733 0.256791
vt 1.023593 0.211819
vt 0.918529 0.370443
vt 0.930624 0.325474
vt 0.945398 0.280368
vt 0.963493 0.238017
vt 0.985518 0.201029
vt 0.894285 0.374093
vt 0.903139 0.330252
vt 0.914103 0.284899
vt 0.927879 0.240473
vt 0.945400 0.199521
vt 0.743151 0.274534
vt 0.764293 0.239626
vt 0.792966 0.206072
vt 0.830935 0.178398
vt 0.877135 0.161405
vt 0.925369 0.157372
vt 0.771807 0.288217
vt 0.797136 0.257039
vt 0.800190 0.308085
vt 0.829003 0.229436
vt 0.827640 0.281867
vt 0.826629 0.332929
vt 0.866764 0.209403
vt 0.859503 0.260427
vt 0.854155 0.311695
vt 0.850060 0.360494
vt 0.907171 0.199545
vt 0.893913 0.246375
vt 0.883951 0.295243
vt 0.876247 0.343349
vt 0.870139 0.388339
s 1
f 1/1/1 20/2/20 19/3/19
f 2/4/2 26/5/26 40/6/40
f 1/1/1 19/3/19 54/7/54
f 1/1/1 54/7/54 68/8/68
f 1/1/1 68/8/68 41/9/41
f 2/4/2 40/6/40 89/10/89
f 3/11/3 33/12/33 103/13/103
f 4/14/4 61/15/61 117/16/117
f 5/17/5 75/18/75 131/19/131
f 6/20/6 82/21/82 145/22/145
f 2/4/2 89/10/89 104/23/104
f 3/11/3 103/13/103 118/24/118
f 4/14/4 117/16/117 132/25/132
f 5/17/5 131/19/131 146/26/146
f 6/20/6 145/22/145 90/27/90
f 7/28/7 159/29/159 194/30/194
f 8/31/8 166/32/166 208/33/208
f 9/34/9 173/35/173 215/36/215
f 10/37/10 180/38/180 222/39/222
f 11/40/11 187/41/187 195/42/195
f 201/43/201 216/44/216 12/45/12
f 200/46/200 223/47/223 201/43/201
f 199/48/199 224/49/224 200/46/200
f 198/50/198 226/51/226 199/48/199
f 197/52/197 229/53/229 198/50/198
f 196/54/196 233/55/233 197/52/197
f 195/42/195 238/56/238 196/54/196
f 201/43/201 223/47/223 216/44/216
f 223/47/223 217/57/217 216/44/216
f 200/46/200 224/49/224 223/47/223
f 224/49/224 225/58/225 223/47/223
f 223/47/223 225/58/225 217/57/217
f 225/58/225 218/59/218 217/57/217
f 199/48/199 226/60/226 224/49/224
f 226/60/226 227/61/227 224/49/224
f 224/49/224 227/61/227 225/58/225
f 227/61/227 228/62/228 225/58/225
f 225/58/225 228/62/228 218/59/218
f 228/62/228 219/63/219 218/59/218
f 198/50/198 229/53/229 226/51/226
f 229/64/229 230/65/230 226/60/226
f 226/60/226 230/65/230 227/61/227
f 230/65/230 231/66/231 227/61/227
f 227/61/227 231/66/231 228/62/228
f 231/66/231 232/67/232 228/62/228
f 228/62/228 232/67/232 219/63/219
f 232/67/232 220/68/220 219/63/219
f 197/52/197 233/55/233 229/53/229
f 233/55/233 234/69/234 229/53/229
f 229/64/229 234/70/234 230/65/230
f 234/70/234 235/71/235 230/65/230
f 230/65/230 235/71/235 231/66/231
f 235/71/235 236/72/236 231/66/231
f 231/66/231 236/72/236 232/67/232
f 236/72/236 237/73/237 232/67/232
f 232/67/232 237/73/237 220/68/220
f 237/73/237 221/74/221 220/68/220
f 196/54/196 238/56/238 233/55/233
f 238/56/238 239/75/239 233/55/233
f 233/55/233 239/75/239 234/69/234
f 239/76/239 240/77/240 234/70/234
f 234/70/234 240/77/240 235/71/235
f 240/77/240 241/78/241 235/71/235
f 235/71/235 241/78/241 236/72/236
f 241/78/241 242/79/242 236/72/236
f 236/72/236 242/79/242 237/73/237
f 242/79/242 243/80/243 237/73/237
f 237/73/237 243/80/243 221/74/221
f 243/80/243 222/39/222 221/74/221
f 195/42/195 187/41/187 238/56/238
f 187/41/187 186/81/186 238/56/238
f 238/56/238 186/81/186 239/75/239
f 186/82/186 185/83/185 239/76/239
f 239/76/239 185/83/185 240/77/240
f 185/83/185 184/84/184 240/77/240
f 240/77/240 184/84/184 241/78/241
f 184/84/184 183/85/183 241/78/241
f 241/78/241 183/85/183 242/79/242
f 183/85/183 182/86/182 242/79/242
f 242/79/242 182/86/182 243/80/243
f 182/86/182 181/87/181 243/80/243
f 243/80/243 181/87/181 222/39/222
f 181/87/181 10/37/10 222/39/222
f 216/44/216 209/88/209 12/45/12
f 217/57/217 244/89/244 216/44/216
f 218/59/218 245/90/245 217/57/217
f 219/63/219 247/91/247 218/59/218
f 220/68/220 250/92/250 219/63/219
f 221/74/221 254/93/254 220/68/220
f 222/39/222 259/94/259 221/74/221
f 216/44/216 244/89/244 209/88/209
f 244/89/244 210/95/210 209/88/209
f 217/57/217 245/90/245 244/89/244
f 245/90/245 246/96/246 244/89/244
f 244/89/244 246/96/246 210/95/210
f 246/96/246 211/97/211 210/95/210
f 218/59/218 247/91/247 245/90/245
f 247/91/247 248/98/248 245/90/245
f 245/90/245 248/98/248 246/96/246
f 248/98/248 249/99/249 246/96/246
f 246/96/246 249/99/249 211/97/211
f 249/99/249 212/100/212 211/97/211
f 219/63/219 250/92/250 247/91/247
f 250/92/250 251/101/251 247/91/247
f 247/91/247 251/101/251 248/98/248
f 251/101/251 252/102/252 248/98/248
f 248/98/248 252/102/252 249/99/249
f 252/102/252 253/103/253 249/99/249
f 249/99/249 253/103/253 212/100/212
f 253/103/253 213/104/213 212/100/212
f 220/68/220 254/93/254 250/92/250
f 254/93/254 255/105/255 250/92/250
f 250/92/250 255/105/255 251/101/251
f 255/105/255 256/106/256 251/101/251
f 251/101/251 256/106/256 252/102/252
f 256/106/256 257/107/257 252/102/252
f 252/102/252 257/107/257 253/103/253
f 257/107/257 258/108/258 253/103/253
f 253/103/253 258/108/258 213/104/213
f 258/108/258 214/109/214 213/104/213
f 221/74/221 259/94/259 254/93/254
f 259/94/259 260/110/260 254/93/254
f 254/93/254 260/110/260 255/105/255
f 260/110/260 261/111/261 255/105/255
f 255/105/255 261/111/261 256/106/256
f 261/111/261 262/112/262 256/106/256
f 256/106/256 262/112/262 257/107/257
f 262/112/262 263/113/263 257/107/257
f 257/107/257 263/113/263 258/108/258
f 263/113/263 264/114/264 258/108/258
f 258/108/258 264/114/264 214/109/214
f 264/114/264 215/36/215 214/109/214
f 222/39/222 180/38/180 259/94/259
f 180/38/180 179/115/179 259/94/259
f 259/94/259 179/115/179 260/110/260
f 179/115/179 178/116/178 260/110/260
f 260/110/260 178/116/178 261/111/261
f 178/116/178 177/117/177 261/111/261
f 261/111/261 177/117/177 262/112/262
f 177/117/177 176/118/176 262/112/262
f 262/112/262 176/118/176 263/113/263
f 176/118/176 175/119/175 263/113/263
f 263/113/263 175/119/175 264/114/264
f 175/119/175 174/120/174 264/114/264
f 264/114/264 174/120/174 215/36/215
f 174/120/174 9/34/9 215/36/215
f 209/88/209 202/121/202 12/45/12
f 210/95/210 265/122/265 209/88/209
f 211/97/211 266/123/266 210/95/210
f 212/100/212 268/124/268 211/97/211
f 213/104/213 271/125/271 212/100/212
f 214/109/214 275/126/275 213/104/213
f 215/36/215 280/127/280 214/109/214
f 209/88/209 265/122/265 202/121/202
f 265/122/265 203/128/203 202/121/202
f 210/95/210 266/123/266 265/122/265
f 266/123/266 267/129/267 265/122/265
f 265/122/265 267/129/267 203/128/203
f 267/129/267 204/130/204 203/128/203
f 211/97/211 268/124/268 266/123/266
f 268/124/268 269/131/269 266/123/266
f 266/123/266 269/131/269 267/129/267
f 269/131/269 270/132/270 267/129/267
f 267/129/267 270/132/270 204/130/204
f 270/132/270 205/133/205 204/130/204
f 212/100/212 271/125/271 268/124/268
f 271/125/271 272/134/272 268/124/268
f 268/124/268 272/134/272 269/131/269
f 272/134/272 273/135/273 269/131/269
f 269/131/269 273/135/273 270/132/270
f 273/135/273 274/136/274 270/132/270
f 270/132/270 274/136/274 205/133/205
f 274/136/274 206/137/206 205/133/205
f 213/104/213 275/126/275 271/125/271
f 275/126/275 276/138/276 271/125/271
f 271/125/271 276/138/276 272/134/272
f 276/138/276 277/139/277 272/134/272
f 272/134/272 277/139/277 273/135/273
f 277/139/277 278/140/278 273/135/273
f 273/135/273 278/140/278 274/136/274
f 278/140/278 279/141/279 274/136/274
f 274/136/274 279/141/279 206/137/206
f 279/141/279 207/142/207 206/137/206
f 214/109/214 280/127/280 275/126/275
f 280/127/280 281/143/281 275/126/275
f 275/126/275 281/143/281 276/138/276
f 281/143/281 282/144/282 276/138/276
f 276/138/276 282/144/282 277/139/277
f 282/144/282 283/145/283 277/139/277
f 277/139/277 283/145/283 278/140/278
f 283/145/283 284/146/284 278/140/278
f 278/140/278 284/146/284 279/141/279
f 284/146/284 285/147/285 279/141/279
f 279/141/279 285/147/285 207/142/207
f 285/147/285 208/33/208 207/142/207
f 215/36/215 173/35/173 280/127/280
f 173/35/173 172/148/172 280/127/280
f 280/127/280 172/148/172 281/143/281
f 172/148/172 171/149/171 281/143/281
f 281/143/281 171/149/171 282/144/282
f 171/149/171 170/150/170 282/144/282
f 282/144/282 170/150/170 283/145/283
f 170/150/170 169/151/169 283/145/283
f 283/145/283 169/151/169 284/146/284
f 169/151/169 168/152/168 284/146/284
f 284/146/284 168/152/168 285/147/285
f 168/152/168 167/153/167 285/147/285
f 285/147/285 167/153/167 208/33/208
f 167/153/167 8/31/8 208/33/208
f 202/121/202 188/154/188 12/45/12
f 203/128/203 286/155/286 202/121/202
f 204/130/204 287/156/287 203/128/203
f 205/133/205 289/157/289 204/130/204
f 206/137/206 292/158/292 205/133/205
f 207/142/207 296/159/296 206/137/206
f 208/33/208 301/160/301 207/142/207
f 202/121/202 286/155/286 188/154/188
f 286/155/286 189/161/189 188/154/188
f 203/128/203 287/156/287 286/155/286
f 287/156/287 288/162/288 286/155/286
f 286/155/286 288/162/288 189/161/189
f 288/162/288 190/163/190 189/161/189
f 204/130/204 289/157/289 287/156/287
f 289/157/289 290/164/290 287/156/287
f 287/156/287 290/164/290 288/162/288
f 290/164/290 291/165/291 288/162/288
f 288/162/288 291/165/291 190/163/190
f 291/165/291 191/166/191 190/163/190
f 205/133/205 292/158/292 289/157/289
f 292/158/292 293/167/293 289/157/289
f 289/157/289 293/167/293 290/164/290
f 293/167/293 294/168/294 290/164/290
f 290/164/290 294/168/294 291/165/291
f 294/168/294 295/169/295 291/165/291
f 291/165/291 295/169/295 191/166/191
f 295/169/295 192/170/192 191/166/191
f 206/137/206 296/159/296 292/158/292
f 296/159/296 297/171/297 292/158/292
f 292/158/292 297/171/297 293/167/293
f 297/171/297 298/172/298 293/167/293
f 293/167/293 298/172/298 294/168/294
f 298/172/298 299/173/299 294/168/294
f 294/168/294 299/173/299 295/169/295
f 299/173/299 300/174/300 295/169/295
f 295/169/295 300/174/300 192/170/192
f 300/174/300 193/175/193 192/170/192
f 207/142/207 301/160/301 296/159/296
f 301/160/301 302/176/302 296/159/296
f 296/159/296 302/176/302 297/171/297
f 302/176/302 303/177/303 297/171/297
f 297/171/297 303/177/303 298/172/298
f 303/177/303 304/178/304 298/172/298
f 298/172/298 304/178/304 299/173/299
f 304/178/304 305/179/305 299/173/299
f 299/173/299 305/179/305 300/174/300
f 305/179/305 306/180/306 300/174/300
f 300/174/300 306/180/306 193/175/193
f 306/180/306 194/30/194 193/175/193
f 208/33/208 166/32/166 301/160/301
f 166/32/166 165/181/165 301/160/301
f 301/160/301 165/181/165 302/176/302
f 165/181/165 164/182/164 302/176/302
f 302/176/302 164/182/164 303/177/303
f 164/182/164 163/183/163 303/177/303
f 303/177/303 163/183/163 304/178/304
f 163/183/163 162/184/162 304/178/304
f 304/178/304 162/184/162 305/179/305
f 162/184/162 161/185/161 305/179/305
f 305/179/305 161/185/161 306/180/306
f 161/185/161 160/186/160 306/180/306
f 306/180/306 160/186/160 194/30/194
f 160/186/160 7/28/7 194/30/194
f 188/154/188 201/43/201 12/45/12
f 189/161/189 307/187/307 188/154/188
f 190/163/190 308/188/308 189/161/189
f 191/166/191 310/189/310 190/163/190
f 192/170/192 313/190/313 191/166/191
f 193/175/193 317/191/317 192/170/192
f 194/30/194 322/192/322 193/175/193
f 188/154/188 307/187/307 201/43/201
f 307/187/307 200/46/200 201/43/201
f 189/161/189 308/188/308 307/187/307
f 308/188/308 309/193/309 307/187/307
f 307/187/307 309/193/309 200/46/200
f 309/193/309 199/48/199 200/46/200
f 190/163/190 310/189/310 308/188/308
f 310/189/310 311/194/311 308/188/308
f 308/188/308 311/194/311 309/193/309
f 311/194/311 312/195/312 309/193/309
f 309/193/309 312/195/312 199/48/199
f 312/195/312 198/50/198 199/48/199
f 191/166/191 313/190/313 310/189/310
f 313/190/313 314/196/314 310/189/310
f 310/189/310 314/196/314 311/194/311
f 314/196/314 315/197/315 311/194/311
f 311/194/311 315/197/315 312/195/312
f 315/197/315 316/198/316 312/195/312
f 312/195/312 316/198/316 198/50/198
f 316/198/316 197/52/197 198/50/198
f 192/170/192 317/191/317 313/190/313
f 317/191/317 318/199/318 313/190/313
f 313/190/313 318/199/318 314/196/314
f 318/199/318 319/200/319 314/196/314
f 314/196/314 319/200/319 315/197/315
f 319/200/319 320/201/320 315/197/315
f 315/197/315 320/201/320 316/198/316
f 320/201/320 321/202/321 316/198/316
f 316/198/316 321/202/321 197/52/197
f 321/202/321 196/54/196 197/52/197
f 193/175/193 322/192/322 317/191/317
f 322/192/322 323/203/323 317/191/317
f 317/191/317 323/203/323 318/199/318
f 323/203/323 324/204/324 318/199/318
f 318/199/318 324/204/324 319/200/319
f 324/204/324 325/205/325 319/200/319
f 319/200/319 325/205/325 320/201/320
f 325/205/325 326/206/326 320/201/320
f 320/201/320 326/206/326 321/202/321
f 326/206/326 327/207/327 321/202/321
f 321/202/321 327/207/327 196/54/196
f 327/207/327 195/42/195 196/54/196
f 194/30/194 159/29/159 322/192/322
f 159/29/159 158/208/158 322/192/322
f 322/192/322 158/208/158 323/203/323
f 158/208/158 157/209/157 323/203/323
f 323/203/323 157/209/157 324/204/324
f 157/209/157 156/210/156 324/204/324
f 324/204/324 156/210/156 325/205/325
f 156/210/156 155/211/155 325/205/325
f 325/205/325 155/211/155 326/206/326
f 155/211/155 154/212/154 326/206/326
f 326/206/326 154/212/154 327/207/327
f 154/212/154 153/213/153 327/207/327
f 327/207/327 153/213/153 195/42/195
f 153/213/153 11/40/11 195/42/195
f 96/214/96 187/41/187 11/40/11
f 95/215/95 328/216/328 96/214/96
f 94/217/94 329/218/329 95/215/95
f 93/219/93 331/220/331 94/221/94
f 92/222/92 334/223/334 93/219/93
f 91/224/91 338/225/338 92/222/92
f 90/27/90 343/226/343 91/224/91
f 96/214/96 328/216/328 187/41/187
f 328/216/328 186/81/186 187/41/187
f 95/215/95 329/218/329 328/216/328
f 329/227/329 330/228/330 328/229/328
f 328/229/328 330/228/330 186/82/186
f 330/228/330 185/83/185 186/82/186
f 94/221/94 331/220/331 329/227/329
f 331/220/331 332/230/332 329/227/329
f 329/227/329 332/230/332 330/228/330
f 332/230/332 333/231/333 330/228/330
f 330/228/330 333/231/333 185/83/185
f 333/231/333 184/84/184 185/83/185
f 93/219/93 334/223/334 331/220/331
f 334/223/334 335/232/335 331/220/331
f 331/220/331 335/232/335 332/230/332
f 335/232/335 336/233/336 332/230/332
f 332/230/332 336/233/336 333/231/333
f 336/233/336 337/234/337 333/231/333
f 333/231/333 337/234/337 184/84/184
f 337/234/337 183/85/183 184/84/184
f 92/222/92 338/225/338 334/223/334
f 338/225/338 339/235/339 334/223/334
f 334/223/334 339/235/339 335/232/335
f 339/235/339 340/236/340 335/232/335
f 335/232/335 340/236/340 336/233/336
f 340/236/340 341/237/341 336/233/336
f 336/233/336 341/237/341 337/234/337
f 341/237/341 342/238/342 337/234/337
f 337/234/337 342/238/342 183/85/183
f 342/238/342 182/86/182 183/85/183
f 91/224/91 343/226/343 338/225/338
f 343/226/343 344/239/344 338/225/338
f 338/225/338 344/239/344 339/235/339
f 344/239/344 345/240/345 339/235/339
f 339/235/339 345/240/345 340/236/340
f 345/240/345 346/241/346 340/236/340
f 340/236/340 346/241/346 341/237/341
f 346/241/346 347/242/347 341/237/341
f 341/237/341 347/242/347 342/238/342
f 347/242/347 348/243/348 342/238/342
f 342/238/342 348/243/348 182/86/182
f 348/243/348 181/87/181 182/86/182
f 90/27/90 145/22/145 343/226/343
f 145/22/145 144/244/144 343/226/343
f 343/226/343 144/244/144 344/239/344
f 144/244/144 143/245/143 344/239/344
f 344/239/344 143/245/143 345/240/345
f 143/245/143 142/246/142 345/240/345
f 345/240/345 142/246/142 346/241/346
f 142/246/142 141/247/141 346/241/346
f 346/241/346 141/247/141 347/242/347
f 141/247/141 140/248/140 347/242/347
f 347/242/347 140/248/140 348/243/348
f 140/248/140 139/249/139 348/243/348
f 348/243/348 139/249/139 181/87/181
f 139/249/139 10/37/10 181/87/181
f 152/250/152 180/38/180 10/37/10
f 151/251/151 349/252/349 152/250/152
f 150/253/150 350/254/350 151/251/151
f 149/255/149 352/256/352 150/253/150
f 148/257/148 355/258/355 149/255/149
f 147/259/147 359/260/359 148/257/148
f 146/26/146 364/261/364 147/259/147
f 152/250/152 349/252/349 180/38/180
f 349/252/349 179/115/179 180/38/180
f 151/251/151 350/254/350 349/252/349
f 350/254/350 351/262/351 349/252/349
f 349/252/349 351/262/351 179/115/179
f 351/262/351 178/116/178 179/115/179
f 150/253/150 352/256/352 350/254/350
f 352/256/352 353/263/353 350/254/350
f 350/254/350 353/263/353 351/262/351
f 353/263/353 354/264/354 351/262/351
f 351/262/351 354/264/354 178/116/178
f 354/264/354 177/117/177 178/116/178
f 149/255/149 355/258/355 352/256/352
f 355/258/355 356/265/356 352/256/352
f 352/256/352 356/265/356 353/263/353
f 356/265/356 357/266/357 353/263/353
f 353/263/353 357/266/357 354/264/354
f 357/266/357 358/267/358 354/264/354
f 354/264/354 358/267/358 177/117/177
f 358/267/358 176/118/176 177/117/177
f 148/257/148 359/260/359 355/258/355
f 359/260/359 360/268/360 355/258/355
f 355/258/355 360/268/360 356/265/356
f 360/268/360 361/269/361 356/265/356
f 356/265/356 361/269/361 357/266/357
f 361/269/361 362/270/362 357/266/357
f 357/266/357 362/270/362 358/267/358
f 362/270/362 363/271/363 358/267/358
f 358/267/358 363/271/363 176/118/176
f 363/271/363 175/119/175 176/118/176
f 147/259/147 364/261/364 359/260/359
f 364/261/364 365/272/365 359/260/359
f 359/260/359 365/272/365 360/268/360
f 365/272/365 366/273/366 360/268/360
f 360/268/360 366/273/366 361/269/361
f 366/273/366 367/274/367 361/269/361
f 361/269/361 367/274/367 362/270/362
f 367/274/367 368/275/368 362/270/362
f 362/270/362 368/275/368 363/271/363
f 368/275/368 369/276/369 363/271/363
f 363/271/363 369/276/369 175/119/175
f 369/276/369 174/120/174 175/119/175
f 146/26/146 131/19/131 364/261/364
f 131/19/131 130/277/130 364/261/364
f 364/261/364 130/277/130 365/272/365
f 130/277/130 129/278/129 365/272/365
f 365/272/365 129/278/129 366/273/366
f 129/278/129 128/279/128 366/273/366
f 366/273/366 128/279/128 367/274/367
f 128/279/128 127/280/127 367/274/367
f 367/274/367 127/280/127 368/275/368
f 127/280/127 126/281/126 368/275/368
f 368/275/368 126/281/126 369/276/369
f 126/281/126 125/282/125 369/276/369
f 369/276/369 125/282/125 174/120/174
f 125/282/125 9/34/9 174/120/174
f 138/283/138 173/35/173 9/34/9
f 137/284/137 370/285/370 138/283/138
f 136/286/136 371/287/371 137/284/137
f 135/288/135 373/289/373 136/286/136
f 134/290/134 376/291/376 135/288/135
f 133/292/133 380/293/380 134/290/134
f 132/25/132 385/294/385 133/292/133
f 138/283/138 370/285/370 173/35/173
f 370/285/370 172/148/172 173/35/173
f 137/284/137 371/287/371 370/285/370
f 371/287/371 372/295/372 370/285/370
f 370/285/370 372/295/372 172/148/172
f 372/295/372 171/149/171 172/148/172
f 136/286/136 373/289/373 371/287/371
f 373/289/373 374/296/374 371/287/371
f 371/287/371 374/296/374 372/295/372
f 374/296/374 375/297/375 372/295/372
f 372/295/372 375/297/375 171/149/171
f 375/297/375 170/150/170 171/149/171
f 135/288/135 376/291/376 373/289/373
f 376/291/376 377/298/377 373/289/373
f 373/289/373 377/298/377 374/296/374
f 377/298/377 378/299/378 374/296/374
f 374/296/374 378/299/378 375/297/375
f 378/299/378 379/300/379 375/297/375
f 375/297/375 379/300/379 170/150/170
f 379/300/379 169/151/169 170/150/170
f 134/290/134 380/293/380 376/291/376
f 380/293/380 381/301/381 376/291/376
f 376/291/376 381/301/381 377/298/377
f 381/301/381 382/302/382 377/298/377
f 377/298/377 382/302/382 378/299/378
f 382/302/382 383/303/383 378/299/378
f 378/299/378 383/303/383 379/300/379
f 383/303/383 384/304/384 379/300/379
f 379/300/379 384/304/384 169/151/169
f 384/304/384 168/152/168 169/151/169
f 133/292/133 385/294/385 380/293/380
f 385/294/385 386/305/386 380/293/380
f 380/293/380 386/305/386 381/301/381
f 386/305/386 387/306/387 381/301/381
f 381/301/381 387/306/387 382/302/382
f 387/306/387 388/307/388 382/302/382
f 382/302/382 388/307/388 383/303/383
f 388/307/388 389/308/389 383/303/383
f 383/303/383 389/308/389 384/304/384
f 389/308/389 390/309/390 384/304/384
f 384/304/384 390/309/390 168/152/168
f 390/309/390 167/153/167 168/152/168
f 132/25/132 117/16/117 385/294/385
f 117/16/117 116/310/116 385/294/385
f 385/294/385 116/310/116 386/305/386
f 116/310/116 115/311/115 386/305/386
f 386/305/386 115/311/115 387/306/387
f 115/311/115 114/312/114 387/306/387
f 387/306/387 114/312/114 388/307/388
f 114/312/114 113/313/113 388/307/388
f 388/307/388 113/313/113 389/308/389
f 113/313/113 112/314/112 389/308/389
f 389/308/389 112/314/112 390/309/390
f 112/314/112 111/315/111 390/309/390
f 390/309/390 111/315/111 167/153/167
f 111/315/111 8/31/8 167/153/167
f 124/316/124 166/32/166 8/31/8
f 123/317/123 391/318/391 124/316/124
f 122/319/122 392/320/392 123/317/123
f 121/321/121 394/322/394 122/319/122
f 120/323/120 397/324/397 121/321/121
f 119/325/119 401/326/401 120/323/120
f 118/24/118 406/327/406 119/325/119
f 124/316/124 391/318/391 166/32/166
f 391/318/391 165/181/165 166/32/166
f 123/317/123 392/320/392 391/318/391
f 392/320/392 393/328/393 391/318/391
f 391/318/391 393/328/393 165/181/165
f 393/328/393 164/182/164 165/181/165
f 122/319/122 394/322/394 392/320/392
f 394/322/394 395/329/395 392/320/392
f 392/320/392 395/329/395 393/328/393
f 395/329/395 396/330/396 393/328/393
f 393/328/393 396/330/396 164/182/164
f 396/330/396 163/183/163 164/182/164
f 121/321/121 397/324/397 394/322/394
f 397/324/397 398/331/398 394/322/394
f 394/322/394 398/331/398 395/329/395
f 398/331/398 399/332/399 395/329/395
f 395/329/395 399/332/399 396/330/396
f 399/332/399 400/333/400 396/330/396
f 396/330/396 400/333/400 163/183/163
f 400/333/400 162/184/162 163/183/163
f 120/323/120 401/326/401 397/324/397
f 401/326/401 402/334/402 397/324/397
f 397/324/397 402/334/402 398/331/398
f 402/334/402 403/335/403 398/331/398
f 398/331/398 403/335/403 399/332/399
f 403/335/403 404/336/404 399/332/399
f 399/332/399 404/336/404 400/333/400
f 404/336/404 405/337/405 400/333/400
f 400/333/400 405/337/405 162/184/162
f 405/337/405 161/185/161 162/184/162
f 119/325/119 406/327/406 401/326/401
f 406/327/406 407/338/407 401/326/401
f 401/326/401 407/338/407 402/334/402
f 407/338/407 408/339/408 402/334/402
f 402/334/402 408/339/408 403/335/403
f 408/339/408 409/340/409 403/335/403
f 403/335/403 409/340/409 404/336/404
f 409/340/409 410/341/410 404/336/404
f 404/336/404 410/341/410 405/337/405
f 410/341/410 411/342/411 405/337/405
f 405/337/405 411/342/411 161/185/161
f 411/342/411 160/186/160 161/185/161
f 118/24/118 103/13/103 406/327/406
f 103/13/103 102/343/102 406/327/406
f 406/327/406 102/343/102 407/338/407
f 102/343/102 101/344/101 407/338/407
f 407/338/407 101/344/101 408/339/408
f 101/344/101 100/345/100 408/339/408
f 408/339/408 100/345/100 409/340/409
f 100/345/100 99/346/99 409/340/409
f 409/340/409 99/346/99 410/341/410
f 99/346/99 98/347/98 410/341/410
f 410/341/410 98/347/98 411/342/411
f 98/347/98 97/348/97 411/342/411
f 411/342/411 97/348/97 160/186/160
f 97/348/97 7/28/7 160/186/160
f 110/349/110 159/29/159 7/28/7
f 109/350/109 412/351/412 110/349/110
f 108/352/108 413/353/413 109/350/109
f 107/354/107 415/355/415 108/352/108
f 106/356/106 418/357/418 107/354/107
f 105/358/105 422/359/422 106/356/106
f 104/23/104 427/360/427 105/358/105
f 110/349/110 412/351/412 159/29/159
f 412/351/412 158/208/158 159/29/159
f 109/350/109 413/353/413 412/351/412
f 413/353/413 414/361/414 412/351/412
f 412/351/412 414/361/414 158/208/158
f 414/361/414 157/209/157 158/208/158
f 108/352/108 415/355/415 413/353/413
f 415/355/415 416/362/416 413/353/413
f 413/353/413 416/362/416 414/361/414
f 416/362/416 417/363/417 414/361/414
f 414/361/414 417/363/417 157/209/157
f 417/363/417 156/210/156 157/209/157
f 107/354/107 418/357/418 415/355/415
f 418/357/418 419/364/419 415/355/415
f 415/355/415 419/364/419 416/362/416
f 419/364/419 420/365/420 416/362/416
f 416/362/416 420/365/420 417/363/417
f 420/365/420 421/366/421 417/363/417
f 417/363/417 421/366/421 156/210/156
f 421/366/421 155/211/155 156/210/156
f 106/356/106 422/359/422 418/357/418
f 422/359/422 423/367/423 418/357/418
f 418/357/418 423/367/423 419/364/419
f 423/367/423 424/368/424 419/364/419
f 419/364/419 424/368/424 420/365/420
f 424/368/424 425/369/425 420/365/420
f 420/365/420 425/369/425 421/366/421
f 425/369/425 426/370/426 421/366/421
f 421/366/421 426/370/426 155/211/155
f 426/370/426 154/212/154 155/211/155
f 105/358/105 427/360/427 422/359/422
f 427/360/427 428/371/428 422/359/422
f 422/359/422 428/371/428 423/367/423
f 428/371/428 429/372/429 423/367/423
f 423/367/423 429/372/429 424/368/424
f 429/372/429 430/373/430 424/368/424
f 424/368/424 430/373/430 425/369/425
f 430/373/430 431/374/431 425/369/425
f 425/369/425 431/374/431 426/370/426
f 431/374/431 432/375/432 426/370/426
f 426/370/426 432/375/432 154/212/154
f 432/375/432 153/213/153 154/212/154
f 104/23/104 89/10/89 427/360/427
f 89/10/89 88/376/88 427/360/427
f 427/360/427 88/376/88 428/371/428
f 88/376/88 87/377/87 428/371/428
f 428/371/428 87/377/87 429/372/429
f 87/377/87 86/378/86 429/372/429
f 429/372/429 86/378/86 430/373/430
f 86/378/86 85/379/85 430/373/430
f 430/373/430 85/379/85 431/374/431
f 85/379/85 84/380/84 431/374/431
f 431/374/431 84/380/84 432/375/432
f 84/380/84 83/381/83 432/375/432
f 432/375/432 83/381/83 153/213/153
f 83/381/83 11/40/11 153/213/153
f 139/249/139 152/250/152 10/37/10
f 140/248/140 433/382/433 139/249/139
f 141/247/141 434/383/434 140/248/140
f 142/246/142 436/384/436 141/247/141
f 143/245/143 439/385/439 142/246/142
f 144/244/144 443/386/443 143/245/143
f 145/22/145 448/387/448 144/244/144
f 139/249/139 433/382/433 152/250/152
f 433/382/433 151/251/151 152/250/152
f 140/248/140 434/383/434 433/382/433
f 434/383/434 435/388/435 433/382/433
f 433/382/433 435/388/435 151/251/151
f 435/388/435 150/253/150 151/251/151
f 141/247/141 436/384/436 434/383/434
f 436/384/436 437/389/437 434/383/434
f 434/383/434 437/389/437 435/388/435
f 437/389/437 438/390/438 435/388/435
f 435/388/435 438/390/438 150/253/150
f 438/390/438 149/255/149 150/253/150
f 142/246/142 439/385/439 436/384/436
f 439/385/439 440/391/440 436/384/436
f 436/384/436 440/391/440 437/389/437
f 440/391/440 441/392/441 437/389/437
f 437/389/437 441/392/441 438/390/438
f 441/392/441 442/393/442 438/390/438
f 438/390/438 442/393/442 149/255/149
f 442/393/442 148/257/148 149/255/149
f 143/245/143 443/386/443 439/385/439
f 443/386/443 444/394/444 439/385/439
f 439/385/439 444/394/444 440/391/440
f 444/394/444 445/395/445 440/391/440
f 440/391/440 445/395/445 441/392/441
f 445/395/445 446/396/446 441/392/441
f 441/392/441 446/396/446 442/393/442
f 446/396/446 447/397/447 442/393/442
f 442/393/442 447/397/447 148/257/148
f 447/397/447 147/259/147 148/257/148
f 144/244/144 448/387/448 443/386/443
f 448/387/448 449/398/449 443/386/443
f 443/386/443 449/398/449 444/394/444
f 449/398/449 450/399/450 444/394/444
f 444/394/444 450/399/450 445/395/445
f 450/399/450 451/400/451 445/395/445
f 445/395/445 451/400/451 446/396/446
f 451/400/451 452/401/452 446/396/446
f 446/396/446 452/401/452 447/397/447
f 452/401/452 453/402/453 447/397/447
f 447/397/447 453/402/453 147/259/147
f 453/402/453 146/26/146 147/259/147
f 145/22/145 82/21/82 448/387/448
f 82/21/82 81/403/81 448/387/448
f 448/387/448 81/403/81 449/398/449
f 81/403/81 80/404/80 449/398/449
f 449/398/449 80/404/80 450/399/450
f 80/404/80 79/405/79 450/399/450
f 450/399/450 79/405/79 451/400/451
f 79/405/79 78/406/78 451/400/451
f 451/400/451 78/406/78 452/401/452
f 78/406/78 77/407/77 452/401/452
f 452/401/452 77/407/77 453/402/453
f 77/407/77 76/408/76 453/402/453
f 453/402/453 76/408/76 146/26/146
f 76/408/76 5/17/5 146/26/146
f 125/282/125 138/283/138 9/34/9
f 126/281/126 454/409/454 125/282/125
f 127/280/127 455/410/455 126/281/126
f 128/279/128 457/411/457 127/280/127
f 129/278/129 460/412/460 128/279/128
f 130/277/130 464/413/464 129/278/129
f 131/19/131 469/414/469 130/277/130
f 125/282/125 454/409/454 138/283/138
f 454/409/454 137/284/137 138/283/138
f 126/281/126 455/410/455 454/409/454
f 455/410/455 456/415/456 454/409/454
f 454/409/454 456/415/456 137/284/137
f 456/415/456 136/286/136 137/284/137
f 127/280/127 457/411/457 455/410/455
f 457/411/457 458/416/458 455/410/455
f 455/410/455 458/416/458 456/415/456
f 458/416/458 459/417/459 456/415/456
f 456/415/456 459/417/459 136/286/136
f 459/417/459 135/288/135 136/286/136
f 128/279/128 460/412/460 457/411/457
f 460/412/460 461/418/461 457/411/457
f 457/411/457 461/418/461 458/416/458
f 461/418/461 462/419/462 458/416/458
f 458/416/458 462/419/462 459/417/459
f 462/419/462 463/420/463 459/417/459
f 459/417/459 463/420/463 135/288/135
f 463/420/463 134/290/134 135/288/135
f 129/278/129 464/413/464 460/412/460
f 464/413/464 465/421/465 460/412/460
f 460/412/460 465/421/465 461/418/461
f 465/421/465 466/422/466 461/418/461
f 461/418/461 466/422/466 462/419/462
f 466/422/466 467/423/467 462/419/462
f 462/419/462 467/423/467 463/420/463
f 467/423/467 468/424/468 463/420/463
f 463/420/463 468/424/468 134/290/134
f 468/424/468 133/292/133 134/290/134
f 130/277/130 469/414/469 464/413/464
f 469/414/469 470/425/470 464/413/464
f 464/413/464 470/425/470 465/421/465
f 470/425/470 471/426/471 465/421/465
f 465/421/465 471/426/471 466/422/466
f 471/426/471 472/427/472 466/422/466
f 466/422/466 472/427/472 467/423/467
f 472/427/472 473/428/473 467/423/467
f 467/423/467 473/428/473 468/424/468
f 473/428/473 474/429/474 468/424/468
f 468/424/468 474/429/474 133/292/133
f 474/429/474 132/25/132 133/292/133
f 131/19/131 75/18/75 469/414/469
f 75/18/75 74/430/74 469/414/469
f 469/414/469 74/430/74 470/425/470
f 74/430/74 73/431/73 470/425/470
f 470/425/470 73/431/73 471/426/471
f 73/431/73 72/432/72 471/426/471
f 471/426/471 72/432/72 472/427/472
f 72/432/72 71/433/71 472/427/472
f 472/427/472 71/433/71 473/428/473
f 71/433/71 70/434/70 473/428/473
f 473/428/473 70/434/70 474/429/474
f 70/434/70 69/435/69 474/429/474
f 474/429/474 69/435/69 132/25/132
f 69/435/69 4/14/4 132/25/132
f 111/315/111 124/316/124 8/31/8
f 112/314/112 475/436/475 111/315/111
f 113/313/113 476/437/476 112/314/112
f 114/312/114 478/438/478 113/313/113
f 115/311/115 481/439/481 114/312/114
f 116/310/116 485/440/485 115/311/115
f 117/16/117 490/441/490 116/310/116
f 111/315/111 475/436/475 124/316/124
f 475/436/475 123/317/123 124/316/124
f 112/314/112 476/437/476 475/436/475
f 476/437/476 477/442/477 475/436/475
f 475/436/475 477/442/477 123/317/123
f 477/442/477 122/319/122 123/317/123
f 113/313/113 478/438/478 476/437/476
f 478/438/478 479/443/479 476/437/476
f 476/437/476 479/443/479 477/442/477
f 479/443/479 480/444/480 477/442/477
f 477/442/477 480/444/480 122/319/122
f 480/444/480 121/321/121 122/319/122
f 114/312/114 481/439/481 478/438/478
f 481/439/481 482/445/482 478/438/478
f 478/438/478 482/445/482 479/443/479
f 482/445/482 483/446/483 479/443/479
f 479/443/479 483/446/483 480/444/480
f 483/446/483 484/447/484 480/444/480
f 480/444/480 484/447/484 121/321/121
f 484/447/484 120/323/120 121/321/121
f 115/311/115 485/440/485 481/439/481
f 485/440/485 486/448/486 481/439/481
f 481/439/481 486/448/486 482/445/482
f 486/448/486 487/449/487 482/445/482
f 482/445/482 487/449/487 483/446/483
f 487/449/487 488/450/488 483/446/483
f 483/446/483 488/450/488 484/447/484
f 488/450/488 489/451/489 484/447/484
f 484/447/484 489/451/489 120/323/120
f 489/451/489 119/325/119 120/323/120
f 116/310/116 490/441/490 485/440/485
f 490/441/490 491/452/491 485/440/485
f 485/440/485 491/452/491 486/448/486
f 491/452/491 492/453/492 486/448/486
f 486/448/486 492/453/492 487/449/487
f 492/453/492 493/454/493 487/449/487
f 487/449/487 493/454/493 488/450/488
f 493/454/493 494/455/494 488/450/488
f 488/450/488 494/455/494 489/451/489
f 494/455/494 495/456/495 489/451/489
f 489/451/489 495/456/495 119/325/119
f 495/456/495 118/24/118 119/325/119
f 117/16/117 61/15/61 490/441/490
f 61/15/61 60/457/60 490/441/490
f 490/441/490 60/457/60 491/452/491
f 60/457/60 59/458/59 491/452/491
f 491/452/491 59/458/59 492/453/492
f 59/458/59 58/459/58 492/453/492
f 492/453/492 58/459/58 493/454/493
f 58/459/58 57/460/57 493/454/493
f 493/454/493 57/460/57 494/455/494
f 57/460/57 56/461/56 494/455/494
f 494/455/494 56/461/56 495/456/495
f 56/461/56 55/462/55 495/456/495
f 495/456/495 55/462/55 118/24/118
f 55/462/55 3/11/3 118/24/118
f 97/348/97 110/349/110 7/28/7
f 98/347/98 496/463/496 97/348/97
f 99/346/99 497/464/497 98/347/98
f 100/345/100 499/465/499 99/346/99
f 101/344/101 502/466/502 100/345/100
f 102/343/102 506/467/506 101/344/101
f 103/13/103 511/468/511 102/343/102
f 97/348/97 496/463/496 110/349/110
f 496/463/496 109/350/109 110/349/110
f 98/347/98 497/464/497 496/463/496
f 497/464/497 498/469/498 496/463/496
f 496/463/496 498/469/498 109/350/109
f 498/469/498 108/352/108 109/350/109
f 99/346/99 499/465/499 497/464/497
f 499/465/499 500/470/500 497/464/497
f 497/464/497 500/470/500 498/469/498
f 500/470/500 501/471/501 498/469/498
f 498/469/498 501/471/501 108/352/108
f 501/471/501 107/354/107 108/352/108
f 100/345/100 502/466/502 499/465/499
f 502/466/502 503/472/503 499/465/499
f 499/465/499 503/472/503 500/470/500
f 503/472/503 504/473/504 500/470/500
f 500/470/500 504/473/504 501/471/501
f 504/473/504 505/474/505 501/471/501
f 501/471/501 505/474/505 107/354/107
f 505/474/505 106/356/106 107/354/107
f 101/344/101 506/467/506 502/466/502
f 506/467/506 507/475/507 502/466/502
f 502/466/502 507/475/507 503/472/503
f 507/475/507 508/476/508 503/472/503
f 503/472/503 508/476/508 504/473/504
f 508/476/508 509/477/509 504/473/504
f 504/473/504 509/477/509 505/474/505
f 509/477/509 510/478/510 505/474/505
f 505/474/505 510/478/510 106/356/106
f 510/478/510 105/358/105 106/356/106
f 102/343/102 511/468/511 506/467/506
f 511/468/511 512/479/512 506/467/506
f 506/467/506 512/479/512 507/475/507
f 512/479/512 513/480/513 507/475/507
f 507/475/507 513/480/513 508/476/508
f 513/480/513 514/481/514 508/476/508
f 508/476/508 514/481/514 509/477/509
f 514/481/514 515/482/515 509/477/509
f 509/477/509 515/482/515 510/478/510
f 515/482/515 516/483/516 510/478/510
f 510/478/510 516/483/516 105/358/105
f 516/483/516 104/23/104 105/358/105
f 103/13/103 33/12/33 511/468/511
f 33/12/33 32/484/32 511/468/511
f 511/468/511 32/484/32 512/479/512
f 32/484/32 31/485/31 512/479/512
f 512/479/512 31/485/31 513/480/513
f 31/485/31 30/486/30 513/480/513
f 513/480/513 30/486/30 514/481/514
f 30/486/30 29/487/29 514/481/514
f 514/481/514 29/487/29 515/482/515
f 29/487/29 28/488/28 515/482/515
f 515/482/515 28/488/28 516/483/516
f 28/488/28 27/489/27 516/483/516
f 516/483/516 27/489/27 104/23/104
f 27/489/27 2/4/2 104/23/104
f 83/381/83 96/214/96 11/40/11
f 84/380/84 517/490/517 83/381/83
f 85/379/85 518/491/518 84/380/84
f 86/378/86 520/492/520 85/379/85
f 87/377/87 523/493/523 86/378/86
f 88/376/88 527/494/527 87/377/87
f 89/10/89 532/495/532 88/376/88
f 83/381/83 517/490/517 96/214/96
f 517/490/517 95/215/95 96/214/96
f 84/380/84 518/491/518 517/490/517
f 518/491/518 519/496/519 517/490/517
f 517/490/517 519/496/519 95/215/95
f 519/496/519 94/217/94 95/215/95
f 85/379/85 520/492/520 518/491/518
f 520/492/520 521/497/521 518/491/518
f 518/491/518 521/497/521 519/496/519
f 521/497/521 522/498/522 519/496/519
f 519/496/519 522/498/522 94/217/94
f 522/498/522 93/499/93 94/217/94
f 86/378/86 523/493/523 520/492/520
f 523/493/523 524/500/524 520/492/520
f 520/492/520 524/500/524 521/497/521
f 524/500/524 525/501/525 521/497/521
f 521/497/521 525/501/525 522/498/522
f 525/501/525 526/502/526 522/498/522
f 522/498/522 526/502/526 93/499/93
f 526/503/526 92/222/92 93/219/93
f 87/377/87 527/494/527 523/493/523
f 527/494/527 528/504/528 523/493/523
f 523/493/523 528/504/528 524/500/524
f 528/504/528 529/505/529 524/500/524
f 524/500/524 529/505/529 525/501/525
f 529/505/529 530/506/530 525/501/525
f 525/501/525 530/506/530 526/502/526
f 530/506/530 531/507/531 526/502/526
f 526/503/526 531/508/531 92/222/92
f 531/508/531 91/224/91 92/222/92
f 88/376/88 532/495/532 527/494/527
f 532/495/532 533/509/533 527/494/527
f 527/494/527 533/509/533 528/504/528
f 533/509/533 534/510/534 528/504/528
f 528/504/528 534/510/534 529/505/529
f 534/510/534 535/511/535 529/505/529
f 529/505/529 535/511/535 530/506/530
f 535/511/535 536/512/536 530/506/530
f 530/506/530 536/512/536 531/507/531
f 536/513/536 537/514/537 531/508/531
f 531/508/531 537/514/537 91/224/91
f 537/514/537 90/27/90 91/224/91
f 89/10/89 40/6/40 532/495/532
f 40/6/40 39/515/39 532/495/532
f 532/495/532 39/515/39 533/509/533
f 39/515/39 38/516/38 533/509/533
f 533/509/533 38/516/38 534/510/534
f 38/516/38 37/517/37 534/510/534
f 534/510/534 37/517/37 535/511/535
f 37/517/37 36/518/36 535/511/535
f 535/511/535 36/518/36 536/512/536
f 36/518/36 35/519/35 536/512/536
f 536/513/536 35/520/35 537/514/537
f 35/520/35 34/521/34 537/514/537
f 537/514/537 34/521/34 90/27/90
f 34/521/34 6/20/6 90/27/90
f 47/522/47 82/21/82 6/20/6
f 46/523/46 538/524/538 47/522/47
f 45/525/45 539/526/539 46/523/46
f 44/527/44 541/528/541 45/525/45
f 43/529/43 544/530/544 44/527/44
f 42/531/42 548/532/548 43/529/43
f 41/533/41 553/534/553 42/531/42
f 47/522/47 538/524/538 82/21/82
f 538/524/538 81/403/81 82/21/82
f 46/523/46 539/526/539 538/524/538
f 539/526/539 540/535/540 538/524/538
f 538/524/538 540/535/540 81/403/81
f 540/535/540 80/404/80 81/403/81
f 45/525/45 541/528/541 539/526/539
f 541/528/541 542/536/542 539/526/539
f 539/526/539 542/536/542 540/535/540
f 542/536/542 543/537/543 540/535/540
f 540/535/540 543/537/543 80/404/80
f 543/537/543 79/405/79 80/404/80
f 44/527/44 544/530/544 541/528/541
f 544/530/544 545/538/545 541/528/541
f 541/528/541 545/538/545 542/536/542
f 545/538/545 546/539/546 542/536/542
f 542/536/542 546/539/546 543/537/543
f 546/539/546 547/540/547 543/537/543
f 543/537/543 547/540/547 79/405/79
f 547/540/547 78/406/78 79/405/79
f 43/529/43 548/532/548 544/530/544
f 548/532/548 549/541/549 544/530/544
f 544/530/544 549/541/549 545/538/545
f 549/541/549 550/542/550 545/538/545
f 545/538/545 550/542/550 546/539/546
f 550/542/550 551/543/551 546/539/546
f 546/539/546 551/543/551 547/540/547
f 551/543/551 552/544/552 547/540/547
f 547/540/547 552/544/552 78/406/78
f 552/544/552 77/407/77 78/406/78
f 42/531/42 553/534/553 548/532/548
f 553/534/553 554/545/554 548/532/548
f 548/532/548 554/545/554 549/541/549
f 554/545/554 555/546/555 549/541/549
f 549/541/549 555/546/555 550/542/550
f 555/546/555 556/547/556 550/542/550
f 550/542/550 556/547/556 551/543/551
f 556/547/556 557/548/557 551/543/551
f 551/543/551 557/548/557 552/544/552
f 557/548/557 558/549/558 552/544/552
f 552/544/552 558/549/558 77/407/77
f 558/549/558 76/408/76 77/407/77
f 41/533/41 68/550/68 553/534/553
f 68/550/68 67/551/67 553/534/553
f 553/534/553 67/551/67 554/545/554
f 67/551/67 66/552/66 554/545/554
f 554/545/554 66/552/66 555/546/555
f 66/552/66 65/553/65 555/546/555
f 555/546/555 65/553/65 556/547/556
f 65/553/65 64/554/64 556/547/556
f 556/547/556 64/554/64 557/548/557
f 64/554/64 63/555/63 557/548/557
f 557/548/557 63/555/63 558/549/558
f 63/555/63 62/556/62 558/549/558
f 558/549/558 62/556/62 76/408/76
f 62/556/62 5/17/5 76/408/76
f 62/556/62 75/18/75 5/17/5
f 63/555/63 559/557/559 62/556/62
f 64/554/64 560/558/560 63/555/63
f 65/553/65 562/559/562 64/554/64
f 66/552/66 565/560/565 65/553/65
f 67/551/67 569/561/569 66/552/66
f 68/550/68 574/562/574 67/551/67
f 62/556/62 559/557/559 75/18/75
f 559/557/559 74/430/74 75/18/75
f 63/555/63 560/558/560 559/557/559
f 560/558/560 561/563/561 559/557/559
f 559/557/559 561/563/561 74/430/74
f 561/563/561 73/431/73 74/430/74
f 64/554/64 562/559/562 560/558/560
f 562/559/562 563/564/563 560/558/560
f 560/558/560 563/564/563 561/563/561
f 563/564/563 564/565/564 561/563/561
f 561/563/561 564/565/564 73/431/73
f 564/565/564 72/432/72 73/431/73
f 65/553/65 565/560/565 562/559/562
f 565/560/565 566/566/566 562/559/562
f 562/559/562 566/566/566 563/564/563
f 566/566/566 567/567/567 563/564/563
f 563/564/563 567/567/567 564/565/564
f 567/567/567 568/568/568 564/565/564
f 564/565/564 568/568/568 72/432/72
f 568/568/568 71/433/71 72/432/72
f 66/552/66 569/561/569 565/560/565
f 569/561/569 570/569/570 565/560/565
f 565/560/565 570/569/570 566/566/566
f 570/569/570 571/570/571 566/566/566
f 566/566/566 571/570/571 567/567/567
f 571/570/571 572/571/572 567/567/567
f 567/567/567 572/571/572 568/568/568
f 572/571/572 573/572/573 568/568/568
f 568/568/568 573/572/573 71/433/71
f 573/572/573 70/434/70 71/433/71
f 67/551/67 574/562/574 569/561/569
f 574/562/574 575/573/575 569/561/569
f 569/561/569 575/573/575 570/569/570
f 575/573/575 576/574/576 570/569/570
f 570/569/570 576/574/576 571/570/571
f 576/574/576 577/575/577 571/570/571
f 571/570/571 577/575/577 572/571/572
f 577/575/577 578/576/578 572/571/572
f 572/571/572 578/576/578 573/572/573
f 578/576/578 579/577/579 573/572/573
f 573/572/573 579/577/579 70/434/70
f 579/577/579 69/435/69 70/434/70
f 68/550/68 54/578/54 574/562/574
f 54/578/54 53/579/53 574/562/574
f 574/562/574 53/579/53 575/573/575
f 53/579/53 52/580/52 575/573/575
f 575/573/575 52/580/52 576/574/576
f 52/580/52 51/581/51 576/574/576
f 576/574/576 51/581/51 577/575/577
f 51/581/51 50/582/50 577/575/577
f 577/575/577 50/582/50 578/576/578
f 50/582/50 49/583/49 578/576/578
f 578/576/578 49/583/49 579/577/579
f 49/583/49 48/584/48 579/577/579
f 579/577/579 48/584/48 69/435/69
f 48/584/48 4/14/4 69/435/69
f 48/584/48 61/15/61 4/14/4
f 49/583/49 580/585/580 48/584/48
f 50/582/50 581/586/581 49/583/49
f 51/581/51 583/587/583 50/582/50
f 52/580/52 586/588/586 51/581/51
f 53/589/53 590/590/590 52/591/52
f 54/7/54 595/592/595 53/589/53
f 48/584/48 580/585/580 61/15/61
f 580/585/580 60/457/60 61/15/61
f 49/583/49 581/586/581 580/585/580
f 581/586/581 582/593/582 580/585/580
f 580/585/580 582/593/582 60/457/60
f 582/593/582 59/458/59 60/457/60
f 50/582/50 583/587/583 581/586/581
f 583/587/583 584/594/584 581/586/581
f 581/586/581 584/594/584 582/593/582
f 584/594/584 585/595/585 582/593/582
f 582/593/582 585/595/585 59/458/59
f 585/595/585 58/459/58 59/458/59
f 51/581/51 586/588/586 583/587/583
f 586/588/586 587/596/587 583/587/583
f 583/587/583 587/596/587 584/594/584
f 587/596/587 588/597/588 584/594/584
f 584/594/584 588/597/588 585/595/585
f 588/597/588 589/598/589 585/595/585
f 585/595/585 589/598/589 58/459/58
f 589/598/589 57/460/57 58/459/58
f 52/591/52 590/590/590 586/588/586
f 590/590/590 591/599/591 586/588/586
f 586/588/586 591/599/591 587/596/587
f 591/599/591 592/600/592 587/596/587
f 587/596/587 592/600/592 588/597/588
f 592/600/592 593/601/593 588/597/588
f 588/597/588 593/601/593 589/598/589
f 593/601/593 594/602/594 589/598/589
f 589/598/589 594/602/594 57/460/57
f 594/602/594 56/461/56 57/460/57
f 53/589/53 595/592/595 590/590/590
f 595/592/595 596/603/596 590/590/590
f 590/590/590 596/603/596 591/599/591
f 596/603/596 597/604/597 591/599/591
f 591/599/591 597/604/597 592/600/592
f 597/604/597 598/605/598 592/600/592
f 592/600/592 598/605/598 593/601/593
f 598/605/598 599/606/599 593/601/593
f 593/601/593 599/606/599 594/602/594
f 599/606/599 600/607/600 594/602/594
f 594/602/594 600/607/600 56/461/56
f 600/607/600 55/462/55 56/461/56
f 54/7/54 19/3/19 595/592/595
f 19/3/19 18/608/18 595/592/595
f 595/592/595 18/608/18 596/603/596
f 18/608/18 17/609/17 596/603/596
f 596/603/596 17/609/17 597/604/597
f 17/609/17 16/610/16 597/604/597
f 597/604/597 16/610/16 598/605/598
f 16/610/16 15/611/15 598/605/598
f 598/605/598 15/611/15 599/606/599
f 15/611/15 14/612/14 599/606/599
f 599/606/599 14/612/14 600/607/600
f 14/612/14 13/613/13 600/607/600
f 600/607/600 13/613/13 55/462/55
f 13/613/13 3/11/3 55/462/55
f 34/521/34 47/522/47 6/20/6
f 35/520/35 601/614/601 34/521/34
f 36/518/36 602/615/602 35/519/35
f 37/517/37 604/616/604 36/518/36
f 38/516/38 607/617/607 37/517/37
f 39/515/39 611/618/611 38/516/38
f 40/6/40 616/619/616 39/515/39
f 34/521/34 601/614/601 47/522/47
f 601/614/601 46/523/46 47/522/47
f 35/520/35 602/620/602 601/614/601
f 602/620/602 603/621/603 601/614/601
f 601/614/601 603/621/603 46/523/46
f 603/621/603 45/525/45 46/523/46
f 36/518/36 604/616/604 602/615/602
f 604/616/604 605/622/605 602/615/602
f 602/620/602 605/623/605 603/621/603
f 605/623/605 606/624/606 603/621/603
f 603/621/603 606/624/606 45/525/45
f 606/624/606 44/527/44 45/525/45
f 37/517/37 607/617/607 604/616/604
f 607/617/607 608/625/608 604/616/604
f 604/616/604 608/625/608 605/622/605
f 608/625/608 609/626/609 605/622/605
f 605/622/605 609/626/609 606/627/606
f 609/626/609 610/628/610 606/627/606
f 606/624/606 610/629/610 44/527/44
f 610/629/610 43/529/43 44/527/44
f 38/516/38 611/618/611 607/617/607
f 611/618/611 612/630/612 607/617/607
f 607/617/607 612/630/612 608/625/608
f 612/630/612 613/631/613 608/625/608
f 608/625/608 613/631/613 609/626/609
f 613/631/613 614/632/614 609/626/609
f 609/626/609 614/632/614 610/628/610
f 614/632/614 615/633/615 610/628/610
f 610/628/610 615/633/615 43/634/43
f 615/633/615 42/635/42 43/634/43
f 39/515/39 616/619/616 611/618/611
f 616/619/616 617/636/617 611/618/611
f 611/618/611 617/636/617 612/630/612
f 617/636/617 618/637/618 612/630/612
f 612/630/612 618/637/618 613/631/613
f 618/637/618 619/638/619 613/631/613
f 613/631/613 619/638/619 614/632/614
f 619/638/619 620/639/620 614/632/614
f 614/632/614 620/639/620 615/633/615
f 620/639/620 621/640/621 615/633/615
f 615/633/615 621/640/621 42/635/42
f 621/640/621 41/9/41 42/635/42
f 40/6/40 26/5/26 616/619/616
f 26/5/26 25/641/25 616/619/616
f 616/619/616 25/641/25 617/636/617
f 25/641/25 24/642/24 617/636/617
f 617/636/617 24/642/24 618/637/618
f 24/642/24 23/643/23 618/637/618
f 618/637/618 23/643/23 619/638/619
f 23/643/23 22/644/22 619/638/619
f 619/638/619 22/644/22 620/639/620
f 22/644/22 21/645/21 620/639/620
f 620/639/620 21/645/21 621/640/621
f 21/645/21 20/2/20 621/640/621
f 621/640/621 20/2/20 41/9/41
f 20/2/20 1/1/1 41/9/41
f 13/613/13 33/12/33 3/11/3
f 14/612/14 622/646/622 13/613/13
f 15/611/15 623/647/623 14/612/14
f 16/610/16 625/648/625 15/611/15
f 17/609/17 628/649/628 16/610/16
f 18/608/18 632/650/632 17/609/17
f 19/3/19 637/651/637 18/608/18
f 13/613/13 622/646/622 33/12/33
f 622/646/622 32/484/32 33/12/33
f 14/612/14 623/647/623 622/646/622
f 623/647/623 624/652/624 622/646/622
f 622/646/622 624/652/624 32/484/32
f 624/652/624 31/485/31 32/484/32
f 15/611/15 625/648/625 623/647/623
f 625/648/625 626/653/626 623/647/623
f 623/647/623 626/653/626 624/652/624
f 626/653/626 627/654/627 624/652/624
f 624/652/624 627/654/627 31/485/31
f 627/654/627 30/486/30 31/485/31
f 16/610/16 628/649/628 625/648/625
f 628/649/628 629/655/629 625/648/625
f 625/648/625 629/655/629 626/653/626
f 629/655/629 630/656/630 626/653/626
f 626/653/626 630/656/630 627/654/627
f 630/656/630 631/657/631 627/654/627
f 627/654/627 631/657/631 30/486/30
f 631/657/631 29/487/29 30/486/30
f 17/609/17 632/650/632 628/649/628
f 632/650/632 633/658/633 628/649/628
f 628/649/628 633/658/633 629/655/629
f 633/658/633 634/659/634 629/655/629
f 629/655/629 634/659/634 630/656/630
f 634/659/634 635/660/635 630/656/630
f 630/656/630 635/660/635 631/657/631
f 635/660/635 636/661/636 631/657/631
f 631/657/631 636/661/636 29/487/29
f 636/661/636 28/488/28 29/487/29
f 18/608/18 637/651/637 632/650/632
f 637/651/637 638/662/638 632/650/632
f 632/650/632 638/662/638 633/658/633
f 638/662/638 639/663/639 633/658/633
f 633/658/633 639/663/639 634/659/634
f 639/663/639 640/664/640 634/659/634
f 634/659/634 640/664/640 635/660/635
f 640/664/640 641/665/641 635/660/635
f 635/660/635 641/665/641 636/661/636
f 641/665/641 642/666/642 636/661/636
f 636/661/636 642/666/642 28/488/28
f 642/666/642 27/489/27 28/488/28
f 19/3/19 20/2/20 637/651/637
f 20/2/20 21/645/21 637/651/637
f 637/651/637 21/645/21 638/662/638
f 21/645/21 22/644/22 638/662/638
f 638/662/638 22/644/22 639/663/639
f 22/644/22 23/643/23 639/663/639
f 639/663/639 23/643/23 640/664/640
f 23/643/23 24/642/24 640/664/640
f 640/664/640 24/642/24 641/665/641
f 24/642/24 25/641/25 641/665/641
f 641/665/641 25/641/25 642/666/642
f 25/641/25 26/5/26 642/666/642
f 642/666/642 26/5/26 27/489/27
f 26/5/26 2/4/2 27/489/27
