# Blender v2.91.2 OBJ File: 'raycast.blend'
# www.blender.org
mtllib raycast.mtl
o Cube_Cube.001
v -0.500500 -0.500500 0.500500
v 0.000000 0.500500 0.500500
v -0.509140 -0.503883 0.000000
v -0.008640 0.497117 0.000000
v 0.500500 -0.500500 0.500500
v 0.491860 -0.503883 0.000000
vt 0.000000 0.000000
vt 1.000000 0.000000
vt 1.000000 1.000000
vt 0.000000 1.000000
vt 0.000000 0.000000
vt 1.000000 0.000000
vt 1.000000 1.000000
vt 0.000000 1.000000
vt 0.000000 1.000000
vt 0.000000 0.000000
vt 1.000000 0.000000
vt 1.000000 1.000000
vn -0.8944 0.4472 0.0124
vn 0.8943 0.4471 -0.0185
vn 0.0000 0.0000 1.0000
vn 0.0000 -1.0000 0.0068
vn 0.0000 0.0000 -1.0000
usemtl Material.001
s off
f 1/1/1 2/2/1 4/3/1 3/4/1
f 6/5/2 4/6/2 2/7/2 5/8/2
f 2/7/3 1/9/3 5/8/3
f 3/10/4 6/11/4 5/12/4 1/9/4
f 3/10/5 4/6/5 6/11/5
