# Blender v2.83.1 OBJ File: ''
# www.blender.org
mtllib axis.mtl
o Sphere.001
v 0.000000 -0.242704 -0.242704
v 0.000000 0.000000 -0.343235
v 0.297250 0.000000 -0.171617
v 0.210188 -0.242704 -0.121352
v 0.000000 0.242704 -0.242704
v 0.000000 0.343235 0.000000
v 0.210188 0.242704 -0.121352
v 0.000000 -0.343235 -0.000000
v 0.297250 -0.000000 0.171618
v 0.210188 -0.242704 0.121352
v 0.210188 0.242704 0.121352
v 0.000000 -0.000000 0.343235
v 0.000000 -0.242704 0.242704
v 0.000000 0.242704 0.242704
v -0.297250 -0.000000 0.171617
v -0.210188 -0.242704 0.121352
v -0.210188 0.242704 0.121352
v -0.210188 0.242704 -0.121352
v -0.297250 0.000000 -0.171618
v -0.210188 -0.242704 -0.121352
v -3.124213 -0.065978 0.065978
v -3.124213 0.065978 0.065978
v -3.124213 0.065978 -0.065978
v -3.124213 -0.065978 -0.065978
v 3.124213 0.065978 -0.065978
v 3.124213 -0.065978 -0.065978
v 3.124213 0.065978 0.065978
v 3.124213 -0.065978 0.065978
v 0.065978 -0.065979 3.124213
v 0.065978 0.065977 3.124213
v -0.065978 0.065977 3.124213
v -0.065978 -0.065979 3.124213
v -0.065978 0.065979 -3.124213
v -0.065978 -0.065977 -3.124213
v 0.065978 0.065979 -3.124213
v 0.065978 -0.065977 -3.124213
v 0.065978 -3.124213 -0.065979
v 0.065978 -3.124213 0.065977
v -0.065978 -3.124213 0.065977
v -0.065978 -3.124213 -0.065979
v -0.065978 3.124213 0.065979
v -0.065978 3.124213 -0.065977
v 0.065978 3.124213 0.065979
v 0.065978 3.124213 -0.065977
vt 0.500000 0.146447
vt 0.500000 0.000000
vt 1.000000 0.250000
vt 0.853553 0.323224
vt 0.500000 0.853554
vt 0.500000 0.500000
vt 0.853553 0.676776
vt 0.500000 0.500000
vt 0.500000 1.000000
vt 1.000000 0.750000
vt 1.000000 0.750000
vt 0.853553 0.676777
vt 0.853553 0.323223
vt 1.000000 0.250000
vt 0.500000 1.000000
vt 0.500000 0.853554
vt 0.500000 0.146447
vt 0.500000 0.000000
vt 0.000000 0.750000
vt 0.146447 0.676777
vt 0.146447 0.323223
vt 0.000000 0.250000
vt 0.146447 0.676777
vt 0.000000 0.750000
vt 0.000000 0.250000
vt 0.146447 0.323223
vt 0.090452 0.799306
vt 0.128298 0.799306
vt 0.128298 0.837153
vt 0.090452 0.837153
vt 0.128298 0.875000
vt 0.090452 0.875000
vt 0.128298 0.912847
vt 0.090452 0.912847
vt 0.128298 0.950694
vt 0.090452 0.950694
vt 0.052605 0.875000
vt 0.052605 0.912847
vt 0.166145 0.875000
vt 0.166145 0.912847
vt 0.983068 0.764473
vt 0.983068 0.764473
vt 0.983068 0.764473
vt 0.983068 0.764473
vt 0.983068 0.764473
vt 0.983068 0.764473
vt 0.983068 0.764473
vt 0.983068 0.764473
vt 0.113889 0.088369
vt 0.151736 0.088369
vt 0.151736 0.126216
vt 0.113889 0.126216
vt 0.151736 0.164062
vt 0.113889 0.164062
vt 0.151736 0.201909
vt 0.113889 0.201909
vt 0.151736 0.239756
vt 0.113889 0.239756
vt 0.076042 0.164062
vt 0.076042 0.201909
vt 0.189583 0.164062
vt 0.189583 0.201909
vn 0.4706 -0.3377 -0.8152
vn 0.2157 0.9021 -0.3737
vn 0.2157 -0.9021 -0.3737
vn 0.4706 0.3377 -0.8152
vn 0.9413 -0.3377 -0.0000
vn 0.4315 0.9021 0.0000
vn 0.4315 -0.9021 0.0000
vn 0.9413 0.3377 0.0000
vn 0.4706 -0.3377 0.8152
vn 0.2157 0.9021 0.3737
vn 0.2157 -0.9021 0.3737
vn 0.4706 0.3377 0.8152
vn -0.4706 -0.3377 0.8152
vn -0.2157 0.9021 0.3737
vn -0.2157 -0.9021 0.3737
vn -0.4706 0.3377 0.8152
vn -0.9413 0.3377 0.0000
vn -0.9413 -0.3377 -0.0000
vn -0.4315 0.9021 0.0000
vn -0.4315 -0.9021 0.0000
vn -0.2157 -0.9021 -0.3737
vn -0.4706 0.3377 -0.8152
vn -0.4706 -0.3377 -0.8152
vn -0.2157 0.9021 -0.3737
vn -1.0000 0.0000 0.0000
vn 0.0000 0.0000 -1.0000
vn 1.0000 -0.0000 0.0000
vn 0.0000 -0.0000 1.0000
vn 0.0000 -1.0000 -0.0000
vn 0.0000 1.0000 0.0000
usemtl None.001
s 1
f 1/1/1 2/2/1 3/3/1 4/4/1
f 5/5/2 6/6/2 7/7/2
f 8/8/3 1/1/3 4/4/3
f 2/9/4 5/5/4 7/7/4 3/10/4
f 4/4/5 3/3/5 9/11/5 10/12/5
f 7/7/6 6/6/6 11/13/6
f 8/8/7 4/4/7 10/12/7
f 3/10/8 7/7/8 11/13/8 9/14/8
f 10/12/9 9/11/9 12/15/9 13/16/9
f 11/13/10 6/6/10 14/17/10
f 8/8/11 10/12/11 13/16/11
f 9/14/12 11/13/12 14/17/12 12/18/12
f 13/16/13 12/15/13 15/19/13 16/20/13
f 14/17/14 6/6/14 17/21/14
f 8/8/15 13/16/15 16/20/15
f 12/18/16 14/17/16 17/21/16 15/22/16
f 15/22/17 17/21/17 18/23/17 19/24/17
f 16/20/18 15/19/18 19/25/18 20/26/18
f 17/21/19 6/6/19 18/23/19
f 8/8/20 16/20/20 20/26/20
f 8/8/21 20/26/21 1/1/21
f 19/24/22 18/23/22 5/5/22 2/9/22
f 20/26/23 19/25/23 2/2/23 1/1/23
f 18/23/24 6/6/24 5/5/24
f 21/27/25 22/28/25 23/29/25 24/30/25
f 24/30/26 23/29/26 25/31/26 26/32/26
f 26/32/27 25/31/27 27/33/27 28/34/27
f 28/34/28 27/33/28 22/35/28 21/36/28
f 24/37/29 26/32/29 28/34/29 21/38/29
f 25/31/30 23/39/30 22/40/30 27/33/30
f 29/41/28 30/42/28 31/43/28 32/44/28
f 32/44/25 31/43/25 33/45/25 34/46/25
f 34/46/26 33/45/26 35/47/26 36/48/26
f 36/48/27 35/47/27 30/42/27 29/41/27
f 32/44/29 34/46/29 36/48/29 29/41/29
f 33/45/30 31/43/30 30/42/30 35/47/30
f 37/49/29 38/50/29 39/51/29 40/52/29
f 40/52/25 39/51/25 41/53/25 42/54/25
f 42/54/30 41/53/30 43/55/30 44/56/30
f 44/56/27 43/55/27 38/57/27 37/58/27
f 40/59/26 42/54/26 44/56/26 37/60/26
f 41/53/28 39/61/28 38/62/28 43/55/28
