# Blender 4.1.1
# www.blender.org
o Circle
v 0.000000 -0.000000 -0.500000
v -0.191342 -0.000000 -0.461940
v -0.353553 -0.000000 -0.353553
v -0.461940 -0.000000 -0.191342
v -0.500000 0.000000 0.000000
v -0.461940 0.000000 0.191342
v -0.353553 0.000000 0.353553
v -0.191342 0.000000 0.461940
v 0.000000 0.000000 0.500000
v 0.191342 0.000000 0.461940
v 0.353553 0.000000 0.353554
v 0.461940 0.000000 0.191342
v 0.500000 0.000000 0.000000
v 0.461940 -0.000000 -0.191342
v 0.353553 -0.000000 -0.353554
v 0.191341 -0.000000 -0.461940
vn -0.0000 1.0000 -0.0000
vt 0.308658 0.961940
vt 0.146447 0.853553
vt 0.038060 0.691342
vt 0.000000 0.500000
vt 0.038060 0.308658
vt 0.146447 0.146447
vt 0.308658 0.038060
vt 0.500000 0.000000
vt 0.691342 0.038060
vt 0.853553 0.146446
vt 0.961940 0.308658
vt 1.000000 0.500000
vt 0.961940 0.691342
vt 0.853553 0.853554
vt 0.691341 0.961940
vt 0.500000 1.000000
s 0
f 2/1/1 3/2/1 4/3/1 5/4/1 6/5/1 7/6/1 8/7/1 9/8/1 10/9/1 11/10/1 12/11/1 13/12/1 14/13/1 15/14/1 16/15/1 1/16/1
