# Blender v2.91.0 OBJ File: 'cone.blend'
# www.blender.org
mtllib cone.mtl
o Cone
v 0.000000 -0.500000 -0.500000
v 0.250000 -0.500000 -0.433013
v 0.433013 -0.500000 -0.250000
v 0.500000 -0.500000 0.000000
v 0.433013 -0.500000 0.250000
v 0.250000 -0.500000 0.433013
v 0.000000 -0.500000 0.500000
v -0.250000 -0.500000 0.433013
v -0.433013 -0.500000 0.250000
v -0.500000 -0.500000 0.000000
v -0.433013 -0.500000 -0.250000
v -0.250000 -0.500000 -0.433013
v 0.000000 0.500000 0.000000
v 0.000000 -0.500000 -0.500000
v 0.250000 -0.500000 -0.433013
v 0.433013 -0.500000 -0.250000
v 0.500000 -0.500000 0.000000
v 0.433013 -0.500000 0.250000
v 0.250000 -0.500000 0.433013
v 0.000000 -0.500000 0.500000
v -0.250000 -0.500000 0.433013
v -0.433013 -0.500000 0.250000
v -0.500000 -0.500000 0.000000
v -0.433013 -0.500000 -0.250000
v -0.250000 -0.500000 -0.433013
vt 0.250000 0.490000
vt 0.250000 0.250000
vt 0.370000 0.457846
vt 0.457846 0.370000
vt 0.490000 0.250000
vt 0.457846 0.130000
vt 0.370000 0.042154
vt 0.250000 0.010000
vt 0.130000 0.042154
vt 0.042154 0.130000
vt 0.010000 0.250000
vt 0.042154 0.370000
vt 0.750000 0.490000
vt 0.870000 0.457846
vt 0.957846 0.370000
vt 0.990000 0.250000
vt 0.957846 0.130000
vt 0.870000 0.042154
vt 0.750000 0.010000
vt 0.630000 0.042154
vt 0.542154 0.130000
vt 0.510000 0.250000
vt 0.542154 0.370000
vt 0.630000 0.457846
vt 0.130000 0.457846
vn 0.0000 0.4472 -0.8944
vn 0.0000 1.0000 0.0000
vn 0.4472 0.4472 -0.7746
vn 0.7746 0.4472 -0.4472
vn 0.8944 0.4472 0.0000
vn 0.7746 0.4472 0.4472
vn 0.4472 0.4472 0.7746
vn 0.0000 0.4472 0.8944
vn -0.4472 0.4472 0.7746
vn -0.7746 0.4472 0.4472
vn -0.8944 0.4472 0.0000
vn -0.7746 0.4472 -0.4472
vn 0.0000 -1.0000 0.0000
vn -0.4472 0.4472 -0.7746
usemtl None
s 1
f 14/1/1 13/2/2 15/3/3
f 15/3/3 13/2/2 16/4/4
f 16/4/4 13/2/2 17/5/5
f 17/5/5 13/2/2 18/6/6
f 18/6/6 13/2/2 19/7/7
f 19/7/7 13/2/2 20/8/8
f 20/8/8 13/2/2 21/9/9
f 21/9/9 13/2/2 22/10/10
f 22/10/10 13/2/2 23/11/11
f 23/11/11 13/2/2 24/12/12
f 1/13/13 2/14/13 3/15/13 4/16/13 5/17/13 6/18/13 7/19/13 8/20/13 9/21/13 10/22/13 11/23/13 25/24/13
f 24/12/12 13/2/2 12/25/14
f 12/25/14 13/2/2 14/1/1
