# Blender v2.91.0 OBJ File: 'flat_cylinder.blend'
# www.blender.org
mtllib flat_cylinder.mtl
o Cylinder
v 0.000000 -0.500000 -0.500000
v 0.000000 0.500000 -0.500000
v 0.250000 -0.500000 -0.433013
v 0.250000 0.500000 -0.433013
v 0.433013 -0.500000 -0.250000
v 0.433013 0.500000 -0.250000
v 0.500000 -0.500000 0.000000
v 0.500000 0.500000 0.000000
v 0.433013 -0.500000 0.250000
v 0.433013 0.500000 0.250000
v 0.250000 -0.500000 0.433013
v 0.250000 0.500000 0.433013
v 0.000000 -0.500000 0.500000
v 0.000000 0.500000 0.500000
v -0.250000 -0.500000 0.433013
v -0.250000 0.500000 0.433013
v -0.433013 -0.500000 0.250000
v -0.433013 0.500000 0.250000
v -0.500000 -0.500000 0.000000
v -0.500000 0.500000 0.000000
v -0.433013 -0.500000 -0.250000
v -0.433013 0.500000 -0.250000
v -0.250000 -0.500000 -0.433013
v -0.250000 0.500000 -0.433013
v 0.000000 -0.500000 -0.500000
v 0.000000 -0.500000 -0.500000
v 0.250000 -0.500000 -0.433013
v 0.250000 -0.500000 -0.433013
v 0.250000 0.500000 -0.433013
v 0.250000 0.500000 -0.433013
v 0.000000 0.500000 -0.500000
v 0.000000 0.500000 -0.500000
v 0.433013 -0.500000 -0.250000
v 0.433013 -0.500000 -0.250000
v 0.433013 0.500000 -0.250000
v 0.433013 0.500000 -0.250000
v 0.500000 -0.500000 0.000000
v 0.500000 -0.500000 0.000000
v 0.500000 0.500000 0.000000
v 0.500000 0.500000 0.000000
v 0.433013 -0.500000 0.250000
v 0.433013 -0.500000 0.250000
v 0.433013 0.500000 0.250000
v 0.433013 0.500000 0.250000
v 0.250000 -0.500000 0.433013
v 0.250000 -0.500000 0.433013
v 0.250000 0.500000 0.433013
v 0.250000 0.500000 0.433013
v 0.000000 -0.500000 0.500000
v 0.000000 -0.500000 0.500000
v 0.000000 0.500000 0.500000
v 0.000000 0.500000 0.500000
v -0.250000 -0.500000 0.433013
v -0.250000 -0.500000 0.433013
v -0.250000 0.500000 0.433013
v -0.250000 0.500000 0.433013
v -0.433013 -0.500000 0.250000
v -0.433013 -0.500000 0.250000
v -0.433013 0.500000 0.250000
v -0.433013 0.500000 0.250000
v -0.500000 -0.500000 0.000000
v -0.500000 -0.500000 0.000000
v -0.500000 0.500000 0.000000
v -0.500000 0.500000 0.000000
v -0.433013 -0.500000 -0.250000
v -0.433013 -0.500000 -0.250000
v -0.433013 0.500000 -0.250000
v -0.433013 0.500000 -0.250000
v -0.250000 -0.500000 -0.433013
v -0.250000 -0.500000 -0.433013
v -0.250000 0.500000 -0.433013
v -0.250000 0.500000 -0.433013
vt 1.000000 0.500000
vt 1.000000 1.000000
vt 0.916667 1.000000
vt 0.916667 0.500000
vt 0.916667 0.500000
vt 0.916667 1.000000
vt 0.833333 1.000000
vt 0.833333 0.500000
vt 0.833333 0.500000
vt 0.833333 1.000000
vt 0.750000 1.000000
vt 0.750000 0.500000
vt 0.750000 0.500000
vt 0.750000 1.000000
vt 0.666667 1.000000
vt 0.666667 0.500000
vt 0.666667 0.500000
vt 0.666667 1.000000
vt 0.583333 1.000000
vt 0.583333 0.500000
vt 0.583333 0.500000
vt 0.583333 1.000000
vt 0.500000 1.000000
vt 0.500000 0.500000
vt 0.500000 0.500000
vt 0.500000 1.000000
vt 0.416667 1.000000
vt 0.416667 0.500000
vt 0.416667 0.500000
vt 0.416667 1.000000
vt 0.333333 1.000000
vt 0.333333 0.500000
vt 0.333333 0.500000
vt 0.333333 1.000000
vt 0.250000 1.000000
vt 0.250000 0.500000
vt 0.250000 0.500000
vt 0.250000 1.000000
vt 0.166667 1.000000
vt 0.166667 0.500000
vt 0.370000 0.457846
vt 0.250000 0.490000
vt 0.130000 0.457846
vt 0.042154 0.370000
vt 0.010000 0.250000
vt 0.042154 0.130000
vt 0.130000 0.042154
vt 0.250000 0.010000
vt 0.370000 0.042154
vt 0.457846 0.130000
vt 0.490000 0.250000
vt 0.457846 0.370000
vt 0.166667 0.500000
vt 0.166667 1.000000
vt 0.083333 1.000000
vt 0.083333 0.500000
vt 0.083333 0.500000
vt 0.083333 1.000000
vt 0.000000 1.000000
vt 0.000000 0.500000
vt 0.750000 0.490000
vt 0.870000 0.457846
vt 0.957846 0.370000
vt 0.990000 0.250000
vt 0.957846 0.130000
vt 0.870000 0.042154
vt 0.750000 0.010000
vt 0.630000 0.042154
vt 0.542154 0.130000
vt 0.510000 0.250000
vt 0.542154 0.370000
vt 0.630000 0.457846
vn 0.2588 0.0000 -0.9659
vn 0.7071 0.0000 -0.7071
vn 0.9659 0.0000 -0.2588
vn 0.9659 0.0000 0.2588
vn 0.7071 0.0000 0.7071
vn 0.2588 0.0000 0.9659
vn -0.2588 0.0000 0.9659
vn -0.7071 0.0000 0.7071
vn -0.9659 0.0000 0.2588
vn -0.9659 0.0000 -0.2588
vn 0.0000 1.0000 0.0000
vn -0.7071 0.0000 -0.7071
vn -0.2588 0.0000 -0.9659
vn 0.0000 -1.0000 0.0000
usemtl None
s 1
f 25/1/1 31/2/1 29/3/1 27/4/1
f 28/5/2 30/6/2 35/7/2 33/8/2
f 34/9/3 36/10/3 39/11/3 37/12/3
f 38/13/4 40/14/4 43/15/4 41/16/4
f 42/17/5 44/18/5 47/19/5 45/20/5
f 46/21/6 48/22/6 51/23/6 49/24/6
f 50/25/7 52/26/7 55/27/7 53/28/7
f 54/29/8 56/30/8 59/31/8 57/32/8
f 58/33/9 60/34/9 63/35/9 61/36/9
f 62/37/10 64/38/10 67/39/10 65/40/10
f 4/41/11 32/42/11 71/43/11 68/44/11 20/45/11 18/46/11 16/47/11 14/48/11 12/49/11 10/50/11 8/51/11 6/52/11
f 66/53/12 22/54/12 72/55/12 69/56/12
f 70/57/13 24/58/13 2/59/13 26/60/13
f 1/61/14 3/62/14 5/63/14 7/64/14 9/65/14 11/66/14 13/67/14 15/68/14 17/69/14 19/70/14 21/71/14 23/72/14
