# Blender v2.83.1 OBJ File: ''
# www.blender.org
mtllib plane.mtl
o Plane
v 29.122221 0.000005 -29.122221
v -29.122221 0.000005 -29.122221
v -29.122221 -0.000005 29.122221
v 29.122221 -0.000005 29.122221
v 29.122221 -0.449995 -29.122221
v 29.122221 -0.450005 29.122221
v -29.122221 -0.450005 29.122221
v -29.122221 -0.449995 -29.122221
v 29.122221 0.000003 -17.473331
v 29.122221 0.000001 -5.824444
v 29.122221 -0.000001 5.824444
v 29.122221 -0.000003 17.473331
v 17.473331 0.000005 -29.122221
v 5.824444 0.000005 -29.122221
v -5.824444 0.000005 -29.122221
v -17.473331 0.000005 -29.122221
v -29.122221 0.000003 -17.473331
v -29.122221 0.000001 -5.824444
v -29.122221 -0.000001 5.824444
v -29.122221 -0.000003 17.473331
v -17.473331 -0.000005 29.122221
v -5.824444 -0.000005 29.122221
v 5.824444 -0.000005 29.122221
v 17.473331 -0.000005 29.122221
v 17.473331 0.000003 -17.473331
v 17.473331 0.000001 -5.824444
v 17.473331 -0.000001 5.824444
v 17.473331 -0.000003 17.473331
v 5.824444 0.000003 -17.473331
v 5.824444 0.000001 -5.824444
v 5.824444 -0.000001 5.824444
v 5.824444 -0.000003 17.473331
v -5.824444 0.000003 -17.473331
v -5.824444 0.000001 -5.824444
v -5.824444 -0.000001 5.824444
v -5.824444 -0.000003 17.473331
v -17.473331 0.000003 -17.473331
v -17.473331 0.000001 -5.824444
v -17.473331 -0.000001 5.824444
v -17.473331 -0.000003 17.473331
v 17.473331 -0.449995 -29.122221
v 5.824444 -0.449995 -29.122221
v -5.824444 -0.449995 -29.122221
v -17.473331 -0.449995 -29.122221
v 29.122221 -0.449997 -17.473331
v 29.122221 -0.449999 -5.824444
v 29.122221 -0.450001 5.824444
v 29.122221 -0.450003 17.473331
v 17.473331 -0.450005 29.122221
v 5.824444 -0.450005 29.122221
v -5.824444 -0.450005 29.122221
v -17.473331 -0.450005 29.122221
v -29.122221 -0.450003 17.473331
v -29.122221 -0.450001 5.824444
v -29.122221 -0.449999 -5.824444
v -29.122221 -0.449997 -17.473331
v 17.473331 -0.449997 -17.473331
v 5.824444 -0.449997 -17.473331
v -5.824444 -0.449997 -17.473331
v -17.473331 -0.449997 -17.473331
v 17.473331 -0.449999 -5.824444
v 5.824444 -0.449999 -5.824444
v -5.824444 -0.449999 -5.824444
v -17.473331 -0.449999 -5.824444
v 17.473331 -0.450001 5.824444
v 5.824444 -0.450001 5.824444
v -5.824444 -0.450001 5.824444
v -17.473331 -0.450001 5.824444
v 17.473331 -0.450003 17.473331
v 5.824444 -0.450003 17.473331
v -5.824444 -0.450003 17.473331
v -17.473331 -0.450003 17.473331
v 29.122221 -0.000004 23.297775
v -23.297775 0.000005 -29.122221
v -29.122221 -0.000004 23.297775
v 23.297775 -0.000005 29.122221
v 29.122221 0.000004 -23.297775
v 29.122221 0.000002 -11.648888
v 29.122221 0.000000 0.000000
v 29.122221 -0.000002 11.648888
v 23.297775 0.000005 -29.122221
v 11.648888 0.000005 -29.122221
v 0.000000 0.000005 -29.122221
v -11.648888 0.000005 -29.122221
v -29.122221 0.000004 -23.297775
v -29.122221 0.000002 -11.648888
v -29.122221 0.000000 0.000000
v -29.122221 -0.000002 11.648888
v -23.297775 -0.000005 29.122221
v -11.648888 -0.000005 29.122221
v 0.000000 -0.000005 29.122221
v 11.648888 -0.000005 29.122221
v 17.473331 -0.000004 23.297775
v 17.473331 0.000004 -23.297775
v 17.473331 0.000002 -11.648888
v 17.473331 0.000000 0.000000
v 17.473331 -0.000002 11.648888
v 5.824444 -0.000004 23.297775
v 5.824444 0.000004 -23.297775
v 5.824444 0.000002 -11.648888
v 5.824444 0.000000 0.000000
v 5.824444 -0.000002 11.648888
v -5.824444 -0.000004 23.297775
v -5.824444 0.000004 -23.297775
v -5.824444 0.000002 -11.648888
v -5.824444 0.000000 0.000000
v -5.824444 -0.000002 11.648888
v -17.473331 -0.000004 23.297775
v -17.473331 0.000004 -23.297775
v -17.473331 0.000002 -11.648888
v -17.473331 0.000000 0.000000
v -17.473331 -0.000002 11.648888
v 23.297775 0.000003 -17.473331
v 23.297775 0.000001 -5.824444
v 23.297775 -0.000001 5.824444
v 23.297775 -0.000003 17.473331
v 11.648888 0.000003 -17.473331
v 11.648888 0.000001 -5.824444
v 11.648888 -0.000001 5.824444
v 11.648888 -0.000003 17.473331
v 0.000000 0.000003 -17.473331
v 0.000000 0.000001 -5.824444
v 0.000000 -0.000001 5.824444
v 0.000000 -0.000003 17.473331
v -11.648888 0.000003 -17.473331
v -11.648888 0.000001 -5.824444
v -11.648888 -0.000001 5.824444
v -11.648888 -0.000003 17.473331
v -23.297775 0.000003 -17.473331
v -23.297775 0.000001 -5.824444
v -23.297775 -0.000001 5.824444
v -23.297775 -0.000003 17.473331
v -23.297775 -0.000002 11.648888
v -23.297775 0.000000 0.000000
v -23.297775 0.000002 -11.648888
v -23.297775 0.000004 -23.297775
v -11.648888 -0.000002 11.648888
v -11.648888 0.000000 0.000000
v -11.648888 0.000002 -11.648888
v -11.648888 0.000004 -23.297775
v 0.000000 -0.000002 11.648888
v 0.000000 0.000000 0.000000
v 0.000000 0.000002 -11.648888
v 0.000000 0.000004 -23.297775
v 11.648888 -0.000002 11.648888
v 11.648888 0.000000 0.000000
v 11.648888 0.000002 -11.648888
v 11.648888 0.000004 -23.297775
v 23.297775 -0.000002 11.648888
v 23.297775 0.000000 0.000000
v 23.297775 0.000002 -11.648888
v 23.297775 0.000004 -23.297775
v -11.648888 -0.000004 23.297775
v 0.000000 -0.000004 23.297775
v 11.648888 -0.000004 23.297775
v 23.297775 -0.000004 23.297775
v -23.297775 -0.000004 23.297775
v -23.297775 -0.449995 -29.122221
v 29.122221 -0.450004 23.297775
v -23.297775 -0.450005 29.122221
v -29.122221 -0.449996 -23.297775
v 23.297775 -0.449995 -29.122221
v 11.648888 -0.449995 -29.122221
v 0.000000 -0.449995 -29.122221
v -11.648888 -0.449995 -29.122221
v 29.122221 -0.449996 -23.297775
v 29.122221 -0.449998 -11.648888
v 29.122221 -0.450000 -0.000000
v 29.122221 -0.450002 11.648888
v 23.297775 -0.450005 29.122221
v 11.648888 -0.450005 29.122221
v 0.000000 -0.450005 29.122221
v -11.648888 -0.450005 29.122221
v -29.122221 -0.450004 23.297775
v -29.122221 -0.450002 11.648888
v -29.122221 -0.450000 -0.000000
v -29.122221 -0.449998 -11.648888
v -23.297775 -0.449997 -17.473331
v 23.297775 -0.449997 -17.473331
v 11.648888 -0.449997 -17.473331
v 0.000000 -0.449997 -17.473331
v -11.648888 -0.449997 -17.473331
v -23.297775 -0.449999 -5.824444
v 23.297775 -0.449999 -5.824444
v 11.648888 -0.449999 -5.824444
v 0.000000 -0.449999 -5.824444
v -11.648888 -0.449999 -5.824444
v -23.297775 -0.450001 5.824444
v 23.297775 -0.450001 5.824444
v 11.648888 -0.450001 5.824444
v 0.000000 -0.450001 5.824444
v -11.648888 -0.450001 5.824444
v -23.297775 -0.450003 17.473331
v 23.297775 -0.450003 17.473331
v 11.648888 -0.450003 17.473331
v 0.000000 -0.450003 17.473331
v -11.648888 -0.450003 17.473331
v 17.473331 -0.449996 -23.297775
v 5.824444 -0.449996 -23.297775
v -5.824444 -0.449996 -23.297775
v -17.473331 -0.449996 -23.297775
v 17.473331 -0.449998 -11.648888
v 5.824444 -0.449998 -11.648888
v -5.824444 -0.449998 -11.648888
v -17.473331 -0.449998 -11.648888
v 17.473331 -0.450000 -0.000000
v 5.824444 -0.450000 -0.000000
v -5.824444 -0.450000 -0.000000
v -17.473331 -0.450000 -0.000000
v 17.473331 -0.450002 11.648888
v 5.824444 -0.450002 11.648888
v -5.824444 -0.450002 11.648888
v -17.473331 -0.450002 11.648888
v 17.473331 -0.450004 23.297775
v 5.824444 -0.450004 23.297775
v -5.824444 -0.450004 23.297775
v -17.473331 -0.450004 23.297775
v -11.648888 -0.450004 23.297775
v 0.000000 -0.450004 23.297775
v 11.648888 -0.450004 23.297775
v 23.297775 -0.450004 23.297775
v -11.648888 -0.450002 11.648888
v 0.000000 -0.450002 11.648888
v 11.648888 -0.450002 11.648888
v 23.297775 -0.450002 11.648888
v -11.648888 -0.450000 -0.000000
v 0.000000 -0.450000 -0.000000
v 11.648888 -0.450000 -0.000000
v 23.297775 -0.450000 -0.000000
v -11.648888 -0.449998 -11.648888
v 0.000000 -0.449998 -11.648888
v 11.648888 -0.449998 -11.648888
v 23.297775 -0.449998 -11.648888
v -11.648888 -0.449996 -23.297775
v 0.000000 -0.449996 -23.297775
v 11.648888 -0.449996 -23.297775
v 23.297775 -0.449996 -23.297775
v -23.297775 -0.450002 11.648888
v -23.297775 -0.450000 -0.000000
v -23.297775 -0.449998 -11.648888
v -23.297775 -0.449996 -23.297775
v -23.297775 -0.450004 23.297775
vt 0.900000 0.900000
vt 1.000000 0.900000
vt 1.000000 1.000000
vt 0.900000 1.000000
vt 0.900000 0.900000
vt 0.900000 1.000000
vt 1.000000 1.000000
vt 1.000000 0.900000
vt 0.000000 0.000000
vt 0.000000 0.100000
vt 0.000000 0.200000
vt 0.000000 0.300000
vt 0.000000 0.400000
vt 0.000000 0.500000
vt 0.000000 0.600000
vt 0.000000 0.700000
vt 0.000000 0.800000
vt 0.000000 0.900000
vt 0.000000 1.000000
vt 0.000000 1.000000
vt 0.000000 0.900000
vt 0.000000 0.800000
vt 0.000000 0.700000
vt 0.000000 0.600000
vt 0.000000 0.500000
vt 0.000000 0.400000
vt 0.000000 0.300000
vt 0.000000 0.200000
vt 0.000000 0.100000
vt 0.000000 0.000000
vt 1.000000 0.000000
vt 0.900000 0.000000
vt 0.800000 0.000000
vt 0.700000 0.000000
vt 0.600000 0.000000
vt 0.500000 0.000000
vt 0.400000 0.000000
vt 0.300000 0.000000
vt 0.200000 0.000000
vt 0.100000 0.000000
vt 0.100000 0.000000
vt 0.200000 0.000000
vt 0.300000 0.000000
vt 0.400000 0.000000
vt 0.500000 0.000000
vt 0.600000 0.000000
vt 0.700000 0.000000
vt 0.800000 0.000000
vt 0.900000 0.000000
vt 1.000000 0.000000
vt 1.000000 0.800000
vt 1.000000 0.700000
vt 1.000000 0.600000
vt 1.000000 0.500000
vt 1.000000 0.400000
vt 1.000000 0.300000
vt 1.000000 0.200000
vt 1.000000 0.100000
vt 1.000000 0.100000
vt 1.000000 0.200000
vt 1.000000 0.300000
vt 1.000000 0.400000
vt 1.000000 0.500000
vt 1.000000 0.600000
vt 1.000000 0.700000
vt 1.000000 0.800000
vt 0.100000 1.000000
vt 0.200000 1.000000
vt 0.300000 1.000000
vt 0.400000 1.000000
vt 0.500000 1.000000
vt 0.600000 1.000000
vt 0.700000 1.000000
vt 0.800000 1.000000
vt 0.800000 1.000000
vt 0.700000 1.000000
vt 0.600000 1.000000
vt 0.500000 1.000000
vt 0.400000 1.000000
vt 0.300000 1.000000
vt 0.200000 1.000000
vt 0.100000 1.000000
vt 0.100000 0.900000
vt 0.200000 0.900000
vt 0.300000 0.900000
vt 0.400000 0.900000
vt 0.500000 0.900000
vt 0.600000 0.900000
vt 0.700000 0.900000
vt 0.800000 0.900000
vt 0.100000 0.100000
vt 0.200000 0.100000
vt 0.200000 0.200000
vt 0.100000 0.200000
vt 0.100000 0.300000
vt 0.200000 0.300000
vt 0.200000 0.400000
vt 0.100000 0.400000
vt 0.100000 0.500000
vt 0.200000 0.500000
vt 0.200000 0.600000
vt 0.100000 0.600000
vt 0.100000 0.700000
vt 0.200000 0.700000
vt 0.200000 0.800000
vt 0.100000 0.800000
vt 0.300000 0.100000
vt 0.400000 0.100000
vt 0.400000 0.200000
vt 0.300000 0.200000
vt 0.300000 0.300000
vt 0.400000 0.300000
vt 0.400000 0.400000
vt 0.300000 0.400000
vt 0.300000 0.500000
vt 0.400000 0.500000
vt 0.400000 0.600000
vt 0.300000 0.600000
vt 0.300000 0.700000
vt 0.400000 0.700000
vt 0.400000 0.800000
vt 0.300000 0.800000
vt 0.500000 0.100000
vt 0.600000 0.100000
vt 0.600000 0.200000
vt 0.500000 0.200000
vt 0.500000 0.300000
vt 0.600000 0.300000
vt 0.600000 0.400000
vt 0.500000 0.400000
vt 0.500000 0.500000
vt 0.600000 0.500000
vt 0.600000 0.600000
vt 0.500000 0.600000
vt 0.500000 0.700000
vt 0.600000 0.700000
vt 0.600000 0.800000
vt 0.500000 0.800000
vt 0.700000 0.100000
vt 0.800000 0.100000
vt 0.800000 0.200000
vt 0.700000 0.200000
vt 0.700000 0.300000
vt 0.800000 0.300000
vt 0.800000 0.400000
vt 0.700000 0.400000
vt 0.700000 0.500000
vt 0.800000 0.500000
vt 0.800000 0.600000
vt 0.700000 0.600000
vt 0.700000 0.700000
vt 0.800000 0.700000
vt 0.800000 0.800000
vt 0.700000 0.800000
vt 0.900000 0.100000
vt 0.900000 0.200000
vt 0.900000 0.300000
vt 0.900000 0.400000
vt 0.900000 0.500000
vt 0.900000 0.600000
vt 0.900000 0.700000
vt 0.900000 0.800000
vt 0.900000 0.100000
vt 0.900000 0.200000
vt 0.900000 0.300000
vt 0.900000 0.400000
vt 0.900000 0.500000
vt 0.900000 0.600000
vt 0.900000 0.700000
vt 0.900000 0.800000
vt 0.100000 0.100000
vt 0.100000 0.200000
vt 0.200000 0.200000
vt 0.200000 0.100000
vt 0.300000 0.100000
vt 0.300000 0.200000
vt 0.400000 0.200000
vt 0.400000 0.100000
vt 0.500000 0.100000
vt 0.500000 0.200000
vt 0.600000 0.200000
vt 0.600000 0.100000
vt 0.700000 0.100000
vt 0.700000 0.200000
vt 0.800000 0.200000
vt 0.800000 0.100000
vt 0.100000 0.300000
vt 0.100000 0.400000
vt 0.200000 0.400000
vt 0.200000 0.300000
vt 0.300000 0.300000
vt 0.300000 0.400000
vt 0.400000 0.400000
vt 0.400000 0.300000
vt 0.500000 0.300000
vt 0.500000 0.400000
vt 0.600000 0.400000
vt 0.600000 0.300000
vt 0.700000 0.300000
vt 0.700000 0.400000
vt 0.800000 0.400000
vt 0.800000 0.300000
vt 0.100000 0.500000
vt 0.100000 0.600000
vt 0.200000 0.600000
vt 0.200000 0.500000
vt 0.300000 0.500000
vt 0.300000 0.600000
vt 0.400000 0.600000
vt 0.400000 0.500000
vt 0.500000 0.500000
vt 0.500000 0.600000
vt 0.600000 0.600000
vt 0.600000 0.500000
vt 0.700000 0.500000
vt 0.700000 0.600000
vt 0.800000 0.600000
vt 0.800000 0.500000
vt 0.100000 0.700000
vt 0.100000 0.800000
vt 0.200000 0.800000
vt 0.200000 0.700000
vt 0.300000 0.700000
vt 0.300000 0.800000
vt 0.400000 0.800000
vt 0.400000 0.700000
vt 0.500000 0.700000
vt 0.500000 0.800000
vt 0.600000 0.800000
vt 0.600000 0.700000
vt 0.700000 0.700000
vt 0.700000 0.800000
vt 0.800000 0.800000
vt 0.800000 0.700000
vt 0.100000 0.900000
vt 0.200000 0.900000
vt 0.300000 0.900000
vt 0.400000 0.900000
vt 0.500000 0.900000
vt 0.600000 0.900000
vt 0.700000 0.900000
vt 0.800000 0.900000
vn 0.0000 1.0000 0.0000
vn 0.0000 -1.0000 -0.0000
vn 1.0000 -0.0000 0.0000
vn 0.0000 0.0000 -1.0000
vn -1.0000 -0.0000 0.0000
vn 0.0000 0.0000 1.0000
usemtl None
s 1
f 157/1/1 75/2/1 3/3/1 89/4/1
f 242/5/2 160/6/2 7/7/2 174/8/2
f 1/9/3 77/10/3 9/11/3 78/12/3 10/13/3 79/14/3 11/15/3 80/16/3 12/17/3 73/18/3 4/19/3 6/20/3 159/21/3 48/22/3 169/23/3 47/24/3 168/25/3 46/26/3 167/27/3 45/28/3 166/29/3 5/30/3
f 2/31/4 74/32/4 16/33/4 84/34/4 15/35/4 83/36/4 14/37/4 82/38/4 13/39/4 81/40/4 1/9/4 5/30/4 162/41/4 41/42/4 163/43/4 42/44/4 164/45/4 43/46/4 165/47/4 44/48/4 158/49/4 8/50/4
f 3/3/5 75/2/5 20/51/5 88/52/5 19/53/5 87/54/5 18/55/5 86/56/5 17/57/5 85/58/5 2/31/5 8/50/5 161/59/5 56/60/5 177/61/5 55/62/5 176/63/5 54/64/5 175/65/5 53/66/5 174/8/5 7/7/5
f 4/19/6 76/67/6 24/68/6 92/69/6 23/70/6 91/71/6 22/72/6 90/73/6 21/74/6 89/4/6 3/3/6 7/7/6 160/6/6 52/75/6 173/76/6 51/77/6 172/78/6 50/79/6 171/80/6 49/81/6 170/82/6 6/20/6
f 156/83/1 93/84/1 24/68/1 76/67/1
f 155/85/1 98/86/1 23/70/1 92/69/1
f 154/87/1 103/88/1 22/72/1 91/71/1
f 153/89/1 108/90/1 21/74/1 90/73/1
f 152/91/1 94/92/1 25/93/1 113/94/1
f 151/95/1 95/96/1 26/97/1 114/98/1
f 150/99/1 96/100/1 27/101/1 115/102/1
f 149/103/1 97/104/1 28/105/1 116/106/1
f 148/107/1 99/108/1 29/109/1 117/110/1
f 147/111/1 100/112/1 30/113/1 118/114/1
f 146/115/1 101/116/1 31/117/1 119/118/1
f 145/119/1 102/120/1 32/121/1 120/122/1
f 144/123/1 104/124/1 33/125/1 121/126/1
f 143/127/1 105/128/1 34/129/1 122/130/1
f 142/131/1 106/132/1 35/133/1 123/134/1
f 141/135/1 107/136/1 36/137/1 124/138/1
f 140/139/1 109/140/1 37/141/1 125/142/1
f 139/143/1 110/144/1 38/145/1 126/146/1
f 138/147/1 111/148/1 39/149/1 127/150/1
f 137/151/1 112/152/1 40/153/1 128/154/1
f 136/155/1 85/58/1 17/57/1 129/156/1
f 135/157/1 86/56/1 18/55/1 130/158/1
f 134/159/1 87/54/1 19/53/1 131/160/1
f 133/161/1 88/52/1 20/51/1 132/162/1
f 241/163/2 178/164/2 56/60/2 161/59/2
f 240/165/2 183/166/2 55/62/2 177/61/2
f 239/167/2 188/168/2 54/64/2 176/63/2
f 238/169/2 193/170/2 53/66/2 175/65/2
f 237/171/2 179/172/2 57/173/2 198/174/2
f 236/175/2 180/176/2 58/177/2 199/178/2
f 235/179/2 181/180/2 59/181/2 200/182/2
f 234/183/2 182/184/2 60/185/2 201/186/2
f 233/187/2 184/188/2 61/189/2 202/190/2
f 232/191/2 185/192/2 62/193/2 203/194/2
f 231/195/2 186/196/2 63/197/2 204/198/2
f 230/199/2 187/200/2 64/201/2 205/202/2
f 229/203/2 189/204/2 65/205/2 206/206/2
f 228/207/2 190/208/2 66/209/2 207/210/2
f 227/211/2 191/212/2 67/213/2 208/214/2
f 226/215/2 192/216/2 68/217/2 209/218/2
f 225/219/2 194/220/2 69/221/2 210/222/2
f 224/223/2 195/224/2 70/225/2 211/226/2
f 223/227/2 196/228/2 71/229/2 212/230/2
f 222/231/2 197/232/2 72/233/2 213/234/2
f 221/235/2 170/82/2 49/81/2 214/236/2
f 220/237/2 171/80/2 50/79/2 215/238/2
f 219/239/2 172/78/2 51/77/2 216/240/2
f 218/241/2 173/76/2 52/75/2 217/242/2
f 112/152/1 133/161/1 132/162/1 40/153/1
f 39/149/1 131/160/1 133/161/1 112/152/1
f 131/160/1 19/53/1 88/52/1 133/161/1
f 111/148/1 134/159/1 131/160/1 39/149/1
f 38/145/1 130/158/1 134/159/1 111/148/1
f 130/158/1 18/55/1 87/54/1 134/159/1
f 110/144/1 135/157/1 130/158/1 38/145/1
f 37/141/1 129/156/1 135/157/1 110/144/1
f 129/156/1 17/57/1 86/56/1 135/157/1
f 109/140/1 136/155/1 129/156/1 37/141/1
f 16/33/1 74/32/1 136/155/1 109/140/1
f 74/32/1 2/31/1 85/58/1 136/155/1
f 107/136/1 137/151/1 128/154/1 36/137/1
f 35/133/1 127/150/1 137/151/1 107/136/1
f 127/150/1 39/149/1 112/152/1 137/151/1
f 106/132/1 138/147/1 127/150/1 35/133/1
f 34/129/1 126/146/1 138/147/1 106/132/1
f 126/146/1 38/145/1 111/148/1 138/147/1
f 105/128/1 139/143/1 126/146/1 34/129/1
f 33/125/1 125/142/1 139/143/1 105/128/1
f 125/142/1 37/141/1 110/144/1 139/143/1
f 104/124/1 140/139/1 125/142/1 33/125/1
f 15/35/1 84/34/1 140/139/1 104/124/1
f 84/34/1 16/33/1 109/140/1 140/139/1
f 102/120/1 141/135/1 124/138/1 32/121/1
f 31/117/1 123/134/1 141/135/1 102/120/1
f 123/134/1 35/133/1 107/136/1 141/135/1
f 101/116/1 142/131/1 123/134/1 31/117/1
f 30/113/1 122/130/1 142/131/1 101/116/1
f 122/130/1 34/129/1 106/132/1 142/131/1
f 100/112/1 143/127/1 122/130/1 30/113/1
f 29/109/1 121/126/1 143/127/1 100/112/1
f 121/126/1 33/125/1 105/128/1 143/127/1
f 99/108/1 144/123/1 121/126/1 29/109/1
f 14/37/1 83/36/1 144/123/1 99/108/1
f 83/36/1 15/35/1 104/124/1 144/123/1
f 97/104/1 145/119/1 120/122/1 28/105/1
f 27/101/1 119/118/1 145/119/1 97/104/1
f 119/118/1 31/117/1 102/120/1 145/119/1
f 96/100/1 146/115/1 119/118/1 27/101/1
f 26/97/1 118/114/1 146/115/1 96/100/1
f 118/114/1 30/113/1 101/116/1 146/115/1
f 95/96/1 147/111/1 118/114/1 26/97/1
f 25/93/1 117/110/1 147/111/1 95/96/1
f 117/110/1 29/109/1 100/112/1 147/111/1
f 94/92/1 148/107/1 117/110/1 25/93/1
f 13/39/1 82/38/1 148/107/1 94/92/1
f 82/38/1 14/37/1 99/108/1 148/107/1
f 80/16/1 149/103/1 116/106/1 12/17/1
f 11/15/1 115/102/1 149/103/1 80/16/1
f 115/102/1 27/101/1 97/104/1 149/103/1
f 79/14/1 150/99/1 115/102/1 11/15/1
f 10/13/1 114/98/1 150/99/1 79/14/1
f 114/98/1 26/97/1 96/100/1 150/99/1
f 78/12/1 151/95/1 114/98/1 10/13/1
f 9/11/1 113/94/1 151/95/1 78/12/1
f 113/94/1 25/93/1 95/96/1 151/95/1
f 77/10/1 152/91/1 113/94/1 9/11/1
f 1/9/1 81/40/1 152/91/1 77/10/1
f 81/40/1 13/39/1 94/92/1 152/91/1
f 103/88/1 153/89/1 90/73/1 22/72/1
f 36/137/1 128/154/1 153/89/1 103/88/1
f 128/154/1 40/153/1 108/90/1 153/89/1
f 98/86/1 154/87/1 91/71/1 23/70/1
f 32/121/1 124/138/1 154/87/1 98/86/1
f 124/138/1 36/137/1 103/88/1 154/87/1
f 93/84/1 155/85/1 92/69/1 24/68/1
f 28/105/1 120/122/1 155/85/1 93/84/1
f 120/122/1 32/121/1 98/86/1 155/85/1
f 73/18/1 156/83/1 76/67/1 4/19/1
f 12/17/1 116/106/1 156/83/1 73/18/1
f 116/106/1 28/105/1 93/84/1 156/83/1
f 108/90/1 157/1/1 89/4/1 21/74/1
f 40/153/1 132/162/1 157/1/1 108/90/1
f 132/162/1 20/51/1 75/2/1 157/1/1
f 197/232/2 218/241/2 217/242/2 72/233/2
f 71/229/2 216/240/2 218/241/2 197/232/2
f 216/240/2 51/77/2 173/76/2 218/241/2
f 196/228/2 219/239/2 216/240/2 71/229/2
f 70/225/2 215/238/2 219/239/2 196/228/2
f 215/238/2 50/79/2 172/78/2 219/239/2
f 195/224/2 220/237/2 215/238/2 70/225/2
f 69/221/2 214/236/2 220/237/2 195/224/2
f 214/236/2 49/81/2 171/80/2 220/237/2
f 194/220/2 221/235/2 214/236/2 69/221/2
f 48/22/2 159/21/2 221/235/2 194/220/2
f 159/21/2 6/20/2 170/82/2 221/235/2
f 192/216/2 222/231/2 213/234/2 68/217/2
f 67/213/2 212/230/2 222/231/2 192/216/2
f 212/230/2 71/229/2 197/232/2 222/231/2
f 191/212/2 223/227/2 212/230/2 67/213/2
f 66/209/2 211/226/2 223/227/2 191/212/2
f 211/226/2 70/225/2 196/228/2 223/227/2
f 190/208/2 224/223/2 211/226/2 66/209/2
f 65/205/2 210/222/2 224/223/2 190/208/2
f 210/222/2 69/221/2 195/224/2 224/223/2
f 189/204/2 225/219/2 210/222/2 65/205/2
f 47/24/2 169/23/2 225/219/2 189/204/2
f 169/23/2 48/22/2 194/220/2 225/219/2
f 187/200/2 226/215/2 209/218/2 64/201/2
f 63/197/2 208/214/2 226/215/2 187/200/2
f 208/214/2 67/213/2 192/216/2 226/215/2
f 186/196/2 227/211/2 208/214/2 63/197/2
f 62/193/2 207/210/2 227/211/2 186/196/2
f 207/210/2 66/209/2 191/212/2 227/211/2
f 185/192/2 228/207/2 207/210/2 62/193/2
f 61/189/2 206/206/2 228/207/2 185/192/2
f 206/206/2 65/205/2 190/208/2 228/207/2
f 184/188/2 229/203/2 206/206/2 61/189/2
f 46/26/2 168/25/2 229/203/2 184/188/2
f 168/25/2 47/24/2 189/204/2 229/203/2
f 182/184/2 230/199/2 205/202/2 60/185/2
f 59/181/2 204/198/2 230/199/2 182/184/2
f 204/198/2 63/197/2 187/200/2 230/199/2
f 181/180/2 231/195/2 204/198/2 59/181/2
f 58/177/2 203/194/2 231/195/2 181/180/2
f 203/194/2 62/193/2 186/196/2 231/195/2
f 180/176/2 232/191/2 203/194/2 58/177/2
f 57/173/2 202/190/2 232/191/2 180/176/2
f 202/190/2 61/189/2 185/192/2 232/191/2
f 179/172/2 233/187/2 202/190/2 57/173/2
f 45/28/2 167/27/2 233/187/2 179/172/2
f 167/27/2 46/26/2 184/188/2 233/187/2
f 165/47/2 234/183/2 201/186/2 44/48/2
f 43/46/2 200/182/2 234/183/2 165/47/2
f 200/182/2 59/181/2 182/184/2 234/183/2
f 164/45/2 235/179/2 200/182/2 43/46/2
f 42/44/2 199/178/2 235/179/2 164/45/2
f 199/178/2 58/177/2 181/180/2 235/179/2
f 163/43/2 236/175/2 199/178/2 42/44/2
f 41/42/2 198/174/2 236/175/2 163/43/2
f 198/174/2 57/173/2 180/176/2 236/175/2
f 162/41/2 237/171/2 198/174/2 41/42/2
f 5/30/2 166/29/2 237/171/2 162/41/2
f 166/29/2 45/28/2 179/172/2 237/171/2
f 188/168/2 238/169/2 175/65/2 54/64/2
f 68/217/2 213/234/2 238/169/2 188/168/2
f 213/234/2 72/233/2 193/170/2 238/169/2
f 183/166/2 239/167/2 176/63/2 55/62/2
f 64/201/2 209/218/2 239/167/2 183/166/2
f 209/218/2 68/217/2 188/168/2 239/167/2
f 178/164/2 240/165/2 177/61/2 56/60/2
f 60/185/2 205/202/2 240/165/2 178/164/2
f 205/202/2 64/201/2 183/166/2 240/165/2
f 158/49/2 241/163/2 161/59/2 8/50/2
f 44/48/2 201/186/2 241/163/2 158/49/2
f 201/186/2 60/185/2 178/164/2 241/163/2
f 193/170/2 242/5/2 174/8/2 53/66/2
f 72/233/2 217/242/2 242/5/2 193/170/2
f 217/242/2 52/75/2 160/6/2 242/5/2
