# Blender v2.91.0 OBJ File: 'canvas.blend'
# www.blender.org
mtllib canvas.mtl
o Cube_Cube.001
v -1.000012 -0.000000 0.007310
v -1.000012 1.000000 0.007310
v -1.000012 -0.000000 -0.007310
v -1.000012 1.000000 -0.007310
v -0.000012 -0.000000 0.007310
v -0.000012 1.000000 0.007310
v -0.000012 -0.000000 -0.007310
v -0.000012 1.000000 -0.007310
v -0.986887 0.013125 0.007310
v -0.986887 0.986875 0.007310
v -0.013137 0.986875 0.007310
v -0.013137 0.013125 0.007310
v -0.986887 0.986875 -0.007310
v -0.986887 0.013125 -0.007310
v -0.013137 0.013125 -0.007310
v -0.013137 0.986875 -0.007310
vt 0.000000 0.000000
vt 1.000000 0.000000
vt 1.000000 1.000000
vt 0.000000 1.000000
vt 0.000000 0.000000
vt 1.000000 0.000000
vt 1.000000 1.000000
vt 0.000000 1.000000
vt 0.000000 0.000000
vt 1.000000 1.000000
vt 0.000000 1.000000
vt 0.000000 0.000000
vt 1.000000 1.000000
vt 0.000000 1.000000
vt 0.000000 0.000000
vt 1.000000 0.000000
vt 1.000000 1.000000
vt 0.000000 1.000000
vt 0.000000 0.000000
vt 1.000000 0.000000
vt 1.000000 1.000000
vt 0.000000 1.000000
vt 0.000000 0.000000
vt 1.000000 0.000000
vt 1.000000 1.000000
vt 0.000000 1.000000
vt 0.000000 0.000000
vt 1.000000 0.000000
vt 1.000000 1.000000
vt 0.000000 1.000000
vt 0.000000 0.000000
vt 1.000000 0.000000
vt 1.000000 1.000000
vt 0.000000 1.000000
vt 1.000000 0.000000
vt 1.000000 1.000000
vt 0.000000 1.000000
vt 1.000000 1.000000
vt 0.000000 1.000000
vt 1.000000 0.000000
vt 1.000000 1.000000
vt 0.000000 1.000000
vt 0.000000 0.000000
vt 1.000000 0.000000
vt 0.000000 0.000000
vt 1.000000 0.000000
vt 1.000000 0.000000
vn -1.0000 0.0000 0.0000
vn 0.0000 0.0000 -1.0000
vn 1.0000 0.0000 0.0000
vn 0.0000 0.0000 1.0000
vn 0.0000 -1.0000 0.0000
vn 0.0000 1.0000 0.0000
usemtl None
s off
f 1/1/1 2/2/1 4/3/1 3/4/1
f 4/5/2 8/6/2 16/7/2 13/8/2
f 7/9/3 8/6/3 6/10/3 5/11/3
f 6/12/4 2/2/4 10/13/4 11/14/4
f 3/15/5 7/16/5 5/17/5 1/18/5
f 8/19/6 4/20/6 2/21/6 6/22/6
f 9/23/6 12/24/6 15/25/6 14/26/6
f 5/27/4 6/28/4 11/29/4 12/30/4
f 2/31/4 1/32/4 9/33/4 10/34/4
f 1/1/4 5/35/4 12/36/4 9/37/4
f 3/15/2 4/20/2 13/38/2 14/26/2
f 8/19/2 7/16/2 15/25/2 16/39/2
f 7/9/2 3/40/2 14/41/2 15/42/2
f 11/43/5 10/44/5 13/38/5 16/39/5
f 12/45/1 11/46/1 16/7/1 15/42/1
f 9/23/3 14/47/3 13/38/3 10/34/3
