# Blender 4.1.1
# www.blender.org
o Sphere
v 0.000000 -0.075000 -0.129904
v 0.129904 0.075000 -0.000000
v 0.129904 -0.075000 0.000000
v 0.000000 0.075000 0.129904
v 0.000000 -0.075000 0.129904
v 0.000000 0.150000 -0.000000
v -0.129904 0.075000 -0.000000
v -0.129904 -0.075000 0.000000
v 0.000000 0.075000 -0.129904
v 0.000000 -0.150000 0.000000
vn 0.4472 -0.7746 -0.4472
vn 0.7071 -0.0000 -0.7071
vn 0.4472 0.7746 -0.4472
vn 0.4472 -0.7746 0.4472
vn 0.7071 -0.0000 0.7071
vn 0.4472 0.7746 0.4472
vn -0.4472 -0.7746 0.4472
vn -0.7071 -0.0000 0.7071
vn -0.4472 0.7746 0.4472
vn -0.4472 -0.7746 -0.4472
vn -0.7071 -0.0000 -0.7071
vn -0.4472 0.7746 -0.4472
vt 0.625000 0.000000
vt 0.750000 0.333333
vt 0.500000 0.333333
vt 0.750000 0.666667
vt 0.500000 0.666667
vt 0.625000 1.000000
vt 0.375000 0.000000
vt 0.250000 0.333333
vt 0.250000 0.666667
vt 0.375000 1.000000
vt 0.125000 0.000000
vt 0.000000 0.333333
vt 0.000000 0.666667
vt 0.125000 1.000000
vt 0.875000 0.000000
vt 1.000000 0.333333
vt 1.000000 0.666667
vt 0.875000 1.000000
s 0
f 10/1/1 1/2/1 3/3/1
f 1/2/2 9/4/2 2/5/2 3/3/2
f 9/4/3 6/6/3 2/5/3
f 10/7/4 3/3/4 5/8/4
f 3/3/5 2/5/5 4/9/5 5/8/5
f 2/5/6 6/10/6 4/9/6
f 10/11/7 5/8/7 8/12/7
f 5/8/8 4/9/8 7/13/8 8/12/8
f 4/9/9 6/14/9 7/13/9
f 10/15/10 8/16/10 1/2/10
f 8/16/11 7/17/11 9/4/11 1/2/11
f 7/17/12 6/18/12 9/4/12
